<?xml version="1.0" encoding="UTF-8" standalone="no"?>
<!DOCTYPE svg PUBLIC "-//W3C//DTD SVG 1.1//EN" "http://www.w3.org/Graphics/SVG/1.1/DTD/svg11.dtd">
<svg xmlns="http://www.w3.org/2000/svg" xmlns:xlink="http://www.w3.org/1999/xlink" version="1.1" width="318.276pt" height="71.221pt" viewBox="0 0 318.276 71.221">
<g enable-background="new">
<path transform="matrix(1,0,0,-1,.398,50.268)" stroke-width=".79701" stroke-linecap="butt" stroke-miterlimit="10" stroke-linejoin="miter" fill="none" stroke="#000000" d="M 0 28.3468 L 317.48286 28.3468 "/>
<path transform="matrix(1,0,0,-1,.398,50.268)" stroke-width=".3985" stroke-linecap="butt" stroke-miterlimit="10" stroke-linejoin="miter" fill="none" stroke="#000000" d="M 0 22.67752 L 0 34.01608 "/>
<path transform="matrix(1,0,0,-1,.398,50.268)" stroke-width=".3985" stroke-linecap="butt" stroke-miterlimit="10" stroke-linejoin="miter" fill="none" stroke="#000000" d="M 317.48286 22.67752 L 317.48286 34.01608 "/>
<path transform="matrix(1,0,0,-1,.398,50.268)" stroke-width=".79701" stroke-linecap="butt" stroke-miterlimit="10" stroke-linejoin="miter" fill="none" stroke="#000000" d="M 0 0 L 317.48286 0 "/>
<path transform="matrix(1,0,0,-1,.398,50.268)" stroke-width=".3985" stroke-linecap="butt" stroke-miterlimit="10" stroke-linejoin="miter" fill="none" stroke="#000000" d="M 0 -5.66927 L 0 5.66927 "/>
<path transform="matrix(1,0,0,-1,.398,50.268)" stroke-width=".3985" stroke-linecap="butt" stroke-miterlimit="10" stroke-linejoin="miter" fill="none" stroke="#000000" d="M 39.68535 -5.66927 L 39.68535 5.66927 "/>
<path transform="matrix(1,0,0,-1,.398,50.268)" stroke-width=".3985" stroke-linecap="butt" stroke-miterlimit="10" stroke-linejoin="miter" fill="none" stroke="#000000" d="M 79.37071 -5.66927 L 79.37071 5.66927 "/>
<path transform="matrix(1,0,0,-1,.398,50.268)" stroke-width=".3985" stroke-linecap="butt" stroke-miterlimit="10" stroke-linejoin="miter" fill="none" stroke="#000000" d="M 119.05606 -5.66927 L 119.05606 5.66927 "/>
<path transform="matrix(1,0,0,-1,.398,50.268)" stroke-width=".3985" stroke-linecap="butt" stroke-miterlimit="10" stroke-linejoin="miter" fill="none" stroke="#000000" d="M 158.74143 -5.66927 L 158.74143 5.66927 "/>
<path transform="matrix(1,0,0,-1,.398,50.268)" stroke-width=".3985" stroke-linecap="butt" stroke-miterlimit="10" stroke-linejoin="miter" fill="none" stroke="#000000" d="M 198.42679 -5.66927 L 198.42679 5.66927 "/>
<path transform="matrix(1,0,0,-1,.398,50.268)" stroke-width=".3985" stroke-linecap="butt" stroke-miterlimit="10" stroke-linejoin="miter" fill="none" stroke="#000000" d="M 238.11215 -5.66927 L 238.11215 5.66927 "/>
<path transform="matrix(1,0,0,-1,.398,50.268)" stroke-width=".3985" stroke-linecap="butt" stroke-miterlimit="10" stroke-linejoin="miter" fill="none" stroke="#000000" d="M 277.79753 -5.66927 L 277.79753 5.66927 "/>
<path transform="matrix(1,0,0,-1,.398,50.268)" stroke-width=".3985" stroke-linecap="butt" stroke-miterlimit="10" stroke-linejoin="miter" fill="none" stroke="#000000" d="M 317.48286 -5.66927 L 317.48286 5.66927 "/>
<symbol id="font_0_2">
<path d="M .205 .64000007 C .205 .66400006 .205 .666 .18200003 .666 C .120000008 .60200008 .032000007 .60200008 0 .60200008 L 0 .57100006 C .020000004 .57100006 .07900001 .57100006 .13100001 .597 L .13100001 .079 C .13100001 .043 .128 .031000002 .038000004 .031000002 L .0060000049 .031000002 L .0060000049 0 C .04100001 .003 .128 .003 .168 .003 C .20800002 .003 .29500003 .003 .33000005 0 L .33000005 .031000002 L .29800005 .031000002 C .20800002 .031000002 .205 .042000005 .205 .079 L .205 .64000007 Z "/>
</symbol>
<symbol id="font_0_7">
<path d="M .14400001 .57000008 L .14400001 .63600006 L 0 .625 L 0 .594 C .07100001 .594 .07800001 .58800008 .07800001 .544 L .07800001 .076 C .07800001 .031000004 .067 .031000004 0 .031000004 L 0 0 C .034 .001000002 .08600001 .0029999912 .112 .0029999912 C .13900002 .0029999912 .19000001 .001000002 .22500003 0 L .22500003 .031000004 C .158 .031000004 .14700002 .031000004 .14700002 .076 L .14700002 .244 L .14700002 .25300003 C .15200001 .237 .19400002 .183 .27 .183 C .38900004 .183 .49300004 .28100003 .49300004 .41000004 C .49300004 .53700008 .39600004 .63600006 .284 .63600006 C .20600002 .63600006 .164 .592 .14400001 .57000008 M .14700002 .30800004 L .14700002 .531 C .17600002 .582 .22500003 .61100009 .27600003 .61100009 C .349 .61100009 .41000004 .523 .41000004 .41000004 C .41000004 .289 .34000004 .20500002 .266 .20500002 C .22600001 .20500002 .18800001 .22500001 .16100002 .266 C .14700002 .287 .14700002 .28800003 .14700002 .30800004 Z "/>
</symbol>
<symbol id="font_0_8">
<path d="M .13900002 .33200003 L .13900002 .44200004 L 0 .43100003 L 0 .4 C .07000001 .4 .07800001 .393 .07800001 .344 L .07800001 .076000008 C .07800001 .031000002 .067 .031000002 0 .031000002 L 0 0 C .039 .001 .08600001 .003 .11400001 .003 C .15400002 .003 .20100002 .003 .24100003 0 L .24100003 .031000002 L .22000002 .031000002 C .14600002 .031000002 .14400001 .042000005 .14400001 .078 L .14400001 .23200001 C .14400001 .33100004 .18600002 .42000003 .26200003 .42000003 C .26900003 .42000003 .27100004 .42000003 .27300004 .41900004 C .27 .418 .25000004 .40600003 .25000004 .38000003 C .25000004 .35200004 .27100004 .337 .293 .337 C .31100003 .337 .33600004 .349 .33600004 .381 C .33600004 .41300003 .305 .44200004 .26200003 .44200004 C .18900001 .44200004 .15300001 .37500004 .13900002 .33200003 Z "/>
</symbol>
<symbol id="font_0_6">
<path d="M .44300003 .22500003 C .44300003 .35300002 .34300003 .45900003 .222 .45900003 C .097 .45900003 0 .35000003 0 .22500003 C 0 .096 .104 0 .22100002 0 C .342 0 .44300003 .098000008 .44300003 .22500003 M .222 .025000003 C .17900002 .025000003 .135 .046 .10800001 .092 C .083000008 .136 .083000008 .19700001 .083000008 .23300003 C .083000008 .272 .083000008 .32600004 .10700001 .37000004 C .134 .41600005 .18100001 .43700005 .22100002 .43700005 C .26500003 .43700005 .30800004 .41500003 .33400003 .37200005 C .36 .32900004 .36 .27100004 .36 .23300003 C .36 .19700001 .36 .143 .33800004 .09900001 C .316 .054 .272 .025000003 .222 .025000003 Z "/>
</symbol>
<symbol id="font_0_5">
<path d="M .14200002 .43100003 L .14200002 .54700008 C .14200002 .63500007 .19 .683 .23400003 .683 C .23700002 .683 .25200004 .683 .26700003 .67600008 C .25500003 .67200008 .23700002 .65900006 .23700002 .634 C .23700002 .611 .25300003 .591 .28000004 .591 C .30900003 .591 .32400004 .611 .32400004 .63500007 C .32400004 .67200008 .28700004 .70500007 .23400003 .70500007 C .164 .70500007 .079 .652 .079 .546 L .079 .43100003 L 0 .43100003 L 0 .4 L .079 .4 L .079 .076000008 C .079 .031000002 .068 .031000002 .001000002 .031000002 L .001000002 0 C .040000008 .001 .087000008 .003 .115 .003 C .155 .003 .20200002 .003 .24200002 0 L .24200002 .031000002 L .22100002 .031000002 C .14700002 .031000002 .14500001 .042000005 .14500001 .078 L .14500001 .4 L .25900004 .4 L .25900004 .43100003 L .14200002 .43100003 Z "/>
</symbol>
<symbol id="font_0_4">
<path d="M .08400001 .263 C .09 .41200004 .17400001 .43700005 .20800002 .43700005 C .31100003 .43700005 .321 .30200003 .321 .263 L .08400001 .263 M .083000008 .24200002 L .36200003 .24200002 C .38400004 .24200002 .38700003 .24200002 .38700003 .263 C .38700003 .36200003 .33300004 .45900003 .20800002 .45900003 C .09200001 .45900003 0 .35600005 0 .23100002 C 0 .097 .105000007 0 .22000002 0 C .342 0 .38700003 .111 .38700003 .13000001 C .38700003 .14000002 .379 .14200002 .374 .14200002 C .365 .14200002 .36300005 .136 .36100004 .128 C .326 .025000003 .236 .025000003 .22600001 .025000003 C .17600002 .025000003 .136 .055000005 .113000009 .092 C .083000008 .14000002 .083000008 .20600002 .083000008 .24200002 Z "/>
</symbol>
<symbol id="font_0_9">
<path d="M .17500001 .20500002 C .197 .20100002 .279 .18500002 .279 .113000009 C .279 .062000004 .24400002 .022000002 .16600001 .022000002 C .082 .022000002 .046000005 .079 .027000003 .16400002 C .024000004 .17700002 .023000002 .18100001 .013000004 .18100001 C 0 .18100001 0 .17400001 0 .15600002 L 0 .024 C 0 .0070000009 0 0 .011000004 0 C .016000003 0 .017 .0010000002 .036000007 .020000002 C .038000004 .022000002 .038000004 .024 .056 .043 C .1 .0010000002 .14500001 0 .16600001 0 C .28100003 0 .32700003 .067 .32700003 .13900002 C .32700003 .19200002 .29700003 .22200002 .28500004 .23400001 C .25200004 .26600004 .213 .27400003 .171 .28200004 C .115 .293 .048 .30600003 .048 .36400003 C .048 .39900003 .07400001 .44000004 .16 .44000004 C .27 .44000004 .27500005 .35000003 .277 .31900005 C .27800004 .31000004 .28700004 .31000004 .28900004 .31000004 C .30200003 .31000004 .30200003 .31500004 .30200003 .33400003 L .30200003 .43500004 C .30200003 .45200003 .30200003 .45900003 .291 .45900003 C .286 .45900003 .284 .45900003 .27100004 .44700004 C .26800005 .44300003 .25800003 .43400003 .254 .43100003 C .21600002 .45900003 .17500001 .45900003 .16 .45900003 C .038000004 .45900003 0 .39200003 0 .33600004 C 0 .30100004 .016000003 .27300004 .043000007 .25100003 C .075 .22500003 .10300001 .21900001 .17500001 .20500002 Z "/>
</symbol>
<use xlink:href="#font_0_2" transform="matrix(9.9626,0,0,-9.9626,136.55667,10.239002)"/>
<use xlink:href="#font_0_7" transform="matrix(9.9626,0,0,-9.9626,144.24779,12.171746)"/>
<use xlink:href="#font_0_8" transform="matrix(9.9626,0,0,-9.9626,149.78699,10.239002)"/>
<use xlink:href="#font_0_6" transform="matrix(9.9626,0,0,-9.9626,153.69232,10.348591)"/>
<use xlink:href="#font_0_5" transform="matrix(9.9626,0,0,-9.9626,158.72344,10.239002)"/>
<use xlink:href="#font_0_4" transform="matrix(9.9626,0,0,-9.9626,161.72217,10.348591)"/>
<use xlink:href="#font_0_9" transform="matrix(9.9626,0,0,-9.9626,166.19539,10.348591)"/>
<use xlink:href="#font_0_9" transform="matrix(9.9626,0,0,-9.9626,170.12065,10.348591)"/>
<use xlink:href="#font_0_6" transform="matrix(9.9626,0,0,-9.9626,173.9961,10.348591)"/>
<use xlink:href="#font_0_8" transform="matrix(9.9626,0,0,-9.9626,178.97739,10.239002)"/>
<symbol id="font_0_a">
<path d="M .15400002 .411 L .29700003 .411 L .29700003 .44200004 L .15400002 .44200004 L .15400002 .626 L .12900001 .626 C .12799999 .544 .098000008 .43700005 0 .43300004 L 0 .411 L .085 .411 L .085 .135 C .085 .012000001 .178 0 .21400002 0 C .28500004 0 .31300003 .071 .31300003 .135 L .31300003 .19200002 L .28800003 .19200002 L .28800003 .13700001 C .28800003 .063 .25800003 .025000003 .22100002 .025000003 C .15400002 .025000003 .15400002 .116000007 .15400002 .13300002 L .15400002 .411 Z "/>
</symbol>
<symbol id="font_0_3">
<path d="M .34600003 .06600001 L .34600003 0 L .493 .011000001 L .493 .042000005 C .423 .042000005 .41500003 .049000004 .41500003 .098000008 L .41500003 .705 L .271 .694 L .271 .663 C .34100003 .663 .349 .656 .349 .607 L .349 .39100004 C .32 .42700003 .277 .45300005 .22299999 .45300005 C .10500001 .45300005 0 .35500003 0 .22600001 C 0 .09900001 .098 0 .21200001 0 C .276 0 .321 .034 .34600003 .06600001 M .34600003 .33400003 L .34600003 .12900001 C .34600003 .111 .34600003 .109000008 .335 .092 C .305 .044 .26 .022000002 .21700001 .022000002 C .17200002 .022000002 .136 .048 .11200001 .086 C .086 .127 .083000008 .18400002 .083000008 .22500003 C .083000008 .26200003 .085 .32200004 .114 .367 C .13500002 .39800004 .17300001 .43100003 .227 .43100003 C .262 .43100003 .30400003 .41600005 .335 .37100003 C .34600003 .35400004 .34600003 .35200004 .34600003 .33400003 Z "/>
</symbol>
<symbol id="font_0_1">
<path d="M .106 .053000004 C .106 .082 .08200001 .106000009 .05300001 .106000009 C .024000004 .106000009 0 .082 0 .053000004 C 0 .024 .024000004 0 .05300001 0 C .08200001 0 .106 .024 .106 .053000004 Z "/>
</symbol>
<use xlink:href="#font_0_2" transform="matrix(9.9626,0,0,-9.9626,8.923671,67.9)"/>
<use xlink:href="#font_0_9" transform="matrix(9.9626,0,0,-9.9626,16.664612,68.00959)"/>
<use xlink:href="#font_0_a" transform="matrix(9.9626,0,0,-9.9626,20.4504,68.00959)"/>
<use xlink:href="#font_0_3" transform="matrix(9.9626,0,0,-9.9626,24.47529,68.00959)"/>
<use xlink:href="#font_0_1" transform="matrix(9.9626,0,0,-9.9626,30.53255,67.9)"/>
<use xlink:href="#font_0_2" transform="matrix(9.9626,0,0,-9.9626,48.607675,67.9)"/>
<use xlink:href="#font_0_9" transform="matrix(9.9626,0,0,-9.9626,56.348615,68.00959)"/>
<use xlink:href="#font_0_a" transform="matrix(9.9626,0,0,-9.9626,60.134405,68.00959)"/>
<use xlink:href="#font_0_3" transform="matrix(9.9626,0,0,-9.9626,64.159297,68.00959)"/>
<use xlink:href="#font_0_1" transform="matrix(9.9626,0,0,-9.9626,70.21655,67.9)"/>
<use xlink:href="#font_0_2" transform="matrix(9.9626,0,0,-9.9626,88.29268,67.9)"/>
<use xlink:href="#font_0_9" transform="matrix(9.9626,0,0,-9.9626,96.033618,68.00959)"/>
<use xlink:href="#font_0_a" transform="matrix(9.9626,0,0,-9.9626,99.819408,68.00959)"/>
<use xlink:href="#font_0_3" transform="matrix(9.9626,0,0,-9.9626,103.84429,68.00959)"/>
<use xlink:href="#font_0_1" transform="matrix(9.9626,0,0,-9.9626,109.90155,67.9)"/>
<use xlink:href="#font_0_2" transform="matrix(9.9626,0,0,-9.9626,127.97768,67.9)"/>
<use xlink:href="#font_0_9" transform="matrix(9.9626,0,0,-9.9626,135.71862,68.00959)"/>
<use xlink:href="#font_0_a" transform="matrix(9.9626,0,0,-9.9626,139.5044,68.00959)"/>
<use xlink:href="#font_0_3" transform="matrix(9.9626,0,0,-9.9626,143.5293,68.00959)"/>
<use xlink:href="#font_0_1" transform="matrix(9.9626,0,0,-9.9626,149.58655,67.9)"/>
<use xlink:href="#font_0_2" transform="matrix(9.9626,0,0,-9.9626,167.66268,67.9)"/>
<use xlink:href="#font_0_9" transform="matrix(9.9626,0,0,-9.9626,175.40361,68.00959)"/>
<use xlink:href="#font_0_a" transform="matrix(9.9626,0,0,-9.9626,179.18939,68.00959)"/>
<use xlink:href="#font_0_3" transform="matrix(9.9626,0,0,-9.9626,183.2143,68.00959)"/>
<use xlink:href="#font_0_1" transform="matrix(9.9626,0,0,-9.9626,189.27155,67.9)"/>
<use xlink:href="#font_0_2" transform="matrix(9.9626,0,0,-9.9626,207.34767,67.9)"/>
<use xlink:href="#font_0_9" transform="matrix(9.9626,0,0,-9.9626,215.08861,68.00959)"/>
<use xlink:href="#font_0_a" transform="matrix(9.9626,0,0,-9.9626,218.87439,68.00959)"/>
<use xlink:href="#font_0_3" transform="matrix(9.9626,0,0,-9.9626,222.89929,68.00959)"/>
<use xlink:href="#font_0_1" transform="matrix(9.9626,0,0,-9.9626,228.95655,67.9)"/>
<use xlink:href="#font_0_2" transform="matrix(9.9626,0,0,-9.9626,247.03267,67.9)"/>
<use xlink:href="#font_0_9" transform="matrix(9.9626,0,0,-9.9626,254.7736,68.00959)"/>
<use xlink:href="#font_0_a" transform="matrix(9.9626,0,0,-9.9626,258.55943,68.00959)"/>
<use xlink:href="#font_0_3" transform="matrix(9.9626,0,0,-9.9626,262.5843,68.00959)"/>
<use xlink:href="#font_0_1" transform="matrix(9.9626,0,0,-9.9626,268.64158,67.9)"/>
<use xlink:href="#font_0_2" transform="matrix(9.9626,0,0,-9.9626,286.71769,67.9)"/>
<use xlink:href="#font_0_9" transform="matrix(9.9626,0,0,-9.9626,294.45863,68.00959)"/>
<use xlink:href="#font_0_a" transform="matrix(9.9626,0,0,-9.9626,298.24443,68.00959)"/>
<use xlink:href="#font_0_3" transform="matrix(9.9626,0,0,-9.9626,302.2693,68.00959)"/>
<use xlink:href="#font_0_1" transform="matrix(9.9626,0,0,-9.9626,308.32658,67.9)"/>
</g>
</svg>
