<?xml version="1.0" encoding="UTF-8" standalone="no"?>
<!DOCTYPE svg PUBLIC "-//W3C//DTD SVG 1.1//EN" "http://www.w3.org/Graphics/SVG/1.1/DTD/svg11.dtd">
<svg xmlns="http://www.w3.org/2000/svg" xmlns:xlink="http://www.w3.org/1999/xlink" version="1.1" width="369.493pt" height="255.516pt" viewBox="0 0 369.493 255.516">
<g enable-background="new">
<path transform="matrix(1,0,0,-1,57.191,226.97)" stroke-width=".99628" stroke-linecap="round" stroke-linejoin="round" fill="none" stroke="#000000" d="M -56.69362 15.09253 L -41.33937 23.73637 L -25.98514 32.38065 L -10.6309 41.02448 L 4.7233 49.66832 L 20.07753 58.31259 L 35.43176 66.95644 L 50.786 75.5994 L 66.14023 84.24324 L 81.49448 92.88795 L 96.8487 101.53178 L 112.20294 110.17563 L 127.55716 118.8199 L 142.9114 127.4633 L 158.26563 136.1067 L 173.61988 144.75098 L 188.9741 153.39482 L 204.32834 162.03823 L 219.68257 170.68294 L 235.0368 179.32677 L 250.39104 187.97061 L 265.74528 196.61446 L 281.0995 205.25829 L 296.45375 213.90213 L 311.80799 222.54596 "/>
<path transform="matrix(1,0,0,-1,57.191,226.97)" stroke-width=".3985" stroke-linecap="round" stroke-linejoin="round" fill="none" stroke="#000000" d="M -56.69362 0 L 311.00596 0 "/>
<path transform="matrix(1,0,0,-1,368.19697,226.97)" d="M -5.20348 2.3356 L .29886 0 L -5.20348 -2.3356 Z "/>
<path transform="matrix(1,0,0,-1,368.19697,226.97)" stroke-width=".3985" stroke-linecap="round" stroke-miterlimit="10" stroke-linejoin="miter" fill="none" stroke="#000000" d="M -5.20348 2.3356 L .29886 0 L -5.20348 -2.3356 Z "/>
<path transform="matrix(1,0,0,-1,57.191,226.97)" stroke-width=".3985" stroke-linecap="round" stroke-linejoin="round" fill="none" stroke="#000000" d="M 0 -28.3468 L 0 225.96553 "/>
<path transform="matrix(0,-1,-1,-0,57.191,1.0044708)" d="M -5.20348 2.3356 L .29886 0 L -5.20348 -2.3356 Z "/>
<path transform="matrix(0,-1,-1,-0,57.191,1.0044708)" stroke-width=".3985" stroke-linecap="round" stroke-miterlimit="10" stroke-linejoin="miter" fill="none" stroke="#000000" d="M -5.20348 2.3356 L .29886 0 L -5.20348 -2.3356 Z "/>
<path transform="matrix(1,0,0,-1,57.191,226.97)" d="M 24.739 60.0951 C 24.739 60.92043 24.06992 61.58951 23.24458 61.58951 C 22.41924 61.58951 21.75017 60.92043 21.75017 60.0951 C 21.75017 59.26974 22.41924 58.60068 23.24458 58.60068 C 24.06992 58.60068 24.739 59.26974 24.739 60.0951 Z M 23.24458 60.0951 " fill="#4d4dff"/>
<path transform="matrix(1,0,0,-1,57.191,226.97)" stroke-width=".3985" stroke-linecap="round" stroke-linejoin="round" fill="none" stroke="#000000" d="M 24.739 60.0951 C 24.739 60.92043 24.06992 61.58951 23.24458 61.58951 C 22.41924 61.58951 21.75017 60.92043 21.75017 60.0951 C 21.75017 59.26974 22.41924 58.60068 23.24458 58.60068 C 24.06992 58.60068 24.739 59.26974 24.739 60.0951 Z M 23.24458 60.0951 "/>
<symbol id="font_0_1">
<path d="M .23200003 .00999999 C .23200003 .012999982 .23200003 .014999986 .215 .03199999 C .09 .15799999 .058 .347 .058 .5 C .058 .674 .096 .84800007 .21900001 .97300007 C .23200003 .985 .23200003 .98700007 .23200003 .99 C .23200003 .99700006 .22800002 1 .222 1 C .21200001 1 .12200001 .93200007 .06299999 .805 C .012000002 .69500008 0 .584 0 .5 C 0 .422 .011 .301 .066 .188 C .126 .065 .21200001 0 .222 0 C .22800002 0 .23200003 .0029999912 .23200003 .00999999 Z "/>
</symbol>
<use xlink:href="#font_0_1" transform="matrix(9.9626,0,0,-9.9626,61.6063,154.56566)" fill="#4d4dff"/>
<symbol id="font_1_2">
<path d="M .305 .31300003 C .311 .33900003 .334 .43100003 .404 .43100003 C .409 .43100003 .433 .43100003 .454 .418 C .426 .41300003 .40600003 .388 .40600003 .36400003 C .40600003 .34800003 .417 .32900004 .444 .32900004 C .46600003 .32900004 .498 .34700004 .498 .38700003 C .498 .43900005 .439 .45300005 .405 .45300005 C .347 .45300005 .312 .40000005 .3 .37700004 C .275 .44300003 .221 .45300005 .19200002 .45300005 C .08800001 .45300005 .031000002 .32400004 .031000002 .29900003 C .031000002 .28900004 .041 .28900004 .043000007 .28900004 C .051000008 .28900004 .054000006 .291 .056 .3 C .09 .40600003 .156 .43100003 .19000001 .43100003 C .209 .43100003 .244 .42200003 .244 .36400003 C .244 .33300004 .22700002 .26600004 .19000001 .126 C .17400001 .064 .13900002 .022000002 .095000009 .022000002 C .08900001 .022000002 .06600001 .022000002 .045 .035 C .07000001 .040000004 .09200001 .061 .09200001 .089 C .09200001 .116000007 .07000001 .124000009 .055000009 .124000009 C .025 .124000009 0 .098000008 0 .06600001 C 0 .020000002 .050000006 0 .094000007 0 C .16000001 0 .19600001 .07000001 .19900002 .076000008 C .21100001 .039 .24700003 0 .307 0 C .41 0 .467 .12900001 .467 .15400002 C .467 .16400002 .458 .16400002 .455 .16400002 C .446 .16400002 .444 .16000001 .442 .15300001 C .409 .046 .341 .022000002 .30900003 .022000002 C .27 .022000002 .254 .054 .254 .08800001 C .254 .11000001 .26 .13200002 .271 .17600002 L .305 .31300003 Z "/>
</symbol>
<use xlink:href="#font_1_2" transform="matrix(9.9626,0,0,-9.9626,64.78292,152.1846)" fill="#4d4dff"/>
<symbol id="font_2_1">
<path d="M .22600001 .63600006 C .22600001 .66300007 .224 .66400006 .19600001 .66400006 C .132 .601 .041 .6 0 .6 L 0 .564 C .023999997 .564 .09000001 .564 .14500001 .592 L .14500001 .082 C .14500001 .049000004 .14500001 .036000004 .04500001 .036000004 L .0069999995 .036000004 L .0069999995 0 C .024999999 .001 .148 .004 .185 .004 C .21600002 .004 .34200005 .001 .36400003 0 L .36400003 .036000004 L .32600004 .036000004 C .22600001 .036000004 .22600001 .049000004 .22600001 .082 L .22600001 .63600006 Z "/>
</symbol>
<use xlink:href="#font_2_1" transform="matrix(6.9738,0,0,-6.9738,70.94815,153.57003)" fill="#4d4dff"/>
<symbol id="font_1_1">
<path d="M .117000009 .194 C .117000009 .26 .092 .29900003 .05300001 .29900003 C .020000004 .29900003 0 .274 0 .246 C 0 .21900001 .020000004 .193 .05300001 .193 C .065000008 .193 .078 .197 .08800001 .206 C .091 .208 .092 .209 .093 .209 C .094000007 .209 .095000009 .208 .095000009 .194 C .095000009 .12 .06000001 .060000004 .027000003 .026999996 C .016000003 .016000003 .016000003 .013999999 .016000003 .0109999929 C .016000003 .003999993 .021000006 0 .026 0 C .037 0 .117000009 .077 .117000009 .194 Z "/>
</symbol>
<symbol id="font_1_3">
<path d="M .45700003 .586 C .461 .6 .461 .602 .461 .609 C .461 .62700006 .447 .63600006 .432 .63600006 C .42200003 .63600006 .40600003 .63 .397 .615 C .395 .61 .387 .579 .38300003 .561 C .37600003 .535 .36900003 .508 .363 .48100005 L .318 .301 C .314 .286 .271 .21600002 .20500002 .21600002 C .15400002 .21600002 .143 .26000003 .143 .29700003 C .143 .34300003 .16000001 .40500004 .194 .49300004 C .21000001 .53400006 .21400002 .545 .21400002 .56500008 C .21400002 .61 .18200001 .6470001 .13200002 .6470001 C .037 .6470001 0 .50200006 0 .49300004 C 0 .48300005 .01 .48300005 .012 .48300005 C .022000002 .48300005 .023 .485 .028000003 .50100007 C .055000009 .595 .095000009 .625 .12900001 .625 C .13700001 .625 .15400002 .625 .15400002 .59300008 C .15400002 .568 .14400001 .54200008 .13700001 .523 C .097 .41700004 .079 .36 .079 .31300003 C .079 .224 .142 .194 .201 .194 C .24000003 .194 .274 .21100001 .30200003 .23900002 C .289 .187 .277 .13800001 .237 .08500001 C .21100001 .051 .17300001 .022 .127 .022 C .113000009 .022 .068 .025000006 .051000008 .06400001 C .067 .06400001 .080000009 .06400001 .094000007 .076000008 C .104 .08500001 .11400001 .098000008 .11400001 .117000009 C .11400001 .148 .087000008 .15200001 .07700001 .15200001 C .054000006 .15200001 .021 .136 .021 .087000008 C .021 .037 .065000008 0 .127 0 C .23 0 .333 .091000009 .361 .20400001 L .45700003 .586 Z "/>
</symbol>
<use xlink:href="#font_1_1" transform="matrix(9.9626,0,0,-9.9626,75.51378,153.99779)" fill="#4d4dff"/>
<use xlink:href="#font_1_3" transform="matrix(9.9626,0,0,-9.9626,79.37928,154.11734)" fill="#4d4dff"/>
<use xlink:href="#font_2_1" transform="matrix(6.9738,0,0,-6.9738,84.73015,153.57003)" fill="#4d4dff"/>
<symbol id="font_0_2">
<path d="M .232 .5 C .232 .578 .22100002 .699 .16600001 .81200006 C .106 .93500009 .020000004 1 .009999998 1 C .0040000008 1 0 .99600008 0 .99 C 0 .98700007 0 .985 .019000002 .967 C .117000009 .86800006 .174 .709 .174 .5 C .174 .329 .137 .153 .012999997 .026999996 C 0 .014999986 0 .012999982 0 .00999999 C 0 .003999993 .0040000008 0 .009999998 0 C .020000004 0 .11000001 .06799999 .169 .195 C .22 .305 .232 .416 .232 .5 Z "/>
</symbol>
<use xlink:href="#font_0_2" transform="matrix(9.9626,0,0,-9.9626,89.00688,154.56566)" fill="#4d4dff"/>
<path transform="matrix(1,0,0,-1,57.191,226.97)" d="M 101.2753 103.18236 C 101.2753 104.0077 100.60623 104.67677 99.78088 104.67677 C 98.95554 104.67677 98.28647 104.0077 98.28647 103.18236 C 98.28647 102.35701 98.95554 101.68794 99.78088 101.68794 C 100.60623 101.68794 101.2753 102.35701 101.2753 103.18236 Z M 99.78088 103.18236 " fill="#4d4dff"/>
<path transform="matrix(1,0,0,-1,57.191,226.97)" stroke-width=".3985" stroke-linecap="round" stroke-linejoin="round" fill="none" stroke="#000000" d="M 101.2753 103.18236 C 101.2753 104.0077 100.60623 104.67677 99.78088 104.67677 C 98.95554 104.67677 98.28647 104.0077 98.28647 103.18236 C 98.28647 102.35701 98.95554 101.68794 99.78088 101.68794 C 100.60623 101.68794 101.2753 102.35701 101.2753 103.18236 Z M 99.78088 103.18236 "/>
<use xlink:href="#font_0_1" transform="matrix(9.9626,0,0,-9.9626,137.0073,113.74664)" fill="#4d4dff"/>
<use xlink:href="#font_1_2" transform="matrix(9.9626,0,0,-9.9626,140.1849,111.365589)" fill="#4d4dff"/>
<symbol id="font_2_2">
<path d="M .442 .18200001 L .40800003 .18200001 C .40500004 .16000001 .39500005 .101 .38200004 .091000009 C .374 .085 .29700003 .085 .28300003 .085 L .099 .085 C .20400003 .178 .23900002 .20600002 .29900003 .25300003 C .37300004 .312 .442 .374 .442 .469 C .442 .59000006 .33600004 .66400006 .20800004 .66400006 C .084 .66400006 0 .577 0 .485 C 0 .43400003 .043000007 .42900003 .053000004 .42900003 C .077 .42900003 .10600001 .446 .10600001 .48200003 C .10600001 .5 .099 .535 .047000007 .535 C .078 .606 .146 .628 .19300002 .628 C .293 .628 .34500004 .55 .34500004 .469 C .34500004 .38200004 .28300003 .31300003 .25100003 .277 L .010000005 .039 C 0 .030000002 0 .028 0 0 L .41200004 0 L .442 .18200001 Z "/>
</symbol>
<use xlink:href="#font_2_2" transform="matrix(6.9738,0,0,-6.9738,146.02834,112.75099)" fill="#4d4dff"/>
<use xlink:href="#font_1_1" transform="matrix(9.9626,0,0,-9.9626,150.91577,113.17878)" fill="#4d4dff"/>
<use xlink:href="#font_1_3" transform="matrix(9.9626,0,0,-9.9626,154.78127,113.29833)" fill="#4d4dff"/>
<use xlink:href="#font_2_2" transform="matrix(6.9738,0,0,-6.9738,159.81034,112.75099)" fill="#4d4dff"/>
<use xlink:href="#font_0_2" transform="matrix(9.9626,0,0,-9.9626,164.40886,113.74664)" fill="#4d4dff"/>
<path transform="matrix(1,0,0,-1,57.191,226.97)" d="M 186.98918 151.4363 C 186.98918 152.26165 186.3201 152.93071 185.49477 152.93071 C 184.66942 152.93071 184.00035 152.26165 184.00035 151.4363 C 184.00035 150.61095 184.66942 149.94188 185.49477 149.94188 C 186.3201 149.94188 186.98918 150.61095 186.98918 151.4363 Z M 185.49477 151.4363 " fill="#4d4dff"/>
<path transform="matrix(1,0,0,-1,57.191,226.97)" stroke-width=".3985" stroke-linecap="round" stroke-linejoin="round" fill="none" stroke="#000000" d="M 186.98918 151.4363 C 186.98918 152.26165 186.3201 152.93071 185.49477 152.93071 C 184.66942 152.93071 184.00035 152.26165 184.00035 151.4363 C 184.00035 150.61095 184.66942 149.94188 185.49477 149.94188 C 186.3201 149.94188 186.98918 150.61095 186.98918 151.4363 Z M 185.49477 151.4363 "/>
<use xlink:href="#font_0_1" transform="matrix(9.9626,0,0,-9.9626,219.7793,66.69165)" fill="#4d4dff"/>
<use xlink:href="#font_1_2" transform="matrix(9.9626,0,0,-9.9626,222.9559,64.31059)" fill="#4d4dff"/>
<symbol id="font_2_3">
<path d="M .219 .35400004 C .29700003 .35400004 .35300002 .3 .35300002 .193 C .35300002 .069000009 .28100003 .032 .223 .032 C .18300002 .032 .095 .043000007 .053000008 .102000009 C .10000001 .10400001 .111 .13700001 .111 .158 C .111 .19 .087 .213 .056000007 .213 C .028 .213 0 .19600001 0 .155 C 0 .061000006 .104 0 .22500001 0 C .36400003 0 .46 .09300001 .46 .193 C .46 .27100004 .39600004 .34900005 .286 .37200005 C .39100004 .41000004 .42900003 .48500005 .42900003 .546 C .42900003 .625 .33800004 .684 .22700002 .684 C .116 .684 .031 .63 .031 .55 C .031 .51600006 .053000008 .49700005 .083000008 .49700005 C .11400001 .49700005 .134 .52 .134 .548 C .134 .577 .11400001 .598 .083000008 .6 C .118 .644 .187 .65500006 .22400002 .65500006 C .26900003 .65500006 .33200003 .633 .33200003 .546 C .33200003 .504 .31800003 .45800004 .29200004 .42700003 C .25900004 .38900004 .23100002 .38700003 .18100001 .38400004 C .156 .38200004 .154 .38200004 .149 .38100005 C .147 .38100005 .139 .37900005 .139 .36800004 C .139 .35400004 .148 .35400004 .165 .35400004 L .219 .35400004 Z "/>
</symbol>
<use xlink:href="#font_2_3" transform="matrix(6.9738,0,0,-6.9738,228.73758,65.83547)" fill="#4d4dff"/>
<use xlink:href="#font_1_1" transform="matrix(9.9626,0,0,-9.9626,233.68677,66.12379)" fill="#4d4dff"/>
<use xlink:href="#font_1_3" transform="matrix(9.9626,0,0,-9.9626,237.55226,66.24334)" fill="#4d4dff"/>
<use xlink:href="#font_2_3" transform="matrix(6.9738,0,0,-6.9738,242.51958,65.83547)" fill="#4d4dff"/>
<use xlink:href="#font_0_2" transform="matrix(9.9626,0,0,-9.9626,247.17986,66.69165)" fill="#4d4dff"/>
<path transform="matrix(1,0,0,-1,57.191,226.97)" d="M 242.88779 182.90517 C 242.88779 183.73052 242.21872 184.39958 241.39337 184.39958 C 240.56804 184.39958 239.89896 183.73052 239.89896 182.90517 C 239.89896 182.07982 240.56804 181.41075 241.39337 181.41075 C 242.21872 181.41075 242.88779 182.07982 242.88779 182.90517 Z M 241.39337 182.90517 " fill="#4d4dff"/>
<path transform="matrix(1,0,0,-1,57.191,226.97)" stroke-width=".3985" stroke-linecap="round" stroke-linejoin="round" fill="none" stroke="#000000" d="M 242.88779 182.90517 C 242.88779 183.73052 242.21872 184.39958 241.39337 184.39958 C 240.56804 184.39958 239.89896 183.73052 239.89896 182.90517 C 239.89896 182.07982 240.56804 181.41075 241.39337 181.41075 C 242.21872 181.41075 242.88779 182.07982 242.88779 182.90517 Z M 241.39337 182.90517 "/>
<use xlink:href="#font_0_1" transform="matrix(9.9626,0,0,-9.9626,278.7393,33.243658)" fill="#4d4dff"/>
<use xlink:href="#font_1_2" transform="matrix(9.9626,0,0,-9.9626,281.9169,30.862595)" fill="#4d4dff"/>
<symbol id="font_2_4">
<path d="M .49000005 .164 L .49000005 .2 L .379 .2 L .379 .646 C .379 .66700008 .379 .674 .35700003 .674 C .345 .674 .34100003 .674 .331 .66 L 0 .2 L 0 .164 L .294 .164 L .294 .082 C .294 .048 .294 .036000004 .213 .036000004 L .186 .036000004 L .186 0 C .236 .002 .3 .004 .33600004 .004 C .37300004 .004 .437 .002 .48700003 0 L .48700003 .036000004 L .46 .036000004 C .379 .036000004 .379 .048 .379 .082 L .379 .164 L .49000005 .164 M .301 .56600007 L .301 .2 L .037000006 .2 L .301 .56600007 Z "/>
</symbol>
<use xlink:href="#font_2_4" transform="matrix(6.9738,0,0,-6.9738,287.59397,32.24701)" fill="#4d4dff"/>
<use xlink:href="#font_1_1" transform="matrix(9.9626,0,0,-9.9626,292.64778,32.67579)" fill="#4d4dff"/>
<use xlink:href="#font_1_3" transform="matrix(9.9626,0,0,-9.9626,296.51325,32.795339)" fill="#4d4dff"/>
<use xlink:href="#font_2_4" transform="matrix(6.9738,0,0,-6.9738,301.37498,32.24701)" fill="#4d4dff"/>
<use xlink:href="#font_0_2" transform="matrix(9.9626,0,0,-9.9626,306.14088,33.243658)" fill="#4d4dff"/>
<use xlink:href="#font_1_2" transform="matrix(9.9626,0,0,-9.9626,343.7669,237.72859)"/>
<use xlink:href="#font_1_3" transform="matrix(9.9626,0,0,-9.9626,46.354917,26.094336)"/>
</g>
</svg>
