<?xml version="1.0" encoding="UTF-8" standalone="no"?>
<!DOCTYPE svg PUBLIC "-//W3C//DTD SVG 1.1//EN" "http://www.w3.org/Graphics/SVG/1.1/DTD/svg11.dtd">
<svg xmlns="http://www.w3.org/2000/svg" xmlns:xlink="http://www.w3.org/1999/xlink" version="1.1" width="255.118pt" height="215.433pt" viewBox="0 0 255.118 215.433">
<g enable-background="new">
<clipPath id="cp0">
<path transform="matrix(1,0,0,-1,127.559,107.715999)" d="M -127.56062 -107.71794 L -127.56062 107.71794 L 127.56062 107.71794 L 127.56062 -107.71794 Z M 127.56062 107.71794 "/>
</clipPath>
<g clip-path="url(#cp0)">
<path transform="matrix(1,0,0,-1,127.559,107.715999)" d="M -102.20741 0 L -70.60057 0 C -70.60057 5.20236 -71.8873 10.32661 -74.34163 14.91312 Z " fill="#006400" fill-opacity=".1"/>
<path transform="matrix(1,0,0,-1,127.559,107.715999)" stroke-width=".79701" stroke-linecap="round" stroke-linejoin="round" fill="none" stroke="#006400" d="M -102.20741 0 L -70.60057 0 C -70.60057 5.20236 -71.8873 10.32661 -74.34163 14.91312 Z "/>
<path transform="matrix(1,0,0,-1,127.559,107.715999)" d="M 56.69362 85.04042 L 28.82822 70.12738 C 31.28255 65.5409 34.83456 61.62862 39.16255 58.74313 Z " fill="#006400" fill-opacity=".1"/>
<path transform="matrix(1,0,0,-1,127.559,107.715999)" stroke-width=".79701" stroke-linecap="round" stroke-linejoin="round" fill="none" stroke="#006400" d="M 56.69362 85.04042 L 28.82822 70.12738 C 31.28255 65.5409 34.83456 61.62862 39.16255 58.74313 Z "/>
<path transform="matrix(1,0,0,-1,127.559,107.715999)" d="M 56.69362 85.04042 L 42.66856 64.00307 C 50.42593 58.83151 60.40407 58.34923 68.62402 62.74838 Z " fill="#006400" fill-opacity=".1"/>
<path transform="matrix(1,0,0,-1,127.559,107.715999)" stroke-width=".79701" stroke-linecap="round" stroke-linejoin="round" fill="none" stroke="#006400" d="M 56.69362 85.04042 L 42.66856 64.00307 C 50.42593 58.83151 60.40407 58.34923 68.62402 62.74838 Z "/>
<path transform="matrix(1,0,0,-1,127.559,107.715999)" stroke-width=".79701" stroke-linecap="round" stroke-linejoin="round" fill="none" stroke="#006400" d="M 46.17473 69.2623 C 51.99222 65.38417 59.47534 65.02187 65.64009 68.32039 "/>
<path transform="matrix(1,0,0,-1,127.559,107.715999)" d="M 102.20741 0 L 90.27716 22.29213 C 82.0572 17.89297 76.92226 9.32347 76.92226 -.0003 Z " fill="#006400" fill-opacity=".1"/>
<path transform="matrix(1,0,0,-1,127.559,107.715999)" stroke-width=".79701" stroke-linecap="round" stroke-linejoin="round" fill="none" stroke="#006400" d="M 102.20741 0 L 90.27716 22.29213 C 82.0572 17.89297 76.92226 9.32347 76.92226 -.0003 Z "/>
<path transform="matrix(1,0,0,-1,127.559,107.715999)" stroke-width=".79701" stroke-linecap="round" stroke-linejoin="round" fill="none" stroke="#006400" d="M 93.2595 16.71931 C 87.09447 13.41992 83.24323 6.99269 83.24323 -.00021 "/>
<path transform="matrix(1,0,0,-1,127.559,107.715999)" stroke-width=".79701" stroke-linecap="round" stroke-linejoin="round" fill="none" stroke="#000000" d="M 102.2187 0 C 102.2187 56.45454 56.45454 102.2187 0 102.2187 C -56.45454 102.2187 -102.2187 56.45454 -102.2187 0 C -102.2187 -56.45454 -56.45454 -102.2187 0 -102.2187 C 56.45454 -102.2187 102.2187 -56.45454 102.2187 0 Z M 0 0 "/>
<path transform="matrix(1,0,0,-1,127.559,107.715999)" stroke-width=".79701" stroke-linecap="round" stroke-linejoin="round" fill="none" stroke="#000000" d="M -102.20741 0 L 56.69362 85.04042 "/>
<path transform="matrix(1,0,0,-1,127.559,107.715999)" stroke-width=".79701" stroke-linecap="round" stroke-linejoin="round" fill="none" stroke="#000000" d="M 56.69362 85.04042 L 102.20741 0 "/>
<path transform="matrix(1,0,0,-1,127.559,107.715999)" stroke-width=".79701" stroke-linecap="round" stroke-linejoin="round" fill="none" stroke="#000000" d="M -102.20741 0 L 0 0 "/>
<path transform="matrix(1,0,0,-1,127.559,107.715999)" stroke-width=".79701" stroke-linecap="round" stroke-linejoin="round" fill="none" stroke="#000000" d="M -51.10349 5.68657 L -51.10349 -5.68657 "/>
<path transform="matrix(1,0,0,-1,127.559,107.715999)" stroke-width=".79701" stroke-linecap="round" stroke-linejoin="round" fill="none" stroke="#000000" d="M 0 0 L 102.20741 0 "/>
<path transform="matrix(1,0,0,-1,127.559,107.715999)" stroke-width=".79701" stroke-linecap="round" stroke-linejoin="round" fill="none" stroke="#000000" d="M 51.10349 5.68657 L 51.10349 -5.68657 "/>
<path transform="matrix(1,0,0,-1,127.559,107.715999)" stroke-width=".79701" stroke-linecap="round" stroke-linejoin="round" fill="none" stroke="#000000" d="M 0 0 L 56.69362 85.04042 "/>
<path transform="matrix(1,0,0,-1,127.559,107.715999)" stroke-width=".79701" stroke-linecap="round" stroke-linejoin="round" fill="none" stroke="#000000" d="M 23.61266 45.66647 L 33.08093 39.37392 "/>
<symbol id="font_1_5">
<path d="M .305 .31300003 C .311 .33900003 .334 .43100003 .404 .43100003 C .409 .43100003 .433 .43100003 .454 .418 C .426 .41300003 .40600003 .388 .40600003 .36400003 C .40600003 .34800003 .417 .32900004 .444 .32900004 C .46600003 .32900004 .498 .34700004 .498 .38700003 C .498 .43900005 .439 .45300005 .405 .45300005 C .347 .45300005 .312 .40000005 .3 .37700004 C .275 .44300003 .221 .45300005 .19200002 .45300005 C .08800001 .45300005 .031000002 .32400004 .031000002 .29900003 C .031000002 .28900004 .041 .28900004 .043000007 .28900004 C .051000008 .28900004 .054000006 .291 .056 .3 C .09 .40600003 .156 .43100003 .19000001 .43100003 C .209 .43100003 .244 .42200003 .244 .36400003 C .244 .33300004 .22700002 .26600004 .19000001 .126 C .17400001 .064 .13900002 .022000002 .095000009 .022000002 C .08900001 .022000002 .06600001 .022000002 .045 .035 C .07000001 .040000004 .09200001 .061 .09200001 .089 C .09200001 .116000007 .07000001 .124000009 .055000009 .124000009 C .025 .124000009 0 .098000008 0 .06600001 C 0 .020000002 .050000006 0 .094000007 0 C .16000001 0 .19600001 .07000001 .19900002 .076000008 C .21100001 .039 .24700003 0 .307 0 C .41 0 .467 .12900001 .467 .15400002 C .467 .16400002 .458 .16400002 .455 .16400002 C .446 .16400002 .444 .16000001 .442 .15300001 C .409 .046 .341 .022000002 .30900003 .022000002 C .27 .022000002 .254 .054 .254 .08800001 C .254 .11000001 .26 .13200002 .271 .17600002 L .305 .31300003 Z "/>
</symbol>
<use xlink:href="#font_1_5" transform="matrix(9.9626,0,0,-9.9626,62.638914,100.049579)"/>
<use xlink:href="#font_1_5" transform="matrix(9.9626,0,0,-9.9626,151.9299,50.44258)"/>
<symbol id="font_1_6">
<path d="M .09 .094000007 C .14400001 .15200001 .17300001 .17700002 .209 .20800002 C .209 .20900002 .271 .26200003 .307 .298 C .402 .39100004 .424 .43900005 .424 .44300003 C .424 .45300005 .41500003 .45300005 .41300003 .45300005 C .40600003 .45300005 .403 .45100004 .398 .44200004 C .368 .39400003 .347 .37800003 .323 .37800003 C .299 .37800003 .287 .39300005 .272 .41000004 C .253 .43300004 .23600002 .45300005 .20300001 .45300005 C .128 .45300005 .082 .36 .082 .33900003 C .082 .33400003 .08500001 .328 .09400001 .328 C .103000018 .328 .105000007 .33300004 .10700001 .33900003 C .12600002 .38500003 .18400002 .38600005 .19200002 .38600005 C .21300002 .38600005 .23200001 .37900005 .255 .37100003 C .29500003 .35600005 .306 .35600005 .33200003 .35600005 C .296 .31300003 .21200003 .24100001 .19300002 .22500003 L .103000018 .14100002 C .035 .074 0 .017 0 .010000001 C 0 0 .010000002 0 .012000002 0 C .02 0 .022000004 .0020000004 .028 .013000001 C .051000004 .048 .081 .075 .113000009 .075 C .136 .075 .14600002 .06600001 .17100002 .037 C .18800001 .016 .20600002 0 .23500003 0 C .334 0 .39200003 .127 .39200003 .15400002 C .39200003 .15900001 .388 .16400002 .38 .16400002 C .37100003 .16400002 .36900003 .158 .366 .15100001 C .343 .086 .279 .067 .246 .067 C .22600003 .067 .20800002 .07300001 .187 .080000009 C .15300001 .093 .13800001 .097 .11700001 .097 C .11500001 .097 .09900001 .097 .09 .094000007 Z "/>
</symbol>
<use xlink:href="#font_1_6" transform="matrix(9.9626,0,0,-9.9626,141.04239,101.466579)"/>
<path transform="matrix(1,0,0,-1,127.559,107.715999)" d="M 1.19553 0 C 1.19553 .66026 .66026 1.19553 0 1.19553 C -.66026 1.19553 -1.19553 .66026 -1.19553 0 C -1.19553 -.66026 -.66026 -1.19553 0 -1.19553 C .66026 -1.19553 1.19553 -.66026 1.19553 0 Z M 0 0 " fill="#0000ff"/>
<path transform="matrix(1,0,0,-1,127.559,107.715999)" stroke-width=".3985" stroke-linecap="round" stroke-linejoin="round" fill="none" stroke="#000000" d="M 1.19553 0 C 1.19553 .66026 .66026 1.19553 0 1.19553 C -.66026 1.19553 -1.19553 .66026 -1.19553 0 C -1.19553 -.66026 -.66026 -1.19553 0 -1.19553 C .66026 -1.19553 1.19553 -.66026 1.19553 0 Z M 0 0 "/>
<symbol id="font_1_4">
<path d="M .263 .316 L .43300004 .316 C .575 .316 .714 .42000003 .714 .532 C .714 .609 .648 .683 .517 .683 L .193 .683 C .17400001 .683 .163 .683 .163 .66400006 C .163 .652 .172 .652 .192 .652 C .205 .652 .223 .651 .235 .65000006 C .25100003 .648 .25700004 .64500007 .25700004 .634 C .25700004 .63000008 .256 .62700006 .25300003 .615 L .119 .078 C .109 .039 .10699999 .031000002 .028 .031000002 C .011 .031000002 0 .031000002 0 .012 C 0 0 .011999998 0 .015000001 0 C .043 0 .11400001 .003 .142 .003 C .163 .003 .185 .002 .206 .002 C .228 .002 .25000004 0 .27100004 0 C .27800004 0 .29100005 0 .29100005 .020000002 C .29100005 .031000002 .28200004 .031000002 .263 .031000002 C .226 .031000002 .198 .031000002 .198 .049000004 C .198 .055000005 .2 .060000004 .201 .066 L .263 .316 M .33500005 .614 C .344 .64900007 .34600003 .652 .38900004 .652 L .48500005 .652 C .568 .652 .621 .625 .621 .55600008 C .621 .517 .601 .43100003 .56200006 .395 C .512 .35000003 .45200003 .342 .40800003 .342 L .26700003 .342 L .33500005 .614 Z "/>
</symbol>
<use xlink:href="#font_1_4" transform="matrix(9.9626,0,0,-9.9626,117.2645,119.056987)" fill="#0000ff"/>
<path transform="matrix(1,0,0,-1,127.559,107.715999)" d="M 57.88914 85.04042 C 57.88914 85.70068 57.35388 86.23595 56.69362 86.23595 C 56.03334 86.23595 55.49808 85.70068 55.49808 85.04042 C 55.49808 84.38016 56.03334 83.8449 56.69362 83.8449 C 57.35388 83.8449 57.88914 84.38016 57.88914 85.04042 Z M 56.69362 85.04042 " fill="#0000ff"/>
<path transform="matrix(1,0,0,-1,127.559,107.715999)" stroke-width=".3985" stroke-linecap="round" stroke-linejoin="round" fill="none" stroke="#000000" d="M 57.88914 85.04042 C 57.88914 85.70068 57.35388 86.23595 56.69362 86.23595 C 56.03334 86.23595 55.49808 85.70068 55.49808 85.04042 C 55.49808 84.38016 56.03334 83.8449 56.69362 83.8449 C 57.35388 83.8449 57.88914 84.38016 57.88914 85.04042 Z M 56.69362 85.04042 "/>
<symbol id="font_1_2">
<path d="M .11800001 .078 C .108 .039 .106 .031000002 .027000003 .031000002 C .009999998 .031000002 0 .031000002 0 .011000001 C 0 0 .009 0 .027000003 0 L .38400004 0 C .54200008 0 .66 .11800001 .66 .216 C .66 .28800003 .60200008 .34600003 .50500008 .35700003 C .609 .37600003 .71400007 .45000003 .71400007 .545 C .71400007 .619 .64800009 .683 .52800008 .683 L .192 .683 C .17300001 .683 .16300002 .683 .16300002 .66300007 C .16300002 .652 .17200002 .652 .19100002 .652 C .19300002 .652 .21200001 .652 .22900003 .65000006 C .24700001 .648 .256 .647 .256 .634 C .256 .63000008 .25500003 .62700006 .252 .615 L .11800001 .078 M .26900003 .36600004 L .33100004 .614 C .34000004 .64900007 .342 .652 .38500003 .652 L .51400008 .652 C .60200008 .652 .623 .59300008 .623 .549 C .623 .46100004 .53700008 .36600004 .41500003 .36600004 L .26900003 .36600004 M .224 .031000002 C .21000001 .031000002 .208 .031000002 .20200002 .032 C .192 .033 .18900001 .034 .18900001 .042000005 C .18900001 .045 .18900001 .047000003 .194 .065000008 L .263 .344 L .45200003 .344 C .54800006 .344 .56700006 .27 .56700006 .22700002 C .56700006 .128 .47800005 .031000002 .36 .031000002 L .224 .031000002 Z "/>
</symbol>
<use xlink:href="#font_1_2" transform="matrix(9.9626,0,0,-9.9626,187.72843,17.576996)" fill="#0000ff"/>
<path transform="matrix(1,0,0,-1,127.559,107.715999)" d="M -100.85313 0 C -100.85313 .66026 -101.3884 1.19553 -102.04868 1.19553 C -102.70894 1.19553 -103.2442 .66026 -103.2442 0 C -103.2442 -.66026 -102.70894 -1.19553 -102.04868 -1.19553 C -101.3884 -1.19553 -100.85313 -.66026 -100.85313 0 Z M -102.04868 0 " fill="#0000ff"/>
<path transform="matrix(1,0,0,-1,127.559,107.715999)" stroke-width=".3985" stroke-linecap="round" stroke-linejoin="round" fill="none" stroke="#000000" d="M -100.85313 0 C -100.85313 .66026 -101.3884 1.19553 -102.04868 1.19553 C -102.70894 1.19553 -103.2442 .66026 -103.2442 0 C -103.2442 -.66026 -102.70894 -1.19553 -102.04868 -1.19553 C -101.3884 -1.19553 -100.85313 -.66026 -100.85313 0 Z M -102.04868 0 "/>
<symbol id="font_1_1">
<path d="M .14400001 .115 C .10400002 .048 .065 .034 .021000002 .031000002 C .009000003 .030000002 0 .030000002 0 .011000001 C 0 .0050000005 .0050000029 0 .013 0 C .040000004 0 .07100001 .003 .09900001 .003 C .13200002 .003 .16700001 0 .19900002 0 C .20500002 0 .21800003 0 .21800003 .019000002 C .21800003 .030000002 .20900002 .031000002 .20200002 .031000002 C .17900002 .033 .15500002 .041 .15500002 .066 C .15500002 .078 .16100002 .089 .16900002 .10300001 L .245 .231 L .49600003 .231 C .49800007 .21000001 .512 .074 .512 .064 C .512 .034 .46000005 .031000002 .44000004 .031000002 C .42600004 .031000002 .41600005 .031000002 .41600005 .011000001 C .41600005 0 .42800004 0 .43000005 0 C .47100006 0 .514 .003 .555 .003 C .58 .003 .643 0 .668 0 C .674 0 .686 0 .686 .020000002 C .686 .031000002 .676 .031000002 .663 .031000002 C .601 .031000002 .601 .038000004 .598 .067 L .537 .69200006 C .535 .712 .535 .716 .518 .716 C .502 .716 .49800007 .70900008 .492 .69900009 L .14400001 .115 M .26400004 .26200003 L .46100004 .592 L .493 .26200003 L .26400004 .26200003 Z "/>
</symbol>
<use xlink:href="#font_1_1" transform="matrix(9.9626,0,0,-9.9626,13.620687,111.119998)" fill="#0000ff"/>
<path transform="matrix(1,0,0,-1,127.559,107.715999)" d="M 103.2442 0 C 103.2442 .66026 102.70894 1.19553 102.04868 1.19553 C 101.3884 1.19553 100.85313 .66026 100.85313 0 C 100.85313 -.66026 101.3884 -1.19553 102.04868 -1.19553 C 102.70894 -1.19553 103.2442 -.66026 103.2442 0 Z M 102.04868 0 " fill="#0000ff"/>
<path transform="matrix(1,0,0,-1,127.559,107.715999)" stroke-width=".3985" stroke-linecap="round" stroke-linejoin="round" fill="none" stroke="#000000" d="M 103.2442 0 C 103.2442 .66026 102.70894 1.19553 102.04868 1.19553 C 101.3884 1.19553 100.85313 .66026 100.85313 0 C 100.85313 -.66026 101.3884 -1.19553 102.04868 -1.19553 C 102.70894 -1.19553 103.2442 -.66026 103.2442 0 Z M 102.04868 0 "/>
<symbol id="font_1_3">
<path d="M .71000006 .71700009 C .71000006 .72 .708 .72700008 .699 .72700008 C .69600006 .72700008 .69500008 .7260001 .684 .71500006 L .614 .6380001 C .605 .65200009 .559 .72700008 .448 .72700008 C .22500001 .72700008 0 .50600007 0 .27400003 C 0 .109000008 .118000019 0 .271 0 C .358 0 .43400003 .040000004 .487 .086 C .58000007 .16800002 .597 .25900004 .597 .26200003 C .597 .272 .587 .272 .58500006 .272 C .579 .272 .574 .27 .572 .26200003 C .563 .23300001 .54 .162 .47100003 .104 C .402 .048 .33900003 .031000004 .287 .031000004 C .19700001 .031000004 .091000009 .083000008 .091000009 .23900001 C .091000009 .29600004 .112 .45800004 .21200003 .57500007 C .273 .646 .367 .69600006 .45600004 .69600006 C .558 .69600006 .61700007 .619 .61700007 .503 C .61700007 .46300004 .614 .46200005 .614 .45200003 C .614 .44200004 .625 .44200004 .629 .44200004 C .642 .44200004 .642 .44400005 .647 .46200005 L .71000006 .71700009 Z "/>
</symbol>
<use xlink:href="#font_1_3" transform="matrix(9.9626,0,0,-9.9626,234.69112,111.33917)" fill="#0000ff"/>
</g>
</g>
</svg>
