<?xml version="1.0" encoding="UTF-8" standalone="no"?>
<!DOCTYPE svg PUBLIC "-//W3C//DTD SVG 1.1//EN" "http://www.w3.org/Graphics/SVG/1.1/DTD/svg11.dtd">
<svg xmlns="http://www.w3.org/2000/svg" xmlns:xlink="http://www.w3.org/1999/xlink" version="1.1" width="191.398pt" height="96.878pt" viewBox="0 0 191.398 96.878">
<g enable-background="new">
<path transform="matrix(1,0,0,-1,10.568,74.300998)" stroke-width=".79701" stroke-linecap="round" stroke-linejoin="round" fill="none" stroke="#000000" d="M 0 0 L 28.3468 62.36288 L 56.69362 0 Z "/>
<path transform="matrix(1,0,0,-1,10.568,74.300998)" stroke-width=".79701" stroke-linecap="round" stroke-linejoin="round" fill="none" stroke="#000000" d="M 11.82341 32.24742 L 16.52034 30.11285 "/>
<path transform="matrix(1,0,0,-1,10.568,74.300998)" stroke-width=".79701" stroke-linecap="round" stroke-linejoin="round" fill="none" stroke="#000000" d="M 44.86716 32.24742 L 40.17021 30.11285 "/>
<path transform="matrix(1,0,0,-1,10.568,74.300998)" d="M 1.19553 0 C 1.19553 .66026 .66026 1.19553 0 1.19553 C -.66026 1.19553 -1.19553 .66026 -1.19553 0 C -1.19553 -.66026 -.66026 -1.19553 0 -1.19553 C .66026 -1.19553 1.19553 -.66026 1.19553 0 Z M 0 0 " fill="#0000ff"/>
<path transform="matrix(1,0,0,-1,10.568,74.300998)" stroke-width=".79701" stroke-linecap="round" stroke-linejoin="round" fill="none" stroke="#000000" d="M 1.19553 0 C 1.19553 .66026 .66026 1.19553 0 1.19553 C -.66026 1.19553 -1.19553 .66026 -1.19553 0 C -1.19553 -.66026 -.66026 -1.19553 0 -1.19553 C .66026 -1.19553 1.19553 -.66026 1.19553 0 Z M 0 0 "/>
<symbol id="font_0_1">
<path d="M .14900002 .120000008 C .114 .066 .08200001 .040000004 .023000002 .036000004 C .012999997 .035 0 .035 0 .015000001 C 0 .004 .008999996 0 .013999999 0 C .04 0 .07300001 .004 .1 .004 C .132 .004 .17300001 0 .20300001 0 C .208 0 .22299999 0 .22299999 .022000002 C .22299999 .035 .21000001 .036000004 .206 .036000004 C .19800002 .037 .162 .039 .162 .066 C .162 .078 .17200002 .095000009 .17700002 .104 L .257 .22800002 L .54300007 .22800002 L .56700006 .062000004 C .563 .052 .55700007 .036000004 .498 .036000004 C .48600004 .036000004 .47200004 .036000004 .47200004 .014 C .47200004 .010000001 .475 0 .488 0 C .517 0 .58800008 .004 .61700007 .004 C .63500007 .004 .65800008 .003 .67600008 .003 C .69400009 .002 .71500006 0 .73300006 0 C .74600008 0 .7530001 .008 .7530001 .021000002 C .7530001 .036000004 .74100008 .036000004 .7250001 .036000004 C .66700008 .036000004 .6650001 .044000005 .66200008 .068 L .57400009 .68500009 C .57100006 .70600005 .56900009 .71300008 .5500001 .71300008 C .531 .71300008 .52500006 .70400008 .51600006 .69000008 L .14900002 .120000008 M .28100003 .264 L .49100004 .591 L .53800007 .264 L .28100003 .264 Z "/>
</symbol>
<use xlink:href="#font_0_1" transform="matrix(6.9738,0,0,-6.9738,2.867507,80.368999)" fill="#0000ff"/>
<path transform="matrix(1,0,0,-1,10.568,74.300998)" d="M 57.88914 0 C 57.88914 .66026 57.35388 1.19553 56.69362 1.19553 C 56.03334 1.19553 55.49808 .66026 55.49808 0 C 55.49808 -.66026 56.03334 -1.19553 56.69362 -1.19553 C 57.35388 -1.19553 57.88914 -.66026 57.88914 0 Z M 56.69362 0 " fill="#0000ff"/>
<path transform="matrix(1,0,0,-1,10.568,74.300998)" stroke-width=".79701" stroke-linecap="round" stroke-linejoin="round" fill="none" stroke="#000000" d="M 57.88914 0 C 57.88914 .66026 57.35388 1.19553 56.69362 1.19553 C 56.03334 1.19553 55.49808 .66026 55.49808 0 C 55.49808 -.66026 56.03334 -1.19553 56.69362 -1.19553 C 57.35388 -1.19553 57.88914 -.66026 57.88914 0 Z M 56.69362 0 "/>
<symbol id="font_0_2">
<path d="M .11800001 .078 C .109000008 .044000005 .107 .036000004 .030000002 .036000004 C .012999997 .036000004 0 .036000004 0 .015000001 C 0 0 .012000002 0 .030000002 0 L .41700004 0 C .585 0 .714 .115 .714 .21400002 C .714 .28500004 .649 .34600003 .543 .35700003 C .66400006 .379 .765 .455 .765 .541 C .765 .61700007 .688 .683 .558 .683 L .194 .683 C .17500001 .683 .162 .683 .162 .661 C .162 .647 .174 .647 .194 .647 C .19500003 .647 .21400002 .647 .23200003 .64500007 C .25300003 .643 .25500003 .64100006 .25500003 .63100007 C .25500003 .629 .25500003 .624 .25100003 .609 L .11800001 .078 M .27800004 .36900003 L .33900003 .61300006 C .34700004 .64400008 .34800003 .647 .39000003 .647 L .542 .647 C .644 .647 .667 .58000007 .667 .54200008 C .667 .46100004 .576 .36900003 .442 .36900003 L .27800004 .36900003 M .23000002 .036000004 C .19900003 .036000004 .19800002 .037 .19800002 .046000005 C .19800002 .047000003 .19800002 .052 .20200002 .067 L .27100004 .34100003 L .483 .34100003 C .577 .34100003 .61300006 .279 .61300006 .22100002 C .61300006 .12200001 .512 .036000004 .39100004 .036000004 L .23000002 .036000004 Z "/>
</symbol>
<use xlink:href="#font_0_2" transform="matrix(6.9738,0,0,-6.9738,69.68511,80.368999)" fill="#0000ff"/>
<path transform="matrix(1,0,0,-1,10.568,74.300998)" d="M 29.54233 62.36288 C 29.54233 63.02315 29.00706 63.55841 28.3468 63.55841 C 27.68654 63.55841 27.15128 63.02315 27.15128 62.36288 C 27.15128 61.70262 27.68654 61.16736 28.3468 61.16736 C 29.00706 61.16736 29.54233 61.70262 29.54233 62.36288 Z M 28.3468 62.36288 " fill="#0000ff"/>
<path transform="matrix(1,0,0,-1,10.568,74.300998)" stroke-width=".79701" stroke-linecap="round" stroke-linejoin="round" fill="none" stroke="#000000" d="M 29.54233 62.36288 C 29.54233 63.02315 29.00706 63.55841 28.3468 63.55841 C 27.68654 63.55841 27.15128 63.02315 27.15128 62.36288 C 27.15128 61.70262 27.68654 61.16736 28.3468 61.16736 C 29.00706 61.16736 29.54233 61.70262 29.54233 62.36288 Z M 28.3468 62.36288 "/>
<symbol id="font_0_3">
<path d="M .77300009 .71000006 C .77300009 .71500006 .77000007 .723 .76000007 .723 C .753 .723 .75100007 .721 .74200007 .711 L .669 .634 C .66 .646 .60400006 .723 .481 .723 C .23800004 .723 0 .508 0 .28200004 C 0 .11900001 .12800002 0 .307 0 C .36100004 0 .45700003 .011000001 .56000009 .098000008 C .63900008 .165 .661 .252 .661 .26000003 C .661 .27300004 .64900007 .27300004 .64400008 .27300004 C .63100007 .27300004 .62900009 .268 .62600007 .25700004 C .58500006 .120000008 .44500006 .036000004 .32400004 .036000004 C .21800003 .036000004 .1 .09300001 .1 .25100003 C .1 .28000004 .107 .43800003 .22200004 .564 C .29100005 .64100006 .39600004 .68700006 .49100007 .68700006 C .60700008 .68700006 .6750001 .603 .6750001 .49100004 C .6750001 .46300004 .67200008 .45600004 .67200008 .45000003 C .67200008 .43700005 .68500009 .43700005 .69000008 .43700005 C .70600005 .43700005 .70600005 .44000004 .711 .45900003 L .77300009 .71000006 Z "/>
</symbol>
<use xlink:href="#font_0_3" transform="matrix(6.9738,0,0,-6.9738,40.269166,7.374469)" fill="#0000ff"/>
<symbol id="font_1_2">
<path d="M .63100007 .22500001 C .637 .26400004 .65400007 .26400004 .711 .26400004 L .71700009 .29700003 C .666 .294 .638 .294 .58100005 .294 C .53800007 .294 .45700003 .294 .41800005 .29700003 L .41300006 .26400004 L .448 .26400004 C .52500006 .26400004 .54 .256 .54 .23300001 C .54 .22600001 .52800008 .15900001 .526 .146 C .51000007 .056 .39600004 .033 .33400003 .033 C .22500003 .033 .101 .098000008 .101 .278 C .101 .293 .101 .46100004 .206 .58100005 C .252 .63400009 .34000004 .69200006 .44100005 .69200006 C .56600007 .69200006 .63600006 .58800008 .63600006 .47200004 L .63600006 .46300004 C .63600006 .444 .63600006 .43800003 .652 .43800003 C .66700008 .43800003 .66800007 .44300003 .67 .458 L .71000006 .69900009 C .71000006 .70100006 .712 .71000006 .712 .7110001 C .712 .71700009 .71000006 .7250001 .69900009 .7250001 C .69500008 .7250001 .69100007 .7250001 .68200007 .71400007 L .62500008 .6470001 C .61800006 .64000007 .61800006 .63900008 .61700007 .63900008 C .61600008 .63900008 .615 .64000007 .61200007 .6420001 C .592 .66600009 .54 .7250001 .43200005 .7250001 C .20900002 .7250001 0 .526 0 .307 C 0 .136 .12900001 0 .319 0 C .38400004 0 .485 .018000002 .53300008 .083000008 C .541 .065000008 .573 .021000002 .587 .021000002 C .597 .021000002 .59900006 .029000003 .601 .042000005 L .63100007 .22500001 Z "/>
</symbol>
<symbol id="font_1_5">
<path d="M .256 .623 C .256 .65400007 .23200003 .67200008 .20700002 .67200008 C .17500001 .67200008 .144 .64400008 .144 .61 C .144 .578 .16800002 .56100007 .19300002 .56100007 C .22700003 .56100007 .256 .591 .256 .623 M .093 .43100003 C .077 .43 .076000008 .42900003 .074 .42200003 C .073 .41900004 .07 .4 .07 .397 C .11900001 .397 .136 .393 .136 .36600004 C .136 .36200003 .13499999 .35900004 .13300002 .34500004 L .08800001 .072000008 C .082 .033 .064 .033 .004999999 .033 L 0 0 C .042999999 .003 .08800001 .003 .11100001 .003 C .13 .003 .183 .003 .21700001 0 L .22300002 .033 C .181 .033 .15900001 .033 .15900001 .057000005 C .15900001 .059000005 .16 .063 .162 .076000008 L .22300002 .441 L .093 .43100003 Z "/>
</symbol>
<symbol id="font_1_9">
<path d="M .22800002 .091 L .157 .356 C .155 .363 .153 .37 .153 .37800003 C .153 .407 .187 .40800003 .21100003 .40800003 L .21600002 .441 C .176 .43800003 .117000009 .43800003 .106 .43800003 C .086 .43800003 .036 .43800003 .0059999974 .441 L 0 .40800003 C .034999998 .40800003 .058000007 .40800003 .067999999 .39000003 C .071 .382 .078 .356 .083 .33900003 L .16800002 .019000002 C .171 .011000001 .17400003 0 .19100002 0 C .20400003 0 .21100003 .008 .21400002 .011000001 C .21700001 .015000001 .37100003 .273 .37800003 .285 C .43100006 .375 .45000006 .40600003 .51600006 .40800003 L .522 .441 C .48700006 .43800003 .485 .43800003 .44300003 .43800003 C .439 .43800003 .38600005 .43800003 .35700003 .441 L .351 .40800003 C .374 .407 .38900004 .396 .38900004 .374 C .38900004 .366 .388 .363 .38700003 .359 L .22800002 .091 Z "/>
</symbol>
<symbol id="font_1_3">
<path d="M .389 .23800002 C .414 .23800002 .42200003 .23800002 .42200003 .299 C .42200003 .40800003 .351 .456 .259 .456 C .122 .456 0 .331 0 .19500001 C 0 .074 .094000007 0 .201 0 C .33 0 .397 .11 .397 .13000001 C .397 .13700001 .391 .14400001 .382 .14400001 C .372 .14400001 .36900003 .13900002 .365 .13000001 C .319 .044000005 .238 .031000004 .20700002 .031000004 C .17500001 .031000004 .086 .046000005 .086 .16800002 C .086 .202 .08800001 .21100001 .093 .23800002 L .389 .23800002 M .099 .264 C .12900001 .394 .21400002 .428 .25800003 .428 C .32 .428 .35500003 .38500003 .35500003 .31100003 C .35500003 .297 .35300002 .278 .351 .264 L .099 .264 Z "/>
</symbol>
<symbol id="font_1_6">
<path d="M .21900001 .441 L .08900001 .43100003 C .07300001 .43 .072000008 .42900003 .07000001 .42200003 C .069000009 .41700004 .06600001 .40100003 .06600001 .397 C .115 .397 .136 .39400003 .136 .36600004 C .136 .363 .13300002 .347 .13300002 .34600003 L .08800001 .072000008 C .082 .033 .064 .033 .0050000029 .033 L 0 0 C .043000007 .003 .08900001 .003 .114 .003 C .143 .003 .185 .003 .22800002 0 L .234 .033 C .185 .033 .16300002 .033 .16300002 .058000003 C .16300002 .061000006 .169 .101 .17300001 .123 C .18 .16700001 .18800003 .216 .19500003 .25500003 C .215 .374 .312 .41300003 .36400003 .41300003 C .421 .41300003 .42400003 .37300004 .42400003 .34800003 C .42400003 .34 .42400003 .33200003 .421 .314 L .381 .072000008 C .375 .033 .35700003 .033 .298 .033 L .293 0 C .336 .003 .382 .003 .407 .003 C .43600003 .003 .47800005 .003 .521 0 L .527 .033 C .47800005 .033 .456 .033 .456 .058000003 C .456 .065000008 .47400005 .17300001 .477 .19000001 C .48400004 .22800002 .485 .23400001 .491 .272 C .496 .30600003 .499 .323 .499 .337 C .499 .423 .43400003 .441 .37300004 .441 C .305 .441 .24599999 .407 .204 .34800003 L .20300001 .34800003 L .21900001 .441 Z "/>
</symbol>
<symbol id="font_1_1">
<path d="M .517 .44300003 L .38400004 .43400003 C .37300004 .43300004 .36800004 .43300004 .36600004 .432 C .36400003 .43100003 .36200003 .43100003 .34800003 .43100003 L .21800003 .43100003 L .23600003 .54200008 C .24900002 .62 .33200003 .67600008 .41600005 .67600008 C .43900005 .67600008 .47200004 .67200008 .49600003 .64900007 C .45600004 .64500007 .44500003 .615 .44500003 .595 C .44500003 .55300006 .48600004 .55300006 .48700003 .55300006 C .492 .55300006 .542 .55600008 .542 .614 C .542 .66800007 .492 .70400008 .41900004 .70400008 C .30200003 .70400008 .18200001 .64100006 .16700001 .54800006 L .14800002 .43100003 L .066 .43100003 L .060000007 .39800004 L .142 .39800004 L .088 .072000008 C .082 .033 .06400001 .033 .0050000029 .033 L 0 0 C .043 .003 .08700001 .003 .113000009 .003 C .13300002 .003 .18600002 .003 .22500003 0 L .231 .033 C .18200001 .033 .16000001 .033 .16000001 .058000003 C .16000001 .059000005 .16200002 .071 .16200002 .07300001 L .21600002 .39800004 L .38700003 .39800004 C .41500003 .39800004 .43000005 .395 .43000005 .367 C .43000005 .36200003 .43000005 .36 .42700003 .34300003 L .38200004 .072000008 C .37600003 .033 .358 .033 .29900003 .033 L .29400004 0 C .337 .003 .381 .003 .40700004 .003 C .42700003 .003 .48000006 .003 .519 0 L .525 .033 C .47600005 .033 .45400004 .033 .45400004 .058000003 C .45400004 .059000005 .45600004 .071 .45600004 .07300001 L .517 .44300003 Z "/>
</symbol>
<symbol id="font_1_4">
<path d="M .169 .27400003 C .14500001 .275 .12200001 .293 .12200001 .32700003 C .12200001 .33200003 .12300001 .35800005 .146 .38200004 C .157 .374 .192 .352 .24600002 .352 C .35500003 .352 .44200004 .435 .44200004 .517 C .44200004 .561 .416 .59300008 .41500003 .59400007 C .46100004 .62600007 .50100007 .628 .51500007 .62900009 C .51100006 .62600007 .5030001 .6190001 .5030001 .602 C .5030001 .58100005 .52000007 .574 .53200009 .574 C .54100009 .574 .56600007 .58000007 .56600007 .612 C .56600007 .632 .55200007 .65700009 .51600006 .65700009 C .48700003 .65700009 .439 .646 .397 .61100009 C .36400003 .637 .32500003 .646 .291 .646 C .18200001 .646 .095000009 .563 .095000009 .48100005 C .095000009 .462 .1 .43 .127 .39900003 C .101 .37200005 .082 .33600004 .082 .298 C .082 .263 .098000008 .23900002 .111 .22800002 C .044 .21000001 0 .16200002 0 .11800001 C 0 .055000009 .085 0 .21700001 0 C .31800003 0 .47300003 .039000006 .47300003 .14900002 C .47300003 .27400003 .33400003 .27400003 .22800002 .27400003 L .169 .27400003 M .24700001 .38100005 C .223 .38100005 .172 .39100004 .172 .45800004 C .172 .544 .21300002 .61700007 .29000003 .61700007 C .314 .61700007 .365 .607 .365 .54 C .365 .45400004 .324 .38100005 .24700001 .38100005 M .21800001 .029 C .118 .029 .059 .073000017 .059 .117000009 C .059 .134 .069 .16900002 .109 .19300002 C .136 .209 .146 .209 .222 .209 C .314 .209 .41300003 .209 .41300003 .14000002 C .41300003 .08200001 .324 .029 .21800001 .029 Z "/>
</symbol>
<symbol id="font_1_8">
<path d="M .453 .451 L .31599999 .441 C .3 .44 .29900003 .439 .297 .432 C .296 .42700003 .29299999 .411 .29299999 .407 C .342 .407 .36300005 .404 .36300005 .37600003 C .36300005 .37 .35800005 .343 .356 .326 L .33500005 .20000002 C .32700003 .15300001 .319 .109000008 .268 .063 C .255 .052000006 .22400002 .028 .177 .028 C .100999999 .028 .100999999 .063 .100999999 .083000008 C .100999999 .092 .100999999 .098000008 .104 .116000007 L .16000001 .451 L .023000002 .441 C .0069999995 .44 .0059999974 .439 .0040000008 .432 C .0029999987 .42700003 0 .411 0 .407 C .048999996 .407 .06999999 .404 .06999999 .37600003 C .06999999 .367 .051 .255 .047999994 .23900002 L .036 .16700001 C .032999994 .14600002 .027999998 .118 .027999998 .105000007 C .027999998 .022 .094 0 .17 0 C .23200001 0 .27600003 .026 .31599999 .078 L .31700004 .078 L .30400003 0 L .43800003 .009000001 C .45400007 .010000001 .45500005 .011000001 .45700003 .018000002 C .45900006 .026 .46100004 .037 .46100004 .043 C .40500004 .043 .39100004 .048000006 .39100004 .075 C .39100004 .079 .39100004 .081 .39400006 .098000008 L .453 .451 Z "/>
</symbol>
<symbol id="font_1_7">
<path d="M .19900002 .34100003 L .21600002 .441 L .089 .43100003 C .073 .43 .07200001 .42900003 .07000001 .42200003 C .069000009 .41700004 .066 .40100003 .066 .397 C .11500001 .397 .136 .39400003 .136 .36600004 C .136 .363 .13300002 .347 .13300002 .34600003 L .088 .072000008 C .082 .033 .06400001 .033 .0050000029 .033 L 0 0 C .043 .003 .08600001 .003 .118000019 .003 C .17500001 .003 .17700002 .003 .245 0 C .24600002 .006 .24900002 .029000001 .25000004 .033 L .23000002 .033 C .16700001 .033 .16000001 .042000005 .16000001 .061000006 C .16000001 .065000008 .16600001 .101 .16900002 .12100001 C .17200002 .13700001 .17900002 .177 .18100001 .193 C .19200002 .25500003 .20000002 .30200003 .24300003 .358 C .263 .38300003 .29400004 .41000004 .34300003 .41300003 C .34100003 .411 .32200004 .39600004 .32200004 .37100003 C .32200004 .35200004 .337 .333 .36200003 .333 C .39100004 .333 .41300003 .35700003 .41300003 .38500003 C .41300003 .41300003 .388 .441 .344 .441 C .25500003 .441 .20300001 .34500004 .20000002 .34 L .19900002 .34100003 Z "/>
</symbol>
<use xlink:href="#font_1_2" transform="matrix(6.9738,0,0,-6.9738,19.90109,93.19844)"/>
<use xlink:href="#font_1_5" transform="matrix(6.9738,0,0,-6.9738,25.236048,93.051998)"/>
<use xlink:href="#font_1_9" transform="matrix(6.9738,0,0,-6.9738,27.614115,93.121738)"/>
<use xlink:href="#font_1_3" transform="matrix(6.9738,0,0,-6.9738,31.149832,93.121738)"/>
<use xlink:href="#font_1_6" transform="matrix(6.9738,0,0,-6.9738,34.28804,93.051998)"/>
<use xlink:href="#font_1_1" transform="matrix(6.9738,0,0,-6.9738,40.82947,93.051998)"/>
<use xlink:href="#font_1_4" transform="matrix(6.9738,0,0,-6.9738,44.81151,94.48162)"/>
<use xlink:href="#font_1_8" transform="matrix(6.9738,0,0,-6.9738,49.14921,93.121738)"/>
<use xlink:href="#font_1_7" transform="matrix(6.9738,0,0,-6.9738,52.761648,93.051998)"/>
<use xlink:href="#font_1_3" transform="matrix(6.9738,0,0,-6.9738,55.85104,93.121738)"/>
<path transform="matrix(1,0,0,-1,10.568,74.300998)" d="M 141.73404 62.36288 L 136.9956 51.93785 C 140.00598 50.56958 143.4625 50.56958 146.47289 51.93785 Z " fill="#006400" fill-opacity=".1"/>
<path transform="matrix(1,0,0,-1,10.568,74.300998)" stroke-width=".79701" stroke-linecap="round" stroke-linejoin="round" fill="none" stroke="#006400" d="M 141.73404 62.36288 L 136.9956 51.93785 C 140.00598 50.56958 143.4625 50.56958 146.47289 51.93785 Z "/>
<path transform="matrix(1,0,0,-1,10.568,74.300998)" stroke-width=".79701" stroke-linecap="round" stroke-linejoin="round" fill="none" stroke="#000000" d="M 113.38724 0 L 141.73404 62.36288 L 170.08086 0 Z "/>
<path transform="matrix(1,0,0,-1,10.568,74.300998)" stroke-width=".79701" stroke-linecap="round" stroke-linejoin="round" fill="none" stroke="#000000" d="M 125.21065 32.24742 L 129.9076 30.11285 "/>
<path transform="matrix(1,0,0,-1,10.568,74.300998)" stroke-width=".79701" stroke-linecap="round" stroke-linejoin="round" fill="none" stroke="#000000" d="M 158.2544 32.24742 L 153.55745 30.11285 "/>
<path transform="matrix(1,0,0,-1,10.568,74.300998)" d="M 114.58276 0 C 114.58276 .66026 114.0475 1.19553 113.38724 1.19553 C 112.72696 1.19553 112.1917 .66026 112.1917 0 C 112.1917 -.66026 112.72696 -1.19553 113.38724 -1.19553 C 114.0475 -1.19553 114.58276 -.66026 114.58276 0 Z M 113.38724 0 " fill="#0000ff"/>
<path transform="matrix(1,0,0,-1,10.568,74.300998)" stroke-width=".79701" stroke-linecap="round" stroke-linejoin="round" fill="none" stroke="#000000" d="M 114.58276 0 C 114.58276 .66026 114.0475 1.19553 113.38724 1.19553 C 112.72696 1.19553 112.1917 .66026 112.1917 0 C 112.1917 -.66026 112.72696 -1.19553 113.38724 -1.19553 C 114.0475 -1.19553 114.58276 -.66026 114.58276 0 Z M 113.38724 0 "/>
<use xlink:href="#font_0_1" transform="matrix(6.9738,0,0,-6.9738,116.25251,80.368999)" fill="#0000ff"/>
<path transform="matrix(1,0,0,-1,10.568,74.300998)" d="M 171.27639 0 C 171.27639 .66026 170.74112 1.19553 170.08086 1.19553 C 169.42058 1.19553 168.88532 .66026 168.88532 0 C 168.88532 -.66026 169.42058 -1.19553 170.08086 -1.19553 C 170.74112 -1.19553 171.27639 -.66026 171.27639 0 Z M 170.08086 0 " fill="#0000ff"/>
<path transform="matrix(1,0,0,-1,10.568,74.300998)" stroke-width=".79701" stroke-linecap="round" stroke-linejoin="round" fill="none" stroke="#000000" d="M 171.27639 0 C 171.27639 .66026 170.74112 1.19553 170.08086 1.19553 C 169.42058 1.19553 168.88532 .66026 168.88532 0 C 168.88532 -.66026 169.42058 -1.19553 170.08086 -1.19553 C 170.74112 -1.19553 171.27639 -.66026 171.27639 0 Z M 170.08086 0 "/>
<use xlink:href="#font_0_2" transform="matrix(6.9738,0,0,-6.9738,183.07112,80.368999)" fill="#0000ff"/>
<path transform="matrix(1,0,0,-1,10.568,74.300998)" d="M 142.92957 62.36288 C 142.92957 63.02315 142.3943 63.55841 141.73404 63.55841 C 141.07378 63.55841 140.53852 63.02315 140.53852 62.36288 C 140.53852 61.70262 141.07378 61.16736 141.73404 61.16736 C 142.3943 61.16736 142.92957 61.70262 142.92957 62.36288 Z M 141.73404 62.36288 " fill="#0000ff"/>
<path transform="matrix(1,0,0,-1,10.568,74.300998)" stroke-width=".79701" stroke-linecap="round" stroke-linejoin="round" fill="none" stroke="#000000" d="M 142.92957 62.36288 C 142.92957 63.02315 142.3943 63.55841 141.73404 63.55841 C 141.07378 63.55841 140.53852 63.02315 140.53852 62.36288 C 140.53852 61.70262 141.07378 61.16736 141.73404 61.16736 C 142.3943 61.16736 142.92957 61.70262 142.92957 62.36288 Z M 141.73404 62.36288 "/>
<use xlink:href="#font_0_3" transform="matrix(6.9738,0,0,-6.9738,153.65515,7.374469)" fill="#0000ff"/>
</g>
</svg>
