<?xml version="1.0" encoding="UTF-8" standalone="no"?>
<!DOCTYPE svg PUBLIC "-//W3C//DTD SVG 1.1//EN" "http://www.w3.org/Graphics/SVG/1.1/DTD/svg11.dtd">
<svg xmlns="http://www.w3.org/2000/svg" xmlns:xlink="http://www.w3.org/1999/xlink" version="1.1" width="191.398pt" height="84.823pt" viewBox="0 0 191.398 84.823">
<g enable-background="new">
<path transform="matrix(1,0,0,-1,10.568,74.300998)" stroke-width=".79701" stroke-linecap="round" stroke-linejoin="round" fill="none" stroke="#000000" d="M 0 0 L 28.3468 62.36288 L 56.69362 0 Z "/>
<path transform="matrix(1,0,0,-1,10.568,74.300998)" stroke-width=".79701" stroke-linecap="round" stroke-linejoin="round" fill="none" stroke="#000000" d="M 11.82341 32.24742 L 16.52034 30.11285 "/>
<path transform="matrix(1,0,0,-1,10.568,74.300998)" stroke-width=".79701" stroke-linecap="round" stroke-linejoin="round" fill="none" stroke="#000000" d="M 44.86716 32.24742 L 40.17021 30.11285 "/>
<path transform="matrix(1,0,0,-1,10.568,74.300998)" d="M 1.19553 0 C 1.19553 .66026 .66026 1.19553 0 1.19553 C -.66026 1.19553 -1.19553 .66026 -1.19553 0 C -1.19553 -.66026 -.66026 -1.19553 0 -1.19553 C .66026 -1.19553 1.19553 -.66026 1.19553 0 Z M 0 0 " fill="#0000ff"/>
<path transform="matrix(1,0,0,-1,10.568,74.300998)" stroke-width=".79701" stroke-linecap="round" stroke-linejoin="round" fill="none" stroke="#000000" d="M 1.19553 0 C 1.19553 .66026 .66026 1.19553 0 1.19553 C -.66026 1.19553 -1.19553 .66026 -1.19553 0 C -1.19553 -.66026 -.66026 -1.19553 0 -1.19553 C .66026 -1.19553 1.19553 -.66026 1.19553 0 Z M 0 0 "/>
<symbol id="font_0_1">
<path d="M .14900002 .120000008 C .114 .066 .08200001 .040000004 .023000002 .036000004 C .012999997 .035 0 .035 0 .015000001 C 0 .004 .008999996 0 .013999999 0 C .04 0 .07300001 .004 .1 .004 C .132 .004 .17300001 0 .20300001 0 C .208 0 .22299999 0 .22299999 .022000002 C .22299999 .035 .21000001 .036000004 .206 .036000004 C .19800002 .037 .162 .039 .162 .066 C .162 .078 .17200002 .095000009 .17700002 .104 L .257 .22800002 L .54300007 .22800002 L .56700006 .062000004 C .563 .052 .55700007 .036000004 .498 .036000004 C .48600004 .036000004 .47200004 .036000004 .47200004 .014 C .47200004 .010000001 .475 0 .488 0 C .517 0 .58800008 .004 .61700007 .004 C .63500007 .004 .65800008 .003 .67600008 .003 C .69400009 .002 .71500006 0 .73300006 0 C .74600008 0 .7530001 .008 .7530001 .021000002 C .7530001 .036000004 .74100008 .036000004 .7250001 .036000004 C .66700008 .036000004 .6650001 .044000005 .66200008 .068 L .57400009 .68500009 C .57100006 .70600005 .56900009 .71300008 .5500001 .71300008 C .531 .71300008 .52500006 .70400008 .51600006 .69000008 L .14900002 .120000008 M .28100003 .264 L .49100004 .591 L .53800007 .264 L .28100003 .264 Z "/>
</symbol>
<use xlink:href="#font_0_1" transform="matrix(6.9738,0,0,-6.9738,2.867507,80.368999)" fill="#0000ff"/>
<path transform="matrix(1,0,0,-1,10.568,74.300998)" d="M 57.88914 0 C 57.88914 .66026 57.35388 1.19553 56.69362 1.19553 C 56.03334 1.19553 55.49808 .66026 55.49808 0 C 55.49808 -.66026 56.03334 -1.19553 56.69362 -1.19553 C 57.35388 -1.19553 57.88914 -.66026 57.88914 0 Z M 56.69362 0 " fill="#0000ff"/>
<path transform="matrix(1,0,0,-1,10.568,74.300998)" stroke-width=".79701" stroke-linecap="round" stroke-linejoin="round" fill="none" stroke="#000000" d="M 57.88914 0 C 57.88914 .66026 57.35388 1.19553 56.69362 1.19553 C 56.03334 1.19553 55.49808 .66026 55.49808 0 C 55.49808 -.66026 56.03334 -1.19553 56.69362 -1.19553 C 57.35388 -1.19553 57.88914 -.66026 57.88914 0 Z M 56.69362 0 "/>
<symbol id="font_0_2">
<path d="M .11800001 .078 C .109000008 .044000005 .107 .036000004 .030000002 .036000004 C .012999997 .036000004 0 .036000004 0 .015000001 C 0 0 .012000002 0 .030000002 0 L .41700004 0 C .585 0 .714 .115 .714 .21400002 C .714 .28500004 .649 .34600003 .543 .35700003 C .66400006 .379 .765 .455 .765 .541 C .765 .61700007 .688 .683 .558 .683 L .194 .683 C .17500001 .683 .162 .683 .162 .661 C .162 .647 .174 .647 .194 .647 C .19500003 .647 .21400002 .647 .23200003 .64500007 C .25300003 .643 .25500003 .64100006 .25500003 .63100007 C .25500003 .629 .25500003 .624 .25100003 .609 L .11800001 .078 M .27800004 .36900003 L .33900003 .61300006 C .34700004 .64400008 .34800003 .647 .39000003 .647 L .542 .647 C .644 .647 .667 .58000007 .667 .54200008 C .667 .46100004 .576 .36900003 .442 .36900003 L .27800004 .36900003 M .23000002 .036000004 C .19900003 .036000004 .19800002 .037 .19800002 .046000005 C .19800002 .047000003 .19800002 .052 .20200002 .067 L .27100004 .34100003 L .483 .34100003 C .577 .34100003 .61300006 .279 .61300006 .22100002 C .61300006 .12200001 .512 .036000004 .39100004 .036000004 L .23000002 .036000004 Z "/>
</symbol>
<use xlink:href="#font_0_2" transform="matrix(6.9738,0,0,-6.9738,69.68511,80.368999)" fill="#0000ff"/>
<path transform="matrix(1,0,0,-1,10.568,74.300998)" d="M 29.54233 62.36288 C 29.54233 63.02315 29.00706 63.55841 28.3468 63.55841 C 27.68654 63.55841 27.15128 63.02315 27.15128 62.36288 C 27.15128 61.70262 27.68654 61.16736 28.3468 61.16736 C 29.00706 61.16736 29.54233 61.70262 29.54233 62.36288 Z M 28.3468 62.36288 " fill="#0000ff"/>
<path transform="matrix(1,0,0,-1,10.568,74.300998)" stroke-width=".79701" stroke-linecap="round" stroke-linejoin="round" fill="none" stroke="#000000" d="M 29.54233 62.36288 C 29.54233 63.02315 29.00706 63.55841 28.3468 63.55841 C 27.68654 63.55841 27.15128 63.02315 27.15128 62.36288 C 27.15128 61.70262 27.68654 61.16736 28.3468 61.16736 C 29.00706 61.16736 29.54233 61.70262 29.54233 62.36288 Z M 28.3468 62.36288 "/>
<symbol id="font_0_3">
<path d="M .77300009 .71000006 C .77300009 .71500006 .77000007 .723 .76000007 .723 C .753 .723 .75100007 .721 .74200007 .711 L .669 .634 C .66 .646 .60400006 .723 .481 .723 C .23800004 .723 0 .508 0 .28200004 C 0 .11900001 .12800002 0 .307 0 C .36100004 0 .45700003 .011000001 .56000009 .098000008 C .63900008 .165 .661 .252 .661 .26000003 C .661 .27300004 .64900007 .27300004 .64400008 .27300004 C .63100007 .27300004 .62900009 .268 .62600007 .25700004 C .58500006 .120000008 .44500006 .036000004 .32400004 .036000004 C .21800003 .036000004 .1 .09300001 .1 .25100003 C .1 .28000004 .107 .43800003 .22200004 .564 C .29100005 .64100006 .39600004 .68700006 .49100007 .68700006 C .60700008 .68700006 .6750001 .603 .6750001 .49100004 C .6750001 .46300004 .67200008 .45600004 .67200008 .45000003 C .67200008 .43700005 .68500009 .43700005 .69000008 .43700005 C .70600005 .43700005 .70600005 .44000004 .711 .45900003 L .77300009 .71000006 Z "/>
</symbol>
<use xlink:href="#font_0_3" transform="matrix(6.9738,0,0,-6.9738,40.269166,7.374469)" fill="#0000ff"/>
<path transform="matrix(1,0,0,-1,10.568,74.300998)" d="M 141.73404 62.36288 L 135.28318 48.17046 C 137.30815 47.25003 139.50966 46.77208 141.73423 46.77208 Z " fill="#006400" fill-opacity=".1"/>
<path transform="matrix(1,0,0,-1,10.568,74.300998)" stroke-width=".79701" stroke-linecap="round" stroke-linejoin="round" fill="none" stroke="#006400" d="M 141.73404 62.36288 L 135.28318 48.17046 C 137.30815 47.25003 139.50966 46.77208 141.73423 46.77208 Z "/>
<path transform="matrix(1,0,0,-1,10.568,74.300998)" d="M 141.73404 62.36288 L 141.73404 48.75655 C 143.67546 48.75655 145.59674 49.17366 147.36396 49.97693 Z " fill="#006400" fill-opacity=".1"/>
<path transform="matrix(1,0,0,-1,10.568,74.300998)" stroke-width=".79701" stroke-linecap="round" stroke-linejoin="round" fill="none" stroke="#006400" d="M 141.73404 62.36288 L 141.73404 48.75655 C 143.67546 48.75655 145.59674 49.17366 147.36396 49.97693 Z "/>
<path transform="matrix(1,0,0,-1,10.568,74.300998)" stroke-width=".79701" stroke-linecap="round" stroke-linejoin="round" fill="none" stroke="#000000" d="M 113.38724 0 L 141.73404 62.36288 L 170.08086 0 Z "/>
<path transform="matrix(1,0,0,-1,10.568,74.300998)" stroke-width=".79701" stroke-linecap="round" stroke-linejoin="round" fill="none" stroke="#000000" d="M 125.21065 32.24742 L 129.9076 30.11285 "/>
<path transform="matrix(1,0,0,-1,10.568,74.300998)" stroke-width=".79701" stroke-linecap="round" stroke-linejoin="round" fill="none" stroke="#000000" d="M 158.2544 32.24742 L 153.55745 30.11285 "/>
<path transform="matrix(1,0,0,-1,10.568,74.300998)" stroke-width=".79701" stroke-linecap="round" stroke-linejoin="round" fill="none" stroke="#000000" d="M 141.73404 62.36288 L 141.73404 0 "/>
<path transform="matrix(1,0,0,-1,10.568,74.300998)" stroke-width=".79701" stroke-linecap="round" stroke-linejoin="round" fill="none" stroke="#000000" d="M 144.31369 32.18513 L 139.15438 32.18513 "/>
<path transform="matrix(1,0,0,-1,10.568,74.300998)" stroke-width=".79701" stroke-linecap="round" stroke-linejoin="round" fill="none" stroke="#000000" d="M 144.31369 30.17816 L 139.15438 30.17816 "/>
<path transform="matrix(1,0,0,-1,10.568,74.300998)" d="M 114.58276 0 C 114.58276 .66026 114.0475 1.19553 113.38724 1.19553 C 112.72696 1.19553 112.1917 .66026 112.1917 0 C 112.1917 -.66026 112.72696 -1.19553 113.38724 -1.19553 C 114.0475 -1.19553 114.58276 -.66026 114.58276 0 Z M 113.38724 0 " fill="#0000ff"/>
<path transform="matrix(1,0,0,-1,10.568,74.300998)" stroke-width=".79701" stroke-linecap="round" stroke-linejoin="round" fill="none" stroke="#000000" d="M 114.58276 0 C 114.58276 .66026 114.0475 1.19553 113.38724 1.19553 C 112.72696 1.19553 112.1917 .66026 112.1917 0 C 112.1917 -.66026 112.72696 -1.19553 113.38724 -1.19553 C 114.0475 -1.19553 114.58276 -.66026 114.58276 0 Z M 113.38724 0 "/>
<use xlink:href="#font_0_1" transform="matrix(6.9738,0,0,-6.9738,116.25251,80.368999)" fill="#0000ff"/>
<path transform="matrix(1,0,0,-1,10.568,74.300998)" d="M 171.27639 0 C 171.27639 .66026 170.74112 1.19553 170.08086 1.19553 C 169.42058 1.19553 168.88532 .66026 168.88532 0 C 168.88532 -.66026 169.42058 -1.19553 170.08086 -1.19553 C 170.74112 -1.19553 171.27639 -.66026 171.27639 0 Z M 170.08086 0 " fill="#0000ff"/>
<path transform="matrix(1,0,0,-1,10.568,74.300998)" stroke-width=".79701" stroke-linecap="round" stroke-linejoin="round" fill="none" stroke="#000000" d="M 171.27639 0 C 171.27639 .66026 170.74112 1.19553 170.08086 1.19553 C 169.42058 1.19553 168.88532 .66026 168.88532 0 C 168.88532 -.66026 169.42058 -1.19553 170.08086 -1.19553 C 170.74112 -1.19553 171.27639 -.66026 171.27639 0 Z M 170.08086 0 "/>
<use xlink:href="#font_0_2" transform="matrix(6.9738,0,0,-6.9738,183.07112,80.368999)" fill="#0000ff"/>
<path transform="matrix(1,0,0,-1,10.568,74.300998)" d="M 142.92957 62.36288 C 142.92957 63.02315 142.3943 63.55841 141.73404 63.55841 C 141.07378 63.55841 140.53852 63.02315 140.53852 62.36288 C 140.53852 61.70262 141.07378 61.16736 141.73404 61.16736 C 142.3943 61.16736 142.92957 61.70262 142.92957 62.36288 Z M 141.73404 62.36288 " fill="#0000ff"/>
<path transform="matrix(1,0,0,-1,10.568,74.300998)" stroke-width=".79701" stroke-linecap="round" stroke-linejoin="round" fill="none" stroke="#000000" d="M 142.92957 62.36288 C 142.92957 63.02315 142.3943 63.55841 141.73404 63.55841 C 141.07378 63.55841 140.53852 63.02315 140.53852 62.36288 C 140.53852 61.70262 141.07378 61.16736 141.73404 61.16736 C 142.3943 61.16736 142.92957 61.70262 142.92957 62.36288 Z M 141.73404 62.36288 "/>
<use xlink:href="#font_0_3" transform="matrix(6.9738,0,0,-6.9738,153.65515,7.374469)" fill="#0000ff"/>
<path transform="matrix(1,0,0,-1,10.568,74.300998)" d="M 142.92957 0 C 142.92957 .66026 142.3943 1.19553 141.73404 1.19553 C 141.07378 1.19553 140.53852 .66026 140.53852 0 C 140.53852 -.66026 141.07378 -1.19553 141.73404 -1.19553 C 142.3943 -1.19553 142.92957 -.66026 142.92957 0 Z M 141.73404 0 " fill="#0000ff"/>
<path transform="matrix(1,0,0,-1,10.568,74.300998)" stroke-width=".79701" stroke-linecap="round" stroke-linejoin="round" fill="none" stroke="#000000" d="M 142.92957 0 C 142.92957 .66026 142.3943 1.19553 141.73404 1.19553 C 141.07378 1.19553 140.53852 .66026 140.53852 0 C 140.53852 -.66026 141.07378 -1.19553 141.73404 -1.19553 C 142.3943 -1.19553 142.92957 -.66026 142.92957 0 Z M 141.73404 0 "/>
<symbol id="font_0_4">
<path d="M .11800001 .078 C .11000001 .044000005 .108 .036000004 .030000002 .036000004 C .012000002 .036000004 0 .036000004 0 .014 C 0 0 .012000002 0 .030000002 0 L .38700003 0 C .609 0 .8220001 .20400001 .8220001 .42200003 C .8220001 .568 .7210001 .683 .558 .683 L .194 .683 C .174 .683 .162 .683 .162 .661 C .162 .647 .17300001 .647 .195 .647 C .211 .647 .215 .647 .23300001 .64500007 C .253 .643 .255 .64100006 .255 .63100007 C .255 .629 .255 .624 .25100003 .609 L .11800001 .078 M .342 .61300006 C .35000003 .64400008 .351 .647 .393 .647 L .521 .647 C .6330001 .647 .72700008 .591 .72700008 .455 C .72700008 .432 .71700009 .259 .61700007 .14500001 C .57800009 .1 .492 .036000004 .36900003 .036000004 L .23300001 .036000004 C .20199999 .036000004 .201 .037 .201 .046000005 C .201 .047000003 .201 .052 .20500002 .067 L .342 .61300006 Z "/>
</symbol>
<use xlink:href="#font_0_4" transform="matrix(6.9738,0,0,-6.9738,148.58013,82.353)" fill="#0000ff"/>
</g>
</svg>
