<?xml version="1.0" encoding="UTF-8" standalone="no"?>
<!DOCTYPE svg PUBLIC "-//W3C//DTD SVG 1.1//EN" "http://www.w3.org/Graphics/SVG/1.1/DTD/svg11.dtd">
<svg xmlns="http://www.w3.org/2000/svg" xmlns:xlink="http://www.w3.org/1999/xlink" version="1.1" width="408.514pt" height="285.404pt" viewBox="0 0 408.514 285.404">
<g enable-background="new">
<path transform="matrix(1,0,0,-1,132.62,15.143005)" d="M 49.14937 14.94415 L -49.14937 14.94415 C -51.35031 14.94415 -53.13448 13.15999 -53.13448 10.95905 L -53.13448 -10.95905 C -53.13448 -13.15999 -51.35031 -14.94415 -49.14937 -14.94415 L 49.14937 -14.94415 C 51.35031 -14.94415 53.13448 -13.15999 53.13448 -10.95905 L 53.13448 10.95905 C 53.13448 13.15999 51.35031 14.94415 49.14937 14.94415 Z M -53.13448 -14.94415 " fill="#ccffcc"/>
<path transform="matrix(1,0,0,-1,132.62,15.143005)" stroke-width=".3985" stroke-linecap="butt" stroke-miterlimit="10" stroke-linejoin="miter" fill="none" stroke="#000000" d="M 49.14937 14.94415 L -49.14937 14.94415 C -51.35031 14.94415 -53.13448 13.15999 -53.13448 10.95905 L -53.13448 -10.95905 C -53.13448 -13.15999 -51.35031 -14.94415 -49.14937 -14.94415 L 49.14937 -14.94415 C 51.35031 -14.94415 53.13448 -13.15999 53.13448 -10.95905 L 53.13448 10.95905 C 53.13448 13.15999 51.35031 14.94415 49.14937 14.94415 Z M -53.13448 -14.94415 "/>
<symbol id="font_0_3">
<path d="M .376 .141 C .376 .073 .38700003 0 .46900005 0 C .58800008 0 .62000009 .18200001 .62000009 .192 C .62000009 .2 .61600008 .20500002 .609 .20500002 C .601 .20500002 .6 .2 .596 .185 C .58400008 .142 .541 .103 .49 .103 C .45000006 .103 .42800004 .125 .411 .2 C .572 .269 .67600008 .43400003 .67600008 .59900006 C .67600008 .77800008 .55500009 .89900007 .39900006 .89900007 C .19200002 .89900007 0 .69200006 0 .46800003 C 0 .296 .118 .172 .278 .172 C .31800003 .172 .357 .18100001 .376 .187 L .376 .141 M .219 .209 C .152 .237 .097 .307 .097 .43700005 C .097 .48700003 .10700001 .62700006 .18100001 .739 C .228 .81200006 .30800004 .874 .39500005 .874 C .476 .874 .57900008 .813 .57900008 .63100007 C .57900008 .544 .554 .335 .40300007 .236 C .388 .29900003 .36300005 .342 .305 .342 C .25700004 .342 .21100001 .29900003 .21100001 .245 C .21100001 .23200001 .212 .21900001 .219 .209 M .375 .22 C .34600003 .206 .31599999 .19700001 .282 .19700001 C .25300003 .19700001 .233 .21100001 .233 .245 C .233 .284 .26600004 .32 .306 .32 C .362 .32 .37200005 .27400003 .375 .22 Z "/>
</symbol>
<symbol id="font_0_14">
<path d="M .432 .45300005 L .303 .44300003 C .301 .44300003 .286 .44200004 .285 .441 C .282 .43900005 .278 .41400004 .278 .411 C .335 .411 .349 .40600003 .349 .37900005 C .349 .37200005 .34300003 .33800004 .34 .31700004 L .319 .19100002 C .31300003 .16000001 .305 .108 .26200003 .064 C .23000002 .032 .199 .022000002 .16800002 .022000002 C .095 .022000002 .094 .060000004 .094 .079 C .094 .08400001 .095 .10300001 .096 .107 L .15400002 .45300005 L .024999999 .44300003 C .023000002 .44300003 .008000001 .44200004 .0069999995 .441 C .0040000008 .43900005 0 .41400004 0 .411 C .056999998 .411 .070999998 .40600003 .070999998 .37900005 C .070999998 .36900003 .048999996 .23900002 .045 .21700002 C .039000006 .17900002 .029 .123 .029 .104 C .029 .043 .060000004 0 .16300002 0 C .252 0 .29700003 .075 .303 .085 L .30400003 .08400001 L .29000003 0 L .41600005 .010000001 C .418 .010000001 .433 .011000001 .43400005 .012000001 C .437 .014 .441 .039 .441 .042000005 C .38200004 .042000005 .37 .047000003 .37 .074 C .37 .076000008 .37 .083000008 .37300004 .101 L .432 .45300005 Z "/>
</symbol>
<symbol id="font_0_5">
<path d="M .435 .15600002 C .43100003 .13000001 .42400003 .08800001 .421 .079 C .41300003 .049000004 .39400003 .036000004 .379 .036000004 C .35700003 .036000004 .35 .058000003 .35 .077 C .35 .087000008 .359 .136 .361 .14900002 C .367 .18100001 .39000003 .31100003 .39000003 .33300004 C .39000003 .40900005 .322 .45900003 .238 .45900003 C .137 .45900003 .069 .39400003 .069 .33800004 C .069 .321 .079 .29900003 .11000001 .29900003 C .139 .29900003 .162 .323 .162 .351 C .162 .37700004 .144 .39000003 .12 .39100004 C .151 .42600004 .20500002 .43700005 .23500002 .43700005 C .292 .43700005 .322 .39000003 .322 .34000004 C .322 .33 .315 .27600003 .31100003 .27300004 C .30900003 .272 .307 .272 .284 .27100004 C .11900001 .26500003 0 .18600002 0 .093 C 0 .016 .09700001 0 .14500001 0 C .234 0 .28100003 .07000001 .289 .08400001 C .289 .015000001 .33200003 .005000001 .35300002 .005000001 C .382 .005000001 .43800003 .025000003 .45000003 .098000008 C .45300005 .111 .45400004 .119 .46 .15600002 L .435 .15600002 M .294 .16100002 C .289 .13100001 .284 .1 .24599999 .063 C .222 .039 .187 .022000002 .15200001 .022000002 C .109000008 .022000002 .077 .05 .077 .091000009 C .077 .092 .077 .24100001 .30900003 .25100003 L .294 .16100002 Z "/>
</symbol>
<symbol id="font_0_6">
<path d="M .498 .705 L .372 .695 C .37 .695 .35500003 .694 .35400004 .693 C .351 .691 .34700004 .666 .34700004 .663 C .404 .663 .418 .658 .418 .631 C .418 .63 .418 .623 .41500003 .605 L .379 .39000003 C .36900003 .40600003 .335 .45300005 .26200003 .45300005 C .13200002 .45300005 0 .335 0 .18900001 C 0 .07000001 .08500001 0 .179 0 C .26000003 0 .314 .057000005 .321 .064 L .31100003 0 L .44000004 .010000001 C .442 .010000001 .45700006 .011000001 .45800004 .012000001 C .461 .014 .465 .039 .465 .042000005 C .40600003 .042000005 .39400003 .047000003 .39400003 .074 C .39400003 .076000008 .39400003 .083000008 .397 .101 L .498 .705 M .33200003 .12900001 C .32900004 .11000001 .32900004 .109000008 .312 .08800001 C .28100003 .051000004 .23400003 .022000002 .18400002 .022000002 C .14500001 .022000002 .07900001 .046 .07900001 .15400002 C .07900001 .17300001 .08400001 .286 .133 .35600005 C .171 .40800003 .224 .43100003 .26500003 .43100003 C .34600003 .43100003 .36900003 .358 .36900003 .35200004 C .36900003 .34900005 .36900003 .34700004 .367 .33600004 L .33200003 .12900001 Z "/>
</symbol>
<symbol id="font_0_1">
<path d="M .107 .060000004 C .107 .09200001 .08200001 .106000009 .060999998 .106000009 C .027000003 .106000009 0 .076000008 0 .046000005 C 0 .023000002 .017000005 0 .047 0 C .076 0 .107 .026 .107 .060000004 Z "/>
</symbol>
<use xlink:href="#font_0_3" transform="matrix(9.9626,0,0,-9.9626,96.17799,13.58875)"/>
<use xlink:href="#font_0_14" transform="matrix(9.9626,0,0,-9.9626,103.84919,11.7655949)"/>
<use xlink:href="#font_0_5" transform="matrix(9.9626,0,0,-9.9626,108.96997,11.7655949)"/>
<use xlink:href="#font_0_6" transform="matrix(9.9626,0,0,-9.9626,114.050899,11.7655949)"/>
<use xlink:href="#font_0_1" transform="matrix(9.9626,0,0,-9.9626,119.85909,11.656006)"/>
<symbol id="font_1_3">
<path d="M .71000006 .71700009 C .71000006 .72 .708 .72700008 .699 .72700008 C .69600006 .72700008 .69500008 .7260001 .684 .71500006 L .614 .6380001 C .605 .65200009 .559 .72700008 .448 .72700008 C .22500001 .72700008 0 .50600007 0 .27400003 C 0 .109000008 .118000019 0 .271 0 C .358 0 .43400003 .040000004 .487 .086 C .58000007 .16800002 .597 .25900004 .597 .26200003 C .597 .272 .587 .272 .58500006 .272 C .579 .272 .574 .27 .572 .26200003 C .563 .23300001 .54 .162 .47100003 .104 C .402 .048 .33900003 .031000004 .287 .031000004 C .19700001 .031000004 .091000009 .083000008 .091000009 .23900001 C .091000009 .29600004 .112 .45800004 .21200003 .57500007 C .273 .646 .367 .69600006 .45600004 .69600006 C .558 .69600006 .61700007 .619 .61700007 .503 C .61700007 .46300004 .614 .46200005 .614 .45200003 C .614 .44200004 .625 .44200004 .629 .44200004 C .642 .44200004 .642 .44400005 .647 .46200005 L .71000006 .71700009 Z "/>
</symbol>
<symbol id="font_1_4">
<path d="M .119 .078 C .109 .039 .10699999 .031000002 .028 .031000002 C .011 .031000002 0 .031000002 0 .012 C 0 0 .009 0 .028 0 L .35900004 0 C .56700006 0 .764 .21100001 .764 .43 C .764 .57100006 .679 .683 .529 .683 L .193 .683 C .17400001 .683 .163 .683 .163 .66400006 C .163 .652 .172 .652 .192 .652 C .205 .652 .223 .651 .235 .65000006 C .25100003 .648 .25700004 .64500007 .25700004 .634 C .25700004 .63000008 .256 .62700006 .25300003 .615 L .119 .078 M .33500005 .614 C .344 .64900007 .34600003 .652 .38900004 .652 L .49600003 .652 C .594 .652 .677 .59900006 .677 .467 C .677 .418 .657 .254 .572 .14400001 C .543 .10700001 .46400003 .031000002 .34100003 .031000002 L .228 .031000002 C .214 .031000002 .212 .031000002 .206 .032 C .19600001 .033 .193 .034 .193 .042000005 C .193 .045 .193 .047000003 .198 .065000008 L .33500005 .614 Z "/>
</symbol>
<symbol id="font_1_2">
<path d="M .11800001 .078 C .108 .039 .106 .031000002 .027000003 .031000002 C .009999998 .031000002 0 .031000002 0 .011000001 C 0 0 .009 0 .027000003 0 L .38400004 0 C .54200008 0 .66 .11800001 .66 .216 C .66 .28800003 .60200008 .34600003 .50500008 .35700003 C .609 .37600003 .71400007 .45000003 .71400007 .545 C .71400007 .619 .64800009 .683 .52800008 .683 L .192 .683 C .17300001 .683 .16300002 .683 .16300002 .66300007 C .16300002 .652 .17200002 .652 .19100002 .652 C .19300002 .652 .21200001 .652 .22900003 .65000006 C .24700001 .648 .256 .647 .256 .634 C .256 .63000008 .25500003 .62700006 .252 .615 L .11800001 .078 M .26900003 .36600004 L .33100004 .614 C .34000004 .64900007 .342 .652 .38500003 .652 L .51400008 .652 C .60200008 .652 .623 .59300008 .623 .549 C .623 .46100004 .53700008 .36600004 .41500003 .36600004 L .26900003 .36600004 M .224 .031000002 C .21000001 .031000002 .208 .031000002 .20200002 .032 C .192 .033 .18900001 .034 .18900001 .042000005 C .18900001 .045 .18900001 .047000003 .194 .065000008 L .263 .344 L .45200003 .344 C .54800006 .344 .56700006 .27 .56700006 .22700002 C .56700006 .128 .47800005 .031000002 .36 .031000002 L .224 .031000002 Z "/>
</symbol>
<symbol id="font_1_6">
<path d="M .458 .411 L .374 .61 C .37100003 .61800006 .36900003 .62200006 .36900003 .623 C .36900003 .629 .386 .648 .428 .652 C .43800003 .65300008 .448 .65400007 .448 .671 C .448 .683 .43600003 .683 .433 .683 C .39200003 .683 .349 .68 .307 .68 C .282 .68 .22000002 .683 .19500003 .683 C .18900001 .683 .17700002 .683 .17700002 .66300007 C .17700002 .652 .18700002 .652 .20000002 .652 C .26 .652 .266 .642 .275 .62 L .393 .34100003 L .18200001 .11400001 L .16900002 .10300001 C .12 .05 .073 .034 .022000002 .031000002 C .0090000019 .030000002 0 .030000002 0 .011000001 C 0 .010000001 0 0 .013000002 0 C .042999999 0 .076000008 .003 .107 .003 C .14400001 .003 .18300002 0 .21900001 0 C .22500001 0 .237 0 .237 .020000002 C .237 .030000002 .22700002 .031000002 .22500001 .031000002 C .21600002 .032 .18500002 .034 .18500002 .062000004 C .18500002 .078 .20000002 .094000007 .21200001 .10700001 L .314 .215 L .404 .31300003 L .505 .074 C .509 .063 .51 .062000004 .51 .060000004 C .51 .052 .491 .035 .45200003 .031000002 C .441 .030000002 .432 .029000001 .432 .012 C .432 0 .44300003 0 .44700004 0 C .47500003 0 .545 .003 .573 .003 C .598 .003 .65900006 0 .684 0 C .69100007 0 .703 0 .703 .019000002 C .703 .031000002 .693 .031000002 .685 .031000002 C .61800006 .032 .616 .035 .59900006 .075 C .56 .16800002 .49300004 .324 .47 .384 C .538 .45400004 .643 .573 .675 .601 C .704 .625 .74200007 .64900007 .80200007 .652 C .81500008 .65300008 .824 .65300008 .824 .67200008 C .824 .67300006 .824 .683 .81100007 .683 C .781 .683 .748 .68 .717 .68 C .68 .68 .642 .683 .606 .683 C .6 .683 .587 .683 .587 .66300007 C .587 .656 .592 .65300008 .59900006 .652 C .60800006 .651 .639 .64900007 .639 .62100008 C .639 .60700008 .628 .59400007 .62 .58500006 L .458 .411 Z "/>
</symbol>
<use xlink:href="#font_1_3" transform="matrix(9.9626,0,0,-9.9626,127.15912,11.875183)"/>
<use xlink:href="#font_1_4" transform="matrix(9.9626,0,0,-9.9626,134.90006,11.656006)"/>
<use xlink:href="#font_1_2" transform="matrix(9.9626,0,0,-9.9626,143.43802,11.656006)"/>
<use xlink:href="#font_1_6" transform="matrix(9.9626,0,0,-9.9626,151.34832,11.656006)"/>
<symbol id="font_0_b">
<path d="M .25200004 .623 C .25200004 .646 .23500002 .669 .20500002 .669 C .17700002 .669 .14500001 .64500007 .14500001 .609 C .14500001 .58000007 .16600001 .563 .192 .563 C .22300002 .563 .25200004 .592 .25200004 .623 M .095000009 .43300004 C .07700001 .432 .076000008 .43 .075 .425 C .075 .42200003 .071 .402 .071 .4 C .125 .4 .13800001 .395 .13800001 .36800004 C .13800001 .367 .13800001 .36 .13500002 .342 L .09 .074 C .08400001 .036000004 .080000009 .031000002 .006000001 .031000002 L .0050000029 .031000002 L 0 0 C .032000007 .001 .086 .003 .11000001 .003 C .14700002 .003 .185 .001 .213 0 L .21900001 .031000002 C .17400003 .031000002 .15400002 .031000002 .15400002 .055000005 C .15400002 .060000004 .15400002 .062000004 .157 .078 L .21800003 .44200004 L .095000009 .43300004 Z "/>
</symbol>
<symbol id="font_0_12">
<path d="M .37300004 .43400003 C .37500004 .44300003 .37500004 .44500003 .37500004 .448 C .37500004 .45400004 .37200005 .45900003 .36400003 .45900003 C .36 .45900003 .35800005 .45900003 .34300003 .44600005 C .33100004 .43700005 .33 .43700005 .323 .43100003 C .29000003 .45900003 .24600002 .45900003 .23300001 .45900003 C .09 .45900003 .053000004 .36900003 .053000004 .321 C .053000004 .28700004 .069000009 .26400004 .08900001 .24700003 C .116000007 .22400002 .146 .21800003 .19300002 .20900002 C .23700002 .20000002 .29700003 .18800001 .29700003 .127 C .29700003 .093 .272 .022000002 .16600001 .022000002 C .117000009 .022000002 .058000007 .039 .052 .16000001 C .051000008 .17600002 .051000008 .18100001 .039000006 .18100001 C .029000003 .18100001 .028000005 .17800002 .025000003 .16000001 L .0020000004 .026 C 0 .017 0 .015000001 0 .011000001 C 0 .0040000008 .0040000008 0 .011000004 0 C .016000003 0 .017 .0010000002 .038000004 .021000002 C .044000009 .026 .058000007 .039 .063 .044 C .08900001 .010000001 .127 0 .16600001 0 C .31200005 0 .35000003 .106000009 .35000003 .158 C .35000003 .19600001 .33400003 .22100002 .316 .23800002 C .28700004 .268 .261 .27300004 .20700002 .28300003 C .162 .29200004 .10600001 .30300004 .10600001 .35300002 C .10600001 .35400004 .10600001 .44000004 .23300001 .44000004 C .25200004 .44000004 .33100004 .44000004 .33100004 .34900005 C .33100004 .33600004 .32900004 .323 .32900004 .32000003 C .32900004 .31100003 .33800004 .31000004 .34100003 .31000004 C .35200004 .31000004 .35300002 .316 .35600005 .33300004 L .37300004 .43400003 Z "/>
</symbol>
<symbol id="font_0_10">
<path d="M .23 .031000004 C .167 .031000004 .157 .033999996 .157 .055999996 C .157 .066 .184 .221 .18800001 .245 C .199 .227 .23200001 .183 .30200003 .183 C .43200005 .183 .564 .301 .564 .448 C .564 .56200006 .48500005 .63600006 .38700003 .63600006 C .30600003 .63600006 .25 .58300009 .23900001 .571 L .25 .63600006 L .104 .625 L .09900001 .594 C .156 .594 .171 .59000006 .171 .566 C .171 .559 .169 .55 .168 .54200008 L .089 .071 C .082 .031000004 .069000009 .031000004 .0050000005 .031000004 L 0 0 C .034 .001000002 .086 .0029999912 .112 .0029999912 C .139 .0029999912 .19 .001000002 .22500001 0 L .23 .031000004 M .236 .53000006 C .279 .591 .33800004 .61100009 .37900005 .61100009 C .43900005 .61100009 .48200003 .551 .48200003 .46100004 C .48200003 .319 .38500003 .20500002 .298 .20500002 C .242 .20500002 .208 .244 .19500001 .289 L .236 .53000006 Z "/>
</symbol>
<symbol id="font_0_11">
<path d="M .19600001 .33800004 L .21300002 .44200004 L .091000009 .43300004 C .073 .432 .072 .43 .07100001 .425 C .07100001 .42200003 .067 .402 .067 .4 C .12400001 .4 .13800001 .395 .13800001 .36800004 C .13800001 .367 .13800001 .36 .135 .342 L .09 .074 C .08400001 .036000004 .08 .031000002 .006000001 .031000002 L .004999999 .031000002 L 0 0 C .040000004 .001 .08600001 .003 .11500001 .003 C .12100001 .003 .20900002 .002 .24100003 0 C .24300003 .010000001 .24400002 .021000002 .24600002 .031000002 L .22700003 .031000002 C .16600001 .031000002 .15400002 .037 .15400002 .059000005 C .15400002 .07300001 .18600002 .25 .19100002 .27 C .20800002 .326 .24900002 .42000003 .34000004 .42000003 L .34000004 .41900004 C .32400004 .41200004 .31300003 .39400003 .31300003 .374 C .31300003 .344 .33800004 .337 .351 .337 C .37600003 .337 .40000005 .35700003 .40000005 .38700003 C .40000005 .41900004 .37300004 .44200004 .33400003 .44200004 C .27 .44200004 .22100002 .38900004 .19700001 .337 L .19600001 .33800004 Z "/>
</symbol>
<symbol id="font_0_c">
<path d="M .26000003 .694 L .134 .684 C .132 .684 .117000009 .683 .116000007 .68200007 C .11300001 .68 .109000008 .65500006 .109000008 .652 C .16600001 .652 .18 .647 .18 .62 C .18 .619 .18 .61200007 .17700002 .59400007 L .09 .074 C .08400001 .036000004 .080000009 .031000002 .006000001 .031000002 L .0050000029 .031000002 L 0 0 C .033 .001 .086 .003 .11100001 .003 C .13500002 .003 .185 .001 .22100002 0 L .22700003 .031000002 C .17700002 .031000002 .15400002 .031000002 .15400002 .056 C .15400002 .060000004 .155 .066 .15600002 .071 L .26000003 .694 Z "/>
</symbol>
<symbol id="font_0_7">
<path d="M .36700005 .24200002 C .39100004 .24200002 .393 .24200002 .39600004 .261 C .399 .28300003 .399 .29900003 .399 .305 C .399 .42300005 .32 .45900003 .24800001 .45900003 C .113000009 .45900003 0 .32400004 0 .19300002 C 0 .081 .082 0 .187 0 C .31 0 .37300004 .11400001 .37300004 .13100001 C .37300004 .135 .371 .14200002 .362 .14200002 C .35400004 .14200002 .352 .13800001 .347 .128 C .29900003 .036000004 .22000002 .025000003 .193 .025000003 C .147 .025000003 .08 .054 .08 .16200002 C .08 .19200002 .085999999 .22700002 .089 .24200002 L .36700005 .24200002 M .09300001 .263 C .128 .42200003 .223 .43700005 .24700003 .43700005 C .334 .43700005 .334 .33900003 .334 .31900005 C .334 .29700003 .333 .29000003 .329 .263 L .09300001 .263 Z "/>
</symbol>
<symbol id="font_0_f">
<path d="M .45000006 .26500003 C .45000006 .37600003 .372 .45900003 .264 .45900003 C .12200001 .45900003 0 .32000003 0 .18700002 C 0 .083000008 .076000008 0 .18800001 0 C .321 0 .45000006 .120000008 .45000006 .26500003 M .192 .025000003 C .164 .025000003 .08 .035 .08 .15500002 C .08 .19200002 .09300001 .30200003 .12400001 .35300002 C .17300001 .43300004 .243 .43700005 .26000003 .43700005 C .29200004 .43700005 .37300004 .42200003 .37300004 .31000004 C .37300004 .28700004 .365 .17900002 .33 .113000009 C .29900003 .056 .24400002 .025000003 .192 .025000003 Z "/>
</symbol>
<symbol id="font_0_9">
<path d="M .49800004 .63600006 C .49300004 .63400009 .47900004 .62100008 .47900004 .606 C .47900004 .595 .48700006 .58000007 .50600007 .58000007 C .51900008 .58000007 .53900006 .59000006 .53900006 .61600008 C .53900006 .62600007 .53300008 .65900006 .49400003 .65900006 C .45800004 .65900006 .41500003 .642 .381 .61200007 C .37100003 .62200006 .337 .64800009 .28 .64800009 C .18300002 .64800009 .094000007 .57100006 .094000007 .48200006 C .094000007 .444 .109000008 .41700004 .12500002 .40000005 C .11700001 .39200003 .079 .35200004 .079 .29700003 C .079 .263 .094000007 .24000001 .109000008 .22800002 C .041 .20900002 0 .16100002 0 .11600001 C 0 .051000015 .083000008 0 .20300001 0 C .298 0 .446 .040000008 .446 .15 C .446 .27100004 .31300003 .27100004 .21500002 .27100004 L .15900001 .27100004 C .13000001 .272 .113000009 .29700003 .113000009 .32500003 C .113000009 .33 .11400001 .36 .14000002 .38600005 C .172 .36 .21000001 .35500003 .23500002 .35500003 C .33400003 .35500003 .42100004 .43500004 .42100004 .521 C .42100004 .549 .41200004 .57400009 .395 .59700009 C .439 .637 .485 .637 .49800004 .637 L .49800004 .63600006 M .236 .37800003 C .20500002 .37800003 .165 .39600004 .165 .45500005 C .165 .463 .17000002 .536 .194 .57400009 C .216 .60800006 .25 .62500008 .279 .62500008 C .303 .62500008 .349 .61200007 .349 .54800006 C .349 .53900006 .34500004 .47100003 .32200004 .43200005 C .303 .397 .26700003 .37800003 .236 .37800003 M .20400001 .023000002 C .111 .023000002 .052 .067 .052 .11500001 C .052 .13800001 .065000008 .17100002 .09900001 .19400002 C .126 .21300002 .13700001 .21300002 .21000001 .21300002 C .298 .21300002 .393 .21300002 .393 .14000002 C .393 .07900001 .30600003 .023000002 .20400001 .023000002 Z "/>
</symbol>
<symbol id="font_0_d">
<path d="M .754 .303 C .757 .321 .757 .324 .757 .34 C .757 .416 .708 .44200004 .639 .44200004 C .56 .44200004 .50600007 .38900004 .48000003 .34500004 C .476 .432 .405 .44200004 .361 .44200004 C .268 .44200004 .214 .36800004 .199 .342 L .198 .34300003 L .215 .44200004 L .09200001 .432 C .09 .432 .075 .43100003 .074 .43 C .07100001 .42800004 .067 .40300004 .067 .4 C .124 .4 .138 .395 .138 .36800004 C .138 .367 .138 .36 .135 .342 L .09 .074 C .08400001 .036000004 .08 .031000002 .006000001 .031000002 L .004999999 .031000002 L 0 0 C .033999999 .001 .087 .003 .113000009 .003 C .138 .003 .192 .001 .224 0 L .23000002 .031000002 C .18 .031000002 .157 .031000002 .157 .056 C .157 .059000005 .164 .097 .16700001 .117000009 C .17400001 .16100002 .18100001 .20500002 .18900001 .24900002 C .194 .282 .20300001 .33 .252 .377 C .282 .404 .32000003 .42000003 .35300002 .42000003 C .39200003 .42000003 .41200004 .4 .41200004 .35300002 C .41200004 .33800004 .41000004 .32700003 .40100003 .26900003 L .367 .069000009 C .361 .031000002 .345 .031000002 .284 .031000002 L .28300003 .031000002 L .278 0 C .312 .001 .365 .003 .391 .003 C .416 .003 .47000004 .001 .50200006 0 L .508 .031000002 C .458 .031000002 .435 .031000002 .435 .056 C .435 .059000005 .44200004 .097 .44500003 .117000009 C .45200003 .16100002 .45900003 .20500002 .467 .24900002 C .472 .282 .481 .33 .53000006 .377 C .56 .404 .59800007 .42000003 .63100007 .42000003 C .67 .42000003 .69000008 .4 .69000008 .35300002 C .69000008 .33800004 .688 .32700003 .679 .26900003 L .64500007 .069000009 C .639 .031000002 .623 .031000002 .56200006 .031000002 L .56100007 .031000002 L .556 0 C .59000006 .001 .643 .003 .669 .003 C .694 .003 .748 .001 .78000006 0 L .786 .031000002 C .736 .031000002 .71300008 .031000002 .71300008 .056 C .71300008 .060000004 .71400007 .066 .71500006 .071 L .754 .303 Z "/>
</symbol>
<use xlink:href="#font_0_b" transform="matrix(9.9626,0,0,-9.9626,163.75977,11.656006)"/>
<use xlink:href="#font_0_12" transform="matrix(9.9626,0,0,-9.9626,166.52936,11.7655949)"/>
<use xlink:href="#font_0_5" transform="matrix(9.9626,0,0,-9.9626,99.397869,23.720582)"/>
<use xlink:href="#font_0_10" transform="matrix(9.9626,0,0,-9.9626,107.08899,25.543738)"/>
<use xlink:href="#font_0_5" transform="matrix(9.9626,0,0,-9.9626,113.235919,23.720582)"/>
<use xlink:href="#font_0_11" transform="matrix(9.9626,0,0,-9.9626,117.9283,23.610993)"/>
<use xlink:href="#font_0_5" transform="matrix(9.9626,0,0,-9.9626,122.12256,23.720582)"/>
<use xlink:href="#font_0_c" transform="matrix(9.9626,0,0,-9.9626,126.86475,23.610993)"/>
<use xlink:href="#font_0_c" transform="matrix(9.9626,0,0,-9.9626,129.63437,23.610993)"/>
<use xlink:href="#font_0_7" transform="matrix(9.9626,0,0,-9.9626,132.6829,23.720582)"/>
<use xlink:href="#font_0_c" transform="matrix(9.9626,0,0,-9.9626,136.82736,23.610993)"/>
<use xlink:href="#font_0_f" transform="matrix(9.9626,0,0,-9.9626,139.86598,23.720582)"/>
<use xlink:href="#font_0_9" transform="matrix(9.9626,0,0,-9.9626,144.38899,25.663289)"/>
<use xlink:href="#font_0_11" transform="matrix(9.9626,0,0,-9.9626,149.50975,23.610993)"/>
<use xlink:href="#font_0_5" transform="matrix(9.9626,0,0,-9.9626,153.70401,23.720582)"/>
<use xlink:href="#font_0_d" transform="matrix(9.9626,0,0,-9.9626,158.43624,23.610993)"/>
<path transform="matrix(1,0,0,-1,132.62,15.143005)" d="M -69.99005 12.70216 L -128.43769 12.70216 C -130.63863 12.70216 -132.42279 10.918 -132.42279 8.71706 L -132.42279 -8.71706 C -132.42279 -10.918 -130.63863 -12.70216 -128.43769 -12.70216 L -69.99005 -12.70216 C -67.78911 -12.70216 -66.00494 -10.918 -66.00494 -8.71706 L -66.00494 8.71706 C -66.00494 10.918 -67.78911 12.70216 -69.99005 12.70216 Z M -132.42279 -12.70216 " fill="#ccccff"/>
<path transform="matrix(1,0,0,-1,132.62,15.143005)" stroke-width=".3985" stroke-linecap="butt" stroke-miterlimit="10" stroke-linejoin="miter" fill="none" stroke="#000000" d="M -69.99005 12.70216 L -128.43769 12.70216 C -130.63863 12.70216 -132.42279 10.918 -132.42279 8.71706 L -132.42279 -8.71706 C -132.42279 -10.918 -130.63863 -12.70216 -128.43769 -12.70216 L -69.99005 -12.70216 C -67.78911 -12.70216 -66.00494 -10.918 -66.00494 -8.71706 L -66.00494 8.71706 C -66.00494 10.918 -67.78911 12.70216 -69.99005 12.70216 Z M -132.42279 -12.70216 "/>
<symbol id="font_1_5">
<path d="M .67 .23300001 C .67200008 .238 .6750001 .245 .6750001 .24700001 C .6750001 .24800001 .6750001 .25800003 .66300007 .25800003 C .65400007 .25800003 .65200009 .252 .65000006 .246 C .58500006 .098000008 .54800006 .031000002 .37700004 .031000002 L .23100002 .031000002 C .21700002 .031000002 .21500002 .031000002 .209 .032 C .19900002 .033 .19600001 .034 .19600001 .042000005 C .19600001 .045 .19600001 .047000003 .201 .065000008 L .269 .33800004 L .36800004 .33800004 C .453 .33800004 .453 .317 .453 .29200004 C .453 .28500004 .453 .273 .44600005 .24300002 C .444 .238 .44300003 .23500002 .44300003 .23200001 C .44300003 .22700002 .44700004 .22100002 .45600004 .22100002 C .46400006 .22100002 .467 .22600001 .47100003 .24100001 L .52800008 .47500003 C .52800008 .48100005 .52300009 .48600004 .51600006 .48600004 C .507 .48600004 .50500008 .48000003 .50200006 .46800003 C .48100008 .39200003 .46300007 .36900003 .371 .36900003 L .277 .36900003 L .337 .61 C .34600003 .64500007 .347 .64900007 .39100004 .64900007 L .53200009 .64900007 C .65400007 .64900007 .6840001 .62 .6840001 .53800007 C .6840001 .514 .6840001 .512 .68000009 .485 C .68000009 .47900004 .679 .47200004 .679 .467 C .679 .462 .68200007 .455 .69100007 .455 C .702 .455 .70300009 .46100004 .70500007 .48000003 L .725 .65300008 C .72800007 .68 .72300007 .68 .6980001 .68 L .193 .68 C .17300001 .68 .163 .68 .163 .66 C .163 .64900007 .172 .64900007 .19100002 .64900007 C .228 .64900007 .25599999 .64900007 .25599999 .63100007 C .25599999 .62700006 .25599999 .625 .251 .60700008 L .119 .078 C .109 .039 .10700001 .031000002 .027999998 .031000002 C .011 .031000002 0 .031000002 0 .012 C 0 0 .009 0 .027999998 0 L .54700008 0 C .57000008 0 .57100006 .001 .57800009 .017 L .67 .23300001 Z "/>
</symbol>
<use xlink:href="#font_1_3" transform="matrix(9.9626,0,0,-9.9626,10.491118,12.7881779)"/>
<use xlink:href="#font_1_5" transform="matrix(9.9626,0,0,-9.9626,18.212134,12.569)"/>
<symbol id="font_2_4">
<path d="M .63100007 .19400002 C .646 .19400002 .665 .19400002 .665 .214 C .665 .23400001 .646 .23400001 .632 .23400001 L .033 .23400001 C .019000002 .23400001 0 .23400001 0 .214 C 0 .19400002 .019000002 .19400002 .034 .19400002 L .63100007 .19400002 M .632 0 C .646 0 .665 0 .665 .02000001 C .665 .040000008 .646 .040000008 .63100007 .040000008 L .034 .040000008 C .019000002 .040000008 0 .040000008 0 .02000001 C 0 0 .019000002 0 .033 0 L .632 0 Z "/>
</symbol>
<use xlink:href="#font_2_4" transform="matrix(9.9626,0,0,-9.9626,29.979895,11.243975)"/>
<use xlink:href="#font_1_2" transform="matrix(9.9626,0,0,-9.9626,41.25542,12.569)"/>
<use xlink:href="#font_1_5" transform="matrix(9.9626,0,0,-9.9626,49.275316,12.569)"/>
<use xlink:href="#font_1_4" transform="matrix(9.9626,0,0,-9.9626,9.172495,24.523987)"/>
<use xlink:href="#font_1_6" transform="matrix(9.9626,0,0,-9.9626,17.570967,24.523987)"/>
<use xlink:href="#font_2_4" transform="matrix(9.9626,0,0,-9.9626,30.389897,23.198962)"/>
<use xlink:href="#font_1_5" transform="matrix(9.9626,0,0,-9.9626,41.45557,24.523987)"/>
<use xlink:href="#font_1_6" transform="matrix(9.9626,0,0,-9.9626,49.27621,24.523987)"/>
<path transform="matrix(1,0,0,-1,132.62,15.143005)" d="M 29.2238 -32.55743 L -29.2238 -32.55743 C -31.42474 -32.55743 -33.20891 -34.3416 -33.20891 -36.54254 L -33.20891 -48.4979 C -33.20891 -50.69884 -31.42474 -52.483 -29.2238 -52.483 L 29.2238 -52.483 C 31.42474 -52.483 33.20891 -50.69884 33.20891 -48.4979 L 33.20891 -36.54254 C 33.20891 -34.3416 31.42474 -32.55743 29.2238 -32.55743 Z M -33.20891 -52.483 " fill="#ccccff"/>
<path transform="matrix(1,0,0,-1,132.62,15.143005)" stroke-width=".3985" stroke-linecap="butt" stroke-miterlimit="10" stroke-linejoin="miter" fill="none" stroke="#000000" d="M 29.2238 -32.55743 L -29.2238 -32.55743 C -31.42474 -32.55743 -33.20891 -34.3416 -33.20891 -36.54254 L -33.20891 -48.4979 C -33.20891 -50.69884 -31.42474 -52.483 -29.2238 -52.483 L 29.2238 -52.483 C 31.42474 -52.483 33.20891 -50.69884 33.20891 -48.4979 L 33.20891 -36.54254 C 33.20891 -34.3416 31.42474 -32.55743 29.2238 -32.55743 Z M -33.20891 -52.483 "/>
<use xlink:href="#font_1_6" transform="matrix(9.9626,0,0,-9.9626,108.72698,61.065996)"/>
<use xlink:href="#font_1_2" transform="matrix(9.9626,0,0,-9.9626,117.9125,61.065996)"/>
<use xlink:href="#font_2_4" transform="matrix(9.9626,0,0,-9.9626,129.67092,59.740968)"/>
<use xlink:href="#font_1_3" transform="matrix(9.9626,0,0,-9.9626,140.92214,61.28517)"/>
<use xlink:href="#font_1_4" transform="matrix(9.9626,0,0,-9.9626,148.66306,61.065996)"/>
<path transform="matrix(1,0,0,-1,132.62,15.143005)" d="M -69.99005 -32.55743 L -128.43769 -32.55743 C -130.63863 -32.55743 -132.42279 -34.3416 -132.42279 -36.54254 L -132.42279 -48.4979 C -132.42279 -50.69884 -130.63863 -52.483 -128.43769 -52.483 L -69.99005 -52.483 C -67.78911 -52.483 -66.00494 -50.69884 -66.00494 -48.4979 L -66.00494 -36.54254 C -66.00494 -34.3416 -67.78911 -32.55743 -69.99005 -32.55743 Z M -132.42279 -52.483 " fill="#ccccff"/>
<path transform="matrix(1,0,0,-1,132.62,15.143005)" stroke-width=".3985" stroke-linecap="butt" stroke-miterlimit="10" stroke-linejoin="miter" fill="none" stroke="#000000" d="M -69.99005 -32.55743 L -128.43769 -32.55743 C -130.63863 -32.55743 -132.42279 -34.3416 -132.42279 -36.54254 L -132.42279 -48.4979 C -132.42279 -50.69884 -130.63863 -52.483 -128.43769 -52.483 L -69.99005 -52.483 C -67.78911 -52.483 -66.00494 -50.69884 -66.00494 -48.4979 L -66.00494 -36.54254 C -66.00494 -34.3416 -67.78911 -32.55743 -69.99005 -32.55743 Z M -132.42279 -52.483 "/>
<use xlink:href="#font_1_3" transform="matrix(9.9626,0,0,-9.9626,10.224118,61.28517)"/>
<use xlink:href="#font_1_4" transform="matrix(9.9626,0,0,-9.9626,17.96506,61.065996)"/>
<use xlink:href="#font_2_4" transform="matrix(9.9626,0,0,-9.9626,30.271895,59.740968)"/>
<symbol id="font_1_1">
<path d="M .14400001 .115 C .10400002 .048 .065 .034 .021000002 .031000002 C .009000003 .030000002 0 .030000002 0 .011000001 C 0 .0050000005 .0050000029 0 .013 0 C .040000004 0 .07100001 .003 .09900001 .003 C .13200002 .003 .16700001 0 .19900002 0 C .20500002 0 .21800003 0 .21800003 .019000002 C .21800003 .030000002 .20900002 .031000002 .20200002 .031000002 C .17900002 .033 .15500002 .041 .15500002 .066 C .15500002 .078 .16100002 .089 .16900002 .10300001 L .245 .231 L .49600003 .231 C .49800007 .21000001 .512 .074 .512 .064 C .512 .034 .46000005 .031000002 .44000004 .031000002 C .42600004 .031000002 .41600005 .031000002 .41600005 .011000001 C .41600005 0 .42800004 0 .43000005 0 C .47100006 0 .514 .003 .555 .003 C .58 .003 .643 0 .668 0 C .674 0 .686 0 .686 .020000002 C .686 .031000002 .676 .031000002 .663 .031000002 C .601 .031000002 .601 .038000004 .598 .067 L .537 .69200006 C .535 .712 .535 .716 .518 .716 C .502 .716 .49800007 .70900008 .492 .69900009 L .14400001 .115 M .26400004 .26200003 L .46100004 .592 L .493 .26200003 L .26400004 .26200003 Z "/>
</symbol>
<use xlink:href="#font_1_1" transform="matrix(9.9626,0,0,-9.9626,41.44068,61.065996)"/>
<use xlink:href="#font_1_4" transform="matrix(9.9626,0,0,-9.9626,48.962446,61.065996)"/>
<path transform="matrix(1,0,0,-1,132.62,15.143005)" d="M 29.2238 -75.07765 L -29.2238 -75.07765 C -31.42474 -75.07765 -33.20891 -76.86182 -33.20891 -79.06276 L -33.20891 -91.01811 C -33.20891 -93.21906 -31.42474 -95.00322 -29.2238 -95.00322 L 29.2238 -95.00322 C 31.42474 -95.00322 33.20891 -93.21906 33.20891 -91.01811 L 33.20891 -79.06276 C 33.20891 -76.86182 31.42474 -75.07765 29.2238 -75.07765 Z M -33.20891 -95.00322 " fill="#ccccff"/>
<path transform="matrix(1,0,0,-1,132.62,15.143005)" stroke-width=".3985" stroke-linecap="butt" stroke-miterlimit="10" stroke-linejoin="miter" fill="none" stroke="#000000" d="M 29.2238 -75.07765 L -29.2238 -75.07765 C -31.42474 -75.07765 -33.20891 -76.86182 -33.20891 -79.06276 L -33.20891 -91.01811 C -33.20891 -93.21906 -31.42474 -95.00322 -29.2238 -95.00322 L 29.2238 -95.00322 C 31.42474 -95.00322 33.20891 -93.21906 33.20891 -91.01811 L 33.20891 -79.06276 C 33.20891 -76.86182 31.42474 -75.07765 29.2238 -75.07765 Z M -33.20891 -95.00322 "/>
<use xlink:href="#font_1_6" transform="matrix(9.9626,0,0,-9.9626,108.88598,103.586)"/>
<use xlink:href="#font_1_2" transform="matrix(9.9626,0,0,-9.9626,118.071498,103.586)"/>
<use xlink:href="#font_2_4" transform="matrix(9.9626,0,0,-9.9626,129.85189,102.26097)"/>
<use xlink:href="#font_1_1" transform="matrix(9.9626,0,0,-9.9626,140.97568,103.586)"/>
<use xlink:href="#font_1_4" transform="matrix(9.9626,0,0,-9.9626,148.49744,103.586)"/>
<path transform="matrix(1,0,0,-1,132.62,15.143005)" d="M 128.43769 -32.55743 L 69.99005 -32.55743 C 67.78911 -32.55743 66.00494 -34.3416 66.00494 -36.54254 L 66.00494 -48.4979 C 66.00494 -50.69884 67.78911 -52.483 69.99005 -52.483 L 128.43769 -52.483 C 130.63863 -52.483 132.42279 -50.69884 132.42279 -48.4979 L 132.42279 -36.54254 C 132.42279 -34.3416 130.63863 -32.55743 128.43769 -32.55743 Z M 66.00494 -52.483 " fill="#ccccff"/>
<path transform="matrix(1,0,0,-1,132.62,15.143005)" stroke-width=".3985" stroke-linecap="butt" stroke-miterlimit="10" stroke-linejoin="miter" fill="none" stroke="#000000" d="M 128.43769 -32.55743 L 69.99005 -32.55743 C 67.78911 -32.55743 66.00494 -34.3416 66.00494 -36.54254 L 66.00494 -48.4979 C 66.00494 -50.69884 67.78911 -52.483 69.99005 -52.483 L 128.43769 -52.483 C 130.63863 -52.483 132.42279 -50.69884 132.42279 -48.4979 L 132.42279 -36.54254 C 132.42279 -34.3416 130.63863 -32.55743 128.43769 -32.55743 Z M 66.00494 -52.483 "/>
<path transform="matrix(1,0,0,-1,208.88599,52.615007)" stroke-width=".398" stroke-linecap="butt" stroke-miterlimit="10" stroke-linejoin="miter" fill="none" stroke="#000000" d="M 0 0 L 17.092 0 "/>
<use xlink:href="#font_1_6" transform="matrix(9.9626,0,0,-9.9626,209.15499,60.817018)"/>
<use xlink:href="#font_1_2" transform="matrix(9.9626,0,0,-9.9626,218.3405,60.817018)"/>
<symbol id="font_3_1">
<path d="M .040000008 .966 C .040000008 .98200008 .040000008 1 .02000001 1 C 0 1 0 .97800007 0 .96300008 L 0 .036999987 C 0 .020999983 0 0 .02000001 0 C .040000008 0 .040000008 .017999992 .040000008 .033999996 L .040000008 .966 M .23500002 .96300008 C .23500002 .97900006 .23500002 1 .215 1 C .19500003 1 .19500003 .98200008 .19500003 .966 L .19500003 .033999996 C .19500003 .017999992 .19500003 0 .215 0 C .23500002 0 .23500002 .021999985 .23500002 .036999987 L .23500002 .96300008 Z "/>
</symbol>
<use xlink:href="#font_3_1" transform="matrix(9.9626,0,0,-9.9626,231.02405,63.307668)"/>
<path transform="matrix(1,0,0,-1,238.42198,52.61502)" stroke-width=".398" stroke-linecap="butt" stroke-miterlimit="10" stroke-linejoin="miter" fill="none" stroke="#000000" d="M 0 0 L 16.358 0 "/>
<use xlink:href="#font_1_3" transform="matrix(9.9626,0,0,-9.9626,238.9201,61.036195)"/>
<use xlink:href="#font_1_4" transform="matrix(9.9626,0,0,-9.9626,246.66104,60.817018)"/>
<path transform="matrix(1,0,0,-1,132.62,15.143005)" d="M 128.43769 -75.07765 L 69.99005 -75.07765 C 67.78911 -75.07765 66.00494 -76.86182 66.00494 -79.06276 L 66.00494 -91.01811 C 66.00494 -93.21906 67.78911 -95.00322 69.99005 -95.00322 L 128.43769 -95.00322 C 130.63863 -95.00322 132.42279 -93.21906 132.42279 -91.01811 L 132.42279 -79.06276 C 132.42279 -76.86182 130.63863 -75.07765 128.43769 -75.07765 Z M 66.00494 -95.00322 " fill="#ccccff"/>
<path transform="matrix(1,0,0,-1,132.62,15.143005)" stroke-width=".3985" stroke-linecap="butt" stroke-miterlimit="10" stroke-linejoin="miter" fill="none" stroke="#000000" d="M 128.43769 -75.07765 L 69.99005 -75.07765 C 67.78911 -75.07765 66.00494 -76.86182 66.00494 -79.06276 L 66.00494 -91.01811 C 66.00494 -93.21906 67.78911 -95.00322 69.99005 -95.00322 L 128.43769 -95.00322 C 130.63863 -95.00322 132.42279 -93.21906 132.42279 -91.01811 L 132.42279 -79.06276 C 132.42279 -76.86182 130.63863 -75.07765 128.43769 -75.07765 Z M 66.00494 -95.00322 "/>
<path transform="matrix(1,0,0,-1,209.04399,95.134)" stroke-width=".398" stroke-linecap="butt" stroke-miterlimit="10" stroke-linejoin="miter" fill="none" stroke="#000000" d="M 0 0 L 17.092 0 "/>
<use xlink:href="#font_1_6" transform="matrix(9.9626,0,0,-9.9626,209.31299,103.33699)"/>
<use xlink:href="#font_1_2" transform="matrix(9.9626,0,0,-9.9626,218.4985,103.33699)"/>
<use xlink:href="#font_3_1" transform="matrix(9.9626,0,0,-9.9626,231.20507,105.82764)"/>
<path transform="matrix(1,0,0,-1,238.62499,95.13399)" stroke-width=".398" stroke-linecap="butt" stroke-miterlimit="10" stroke-linejoin="miter" fill="none" stroke="#000000" d="M 0 0 L 15.997 0 "/>
<use xlink:href="#font_1_1" transform="matrix(9.9626,0,0,-9.9626,238.97368,103.33699)"/>
<use xlink:href="#font_1_4" transform="matrix(9.9626,0,0,-9.9626,246.49544,103.33699)"/>
<path transform="matrix(1,0,0,-1,132.62,15.143005)" d="M 49.14937 -112.61649 L -49.14937 -112.61649 C -51.35031 -112.61649 -53.13448 -114.40065 -53.13448 -116.6016 L -53.13448 -138.51972 C -53.13448 -140.72066 -51.35031 -142.50482 -49.14937 -142.50482 L 49.14937 -142.50482 C 51.35031 -142.50482 53.13448 -140.72066 53.13448 -138.51972 L 53.13448 -116.6016 C 53.13448 -114.40065 51.35031 -112.61649 49.14937 -112.61649 Z M -53.13448 -142.50482 " fill="#ccffcc"/>
<path transform="matrix(1,0,0,-1,132.62,15.143005)" stroke-width=".3985" stroke-linecap="butt" stroke-miterlimit="10" stroke-linejoin="miter" fill="none" stroke="#000000" d="M 49.14937 -112.61649 L -49.14937 -112.61649 C -51.35031 -112.61649 -53.13448 -114.40065 -53.13448 -116.6016 L -53.13448 -138.51972 C -53.13448 -140.72066 -51.35031 -142.50482 -49.14937 -142.50482 L 49.14937 -142.50482 C 51.35031 -142.50482 53.13448 -140.72066 53.13448 -138.51972 L 53.13448 -116.6016 C 53.13448 -114.40065 51.35031 -112.61649 49.14937 -112.61649 Z M -53.13448 -142.50482 "/>
<use xlink:href="#font_0_3" transform="matrix(9.9626,0,0,-9.9626,96.35899,141.14774)"/>
<use xlink:href="#font_0_14" transform="matrix(9.9626,0,0,-9.9626,104.03019,139.32459)"/>
<use xlink:href="#font_0_5" transform="matrix(9.9626,0,0,-9.9626,109.15097,139.32459)"/>
<use xlink:href="#font_0_6" transform="matrix(9.9626,0,0,-9.9626,114.231899,139.32459)"/>
<use xlink:href="#font_0_1" transform="matrix(9.9626,0,0,-9.9626,120.04009,139.215)"/>
<use xlink:href="#font_1_4" transform="matrix(9.9626,0,0,-9.9626,127.2395,139.215)"/>
<use xlink:href="#font_1_1" transform="matrix(9.9626,0,0,-9.9626,135.71768,139.215)"/>
<use xlink:href="#font_1_2" transform="matrix(9.9626,0,0,-9.9626,143.25937,139.215)"/>
<use xlink:href="#font_1_6" transform="matrix(9.9626,0,0,-9.9626,151.16967,139.215)"/>
<use xlink:href="#font_0_b" transform="matrix(9.9626,0,0,-9.9626,163.57978,139.215)"/>
<use xlink:href="#font_0_12" transform="matrix(9.9626,0,0,-9.9626,166.34937,139.32459)"/>
<use xlink:href="#font_0_5" transform="matrix(9.9626,0,0,-9.9626,99.39787,151.27959)"/>
<use xlink:href="#font_0_10" transform="matrix(9.9626,0,0,-9.9626,107.089,153.10274)"/>
<use xlink:href="#font_0_5" transform="matrix(9.9626,0,0,-9.9626,113.23592,151.27959)"/>
<use xlink:href="#font_0_11" transform="matrix(9.9626,0,0,-9.9626,117.92831,151.17)"/>
<use xlink:href="#font_0_5" transform="matrix(9.9626,0,0,-9.9626,122.12257,151.27959)"/>
<use xlink:href="#font_0_c" transform="matrix(9.9626,0,0,-9.9626,126.86476,151.17)"/>
<use xlink:href="#font_0_c" transform="matrix(9.9626,0,0,-9.9626,129.63437,151.17)"/>
<use xlink:href="#font_0_7" transform="matrix(9.9626,0,0,-9.9626,132.6829,151.27959)"/>
<use xlink:href="#font_0_c" transform="matrix(9.9626,0,0,-9.9626,136.82736,151.17)"/>
<use xlink:href="#font_0_f" transform="matrix(9.9626,0,0,-9.9626,139.86598,151.27959)"/>
<use xlink:href="#font_0_9" transform="matrix(9.9626,0,0,-9.9626,144.38899,153.22229)"/>
<use xlink:href="#font_0_11" transform="matrix(9.9626,0,0,-9.9626,149.50975,151.17)"/>
<use xlink:href="#font_0_5" transform="matrix(9.9626,0,0,-9.9626,153.70401,151.27959)"/>
<use xlink:href="#font_0_d" transform="matrix(9.9626,0,0,-9.9626,158.43624,151.17)"/>
<path transform="matrix(1,0,0,-1,132.62,15.143005)" d="M 29.2238 -160.1181 L -29.2238 -160.1181 C -31.42474 -160.1181 -33.20891 -161.90227 -33.20891 -164.10321 L -33.20891 -176.05857 C -33.20891 -178.2595 -31.42474 -180.04367 -29.2238 -180.04367 L 29.2238 -180.04367 C 31.42474 -180.04367 33.20891 -178.2595 33.20891 -176.05857 L 33.20891 -164.10321 C 33.20891 -161.90227 31.42474 -160.1181 29.2238 -160.1181 Z M -33.20891 -180.04367 " fill="#ccccff"/>
<path transform="matrix(1,0,0,-1,132.62,15.143005)" stroke-width=".3985" stroke-linecap="butt" stroke-miterlimit="10" stroke-linejoin="miter" fill="none" stroke="#000000" d="M 29.2238 -160.1181 L -29.2238 -160.1181 C -31.42474 -160.1181 -33.20891 -161.90227 -33.20891 -164.10321 L -33.20891 -176.05857 C -33.20891 -178.2595 -31.42474 -180.04367 -29.2238 -180.04367 L 29.2238 -180.04367 C 31.42474 -180.04367 33.20891 -178.2595 33.20891 -176.05857 L 33.20891 -164.10321 C 33.20891 -161.90227 31.42474 -160.1181 29.2238 -160.1181 Z M -33.20891 -180.04367 "/>
<path transform="matrix(1,0,0,-1,109.83199,180.17401)" stroke-width=".398" stroke-linecap="butt" stroke-miterlimit="10" stroke-linejoin="miter" fill="none" stroke="#000000" d="M 0 0 L 17.561 0 "/>
<use xlink:href="#font_1_4" transform="matrix(9.9626,0,0,-9.9626,110.2305,188.37599)"/>
<use xlink:href="#font_1_6" transform="matrix(9.9626,0,0,-9.9626,118.62897,188.37599)"/>
<use xlink:href="#font_3_1" transform="matrix(9.9626,0,0,-9.9626,132.46106,190.86664)"/>
<path transform="matrix(1,0,0,-1,139.88,180.17398)" stroke-width=".398" stroke-linecap="butt" stroke-miterlimit="10" stroke-linejoin="miter" fill="none" stroke="#000000" d="M 0 0 L 15.529 0 "/>
<use xlink:href="#font_1_1" transform="matrix(9.9626,0,0,-9.9626,140.2287,188.37599)"/>
<use xlink:href="#font_1_2" transform="matrix(9.9626,0,0,-9.9626,147.77039,188.37599)"/>
<path transform="matrix(1,0,0,-1,132.62,15.143005)" d="M 29.2238 -202.63832 L -29.2238 -202.63832 C -31.42474 -202.63832 -33.20891 -204.42249 -33.20891 -206.62343 L -33.20891 -218.57878 C -33.20891 -220.77973 -31.42474 -222.56389 -29.2238 -222.56389 L 29.2238 -222.56389 C 31.42474 -222.56389 33.20891 -220.77973 33.20891 -218.57878 L 33.20891 -206.62343 C 33.20891 -204.42249 31.42474 -202.63832 29.2238 -202.63832 Z M -33.20891 -222.56389 " fill="#ccccff"/>
<path transform="matrix(1,0,0,-1,132.62,15.143005)" stroke-width=".3985" stroke-linecap="butt" stroke-miterlimit="10" stroke-linejoin="miter" fill="none" stroke="#000000" d="M 29.2238 -202.63832 L -29.2238 -202.63832 C -31.42474 -202.63832 -33.20891 -204.42249 -33.20891 -206.62343 L -33.20891 -218.57878 C -33.20891 -220.77973 -31.42474 -222.56389 -29.2238 -222.56389 L 29.2238 -222.56389 C 31.42474 -222.56389 33.20891 -220.77973 33.20891 -218.57878 L 33.20891 -206.62343 C 33.20891 -204.42249 31.42474 -202.63832 29.2238 -202.63832 Z M -33.20891 -222.56389 "/>
<path transform="matrix(1,0,0,-1,110.31799,222.69301)" stroke-width=".398" stroke-linecap="butt" stroke-miterlimit="10" stroke-linejoin="miter" fill="none" stroke="#000000" d="M 0 0 L 16.454 0 "/>
<use xlink:href="#font_1_4" transform="matrix(9.9626,0,0,-9.9626,110.7165,230.89603)"/>
<use xlink:href="#font_1_5" transform="matrix(9.9626,0,0,-9.9626,119.224559,230.89603)"/>
<use xlink:href="#font_3_1" transform="matrix(9.9626,0,0,-9.9626,131.90705,233.38668)"/>
<path transform="matrix(1,0,0,-1,139.39398,222.69303)" stroke-width=".398" stroke-linecap="butt" stroke-miterlimit="10" stroke-linejoin="miter" fill="none" stroke="#000000" d="M 0 0 L 15.529 0 "/>
<use xlink:href="#font_1_1" transform="matrix(9.9626,0,0,-9.9626,139.74268,230.89603)"/>
<use xlink:href="#font_1_2" transform="matrix(9.9626,0,0,-9.9626,147.28437,230.89603)"/>
<path transform="matrix(1,0,0,-1,132.62,15.143005)" d="M 128.43769 -117.59787 L 69.99005 -117.59787 C 67.78911 -117.59787 66.00494 -119.38203 66.00494 -121.58298 L 66.00494 -133.53833 C 66.00494 -135.73928 67.78911 -137.52344 69.99005 -137.52344 L 128.43769 -137.52344 C 130.63863 -137.52344 132.42279 -135.73928 132.42279 -133.53833 L 132.42279 -121.58298 C 132.42279 -119.38203 130.63863 -117.59787 128.43769 -117.59787 Z M 66.00494 -137.52344 " fill="#ccccff"/>
<path transform="matrix(1,0,0,-1,132.62,15.143005)" stroke-width=".3985" stroke-linecap="butt" stroke-miterlimit="10" stroke-linejoin="miter" fill="none" stroke="#000000" d="M 128.43769 -117.59787 L 69.99005 -117.59787 C 67.78911 -117.59787 66.00494 -119.38203 66.00494 -121.58298 L 66.00494 -133.53833 C 66.00494 -135.73928 67.78911 -137.52344 69.99005 -137.52344 L 128.43769 -137.52344 C 130.63863 -137.52344 132.42279 -135.73928 132.42279 -133.53833 L 132.42279 -121.58298 C 132.42279 -119.38203 130.63863 -117.59787 128.43769 -117.59787 Z M 66.00494 -137.52344 "/>
<use xlink:href="#font_1_1" transform="matrix(9.9626,0,0,-9.9626,208.17768,146.10599)"/>
<use xlink:href="#font_1_2" transform="matrix(9.9626,0,0,-9.9626,215.71936,146.10599)"/>
<use xlink:href="#font_2_4" transform="matrix(9.9626,0,0,-9.9626,227.50089,144.78096)"/>
<use xlink:href="#font_1_4" transform="matrix(9.9626,0,0,-9.9626,238.67449,146.10599)"/>
<use xlink:href="#font_1_6" transform="matrix(9.9626,0,0,-9.9626,247.07297,146.10599)"/>
<path transform="matrix(1,0,0,-1,132.62,15.143005)" d="M 271.71333 -117.59787 L 153.48899 -117.59787 C 151.28804 -117.59787 149.50388 -119.38203 149.50388 -121.58298 L 149.50388 -133.53833 C 149.50388 -135.73928 151.28804 -137.52344 153.48899 -137.52344 L 271.71333 -137.52344 C 273.91426 -137.52344 275.69844 -135.73928 275.69844 -133.53833 L 275.69844 -121.58298 C 275.69844 -119.38203 273.91426 -117.59787 271.71333 -117.59787 Z M 149.50388 -137.52344 " fill="#ccccff"/>
<path transform="matrix(1,0,0,-1,132.62,15.143005)" stroke-width=".3985" stroke-linecap="butt" stroke-miterlimit="10" stroke-linejoin="miter" fill="none" stroke="#000000" d="M 271.71333 -117.59787 L 153.48899 -117.59787 C 151.28804 -117.59787 149.50388 -119.38203 149.50388 -121.58298 L 149.50388 -133.53833 C 149.50388 -135.73928 151.28804 -137.52344 153.48899 -137.52344 L 271.71333 -137.52344 C 273.91426 -137.52344 275.69844 -135.73928 275.69844 -133.53833 L 275.69844 -121.58298 C 275.69844 -119.38203 273.91426 -117.59787 271.71333 -117.59787 Z M 149.50388 -137.52344 "/>
<use xlink:href="#font_1_4" transform="matrix(9.9626,0,0,-9.9626,288.9895,145.691)"/>
<use xlink:href="#font_1_6" transform="matrix(9.9626,0,0,-9.9626,297.38798,145.691)"/>
<use xlink:href="#font_2_4" transform="matrix(9.9626,0,0,-9.9626,309.9139,144.36597)"/>
<use xlink:href="#font_1_4" transform="matrix(9.9626,0,0,-9.9626,320.70854,145.691)"/>
<use xlink:href="#font_1_5" transform="matrix(9.9626,0,0,-9.9626,329.21659,145.691)"/>
<symbol id="font_2_1">
<path d="M .35300002 .31300003 L .632 .31300003 C .646 .31300003 .665 .31300003 .665 .333 C .665 .35300002 .646 .35300002 .632 .35300002 L .35300002 .35300002 L .35300002 .633 C .35300002 .647 .35300002 .666 .33300004 .666 C .31300003 .666 .31300003 .647 .31300003 .633 L .31300003 .35300002 L .033 .35300002 C .019000002 .35300002 0 .35300002 0 .333 C 0 .31300003 .019000002 .31300003 .033 .31300003 L .31300003 .31300003 L .31300003 .033000005 C .31300003 .019000002 .31300003 0 .33300004 0 C .35300002 0 .35300002 .019000002 .35300002 .033000005 L .35300002 .31300003 Z "/>
</symbol>
<use xlink:href="#font_2_1" transform="matrix(9.9626,0,0,-9.9626,339.70994,146.51789)"/>
<use xlink:href="#font_1_5" transform="matrix(9.9626,0,0,-9.9626,349.6676,145.691)"/>
<use xlink:href="#font_1_6" transform="matrix(9.9626,0,0,-9.9626,357.48823,145.691)"/>
<symbol id="font_2_3">
<path d="M .07700001 .07700001 L .18300002 .18 C .33900003 .31800003 .39900003 .372 .39900003 .47200004 C .39900003 .586 .30900003 .666 .18700002 .666 C .074 .666 0 .574 0 .485 C 0 .42900003 .05 .42900003 .053000008 .42900003 C .07000001 .42900003 .105000007 .441 .105000007 .48200003 C .105000007 .508 .08700001 .53400006 .052000006 .53400006 C .044000005 .53400006 .042000008 .53400006 .039 .53300008 C .062000004 .59800007 .11600001 .63500007 .17400001 .63500007 C .26500003 .63500007 .308 .554 .308 .47200004 C .308 .39200003 .25800003 .31300003 .20300003 .25100003 L .011000004 .037 C 0 .026 0 .024 0 0 L .37100003 0 L .39900003 .17400001 L .374 .17400001 C .36900003 .14400001 .36200003 .1 .352 .085 C .345 .07700001 .279 .07700001 .257 .07700001 L .07700001 .07700001 Z "/>
</symbol>
<use xlink:href="#font_2_4" transform="matrix(9.9626,0,0,-9.9626,370.01594,144.36597)"/>
<use xlink:href="#font_2_3" transform="matrix(9.9626,0,0,-9.9626,380.91505,145.691)"/>
<use xlink:href="#font_1_4" transform="matrix(9.9626,0,0,-9.9626,385.79154,145.691)"/>
<use xlink:href="#font_1_5" transform="matrix(9.9626,0,0,-9.9626,394.2996,145.691)"/>
<path transform="matrix(1,0,0,-1,132.62,15.143005)" d="M 128.43769 -160.1181 L 69.99005 -160.1181 C 67.78911 -160.1181 66.00494 -161.90227 66.00494 -164.10321 L 66.00494 -176.05857 C 66.00494 -178.2595 67.78911 -180.04367 69.99005 -180.04367 L 128.43769 -180.04367 C 130.63863 -180.04367 132.42279 -178.2595 132.42279 -176.05857 L 132.42279 -164.10321 C 132.42279 -161.90227 130.63863 -160.1181 128.43769 -160.1181 Z M 66.00494 -180.04367 " fill="#ccccff"/>
<path transform="matrix(1,0,0,-1,132.62,15.143005)" stroke-width=".3985" stroke-linecap="butt" stroke-miterlimit="10" stroke-linejoin="miter" fill="none" stroke="#000000" d="M 128.43769 -160.1181 L 69.99005 -160.1181 C 67.78911 -160.1181 66.00494 -161.90227 66.00494 -164.10321 L 66.00494 -176.05857 C 66.00494 -178.2595 67.78911 -180.04367 69.99005 -180.04367 L 128.43769 -180.04367 C 130.63863 -180.04367 132.42279 -178.2595 132.42279 -176.05857 L 132.42279 -164.10321 C 132.42279 -161.90227 130.63863 -160.1181 128.43769 -160.1181 Z M 66.00494 -180.04367 "/>
<use xlink:href="#font_1_1" transform="matrix(9.9626,0,0,-9.9626,206.47669,188.625)"/>
<use xlink:href="#font_1_2" transform="matrix(9.9626,0,0,-9.9626,214.01837,188.625)"/>
<use xlink:href="#font_2_4" transform="matrix(9.9626,0,0,-9.9626,225.5629,187.29998)"/>
<use xlink:href="#font_2_3" transform="matrix(9.9626,0,0,-9.9626,236.60144,188.625)"/>
<use xlink:href="#font_1_4" transform="matrix(9.9626,0,0,-9.9626,241.48249,188.625)"/>
<use xlink:href="#font_1_5" transform="matrix(9.9626,0,0,-9.9626,249.99056,188.625)"/>
<path transform="matrix(1,0,0,-1,132.62,15.143005)" d="M 128.43769 -199.28339 L 69.99005 -199.28339 C 67.78911 -199.28339 66.00494 -201.06755 66.00494 -203.2685 L 66.00494 -221.93372 C 66.00494 -224.13466 67.78911 -225.91883 69.99005 -225.91883 L 128.43769 -225.91883 C 130.63863 -225.91883 132.42279 -224.13466 132.42279 -221.93372 L 132.42279 -203.2685 C 132.42279 -201.06755 130.63863 -199.28339 128.43769 -199.28339 Z M 66.00494 -225.91883 " fill="#ccccff"/>
<path transform="matrix(1,0,0,-1,132.62,15.143005)" stroke-width=".3985" stroke-linecap="butt" stroke-miterlimit="10" stroke-linejoin="miter" fill="none" stroke="#000000" d="M 128.43769 -199.28339 L 69.99005 -199.28339 C 67.78911 -199.28339 66.00494 -201.06755 66.00494 -203.2685 L 66.00494 -221.93372 C 66.00494 -224.13466 67.78911 -225.91883 69.99005 -225.91883 L 128.43769 -225.91883 C 130.63863 -225.91883 132.42279 -224.13466 132.42279 -221.93372 L 132.42279 -203.2685 C 132.42279 -201.06755 130.63863 -199.28339 128.43769 -199.28339 Z M 66.00494 -225.91883 "/>
<use xlink:href="#font_1_4" transform="matrix(9.9626,0,0,-9.9626,205.47748,230.90399)"/>
<use xlink:href="#font_1_5" transform="matrix(9.9626,0,0,-9.9626,213.98555,230.90399)"/>
<symbol id="font_2_2">
<path d="M .205 .64000007 C .205 .66400006 .205 .666 .18200003 .666 C .120000008 .60200008 .032000007 .60200008 0 .60200008 L 0 .57100006 C .020000004 .57100006 .07900001 .57100006 .13100001 .597 L .13100001 .079 C .13100001 .043 .128 .031000002 .038000004 .031000002 L .0060000049 .031000002 L .0060000049 0 C .04100001 .003 .128 .003 .168 .003 C .20800002 .003 .29500003 .003 .33000005 0 L .33000005 .031000002 L .29800005 .031000002 C .20800002 .031000002 .205 .042000005 .205 .079 L .205 .64000007 Z "/>
</symbol>
<use xlink:href="#font_2_4" transform="matrix(9.9626,0,0,-9.9626,225.2929,229.57897)"/>
<use xlink:href="#font_2_2" transform="matrix(9.9626,0,0,-9.9626,237.76866,224.164)"/>
<path transform="matrix(1,0,0,-1,236.88199,228.41399)" stroke-width=".398" stroke-linecap="butt" stroke-miterlimit="10" stroke-linejoin="miter" fill="none" stroke="#000000" d="M 0 0 L 4.981 0 "/>
<use xlink:href="#font_2_3" transform="matrix(9.9626,0,0,-9.9626,237.38011,237.73799)"/>
<use xlink:href="#font_1_1" transform="matrix(9.9626,0,0,-9.9626,243.40769,230.90399)"/>
<use xlink:href="#font_1_2" transform="matrix(9.9626,0,0,-9.9626,250.94937,230.90399)"/>
<path transform="matrix(1,0,0,-1,132.62,15.143005)" d="M 59.11215 -240.17716 L -59.11215 -240.17716 C -61.3131 -240.17716 -63.09726 -241.96132 -63.09726 -244.16226 L -63.09726 -266.08039 C -63.09726 -268.28135 -61.3131 -270.0655 -59.11215 -270.0655 L 59.11215 -270.0655 C 61.3131 -270.0655 63.09726 -268.28135 63.09726 -266.08039 L 63.09726 -244.16226 C 63.09726 -241.96132 61.3131 -240.17716 59.11215 -240.17716 Z M -63.09726 -270.0655 " fill="#ccffcc"/>
<path transform="matrix(1,0,0,-1,132.62,15.143005)" stroke-width=".3985" stroke-linecap="butt" stroke-miterlimit="10" stroke-linejoin="miter" fill="none" stroke="#000000" d="M 59.11215 -240.17716 L -59.11215 -240.17716 C -61.3131 -240.17716 -63.09726 -241.96132 -63.09726 -244.16226 L -63.09726 -266.08039 C -63.09726 -268.28135 -61.3131 -270.0655 -59.11215 -270.0655 L 59.11215 -270.0655 C 61.3131 -270.0655 63.09726 -268.28135 63.09726 -266.08039 L 63.09726 -244.16226 C 63.09726 -241.96132 61.3131 -240.17716 59.11215 -240.17716 Z M -63.09726 -270.0655 "/>
<symbol id="font_0_4">
<path d="M .534 .716 C .534 .72400006 .528 .72700008 .522 .72700008 C .51600006 .72700008 .515 .725 .506 .71400007 L .46100006 .65700009 C .44000004 .68900009 .39400003 .72700008 .31300003 .72700008 C .192 .72700008 .08500001 .62200006 .08500001 .503 C .08500001 .48100005 .087 .43900005 .122999999 .39500005 C .154 .35800005 .18 .35200004 .26100005 .33100004 L .34100003 .31000004 C .40500004 .28400005 .40900005 .21800001 .40900005 .201 C .40900005 .122 .34200005 .031000004 .24700003 .031000004 C .146 .031000004 .059000005 .08100001 .059000005 .19500001 C .059000005 .208 .06300001 .22600001 .06300001 .238 C .06300001 .24900002 .054 .24900002 .051000004 .24900002 C .040000004 .24900002 .039 .24400002 .036000004 .22700002 L .0020000004 .025000003 C 0 .016000003 0 .014000001 0 .011000001 C 0 .005000001 .0030000024 0 .011000004 0 C .018000003 0 .019000005 .0010000002 .026999999 .011000001 L .073 .07 C .095 .047000003 .139 0 .246 0 C .37700004 0 .47900007 .124000009 .47900007 .24200002 C .47900007 .26200003 .47700004 .31300003 .43900005 .35900004 C .40900005 .39700005 .37700004 .40500004 .31700004 .42000006 L .279 .43000005 C .25900004 .43500004 .226 .44400005 .219 .44600005 C .186 .46000005 .155 .49400006 .155 .545 C .155 .62200006 .22500001 .69900009 .31200005 .69900009 C .42300005 .69900009 .47200004 .623 .47200004 .517 C .47200004 .5 .47100006 .512 .47100006 .49600006 C .47100006 .48600004 .47100006 .47800005 .483 .47800005 C .48600004 .47800005 .49100004 .47900004 .49400006 .48100005 L .534 .716 Z "/>
</symbol>
<symbol id="font_0_15">
<path d="M .47500003 .541 C .499 .582 .52800008 .60300007 .577 .605 L .5820001 .63600006 C .55100008 .633 .53700008 .633 .508 .633 C .48200003 .633 .43600003 .635 .42200003 .63600006 L .416 .60600009 C .423 .60600009 .45700003 .602 .45700003 .57000008 C .45700003 .55700007 .449 .544 .444 .535 L .303 .29200004 L .23700002 .56000009 C .23600002 .564 .23400001 .57100006 .23400001 .57500007 C .23400001 .605 .276 .605 .29500003 .605 C .296 .61300006 .299 .62700006 .3 .63600006 C .27 .635 .21400002 .633 .19100002 .633 C .16100002 .633 .12100001 .63400009 .095000009 .63600006 L .089 .605 C .15 .605 .15500002 .6 .16300002 .569 L .24900002 .22100002 C .25100003 .21200001 .252 .20800002 .252 .20600002 C .252 .20300001 .20000002 .11100001 .18200001 .087000008 C .15900001 .055000009 .12500002 .022 .084 .022 C .072000008 .022 .053 .025000006 .039 .040000008 C .074 .044 .086 .07100001 .086 .09000001 C .086 .11600001 .066 .12400001 .05 .12400001 C .028 .12400001 0 .10700001 0 .07000001 C 0 .029 .035 0 .080000009 0 C .16100002 0 .21900001 .10000001 .22500003 .11000001 L .47500003 .541 Z "/>
</symbol>
<symbol id="font_0_2">
<path d="M .162 .38500003 C .162 .407 .146 .43100003 .115 .43100003 C .08200001 .43100003 .053999999 .40100003 .053999999 .37100003 C .053999999 .349 .07 .32500003 .101 .32500003 C .134 .32500003 .162 .35500003 .162 .38500003 M .107 .060000004 C .107 .09200001 .08200001 .106000009 .060999998 .106000009 C .027000003 .106000009 0 .076000008 0 .046000005 C 0 .023000002 .017000005 0 .047 0 C .076 0 .107 .026 .107 .060000004 Z "/>
</symbol>
<use xlink:href="#font_0_4" transform="matrix(9.9626,0,0,-9.9626,77.41597,267.9342)"/>
<use xlink:href="#font_0_14" transform="matrix(9.9626,0,0,-9.9626,83.403499,267.82463)"/>
<use xlink:href="#font_0_d" transform="matrix(9.9626,0,0,-9.9626,88.27521,267.71504)"/>
<use xlink:href="#font_0_d" transform="matrix(9.9626,0,0,-9.9626,96.57405,267.71504)"/>
<use xlink:href="#font_0_5" transform="matrix(9.9626,0,0,-9.9626,105.12196,267.82463)"/>
<use xlink:href="#font_0_11" transform="matrix(9.9626,0,0,-9.9626,109.81435,267.71504)"/>
<use xlink:href="#font_0_15" transform="matrix(9.9626,0,0,-9.9626,113.41085,269.75736)"/>
<use xlink:href="#font_0_2" transform="matrix(9.9626,0,0,-9.9626,119.637477,267.71504)"/>
<path transform="matrix(1,0,0,-1,126.44199,259.51203)" stroke-width=".398" stroke-linecap="butt" stroke-miterlimit="10" stroke-linejoin="miter" fill="none" stroke="#000000" d="M 0 0 L 16.454 0 "/>
<use xlink:href="#font_1_4" transform="matrix(9.9626,0,0,-9.9626,126.8405,267.71504)"/>
<use xlink:href="#font_1_5" transform="matrix(9.9626,0,0,-9.9626,135.34856,267.71504)"/>
<symbol id="font_0_13">
<path d="M .15400002 .411 L .29700003 .411 C .29900003 .42100004 .3 .43200005 .30200003 .44200004 L .15900001 .44200004 L .18900001 .626 L .164 .626 C .148 .532 .095000009 .43600003 .0029999987 .43300004 L 0 .411 L .084 .411 L .038999998 .13800001 C .036000007 .120000008 .036000007 .11800001 .036000007 .105000007 C .036000007 .008000001 .117000009 0 .14700002 0 C .194 0 .22500003 .031000004 .24300003 .065000008 C .261 .096 .263 .109000008 .27600003 .19200002 L .25100003 .19200002 C .23900002 .119 .23700002 .105000007 .224 .079 C .21600002 .064 .19300002 .025000003 .155 .025000003 C .11300001 .025000003 .10300001 .064 .10300001 .093 C .10300001 .104 .10400001 .108 .10500001 .115 L .15400002 .411 Z "/>
</symbol>
<use xlink:href="#font_0_b" transform="matrix(9.9626,0,0,-9.9626,146.54477,267.71504)"/>
<use xlink:href="#font_0_12" transform="matrix(9.9626,0,0,-9.9626,149.31436,267.82463)"/>
<use xlink:href="#font_0_10" transform="matrix(9.9626,0,0,-9.9626,156.18857,269.64778)"/>
<use xlink:href="#font_0_5" transform="matrix(9.9626,0,0,-9.9626,162.33548,267.82463)"/>
<use xlink:href="#font_0_11" transform="matrix(9.9626,0,0,-9.9626,167.02785,267.71504)"/>
<use xlink:href="#font_0_5" transform="matrix(9.9626,0,0,-9.9626,171.2221,267.82463)"/>
<use xlink:href="#font_0_c" transform="matrix(9.9626,0,0,-9.9626,175.9643,267.71504)"/>
<use xlink:href="#font_0_c" transform="matrix(9.9626,0,0,-9.9626,178.73392,267.71504)"/>
<use xlink:href="#font_0_7" transform="matrix(9.9626,0,0,-9.9626,181.78246,267.82463)"/>
<use xlink:href="#font_0_c" transform="matrix(9.9626,0,0,-9.9626,185.92691,267.71504)"/>
<use xlink:href="#font_0_13" transform="matrix(9.9626,0,0,-9.9626,76.56477,279.7796)"/>
<use xlink:href="#font_0_f" transform="matrix(9.9626,0,0,-9.9626,80.1812,279.7796)"/>
<path transform="matrix(1,0,0,-1,87.883998,271.467)" stroke-width=".398" stroke-linecap="butt" stroke-miterlimit="10" stroke-linejoin="miter" fill="none" stroke="#000000" d="M 0 0 L 15.529 0 "/>
<use xlink:href="#font_1_1" transform="matrix(9.9626,0,0,-9.9626,88.23269,279.67)"/>
<use xlink:href="#font_1_2" transform="matrix(9.9626,0,0,-9.9626,95.774379,279.67)"/>
<symbol id="font_0_e">
<path d="M .198 .34300003 L .215 .44200004 L .072 .43100003 L .067 .4 C .124 .4 .138 .395 .138 .36800004 C .138 .35900004 .102 .143 .097 .113000009 C .094 .095000009 .088 .061000006 .087 .059000005 C .08 .031000002 .057 .031000002 .004999999 .031000002 L 0 0 C .033999999 .001 .087 .003 .113000009 .003 C .139 .003 .191 .001 .225 0 L .23000002 .031000002 C .18 .031000002 .157 .031000002 .157 .056 C .157 .059000005 .164 .097 .16700001 .117000009 C .17400001 .16100002 .18100001 .20500002 .18900001 .24900002 C .194 .282 .20300001 .33 .252 .377 C .282 .404 .32000003 .42000003 .35300002 .42000003 C .39200003 .42000003 .41200004 .4 .41200004 .35300002 C .41200004 .33800004 .41000004 .32700003 .40100003 .26900003 L .367 .069000009 C .361 .031000002 .345 .031000002 .28300003 .031000002 L .278 0 C .312 .001 .365 .003 .391 .003 C .41700004 .003 .46900005 .001 .503 0 L .508 .031000002 C .458 .031000002 .435 .031000002 .435 .056 C .435 .061000006 .451 .156 .45400004 .172 L .46900005 .261 C .473 .287 .47900004 .323 .47900004 .34 C .47900004 .416 .43 .44200004 .361 .44200004 C .268 .44200004 .214 .36800004 .199 .342 L .198 .34300003 Z "/>
</symbol>
<symbol id="font_0_a">
<path d="M .476 .303 C .47900004 .321 .47900004 .324 .47900004 .34 C .47900004 .416 .43 .44200004 .361 .44200004 C .27600003 .44200004 .22300002 .381 .20300001 .34800003 L .202 .349 L .26000003 .694 L .134 .684 C .132 .684 .117 .683 .116 .68200007 C .113000009 .68 .109 .65500006 .109 .652 C .16600001 .652 .18 .647 .18 .62 C .18 .619 .18 .61200007 .177 .59400007 L .09 .074 C .08400001 .036000004 .08 .031000002 .006000001 .031000002 L .004999999 .031000002 L 0 0 C .033999999 .001 .087 .003 .113000009 .003 C .138 .003 .192 .001 .224 0 L .23000002 .031000002 C .18 .031000002 .157 .031000002 .157 .056 C .157 .059000005 .164 .097 .16700001 .117000009 C .17400001 .16100002 .18100001 .20500002 .18900001 .24900002 C .194 .282 .20300001 .33 .252 .377 C .282 .404 .32000003 .42000003 .35300002 .42000003 C .39200003 .42000003 .41200004 .4 .41200004 .35300002 C .41200004 .33800004 .41000004 .32700003 .40100003 .26900003 L .367 .069000009 C .361 .031000002 .345 .031000002 .284 .031000002 L .28300003 .031000002 L .278 0 C .312 .001 .365 .003 .391 .003 C .416 .003 .47000004 .001 .50200006 0 L .508 .031000002 C .458 .031000002 .435 .031000002 .435 .056 C .435 .060000004 .43600003 .066 .437 .071 L .476 .303 Z "/>
</symbol>
<symbol id="font_0_8">
<path d="M .211 .4 L .32500003 .4 L .33 .43100003 L .213 .43100003 L .22800002 .521 C .236 .569 .241 .59900006 .268 .63500007 C .289 .661 .317 .683 .34800003 .683 C .35700003 .683 .372 .68 .38000003 .67700007 C .352 .669 .34100003 .646 .34100003 .628 C .34100003 .61200007 .35 .591 .38000003 .591 C .404 .591 .42900003 .60800006 .42900003 .643 C .42900003 .68500009 .388 .70500007 .349 .70500007 C .272 .70500007 .187 .646 .17000002 .55300006 C .162 .509 .157 .47700004 .15 .43100003 L .071 .43100003 L .066 .4 L .144 .4 L .09 .074 C .083000008 .031000002 .071 .031000002 .004999999 .031000002 L 0 0 C .04 .001 .086 .003 .115 .003 C .121 .003 .20900002 .002 .241 0 L .24599999 .031000002 C .21900001 .031000002 .206 .031000002 .18800003 .033 C .171 .035 .15400002 .036000004 .15400002 .059000005 C .15400002 .062000004 .15400002 .064 .157 .078 L .211 .4 Z "/>
</symbol>
<use xlink:href="#font_0_5" transform="matrix(9.9626,0,0,-9.9626,107.300868,279.7796)"/>
<use xlink:href="#font_0_e" transform="matrix(9.9626,0,0,-9.9626,112.0331,279.67)"/>
<use xlink:href="#font_0_6" transform="matrix(9.9626,0,0,-9.9626,117.921,279.7796)"/>
<use xlink:href="#font_0_a" transform="matrix(9.9626,0,0,-9.9626,126.429058,279.67)"/>
<use xlink:href="#font_0_5" transform="matrix(9.9626,0,0,-9.9626,132.21732,279.7796)"/>
<use xlink:href="#font_0_c" transform="matrix(9.9626,0,0,-9.9626,136.9595,279.67)"/>
<use xlink:href="#font_0_8" transform="matrix(9.9626,0,0,-9.9626,139.73909,279.67)"/>
<use xlink:href="#font_0_b" transform="matrix(9.9626,0,0,-9.9626,146.09522,279.67)"/>
<use xlink:href="#font_0_13" transform="matrix(9.9626,0,0,-9.9626,149.39286,279.7796)"/>
<use xlink:href="#font_0_12" transform="matrix(9.9626,0,0,-9.9626,152.7403,279.7796)"/>
<use xlink:href="#font_0_c" transform="matrix(9.9626,0,0,-9.9626,159.99308,279.67)"/>
<use xlink:href="#font_0_7" transform="matrix(9.9626,0,0,-9.9626,163.04161,279.7796)"/>
<use xlink:href="#font_0_e" transform="matrix(9.9626,0,0,-9.9626,167.1761,279.67)"/>
<use xlink:href="#font_0_9" transform="matrix(9.9626,0,0,-9.9626,172.536,281.72233)"/>
<use xlink:href="#font_0_13" transform="matrix(9.9626,0,0,-9.9626,178.23459,279.7796)"/>
<use xlink:href="#font_0_a" transform="matrix(9.9626,0,0,-9.9626,181.57207,279.67)"/>
<use xlink:href="#font_0_1" transform="matrix(9.9626,0,0,-9.9626,187.72893,279.67)"/>
<path transform="matrix(1,0,0,-1,132.62,15.143005)" stroke-width=".3985" stroke-linecap="butt" stroke-miterlimit="10" stroke-linejoin="miter" fill="none" stroke="#000000" d="M -65.8057 0 L -55.72476 0 "/>
<path transform="matrix(1,0,0,-1,76.89523,15.143005)" d="M 2.39102 0 C 1.39476 .19925 -.3985 .59775 -1.59401 1.49438 C -.59775 .3985 -.59775 -.3985 -1.59401 -1.49438 C -.3985 -.59775 1.39476 -.19925 2.39102 0 Z "/>
<path transform="matrix(1,0,0,-1,132.62,15.143005)" stroke-width=".3985" stroke-linecap="butt" stroke-miterlimit="10" stroke-linejoin="miter" fill="none" stroke="#000000" d="M 0 -15.14342 L 0 -29.96715 "/>
<path transform="matrix(0,1,1,0,132.62,45.110155)" d="M 2.39102 0 C 1.39476 .19925 -.3985 .59775 -1.59401 1.49438 C -.59775 .3985 -.59775 -.3985 -1.59401 -1.49438 C -.3985 -.59775 1.39476 -.19925 2.39102 0 Z "/>
<path transform="matrix(1,0,0,-1,132.62,15.143005)" stroke-width=".3985" stroke-linecap="butt" stroke-miterlimit="10" stroke-linejoin="miter" fill="none" stroke="#000000" d="M -75.50917 -52.68225 L -25.90051 -73.93681 "/>
<path transform="matrix(.91914,.3938,.3938,-.91914,106.71947,89.07982)" d="M 2.39102 0 C 1.39476 .19925 -.3985 .59775 -1.59401 1.49438 C -.59775 .3985 -.59775 -.3985 -1.59401 -1.49438 C -.3985 -.59775 1.39476 -.19925 2.39102 0 Z "/>
<path transform="matrix(1,0,0,-1,132.62,15.143005)" stroke-width=".3985" stroke-linecap="butt" stroke-miterlimit="10" stroke-linejoin="miter" fill="none" stroke="#000000" d="M 0 -52.68225 L 0 -72.48737 "/>
<path transform="matrix(0,1,1,0,132.62,87.63038)" d="M 2.39102 0 C 1.39476 .19925 -.3985 .59775 -1.59401 1.49438 C -.59775 .3985 -.59775 -.3985 -1.59401 -1.49438 C -.3985 -.59775 1.39476 -.19925 2.39102 0 Z "/>
<path transform="matrix(1,0,0,-1,132.62,15.143005)" stroke-width=".3985" stroke-linecap="butt" stroke-miterlimit="10" stroke-linejoin="miter" fill="none" stroke="#000000" d="M 35.32462 -15.14342 L 73.31326 -31.41675 "/>
<path transform="matrix(.91917,.39374,.39374,-.91917,205.93325,46.55974)" d="M 2.39102 0 C 1.39476 .19925 -.3985 .59775 -1.59401 1.49438 C -.59775 .3985 -.59775 -.3985 -1.59401 -1.49438 C -.3985 -.59775 1.39476 -.19925 2.39102 0 Z "/>
<path transform="matrix(1,0,0,-1,132.62,15.143005)" stroke-width=".3985" stroke-linecap="butt" stroke-miterlimit="10" stroke-linejoin="miter" fill="none" stroke="#000000" d="M 99.21387 -52.68225 L 99.21387 -72.48737 "/>
<path transform="matrix(0,1,1,0,231.83386,87.63038)" d="M 2.39102 0 C 1.39476 .19925 -.3985 .59775 -1.59401 1.49438 C -.59775 .3985 -.59775 -.3985 -1.59401 -1.49438 C -.3985 -.59775 1.39476 -.19925 2.39102 0 Z "/>
<path transform="matrix(1,0,0,-1,132.62,15.143005)" stroke-width=".3985" stroke-linecap="butt" stroke-miterlimit="10" stroke-linejoin="miter" fill="none" stroke="#000000" d="M 0 -95.20247 L 0 -110.02621 "/>
<path transform="matrix(0,1,1,0,132.62,125.16921)" d="M 2.39102 0 C 1.39476 .19925 -.3985 .59775 -1.59401 1.49438 C -.59775 .3985 -.59775 -.3985 -1.59401 -1.49438 C -.3985 -.59775 1.39476 -.19925 2.39102 0 Z "/>
<path transform="matrix(1,0,0,-1,132.62,15.143005)" stroke-width=".3985" stroke-linecap="butt" stroke-miterlimit="10" stroke-linejoin="miter" fill="none" stroke="#000000" d="M 75.50716 -95.20247 L 37.51958 -111.47574 "/>
<path transform="matrix(-.91916,.39377,.39377,.91916,170.13959,126.61873)" d="M 2.39102 0 C 1.39476 .19925 -.3985 .59775 -1.59401 1.49438 C -.59775 .3985 -.59775 -.3985 -1.59401 -1.49438 C -.3985 -.59775 1.39476 -.19925 2.39102 0 Z "/>
<path transform="matrix(1,0,0,-1,132.62,15.143005)" stroke-width=".3985" stroke-linecap="butt" stroke-miterlimit="10" stroke-linejoin="miter" fill="none" stroke="#000000" d="M 0 -142.70409 L 0 -157.52782 "/>
<path transform="matrix(0,1,1,0,132.62,172.67082)" d="M 2.39102 0 C 1.39476 .19925 -.3985 .59775 -1.59401 1.49438 C -.59775 .3985 -.59775 -.3985 -1.59401 -1.49438 C -.3985 -.59775 1.39476 -.19925 2.39102 0 Z "/>
<path transform="matrix(1,0,0,-1,132.62,15.143005)" stroke-width=".3985" stroke-linecap="butt" stroke-miterlimit="10" stroke-linejoin="miter" fill="none" stroke="#000000" d="M 0 -180.24292 L 0 -200.04804 "/>
<path transform="matrix(0,1,1,0,132.62,215.19104)" d="M 2.39102 0 C 1.39476 .19925 -.3985 .59775 -1.59401 1.49438 C -.59775 .3985 -.59775 -.3985 -1.59401 -1.49438 C -.3985 -.59775 1.39476 -.19925 2.39102 0 Z "/>
<path transform="matrix(1,0,0,-1,132.62,15.143005)" stroke-width=".3985" stroke-linecap="butt" stroke-miterlimit="10" stroke-linejoin="miter" fill="none" stroke="#000000" d="M 53.33372 -127.56065 L 63.41466 -127.56065 "/>
<path transform="matrix(1,0,0,-1,196.03466,142.70366)" d="M 2.39102 0 C 1.39476 .19925 -.3985 .59775 -1.59401 1.49438 C -.59775 .3985 -.59775 -.3985 -1.59401 -1.49438 C -.3985 -.59775 1.39476 -.19925 2.39102 0 Z "/>
<path transform="matrix(1,0,0,-1,132.62,15.143005)" stroke-width=".3985" stroke-linecap="butt" stroke-miterlimit="10" stroke-linejoin="miter" fill="none" stroke="#000000" d="M 99.21387 -137.7227 L 99.21387 -157.52782 "/>
<path transform="matrix(0,1,1,0,231.83386,172.67082)" d="M 2.39102 0 C 1.39476 .19925 -.3985 .59775 -1.59401 1.49438 C -.59775 .3985 -.59775 -.3985 -1.59401 -1.49438 C -.3985 -.59775 1.39476 -.19925 2.39102 0 Z "/>
<path transform="matrix(1,0,0,-1,132.62,15.143005)" stroke-width=".3985" stroke-linecap="butt" stroke-miterlimit="10" stroke-linejoin="miter" fill="none" stroke="#000000" d="M 185.50995 -137.7227 L 128.54148 -159.07953 "/>
<path transform="matrix(-.93631,.35103,.35103,.93631,261.1615,174.22254)" d="M 2.39102 0 C 1.39476 .19925 -.3985 .59775 -1.59401 1.49438 C -.59775 .3985 -.59775 -.3985 -1.59401 -1.49438 C -.3985 -.59775 1.39476 -.19925 2.39102 0 Z "/>
<path transform="matrix(1,0,0,-1,132.62,15.143005)" stroke-width=".3985" stroke-linecap="butt" stroke-miterlimit="10" stroke-linejoin="miter" fill="none" stroke="#000000" d="M 99.21387 -180.24292 L 99.21387 -196.6931 "/>
<path transform="matrix(0,1,1,0,231.83386,211.8361)" d="M 2.39102 0 C 1.39476 .19925 -.3985 .59775 -1.59401 1.49438 C -.59775 .3985 -.59775 -.3985 -1.59401 -1.49438 C -.3985 -.59775 1.39476 -.19925 2.39102 0 Z "/>
<path transform="matrix(1,0,0,-1,132.62,15.143005)" stroke-width=".3985" stroke-linecap="butt" stroke-miterlimit="10" stroke-linejoin="miter" fill="none" stroke="#000000" d="M 0 -222.76314 L 0 -237.58689 "/>
<path transform="matrix(0,1,1,0,132.62,252.72989)" d="M 2.39102 0 C 1.39476 .19925 -.3985 .59775 -1.59401 1.49438 C -.59775 .3985 -.59775 -.3985 -1.59401 -1.49438 C -.3985 -.59775 1.39476 -.19925 2.39102 0 Z "/>
<path transform="matrix(1,0,0,-1,132.62,15.143005)" stroke-width=".3985" stroke-linecap="butt" stroke-miterlimit="10" stroke-linejoin="miter" fill="none" stroke="#000000" d="M 67.68053 -226.11809 L 37.51964 -239.03659 "/>
<path transform="matrix(-.91919,.39369,.39369,.91919,170.13965,254.17958)" d="M 2.39102 0 C 1.39476 .19925 -.3985 .59775 -1.59401 1.49438 C -.59775 .3985 -.59775 -.3985 -1.59401 -1.49438 C -.3985 -.59775 1.39476 -.19925 2.39102 0 Z "/>
</g>
</svg>
