<?xml version="1.0" encoding="UTF-8" standalone="no"?>
<!DOCTYPE svg PUBLIC "-//W3C//DTD SVG 1.1//EN" "http://www.w3.org/Graphics/SVG/1.1/DTD/svg11.dtd">
<svg xmlns="http://www.w3.org/2000/svg" xmlns:xlink="http://www.w3.org/1999/xlink" version="1.1" width="298.833pt" height="106.65pt" viewBox="0 0 298.833 106.65">
<g enable-background="new">
<path transform="matrix(1,0,0,-1,57.291,97.546009)" stroke-width=".79701" stroke-linecap="round" stroke-linejoin="round" fill="none" stroke="#000000" d="M 141.73404 0 L 0 0 "/>
<path transform="matrix(1,0,0,-1,57.291,97.546009)" stroke-width=".79701" stroke-linecap="round" stroke-linejoin="round" fill="none" stroke="#000000" d="M 0 0 L 42.5202 42.5202 "/>
<path transform="matrix(1,0,0,-1,57.291,97.546009)" stroke-width=".79701" stroke-linecap="round" stroke-linejoin="round" fill="none" stroke="#000000" d="M 19.44603 23.07416 L 23.07416 19.44603 "/>
<path transform="matrix(1,0,0,-1,57.291,97.546009)" stroke-width=".79701" stroke-linecap="round" stroke-linejoin="round" fill="none" stroke="#000000" d="M 42.5202 42.5202 L 85.04042 85.04042 "/>
<path transform="matrix(1,0,0,-1,57.291,97.546009)" stroke-width=".79701" stroke-linecap="round" stroke-linejoin="round" fill="none" stroke="#000000" d="M 61.96623 65.59438 L 65.59438 61.99435 "/>
<path transform="matrix(1,0,0,-1,57.291,97.546009)" stroke-width=".79701" stroke-linecap="round" stroke-linejoin="round" fill="none" stroke="#000000" d="M 42.5202 42.5202 L 113.38724 42.5202 "/>
<path transform="matrix(1,0,0,-1,57.291,97.546009)" stroke-width=".79701" stroke-linecap="round" stroke-linejoin="round" fill="none" stroke="#000000" d="M 75.96924 45.0713 L 75.96924 39.9691 "/>
<path transform="matrix(1,0,0,-1,57.291,97.546009)" stroke-width=".79701" stroke-linecap="round" stroke-linejoin="round" fill="none" stroke="#000000" d="M 77.95372 45.0713 L 77.95372 39.9691 "/>
<path transform="matrix(1,0,0,-1,57.291,97.546009)" stroke-width=".79701" stroke-linecap="round" stroke-linejoin="round" fill="none" stroke="#000000" d="M 79.9382 45.0713 L 79.9382 39.9691 "/>
<path transform="matrix(1,0,0,-1,57.291,97.546009)" stroke-width=".79701" stroke-linecap="round" stroke-linejoin="round" fill="none" stroke="#000000" d="M 113.38724 42.5202 L 184.25424 42.5202 "/>
<path transform="matrix(1,0,0,-1,57.291,97.546009)" stroke-width=".79701" stroke-linecap="round" stroke-linejoin="round" fill="none" stroke="#000000" d="M 146.83626 45.0713 L 146.83626 39.9691 "/>
<path transform="matrix(1,0,0,-1,57.291,97.546009)" stroke-width=".79701" stroke-linecap="round" stroke-linejoin="round" fill="none" stroke="#000000" d="M 148.82074 45.0713 L 148.82074 39.9691 "/>
<path transform="matrix(1,0,0,-1,57.291,97.546009)" stroke-width=".79701" stroke-linecap="round" stroke-linejoin="round" fill="none" stroke="#000000" d="M 150.80522 45.0713 L 150.80522 39.9691 "/>
<path transform="matrix(1,0,0,-1,57.291,97.546009)" stroke-width=".79701" stroke-linecap="round" stroke-linejoin="round" fill="none" stroke="#000000" d="M 85.04042 85.04042 L 113.38724 42.5202 "/>
<path transform="matrix(1,0,0,-1,57.291,97.546009)" stroke-width=".79701" stroke-linecap="round" stroke-linejoin="round" fill="none" stroke="#000000" d="M 100.77269 66.01956 L 96.54938 63.18513 "/>
<path transform="matrix(1,0,0,-1,57.291,97.546009)" stroke-width=".79701" stroke-linecap="round" stroke-linejoin="round" fill="none" stroke="#000000" d="M 101.87825 64.37547 L 97.6264 61.54105 "/>
<path transform="matrix(1,0,0,-1,57.291,97.546009)" stroke-width=".79701" stroke-linecap="round" stroke-linejoin="round" fill="none" stroke="#000000" d="M 113.38724 42.5202 L 141.73404 0 "/>
<path transform="matrix(1,0,0,-1,57.291,97.546009)" stroke-width=".79701" stroke-linecap="round" stroke-linejoin="round" fill="none" stroke="#000000" d="M 129.1195 23.49934 L 124.8962 20.66492 "/>
<path transform="matrix(1,0,0,-1,57.291,97.546009)" stroke-width=".79701" stroke-linecap="round" stroke-linejoin="round" fill="none" stroke="#000000" d="M 130.22507 21.85527 L 126.00175 19.02084 "/>
<path transform="matrix(1,0,0,-1,57.291,97.546009)" stroke-width=".59776" stroke-linecap="round" stroke-dasharray="1.99255,1.99255" stroke-linejoin="round" fill="none" stroke="#000000" d="M 141.73404 0 L 184.25424 42.5202 "/>
<path transform="matrix(1,0,0,-1,57.291,97.546009)" stroke-width=".59776" stroke-linecap="round" stroke-dasharray="1.99255,1.99255" stroke-linejoin="round" fill="none" stroke="#000000" d="M 85.04042 85.04042 L 184.25424 42.5202 "/>
<path transform="matrix(1,0,0,-1,57.291,97.546009)" stroke-width=".59776" stroke-linecap="round" stroke-dasharray="1.99255,1.99255" stroke-linejoin="round" fill="none" stroke="#000000" d="M 42.5202 42.5202 L 141.73404 0 "/>
<path transform="matrix(1,0,0,-1,57.291,97.546009)" d="M 1.49442 0 C 1.49442 .82533 .82533 1.49442 0 1.49442 C -.82533 1.49442 -1.49442 .82533 -1.49442 0 C -1.49442 -.82533 -.82533 -1.49442 0 -1.49442 C .82533 -1.49442 1.49442 -.82533 1.49442 0 Z M 0 0 " fill="#0000ff"/>
<path transform="matrix(1,0,0,-1,57.291,97.546009)" stroke-width=".79701" stroke-linecap="round" stroke-linejoin="round" fill="none" stroke="#000000" d="M 1.49442 0 C 1.49442 .82533 .82533 1.49442 0 1.49442 C -.82533 1.49442 -1.49442 .82533 -1.49442 0 C -1.49442 -.82533 -.82533 -1.49442 0 -1.49442 C .82533 -1.49442 1.49442 -.82533 1.49442 0 Z M 0 0 "/>
<symbol id="font_0_1">
<path d="M .14900002 .120000008 C .114 .066 .08200001 .040000004 .023000002 .036000004 C .012999997 .035 0 .035 0 .015000001 C 0 .004 .008999996 0 .013999999 0 C .04 0 .07300001 .004 .1 .004 C .132 .004 .17300001 0 .20300001 0 C .208 0 .22299999 0 .22299999 .022000002 C .22299999 .035 .21000001 .036000004 .206 .036000004 C .19800002 .037 .162 .039 .162 .066 C .162 .078 .17200002 .095000009 .17700002 .104 L .257 .22800002 L .54300007 .22800002 L .56700006 .062000004 C .563 .052 .55700007 .036000004 .498 .036000004 C .48600004 .036000004 .47200004 .036000004 .47200004 .014 C .47200004 .010000001 .475 0 .488 0 C .517 0 .58800008 .004 .61700007 .004 C .63500007 .004 .65800008 .003 .67600008 .003 C .69400009 .002 .71500006 0 .73300006 0 C .74600008 0 .7530001 .008 .7530001 .021000002 C .7530001 .036000004 .74100008 .036000004 .7250001 .036000004 C .66700008 .036000004 .6650001 .044000005 .66200008 .068 L .57400009 .68500009 C .57100006 .70600005 .56900009 .71300008 .5500001 .71300008 C .531 .71300008 .52500006 .70400008 .51600006 .69000008 L .14900002 .120000008 M .28100003 .264 L .49100004 .591 L .53800007 .264 L .28100003 .264 Z "/>
</symbol>
<use xlink:href="#font_0_1" transform="matrix(6.9738,0,0,-6.9738,51.857507,104.18001)" fill="#0000ff"/>
<path transform="matrix(1,0,0,-1,57.291,97.546009)" d="M 143.22846 0 C 143.22846 .82533 142.55939 1.49442 141.73404 1.49442 C 140.90869 1.49442 140.23963 .82533 140.23963 0 C 140.23963 -.82533 140.90869 -1.49442 141.73404 -1.49442 C 142.55939 -1.49442 143.22846 -.82533 143.22846 0 Z M 141.73404 0 " fill="#0000ff"/>
<path transform="matrix(1,0,0,-1,57.291,97.546009)" stroke-width=".79701" stroke-linecap="round" stroke-linejoin="round" fill="none" stroke="#000000" d="M 143.22846 0 C 143.22846 .82533 142.55939 1.49442 141.73404 1.49442 C 140.90869 1.49442 140.23963 .82533 140.23963 0 C 140.23963 -.82533 140.90869 -1.49442 141.73404 -1.49442 C 142.55939 -1.49442 143.22846 -.82533 143.22846 0 Z M 141.73404 0 "/>
<symbol id="font_0_2">
<path d="M .11800001 .078 C .109000008 .044000005 .107 .036000004 .030000002 .036000004 C .012999997 .036000004 0 .036000004 0 .015000001 C 0 0 .012000002 0 .030000002 0 L .41700004 0 C .585 0 .714 .115 .714 .21400002 C .714 .28500004 .649 .34600003 .543 .35700003 C .66400006 .379 .765 .455 .765 .541 C .765 .61700007 .688 .683 .558 .683 L .194 .683 C .17500001 .683 .162 .683 .162 .661 C .162 .647 .174 .647 .194 .647 C .19500003 .647 .21400002 .647 .23200003 .64500007 C .25300003 .643 .25500003 .64100006 .25500003 .63100007 C .25500003 .629 .25500003 .624 .25100003 .609 L .11800001 .078 M .27800004 .36900003 L .33900003 .61300006 C .34700004 .64400008 .34800003 .647 .39000003 .647 L .542 .647 C .644 .647 .667 .58000007 .667 .54200008 C .667 .46100004 .576 .36900003 .442 .36900003 L .27800004 .36900003 M .23000002 .036000004 C .19900003 .036000004 .19800002 .037 .19800002 .046000005 C .19800002 .047000003 .19800002 .052 .20200002 .067 L .27100004 .34100003 L .483 .34100003 C .577 .34100003 .61300006 .279 .61300006 .22100002 C .61300006 .12200001 .512 .036000004 .39100004 .036000004 L .23000002 .036000004 Z "/>
</symbol>
<use xlink:href="#font_0_2" transform="matrix(6.9738,0,0,-6.9738,199.18012,103.614009)" fill="#0000ff"/>
<path transform="matrix(1,0,0,-1,57.291,97.546009)" d="M 86.53484 85.04042 C 86.53484 85.86577 85.86577 86.53484 85.04042 86.53484 C 84.21507 86.53484 83.546 85.86577 83.546 85.04042 C 83.546 84.21507 84.21507 83.546 85.04042 83.546 C 85.86577 83.546 86.53484 84.21507 86.53484 85.04042 Z M 85.04042 85.04042 " fill="#0000ff"/>
<path transform="matrix(1,0,0,-1,57.291,97.546009)" stroke-width=".79701" stroke-linecap="round" stroke-linejoin="round" fill="none" stroke="#000000" d="M 86.53484 85.04042 C 86.53484 85.86577 85.86577 86.53484 85.04042 86.53484 C 84.21507 86.53484 83.546 85.86577 83.546 85.04042 C 83.546 84.21507 84.21507 83.546 85.04042 83.546 C 85.86577 83.546 86.53484 84.21507 86.53484 85.04042 Z M 85.04042 85.04042 "/>
<symbol id="font_0_3">
<path d="M .77300009 .71000006 C .77300009 .71500006 .77000007 .723 .76000007 .723 C .753 .723 .75100007 .721 .74200007 .711 L .669 .634 C .66 .646 .60400006 .723 .481 .723 C .23800004 .723 0 .508 0 .28200004 C 0 .11900001 .12800002 0 .307 0 C .36100004 0 .45700003 .011000001 .56000009 .098000008 C .63900008 .165 .661 .252 .661 .26000003 C .661 .27300004 .64900007 .27300004 .64400008 .27300004 C .63100007 .27300004 .62900009 .268 .62600007 .25700004 C .58500006 .120000008 .44500006 .036000004 .32400004 .036000004 C .21800003 .036000004 .1 .09300001 .1 .25100003 C .1 .28000004 .107 .43800003 .22200004 .564 C .29100005 .64100006 .39600004 .68700006 .49100007 .68700006 C .60700008 .68700006 .6750001 .603 .6750001 .49100004 C .6750001 .46300004 .67200008 .45600004 .67200008 .45000003 C .67200008 .43700005 .68500009 .43700005 .69000008 .43700005 C .70600005 .43700005 .70600005 .44000004 .711 .45900003 L .77300009 .71000006 Z "/>
</symbol>
<use xlink:href="#font_0_3" transform="matrix(6.9738,0,0,-6.9738,143.68515,7.3754837)" fill="#0000ff"/>
<path transform="matrix(1,0,0,-1,57.291,97.546009)" d="M 185.74866 42.5202 C 185.74866 43.34555 185.07959 44.01462 184.25424 44.01462 C 183.42891 44.01462 182.75983 43.34555 182.75983 42.5202 C 182.75983 41.69485 183.42891 41.02579 184.25424 41.02579 C 185.07959 41.02579 185.74866 41.69485 185.74866 42.5202 Z M 184.25424 42.5202 " fill="#0000ff"/>
<path transform="matrix(1,0,0,-1,57.291,97.546009)" stroke-width=".79701" stroke-linecap="round" stroke-linejoin="round" fill="none" stroke="#000000" d="M 185.74866 42.5202 C 185.74866 43.34555 185.07959 44.01462 184.25424 44.01462 C 183.42891 44.01462 182.75983 43.34555 182.75983 42.5202 C 182.75983 41.69485 183.42891 41.02579 184.25424 41.02579 C 185.07959 41.02579 185.74866 41.69485 185.74866 42.5202 Z M 184.25424 42.5202 "/>
<symbol id="font_0_6">
<path d="M .50600007 .38200004 L .601 .47700004 C .72900006 .60300007 .768 .642 .85800006 .647 C .87100008 .648 .883 .648 .883 .66800007 C .883 .68 .87200006 .683 .869 .683 C .84000006 .683 .805 .679 .77500006 .679 C .749 .679 .685 .683 .65900006 .683 C .651 .683 .639 .68 .639 .661 C .639 .66 .639 .648 .65400007 .647 C .66300007 .646 .688 .64400008 .688 .62200006 C .688 .60700008 .67300006 .591 .66300007 .58100005 C .65500006 .574 .528 .45000003 .491 .41200004 L .39000003 .60800006 C .388 .611 .38500003 .61800006 .38500003 .62200006 C .38500003 .629 .404 .64500007 .43800003 .647 C .44500003 .647 .459 .648 .459 .669 C .459 .67 .458 .683 .442 .683 C .421 .683 .396 .68 .375 .68 C .354 .68 .331 .679 .31 .679 C .293 .679 .269 .679 .25100003 .68 C .23400001 .68100008 .21300002 .683 .19700001 .683 C .19200002 .683 .17600002 .683 .17600002 .661 C .17600002 .647 .18900001 .647 .20500003 .647 C .263 .647 .268 .637 .278 .61700007 L .418 .34100003 L .36200003 .28500004 C .343 .26700003 .296 .22200002 .278 .20300001 C .15600002 .082 .11500001 .040000004 .025000003 .036000004 C .011000004 .035 0 .035 0 .014 C 0 .010000001 .0030000024 0 .014000002 0 C .043 0 .07700001 .004 .10700001 .004 C .12400001 .004 .14900002 .004 .16600001 .003 C .18400002 .002 .20600002 0 .223 0 C .22800003 0 .244 0 .244 .021000002 C .244 .035 .23200001 .036000004 .22600003 .036000004 C .216 .037 .19500001 .040000004 .19500001 .061000006 C .19500001 .07700001 .20800002 .09 .23 .112 L .433 .31100003 L .554 .074 C .559 .064 .56 .062000004 .56 .061000006 C .56 .055000005 .542 .039 .507 .036000004 C .49800004 .035 .485 .035 .485 .014 C .485 .013 .486 0 .50200006 0 C .523 0 .54800006 .003 .569 .003 C .59000006 .003 .61300006 .004 .634 .004 C .651 .004 .675 .004 .693 .003 C .71000006 .002 .731 0 .74700006 0 C .75200006 0 .768 0 .768 .022000002 C .768 .036000004 .75500008 .036000004 .739 .036000004 C .681 .036000004 .676 .047000003 .667 .064 L .50600007 .38200004 Z "/>
</symbol>
<use xlink:href="#font_0_6" transform="matrix(6.9738,0,0,-6.9738,242.3217,49.18901)" fill="#0000ff"/>
<path transform="matrix(1,0,0,-1,57.291,97.546009)" d="M 44.01462 42.5202 C 44.01462 43.34555 43.34555 44.01462 42.5202 44.01462 C 41.69485 44.01462 41.02579 43.34555 41.02579 42.5202 C 41.02579 41.69485 41.69485 41.02579 42.5202 41.02579 C 43.34555 41.02579 44.01462 41.69485 44.01462 42.5202 Z M 42.5202 42.5202 " fill="#0000ff"/>
<path transform="matrix(1,0,0,-1,57.291,97.546009)" stroke-width=".79701" stroke-linecap="round" stroke-linejoin="round" fill="none" stroke="#000000" d="M 44.01462 42.5202 C 44.01462 43.34555 43.34555 44.01462 42.5202 44.01462 C 41.69485 44.01462 41.02579 43.34555 41.02579 42.5202 C 41.02579 41.69485 41.69485 41.02579 42.5202 41.02579 C 43.34555 41.02579 44.01462 41.69485 44.01462 42.5202 Z M 42.5202 42.5202 "/>
<symbol id="font_0_4">
<path d="M .11800001 .078 C .11000001 .044000005 .108 .036000004 .030000002 .036000004 C .012000002 .036000004 0 .036000004 0 .014 C 0 0 .012000002 0 .030000002 0 L .38700003 0 C .609 0 .8220001 .20400001 .8220001 .42200003 C .8220001 .568 .7210001 .683 .558 .683 L .194 .683 C .174 .683 .162 .683 .162 .661 C .162 .647 .17300001 .647 .195 .647 C .211 .647 .215 .647 .23300001 .64500007 C .253 .643 .255 .64100006 .255 .63100007 C .255 .629 .255 .624 .25100003 .609 L .11800001 .078 M .342 .61300006 C .35000003 .64400008 .351 .647 .393 .647 L .521 .647 C .6330001 .647 .72700008 .591 .72700008 .455 C .72700008 .432 .71700009 .259 .61700007 .14500001 C .57800009 .1 .492 .036000004 .36900003 .036000004 L .23300001 .036000004 C .20199999 .036000004 .201 .037 .201 .046000005 C .201 .047000003 .201 .052 .20500002 .067 L .342 .61300006 Z "/>
</symbol>
<use xlink:href="#font_0_4" transform="matrix(6.9738,0,0,-6.9738,95.240139,48.62201)" fill="#0000ff"/>
<path transform="matrix(1,0,0,-1,57.291,97.546009)" d="M 114.88165 42.5202 C 114.88165 43.34555 114.21257 44.01462 113.38724 44.01462 C 112.56189 44.01462 111.89282 43.34555 111.89282 42.5202 C 111.89282 41.69485 112.56189 41.02579 113.38724 41.02579 C 114.21257 41.02579 114.88165 41.69485 114.88165 42.5202 Z M 113.38724 42.5202 " fill="#0000ff"/>
<path transform="matrix(1,0,0,-1,57.291,97.546009)" stroke-width=".79701" stroke-linecap="round" stroke-linejoin="round" fill="none" stroke="#000000" d="M 114.88165 42.5202 C 114.88165 43.34555 114.21257 44.01462 113.38724 44.01462 C 112.56189 44.01462 111.89282 43.34555 111.89282 42.5202 C 111.89282 41.69485 112.56189 41.02579 113.38724 41.02579 C 114.21257 41.02579 114.88165 41.69485 114.88165 42.5202 Z M 113.38724 42.5202 "/>
<symbol id="font_0_5">
<path d="M .72300007 .231 C .72900006 .24400002 .72900006 .24800001 .72900006 .24900002 C .72900006 .25500003 .725 .263 .712 .263 C .71000006 .263 .70500007 .263 .70100006 .259 C .699 .257 .698 .256 .68600007 .23 C .62100008 .086 .57000008 .036000004 .407 .036000004 L .23700002 .036000004 C .206 .036000004 .20500002 .037 .20500002 .046000005 C .20500002 .047000003 .20500002 .052 .20900002 .067 L .27600003 .335 L .388 .335 C .467 .335 .47900004 .32200004 .47900004 .289 C .47900004 .27800004 .476 .261 .472 .24400002 C .46900005 .23500002 .46900005 .23400001 .46900005 .23200001 C .46900005 .23 .47000004 .21800001 .486 .21800001 C .5 .21800001 .50100007 .223 .505 .24000001 L .56 .45900003 C .563 .47100003 .563 .47300003 .563 .47400005 C .563 .48400004 .555 .48800005 .546 .48800005 C .53300008 .48800005 .532 .483 .526 .462 C .505 .384 .47500003 .37100003 .39000003 .37100003 L .285 .37100003 L .34500004 .609 C .35300002 .64000007 .354 .643 .39600004 .643 L .559 .643 C .69000008 .643 .72300007 .61600008 .72300007 .527 C .72300007 .50100007 .71900007 .47100003 .71900007 .46600003 C .71900007 .45800004 .722 .44900004 .73600009 .44900004 C .75100007 .44900004 .75200006 .45800004 .754 .47500003 L .772 .64900007 C .77500006 .679 .768 .679 .74300006 .679 L .19300002 .679 C .17300001 .679 .161 .679 .161 .657 C .161 .643 .172 .643 .194 .643 C .21000001 .643 .21400002 .643 .23200003 .64100006 C .252 .63900008 .254 .637 .254 .62700006 C .254 .62 .25100003 .61 .25 .605 L .119 .082 C .109 .043 .107999999 .036000004 .030000002 .036000004 C .0119999949 .036000004 0 .036000004 0 .014 C 0 0 .0119999949 0 .030000002 0 L .595 0 C .62 0 .62100008 0 .629 .018000002 L .72300007 .231 Z "/>
</symbol>
<use xlink:href="#font_0_5" transform="matrix(6.9738,0,0,-6.9738,172.01018,49.18901)" fill="#0000ff"/>
<path transform="matrix(1,0,0,-1,57.291,97.546009)" stroke-width=".79701" stroke-linecap="round" stroke-linejoin="round" fill="none" stroke="#ffffff" d="M -56.49435 0 C -56.49435 .11003 -56.58359 .19925 -56.69362 .19925 C -56.80365 .19925 -56.89287 .11003 -56.89287 0 C -56.89287 -.11003 -56.80365 -.19925 -56.69362 -.19925 C -56.58359 -.19925 -56.49435 -.11003 -56.49435 0 Z M -56.69362 0 "/>
<path transform="matrix(1,0,0,-1,57.291,97.546009)" stroke-width=".79701" stroke-linecap="round" stroke-linejoin="round" fill="none" stroke="#ffffff" d="M 241.14713 0 C 241.14713 .11003 241.0579 .19925 240.94788 .19925 C 240.83783 .19925 240.74861 .11003 240.74861 0 C 240.74861 -.11003 240.83783 -.19925 240.94788 -.19925 C 241.0579 -.19925 241.14713 -.11003 241.14713 0 Z M 240.94788 0 "/>
</g>
</svg>
