<?xml version="1.0" encoding="UTF-8" standalone="no"?>
<!DOCTYPE svg PUBLIC "-//W3C//DTD SVG 1.1//EN" "http://www.w3.org/Graphics/SVG/1.1/DTD/svg11.dtd">
<svg xmlns="http://www.w3.org/2000/svg" xmlns:xlink="http://www.w3.org/1999/xlink" version="1.1" width="170.079pt" height="87.874pt" viewBox="0 0 170.079 87.874">
<g enable-background="new">
<clipPath id="cp0">
<path transform="matrix(1,0,0,-1,14.173,70.866)" d="M -14.17339 -17.00824 L -14.17339 70.867 L 155.90744 70.867 L 155.90744 -17.00824 Z M 155.90744 70.867 "/>
</clipPath>
<g clip-path="url(#cp0)">
<path transform="matrix(1,0,0,-1,14.173,70.866)" stroke-width=".79701" stroke-linecap="round" stroke-linejoin="round" fill="none" stroke="#000000" d="M 0 0 L 113.38724 0 "/>
<path transform="matrix(1,0,0,-1,14.173,70.866)" stroke-width=".79701" stroke-linecap="round" stroke-linejoin="round" fill="none" stroke="#000000" d="M 113.38724 0 L 141.73404 56.69362 "/>
<path transform="matrix(1,0,0,-1,14.173,70.866)" stroke-width=".79701" stroke-linecap="round" stroke-linejoin="round" fill="none" stroke="#000000" d="M 141.73404 56.69362 L 28.3468 56.69362 "/>
<path transform="matrix(1,0,0,-1,14.173,70.866)" stroke-width=".79701" stroke-linecap="round" stroke-linejoin="round" fill="none" stroke="#000000" d="M 28.3468 56.69362 L 0 0 "/>
<path transform="matrix(1,0,0,-1,14.173,70.866)" stroke-width=".79701" stroke-linecap="round" stroke-linejoin="round" fill="none" stroke="#000000" d="M 28.3468 56.69362 L 113.38724 0 "/>
<path transform="matrix(1,0,0,-1,14.173,70.866)" d="M 1.19553 0 C 1.19553 .66026 .66026 1.19553 0 1.19553 C -.66026 1.19553 -1.19553 .66026 -1.19553 0 C -1.19553 -.66026 -.66026 -1.19553 0 -1.19553 C .66026 -1.19553 1.19553 -.66026 1.19553 0 Z M 0 0 " fill="#0000ff"/>
<path transform="matrix(1,0,0,-1,14.173,70.866)" stroke-width=".79701" stroke-linecap="round" stroke-linejoin="round" fill="none" stroke="#000000" d="M 1.19553 0 C 1.19553 .66026 .66026 1.19553 0 1.19553 C -.66026 1.19553 -1.19553 .66026 -1.19553 0 C -1.19553 -.66026 -.66026 -1.19553 0 -1.19553 C .66026 -1.19553 1.19553 -.66026 1.19553 0 Z M 0 0 "/>
<symbol id="font_1_4">
<path d="M .70300009 .64400008 C .711 .652 .71700009 .65900006 .71700009 .67200008 C .71700009 .683 .70900008 .683 .69000008 .683 L .22299999 .683 C .197 .683 .19600001 .68200007 .19 .66300007 L .134 .483 C .13 .47100003 .13 .47000004 .13 .467 C .13 .462 .134 .453 .14700002 .453 C .16 .453 .162 .45900003 .16499999 .469 C .213 .61 .291 .647 .42 .647 L .6 .647 L .016999998 .044000005 C .009999998 .037 0 .027 0 .011000001 C 0 0 .008999996 0 .027000003 0 L .51100006 0 C .53700008 0 .53800007 .001 .544 .020000002 L .61600008 .24300002 C .62000009 .256 .62000009 .25800003 .62000009 .259 C .62000009 .26000003 .62000009 .273 .60400006 .273 C .591 .273 .58900007 .26900003 .5820001 .24700001 C .5360001 .11000001 .48499999 .040000004 .31100003 .040000004 L .12 .040000004 L .70300009 .64400008 Z "/>
</symbol>
<use xlink:href="#font_1_4" transform="matrix(6.9738,0,0,-6.9738,3.835904,74.099)" fill="#0000ff"/>
<path transform="matrix(1,0,0,-1,14.173,70.866)" d="M 29.54233 56.69362 C 29.54233 57.35388 29.00706 57.88914 28.3468 57.88914 C 27.68654 57.88914 27.15128 57.35388 27.15128 56.69362 C 27.15128 56.03334 27.68654 55.49808 28.3468 55.49808 C 29.00706 55.49808 29.54233 56.03334 29.54233 56.69362 Z M 28.3468 56.69362 " fill="#0000ff"/>
<path transform="matrix(1,0,0,-1,14.173,70.866)" stroke-width=".79701" stroke-linecap="round" stroke-linejoin="round" fill="none" stroke="#000000" d="M 29.54233 56.69362 C 29.54233 57.35388 29.00706 57.88914 28.3468 57.88914 C 27.68654 57.88914 27.15128 57.35388 27.15128 56.69362 C 27.15128 56.03334 27.68654 55.49808 28.3468 55.49808 C 29.00706 55.49808 29.54233 56.03334 29.54233 56.69362 Z M 28.3468 56.69362 "/>
<symbol id="font_1_1">
<path d="M .958 .585 L .976 .611 C .99700006 .638 1.0210002 .663 1.07 .667 C 1.0810001 .668 1.093 .669 1.093 .689 C 1.093 .69600006 1.0870001 .703 1.0790001 .703 C 1.0560001 .703 1.0270001 .699 1.0030001 .699 C .968 .699 .925 .703 .892 .703 C .887 .703 .87100008 .703 .87100008 .681 C .87100008 .668 .88500007 .667 .88900008 .667 C .911 .666 .94400009 .66 .94400009 .632 C .94400009 .621 .933 .603 .9290001 .596 L .647 .133 L .592 .638 C .592 .666 .65000006 .667 .662 .667 C .675 .667 .689 .667 .689 .689 C .689 .69 .688 .703 .67200008 .703 C .653 .703 .629 .70100006 .61 .7 C .59000006 .699 .564 .699 .544 .699 C .521 .699 .462 .703 .439 .703 C .43400003 .703 .419 .703 .419 .681 C .419 .667 .43200005 .667 .445 .667 C .48800005 .667 .49300004 .66 .496 .65000006 C .49700005 .644 .499 .616 .503 .585 L .22800002 .133 L .17500001 .623 C .17500001 .62700006 .17300001 .637 .17300001 .638 C .17300001 .667 .23500002 .667 .243 .667 C .256 .667 .27 .667 .27 .689 C .27 .693 .26700003 .703 .254 .703 C .225 .703 .15400002 .699 .125 .699 C .092 .699 .050000006 .703 .020000004 .703 C .010000005 .703 0 .699 0 .68200007 C 0 .667 .012000002 .667 .028000005 .667 C .07500001 .667 .07500001 .661 .078 .63600006 L .14500001 .027000003 C .14700002 .007000001 .148 0 .16600001 0 C .183 0 .19 .009000001 .19600001 .020000002 L .508 .534 L .563 .026 C .565 .005000001 .57 0 .58500006 0 C .602 0 .60800006 .009000001 .615 .021000002 L .958 .585 Z "/>
</symbol>
<use xlink:href="#font_1_1" transform="matrix(6.9738,0,0,-6.9738,34.812959,8.475474)" fill="#0000ff"/>
<path transform="matrix(1,0,0,-1,14.173,70.866)" d="M 114.58276 0 C 114.58276 .66026 114.0475 1.19553 113.38724 1.19553 C 112.72696 1.19553 112.1917 .66026 112.1917 0 C 112.1917 -.66026 112.72696 -1.19553 113.38724 -1.19553 C 114.0475 -1.19553 114.58276 -.66026 114.58276 0 Z M 113.38724 0 " fill="#0000ff"/>
<path transform="matrix(1,0,0,-1,14.173,70.866)" stroke-width=".79701" stroke-linecap="round" stroke-linejoin="round" fill="none" stroke="#000000" d="M 114.58276 0 C 114.58276 .66026 114.0475 1.19553 113.38724 1.19553 C 112.72696 1.19553 112.1917 .66026 112.1917 0 C 112.1917 -.66026 112.72696 -1.19553 113.38724 -1.19553 C 114.0475 -1.19553 114.58276 -.66026 114.58276 0 Z M 113.38724 0 "/>
<symbol id="font_1_3">
<path d="M .62 .563 C .639 .583 .659 .601 .681 .61600008 C .722 .64400008 .759 .646 .772 .647 C .783 .648 .795 .648 .795 .669 C .795 .67600008 .78900006 .683 .781 .683 C .756 .683 .726 .679 .7 .679 C .668 .679 .626 .683 .596 .683 C .591 .683 .576 .683 .576 .661 C .576 .648 .589 .647 .594 .647 C .623 .64500007 .623 .634 .623 .628 C .623 .619 .617 .611 .61 .60200008 C .60400006 .59300008 .599 .586 .593 .58000007 L .34300003 .319 L .21100003 .61200007 C .20400003 .62600007 .20400003 .628 .20400003 .629 C .20400003 .647 .252 .647 .25800003 .647 C .27100004 .647 .284 .647 .284 .669 C .284 .67 .284 .683 .268 .683 C .238 .683 .16400002 .679 .134 .679 C .10900001 .679 .045000007 .683 .02 .683 C .011999998 .683 0 .68 0 .661 C 0 .647 .013 .647 .026999999 .647 C .08500001 .647 .089 .638 .09900001 .61600008 L .254 .27400003 L .20900002 .091000009 C .19600001 .040000004 .19500003 .037 .11700001 .036000004 C .10000001 .036000004 .08700001 .036000004 .08700001 .015000001 C .08700001 .0050000005 .09400001 0 .103000018 0 C .12200001 0 .14500001 .003 .165 .003 C .18400002 .003 .21300003 .004 .231 .004 C .25100003 .004 .27400003 .003 .29500003 .003 C .316 .003 .34100003 0 .36200003 0 C .36800004 0 .38400004 0 .38400004 .022000002 C .38400004 .036000004 .372 .036000004 .35000003 .036000004 C .33400003 .036000004 .33 .036000004 .312 .038000004 C .293 .040000004 .29000003 .042000005 .29000003 .052 C .29000003 .058000003 .30200003 .106000009 .30900003 .133 C .31700004 .165 .33800004 .252 .34000004 .256 C .344 .27100004 .344 .273 .35400004 .28300003 L .62 .563 Z "/>
</symbol>
<use xlink:href="#font_1_3" transform="matrix(6.9738,0,0,-6.9738,131.00048,71.264)" fill="#0000ff"/>
<path transform="matrix(1,0,0,-1,14.173,70.866)" d="M 142.92957 56.69362 C 142.92957 57.35388 142.3943 57.88914 141.73404 57.88914 C 141.07378 57.88914 140.53852 57.35388 140.53852 56.69362 C 140.53852 56.03334 141.07378 55.49808 141.73404 55.49808 C 142.3943 55.49808 142.92957 56.03334 142.92957 56.69362 Z M 141.73404 56.69362 " fill="#0000ff"/>
<path transform="matrix(1,0,0,-1,14.173,70.866)" stroke-width=".79701" stroke-linecap="round" stroke-linejoin="round" fill="none" stroke="#000000" d="M 142.92957 56.69362 C 142.92957 57.35388 142.3943 57.88914 141.73404 57.88914 C 141.07378 57.88914 140.53852 57.35388 140.53852 56.69362 C 140.53852 56.03334 141.07378 55.49808 141.73404 55.49808 C 142.3943 55.49808 142.92957 56.03334 142.92957 56.69362 Z M 141.73404 56.69362 "/>
<symbol id="font_1_2">
<path d="M .50600007 .38200004 L .601 .47700004 C .72900006 .60300007 .768 .642 .85800006 .647 C .87100008 .648 .883 .648 .883 .66800007 C .883 .68 .87200006 .683 .869 .683 C .84000006 .683 .805 .679 .77500006 .679 C .749 .679 .685 .683 .65900006 .683 C .651 .683 .639 .68 .639 .661 C .639 .66 .639 .648 .65400007 .647 C .66300007 .646 .688 .64400008 .688 .62200006 C .688 .60700008 .67300006 .591 .66300007 .58100005 C .65500006 .574 .528 .45000003 .491 .41200004 L .39000003 .60800006 C .388 .611 .38500003 .61800006 .38500003 .62200006 C .38500003 .629 .404 .64500007 .43800003 .647 C .44500003 .647 .459 .648 .459 .669 C .459 .67 .458 .683 .442 .683 C .421 .683 .396 .68 .375 .68 C .354 .68 .331 .679 .31 .679 C .293 .679 .269 .679 .25100003 .68 C .23400001 .68100008 .21300002 .683 .19700001 .683 C .19200002 .683 .17600002 .683 .17600002 .661 C .17600002 .647 .18900001 .647 .20500003 .647 C .263 .647 .268 .637 .278 .61700007 L .418 .34100003 L .36200003 .28500004 C .343 .26700003 .296 .22200002 .278 .20300001 C .15600002 .082 .11500001 .040000004 .025000003 .036000004 C .011000004 .035 0 .035 0 .014 C 0 .010000001 .0030000024 0 .014000002 0 C .043 0 .07700001 .004 .10700001 .004 C .12400001 .004 .14900002 .004 .16600001 .003 C .18400002 .002 .20600002 0 .223 0 C .22800003 0 .244 0 .244 .021000002 C .244 .035 .23200001 .036000004 .22600003 .036000004 C .216 .037 .19500001 .040000004 .19500001 .061000006 C .19500001 .07700001 .20800002 .09 .23 .112 L .433 .31100003 L .554 .074 C .559 .064 .56 .062000004 .56 .061000006 C .56 .055000005 .542 .039 .507 .036000004 C .49800004 .035 .485 .035 .485 .014 C .485 .013 .486 0 .50200006 0 C .523 0 .54800006 .003 .569 .003 C .59000006 .003 .61300006 .004 .634 .004 C .651 .004 .675 .004 .693 .003 C .71000006 .002 .731 0 .74700006 0 C .75200006 0 .768 0 .768 .022000002 C .768 .036000004 .75500008 .036000004 .739 .036000004 C .681 .036000004 .676 .047000003 .667 .064 L .50600007 .38200004 Z "/>
</symbol>
<use xlink:href="#font_1_2" transform="matrix(6.9738,0,0,-6.9738,156.6847,8.335999)" fill="#0000ff"/>
</g>
</g>
</svg>
