<?xml version="1.0" encoding="UTF-8" standalone="no"?>
<!DOCTYPE svg PUBLIC "-//W3C//DTD SVG 1.1//EN" "http://www.w3.org/Graphics/SVG/1.1/DTD/svg11.dtd">
<svg xmlns="http://www.w3.org/2000/svg" xmlns:xlink="http://www.w3.org/1999/xlink" version="1.1" width="164.409pt" height="82.204pt" viewBox="0 0 164.409 82.204">
<g enable-background="new">
<clipPath id="cp0">
<path transform="matrix(1,0,0,-1,11.338,69.448009)" d="M -11.33855 -12.75595 L -11.33855 69.44957 L 153.07259 69.44957 L 153.07259 -12.75595 Z M 153.07259 69.44957 "/>
</clipPath>
<g clip-path="url(#cp0)">
<path transform="matrix(1,0,0,-1,11.338,69.448009)" stroke-width=".79701" stroke-linecap="round" stroke-linejoin="round" fill="none" stroke="#000000" d="M 0 0 L 28.3468 56.69362 "/>
<path transform="matrix(1,0,0,-1,11.338,69.448009)" stroke-width=".79701" stroke-linecap="round" stroke-linejoin="round" fill="none" stroke="#000000" d="M 28.3468 56.69362 L 141.73404 56.69362 "/>
<path transform="matrix(1,0,0,-1,11.338,69.448009)" stroke-width=".79701" stroke-linecap="round" stroke-linejoin="round" fill="none" stroke="#000000" d="M 141.73404 56.69362 L 113.38724 0 "/>
<path transform="matrix(1,0,0,-1,11.338,69.448009)" stroke-width=".79701" stroke-linecap="round" stroke-linejoin="round" fill="none" stroke="#000000" d="M 113.38724 0 L 0 0 "/>
<path transform="matrix(1,0,0,-1,11.338,69.448009)" stroke-width=".79701" stroke-linecap="round" stroke-linejoin="round" fill="none" stroke="#000000" d="M 0 0 L 141.73404 56.69362 "/>
<path transform="matrix(1,0,0,-1,11.338,69.448009)" d="M 1.19553 0 C 1.19553 .66026 .66026 1.19553 0 1.19553 C -.66026 1.19553 -1.19553 .66026 -1.19553 0 C -1.19553 -.66026 -.66026 -1.19553 0 -1.19553 C .66026 -1.19553 1.19553 -.66026 1.19553 0 Z M 0 0 " fill="#0000ff"/>
<path transform="matrix(1,0,0,-1,11.338,69.448009)" stroke-width=".79701" stroke-linecap="round" stroke-linejoin="round" fill="none" stroke="#000000" d="M 1.19553 0 C 1.19553 .66026 .66026 1.19553 0 1.19553 C -.66026 1.19553 -1.19553 .66026 -1.19553 0 C -1.19553 -.66026 -.66026 -1.19553 0 -1.19553 C .66026 -1.19553 1.19553 -.66026 1.19553 0 Z M 0 0 "/>
<symbol id="font_1_1">
<path d="M .14400001 .115 C .10400002 .048 .065 .034 .021000002 .031000002 C .009000003 .030000002 0 .030000002 0 .011000001 C 0 .0050000005 .0050000029 0 .013 0 C .040000004 0 .07100001 .003 .09900001 .003 C .13200002 .003 .16700001 0 .19900002 0 C .20500002 0 .21800003 0 .21800003 .019000002 C .21800003 .030000002 .20900002 .031000002 .20200002 .031000002 C .17900002 .033 .15500002 .041 .15500002 .066 C .15500002 .078 .16100002 .089 .16900002 .10300001 L .245 .231 L .49600003 .231 C .49800007 .21000001 .512 .074 .512 .064 C .512 .034 .46000005 .031000002 .44000004 .031000002 C .42600004 .031000002 .41600005 .031000002 .41600005 .011000001 C .41600005 0 .42800004 0 .43000005 0 C .47100006 0 .514 .003 .555 .003 C .58 .003 .643 0 .668 0 C .674 0 .686 0 .686 .020000002 C .686 .031000002 .676 .031000002 .663 .031000002 C .601 .031000002 .601 .038000004 .598 .067 L .537 .69200006 C .535 .712 .535 .716 .518 .716 C .502 .716 .49800007 .70900008 .492 .69900009 L .14400001 .115 M .26400004 .26200003 L .46100004 .592 L .493 .26200003 L .26400004 .26200003 Z "/>
</symbol>
<use xlink:href="#font_1_1" transform="matrix(9.9626,0,0,-9.9626,3.4156914,78.521)" fill="#0000ff"/>
<path transform="matrix(1,0,0,-1,11.338,69.448009)" d="M 114.58276 0 C 114.58276 .66026 114.0475 1.19553 113.38724 1.19553 C 112.72696 1.19553 112.1917 .66026 112.1917 0 C 112.1917 -.66026 112.72696 -1.19553 113.38724 -1.19553 C 114.0475 -1.19553 114.58276 -.66026 114.58276 0 Z M 113.38724 0 " fill="#0000ff"/>
<path transform="matrix(1,0,0,-1,11.338,69.448009)" stroke-width=".79701" stroke-linecap="round" stroke-linejoin="round" fill="none" stroke="#000000" d="M 114.58276 0 C 114.58276 .66026 114.0475 1.19553 113.38724 1.19553 C 112.72696 1.19553 112.1917 .66026 112.1917 0 C 112.1917 -.66026 112.72696 -1.19553 113.38724 -1.19553 C 114.0475 -1.19553 114.58276 -.66026 114.58276 0 Z M 113.38724 0 "/>
<symbol id="font_1_2">
<path d="M .11800001 .078 C .108 .039 .106 .031000002 .027000003 .031000002 C .009999998 .031000002 0 .031000002 0 .011000001 C 0 0 .009 0 .027000003 0 L .38400004 0 C .54200008 0 .66 .11800001 .66 .216 C .66 .28800003 .60200008 .34600003 .50500008 .35700003 C .609 .37600003 .71400007 .45000003 .71400007 .545 C .71400007 .619 .64800009 .683 .52800008 .683 L .192 .683 C .17300001 .683 .16300002 .683 .16300002 .66300007 C .16300002 .652 .17200002 .652 .19100002 .652 C .19300002 .652 .21200001 .652 .22900003 .65000006 C .24700001 .648 .256 .647 .256 .634 C .256 .63000008 .25500003 .62700006 .252 .615 L .11800001 .078 M .26900003 .36600004 L .33100004 .614 C .34000004 .64900007 .342 .652 .38500003 .652 L .51400008 .652 C .60200008 .652 .623 .59300008 .623 .549 C .623 .46100004 .53700008 .36600004 .41500003 .36600004 L .26900003 .36600004 M .224 .031000002 C .21000001 .031000002 .208 .031000002 .20200002 .032 C .192 .033 .18900001 .034 .18900001 .042000005 C .18900001 .045 .18900001 .047000003 .194 .065000008 L .263 .344 L .45200003 .344 C .54800006 .344 .56700006 .27 .56700006 .22700002 C .56700006 .128 .47800005 .031000002 .36 .031000002 L .224 .031000002 Z "/>
</symbol>
<use xlink:href="#font_1_2" transform="matrix(9.9626,0,0,-9.9626,123.949428,78.521)" fill="#0000ff"/>
<path transform="matrix(1,0,0,-1,11.338,69.448009)" d="M 29.54233 56.69362 C 29.54233 57.35388 29.00706 57.88914 28.3468 57.88914 C 27.68654 57.88914 27.15128 57.35388 27.15128 56.69362 C 27.15128 56.03334 27.68654 55.49808 28.3468 55.49808 C 29.00706 55.49808 29.54233 56.03334 29.54233 56.69362 Z M 28.3468 56.69362 " fill="#0000ff"/>
<path transform="matrix(1,0,0,-1,11.338,69.448009)" stroke-width=".79701" stroke-linecap="round" stroke-linejoin="round" fill="none" stroke="#000000" d="M 29.54233 56.69362 C 29.54233 57.35388 29.00706 57.88914 28.3468 57.88914 C 27.68654 57.88914 27.15128 57.35388 27.15128 56.69362 C 27.15128 56.03334 27.68654 55.49808 28.3468 55.49808 C 29.00706 55.49808 29.54233 56.03334 29.54233 56.69362 Z M 28.3468 56.69362 "/>
<symbol id="font_1_4">
<path d="M .119 .078 C .109 .039 .10699999 .031000002 .028 .031000002 C .011 .031000002 0 .031000002 0 .012 C 0 0 .009 0 .028 0 L .35900004 0 C .56700006 0 .764 .21100001 .764 .43 C .764 .57100006 .679 .683 .529 .683 L .193 .683 C .17400001 .683 .163 .683 .163 .66400006 C .163 .652 .172 .652 .192 .652 C .205 .652 .223 .651 .235 .65000006 C .25100003 .648 .25700004 .64500007 .25700004 .634 C .25700004 .63000008 .256 .62700006 .25300003 .615 L .119 .078 M .33500005 .614 C .344 .64900007 .34600003 .652 .38900004 .652 L .49600003 .652 C .594 .652 .677 .59900006 .677 .467 C .677 .418 .657 .254 .572 .14400001 C .543 .10700001 .46400003 .031000002 .34100003 .031000002 L .228 .031000002 C .214 .031000002 .212 .031000002 .206 .032 C .19600001 .033 .193 .034 .193 .042000005 C .193 .045 .193 .047000003 .198 .065000008 L .33500005 .614 Z "/>
</symbol>
<use xlink:href="#font_1_4" transform="matrix(9.9626,0,0,-9.9626,39.7895,7.9390108)" fill="#0000ff"/>
<path transform="matrix(1,0,0,-1,11.338,69.448009)" d="M 142.92957 56.69362 C 142.92957 57.35388 142.3943 57.88914 141.73404 57.88914 C 141.07378 57.88914 140.53852 57.35388 140.53852 56.69362 C 140.53852 56.03334 141.07378 55.49808 141.73404 55.49808 C 142.3943 55.49808 142.92957 56.03334 142.92957 56.69362 Z M 141.73404 56.69362 " fill="#0000ff"/>
<path transform="matrix(1,0,0,-1,11.338,69.448009)" stroke-width=".79701" stroke-linecap="round" stroke-linejoin="round" fill="none" stroke="#000000" d="M 142.92957 56.69362 C 142.92957 57.35388 142.3943 57.88914 141.73404 57.88914 C 141.07378 57.88914 140.53852 57.35388 140.53852 56.69362 C 140.53852 56.03334 141.07378 55.49808 141.73404 55.49808 C 142.3943 55.49808 142.92957 56.03334 142.92957 56.69362 Z M 141.73404 56.69362 "/>
<symbol id="font_1_3">
<path d="M .71000006 .71700009 C .71000006 .72 .708 .72700008 .699 .72700008 C .69600006 .72700008 .69500008 .7260001 .684 .71500006 L .614 .6380001 C .605 .65200009 .559 .72700008 .448 .72700008 C .22500001 .72700008 0 .50600007 0 .27400003 C 0 .109000008 .118000019 0 .271 0 C .358 0 .43400003 .040000004 .487 .086 C .58000007 .16800002 .597 .25900004 .597 .26200003 C .597 .272 .587 .272 .58500006 .272 C .579 .272 .574 .27 .572 .26200003 C .563 .23300001 .54 .162 .47100003 .104 C .402 .048 .33900003 .031000004 .287 .031000004 C .19700001 .031000004 .091000009 .083000008 .091000009 .23900001 C .091000009 .29600004 .112 .45800004 .21200003 .57500007 C .273 .646 .367 .69600006 .45600004 .69600006 C .558 .69600006 .61700007 .619 .61700007 .503 C .61700007 .46300004 .614 .46200005 .614 .45200003 C .614 .44200004 .625 .44200004 .629 .44200004 C .642 .44200004 .642 .44400005 .647 .46200005 L .71000006 .71700009 Z "/>
</symbol>
<use xlink:href="#font_1_3" transform="matrix(9.9626,0,0,-9.9626,153.62113,8.158188)" fill="#0000ff"/>
<path transform="matrix(1,0,0,-1,11.338,69.448009)" d="M 72.06255 28.3468 C 72.06255 29.00706 71.52728 29.54233 70.867 29.54233 C 70.20674 29.54233 69.67148 29.00706 69.67148 28.3468 C 69.67148 27.68654 70.20674 27.15128 70.867 27.15128 C 71.52728 27.15128 72.06255 27.68654 72.06255 28.3468 Z M 70.867 28.3468 " fill="#0000ff"/>
<path transform="matrix(1,0,0,-1,11.338,69.448009)" stroke-width=".79701" stroke-linecap="round" stroke-linejoin="round" fill="none" stroke="#000000" d="M 72.06255 28.3468 C 72.06255 29.00706 71.52728 29.54233 70.867 29.54233 C 70.20674 29.54233 69.67148 29.00706 69.67148 28.3468 C 69.67148 27.68654 70.20674 27.15128 70.867 27.15128 C 71.52728 27.15128 72.06255 27.68654 72.06255 28.3468 Z M 70.867 28.3468 "/>
<symbol id="font_1_5">
<path d="M .88400009 .606 C .89300009 .642 .89500007 .652 .9700001 .652 C .9930001 .652 1.002 .652 1.002 .67200008 C 1.002 .683 .99200007 .683 .9750001 .683 L .84300008 .683 C .81700006 .683 .81600007 .683 .804 .66400006 L .43900005 .094000007 L .36100004 .66 C .358 .683 .35600005 .683 .33 .683 L .19300002 .683 C .174 .683 .16300002 .683 .16300002 .66400006 C .16300002 .652 .17200002 .652 .192 .652 C .20500002 .652 .22300002 .651 .23500002 .65000006 C .25100003 .648 .25700004 .64500007 .25700004 .634 C .25700004 .63000008 .256 .62700006 .25300003 .615 L .12600002 .106000009 C .116000007 .066 .099 .034 .018 .031000002 C .013 .031000002 0 .030000002 0 .012 C 0 .003 .0059999974 0 .013999999 0 C .046000005 0 .081 .003 .114 .003 C .148 .003 .18400002 0 .21700001 0 C .222 0 .23500002 0 .23500002 .020000002 C .23500002 .031000002 .224 .031000002 .21700001 .031000002 C .16 .032 .14900002 .052 .14900002 .075 C .14900002 .082 .15 .087000008 .153 .098000008 L .28900004 .643 L .29000003 .643 L .37600003 .023000002 C .37800003 .011000001 .37900005 0 .39100004 0 C .40200005 0 .40800003 .011000001 .41300003 .018000002 L .81700006 .651 L .818 .651 L .675 .078 C .665 .039 .66300007 .031000002 .58400008 .031000002 C .56700006 .031000002 .55600008 .031000002 .55600008 .012 C .55600008 0 .568 0 .57100006 0 C .59900006 0 .66700008 .003 .69500008 .003 C .73600009 .003 .77900007 0 .82000008 0 C .82600006 0 .83900007 0 .83900007 .020000002 C .83900007 .031000002 .83000007 .031000002 .81100007 .031000002 C .77400007 .031000002 .74600008 .031000002 .74600008 .049000004 C .74600008 .053000004 .74600008 .055000005 .75100007 .07300001 L .88400009 .606 Z "/>
</symbol>
<use xlink:href="#font_1_5" transform="matrix(9.9626,0,0,-9.9626,80.08242,36.00201)" fill="#0000ff"/>
</g>
</g>
</svg>
