<?xml version="1.0" encoding="UTF-8" standalone="no"?>
<!DOCTYPE svg PUBLIC "-//W3C//DTD SVG 1.1//EN" "http://www.w3.org/Graphics/SVG/1.1/DTD/svg11.dtd">
<svg xmlns="http://www.w3.org/2000/svg" xmlns:xlink="http://www.w3.org/1999/xlink" version="1.1" width="283.464pt" height="283.464pt" viewBox="0 0 283.464 283.464">
<g enable-background="new">
<clipPath id="cp0">
<path transform="matrix(1,0,0,-1,141.732,113.384998)" d="M -141.73404 -170.08086 L -141.73404 113.38724 L 141.73404 113.38724 L 141.73404 -170.08086 Z M 141.73404 113.38724 "/>
</clipPath>
<g clip-path="url(#cp0)">
<path transform="matrix(1,0,0,-1,141.732,113.384998)" stroke-width=".79701" stroke-linecap="round" stroke-linejoin="round" fill="none" stroke="#000000" d="M -85.04042 0 L 0 -141.73404 "/>
<path transform="matrix(1,0,0,-1,141.732,113.384998)" stroke-width=".79701" stroke-linecap="round" stroke-linejoin="round" fill="none" stroke="#000000" d="M -40.81946 -68.71254 L -45.21318 -71.32074 "/>
<path transform="matrix(1,0,0,-1,141.732,113.384998)" stroke-width=".79701" stroke-linecap="round" stroke-linejoin="round" fill="none" stroke="#000000" d="M -39.82721 -70.41327 L -44.19283 -73.02148 "/>
<path transform="matrix(1,0,0,-1,141.732,113.384998)" stroke-width=".79701" stroke-linecap="round" stroke-linejoin="round" fill="none" stroke="#000000" d="M 0 -141.73404 L 85.04042 0 "/>
<path transform="matrix(1,0,0,-1,141.732,113.384998)" stroke-width=".79701" stroke-linecap="round" stroke-linejoin="round" fill="none" stroke="#000000" d="M 39.82721 -70.41327 L 44.19283 -73.02148 "/>
<path transform="matrix(1,0,0,-1,141.732,113.384998)" stroke-width=".79701" stroke-linecap="round" stroke-linejoin="round" fill="none" stroke="#000000" d="M 40.81946 -68.71254 L 45.21318 -71.32074 "/>
<path transform="matrix(1,0,0,-1,141.732,113.384998)" stroke-width=".79701" stroke-linecap="round" stroke-linejoin="round" fill="none" stroke="#000000" d="M 85.04042 0 L 0 56.69362 "/>
<path transform="matrix(1,0,0,-1,141.732,113.384998)" stroke-width=".79701" stroke-linecap="round" stroke-linejoin="round" fill="none" stroke="#000000" d="M 41.10277 26.22087 L 43.93764 30.47272 "/>
<path transform="matrix(1,0,0,-1,141.732,113.384998)" stroke-width=".79701" stroke-linecap="round" stroke-linejoin="round" fill="none" stroke="#000000" d="M 0 56.69362 L -85.04042 0 "/>
<path transform="matrix(1,0,0,-1,141.732,113.384998)" stroke-width=".79701" stroke-linecap="round" stroke-linejoin="round" fill="none" stroke="#000000" d="M -41.10277 26.22087 L -43.93764 30.47272 "/>
<path transform="matrix(1,0,0,-1,141.732,113.384998)" stroke-width=".79701" stroke-linecap="round" stroke-linejoin="round" fill="none" stroke="#000000" d="M 0 56.69362 L 0 -141.73404 "/>
<path transform="matrix(1,0,0,-1,141.732,113.384998)" stroke-width=".79701" stroke-linecap="round" stroke-linejoin="round" fill="none" stroke="#000000" d="M -85.04042 0 L 85.04042 0 "/>
<path transform="matrix(1,0,0,-1,141.732,113.384998)" stroke-width=".79701" stroke-linecap="round" stroke-linejoin="round" fill="none" stroke="#000000" d="M 0 56.69362 L 85.04042 0 "/>
<path transform="matrix(1,0,0,-1,141.732,113.384998)" d="M -83.8449 0 C -83.8449 .66026 -84.38016 1.19553 -85.04042 1.19553 C -85.70068 1.19553 -86.23595 .66026 -86.23595 0 C -86.23595 -.66026 -85.70068 -1.19553 -85.04042 -1.19553 C -84.38016 -1.19553 -83.8449 -.66026 -83.8449 0 Z M -85.04042 0 " fill="#0000ff"/>
<path transform="matrix(1,0,0,-1,141.732,113.384998)" stroke-width=".79701" stroke-linecap="round" stroke-linejoin="round" fill="none" stroke="#000000" d="M -83.8449 0 C -83.8449 .66026 -84.38016 1.19553 -85.04042 1.19553 C -85.70068 1.19553 -86.23595 .66026 -86.23595 0 C -86.23595 -.66026 -85.70068 -1.19553 -85.04042 -1.19553 C -84.38016 -1.19553 -83.8449 -.66026 -83.8449 0 Z M -85.04042 0 "/>
<symbol id="font_1_1">
<path d="M .14400001 .115 C .10400002 .048 .065 .034 .021000002 .031000002 C .009000003 .030000002 0 .030000002 0 .011000001 C 0 .0050000005 .0050000029 0 .013 0 C .040000004 0 .07100001 .003 .09900001 .003 C .13200002 .003 .16700001 0 .19900002 0 C .20500002 0 .21800003 0 .21800003 .019000002 C .21800003 .030000002 .20900002 .031000002 .20200002 .031000002 C .17900002 .033 .15500002 .041 .15500002 .066 C .15500002 .078 .16100002 .089 .16900002 .10300001 L .245 .231 L .49600003 .231 C .49800007 .21000001 .512 .074 .512 .064 C .512 .034 .46000005 .031000002 .44000004 .031000002 C .42600004 .031000002 .41600005 .031000002 .41600005 .011000001 C .41600005 0 .42800004 0 .43000005 0 C .47100006 0 .514 .003 .555 .003 C .58 .003 .643 0 .668 0 C .674 0 .686 0 .686 .020000002 C .686 .031000002 .676 .031000002 .663 .031000002 C .601 .031000002 .601 .038000004 .598 .067 L .537 .69200006 C .535 .712 .535 .716 .518 .716 C .502 .716 .49800007 .70900008 .492 .69900009 L .14400001 .115 M .26400004 .26200003 L .46100004 .592 L .493 .26200003 L .26400004 .26200003 Z "/>
</symbol>
<use xlink:href="#font_1_1" transform="matrix(9.9626,0,0,-9.9626,46.50268,108.00198)" fill="#0000ff"/>
<path transform="matrix(1,0,0,-1,141.732,113.384998)" d="M 86.23595 0 C 86.23595 .66026 85.70068 1.19553 85.04042 1.19553 C 84.38016 1.19553 83.8449 .66026 83.8449 0 C 83.8449 -.66026 84.38016 -1.19553 85.04042 -1.19553 C 85.70068 -1.19553 86.23595 -.66026 86.23595 0 Z M 85.04042 0 " fill="#0000ff"/>
<path transform="matrix(1,0,0,-1,141.732,113.384998)" stroke-width=".79701" stroke-linecap="round" stroke-linejoin="round" fill="none" stroke="#000000" d="M 86.23595 0 C 86.23595 .66026 85.70068 1.19553 85.04042 1.19553 C 84.38016 1.19553 83.8449 .66026 83.8449 0 C 83.8449 -.66026 84.38016 -1.19553 85.04042 -1.19553 C 85.70068 -1.19553 86.23595 -.66026 86.23595 0 Z M 85.04042 0 "/>
<symbol id="font_1_3">
<path d="M .71000006 .71700009 C .71000006 .72 .708 .72700008 .699 .72700008 C .69600006 .72700008 .69500008 .7260001 .684 .71500006 L .614 .6380001 C .605 .65200009 .559 .72700008 .448 .72700008 C .22500001 .72700008 0 .50600007 0 .27400003 C 0 .109000008 .118000019 0 .271 0 C .358 0 .43400003 .040000004 .487 .086 C .58000007 .16800002 .597 .25900004 .597 .26200003 C .597 .272 .587 .272 .58500006 .272 C .579 .272 .574 .27 .572 .26200003 C .563 .23300001 .54 .162 .47100003 .104 C .402 .048 .33900003 .031000004 .287 .031000004 C .19700001 .031000004 .091000009 .083000008 .091000009 .23900001 C .091000009 .29600004 .112 .45800004 .21200003 .57500007 C .273 .646 .367 .69600006 .45600004 .69600006 C .558 .69600006 .61700007 .619 .61700007 .503 C .61700007 .46300004 .614 .46200005 .614 .45200003 C .614 .44200004 .625 .44200004 .629 .44200004 C .642 .44200004 .642 .44400005 .647 .46200005 L .71000006 .71700009 Z "/>
</symbol>
<use xlink:href="#font_1_3" transform="matrix(9.9626,0,0,-9.9626,229.58913,111.05516)" fill="#0000ff"/>
<path transform="matrix(1,0,0,-1,141.732,113.384998)" d="M 1.19553 56.69362 C 1.19553 57.35388 .66026 57.88914 0 57.88914 C -.66026 57.88914 -1.19553 57.35388 -1.19553 56.69362 C -1.19553 56.03334 -.66026 55.49808 0 55.49808 C .66026 55.49808 1.19553 56.03334 1.19553 56.69362 Z M 0 56.69362 " fill="#0000ff"/>
<path transform="matrix(1,0,0,-1,141.732,113.384998)" stroke-width=".79701" stroke-linecap="round" stroke-linejoin="round" fill="none" stroke="#000000" d="M 1.19553 56.69362 C 1.19553 57.35388 .66026 57.88914 0 57.88914 C -.66026 57.88914 -1.19553 57.35388 -1.19553 56.69362 C -1.19553 56.03334 -.66026 55.49808 0 55.49808 C .66026 55.49808 1.19553 56.03334 1.19553 56.69362 Z M 0 56.69362 "/>
<symbol id="font_1_2">
<path d="M .11800001 .078 C .108 .039 .106 .031000002 .027000003 .031000002 C .009999998 .031000002 0 .031000002 0 .011000001 C 0 0 .009 0 .027000003 0 L .38400004 0 C .54200008 0 .66 .11800001 .66 .216 C .66 .28800003 .60200008 .34600003 .50500008 .35700003 C .609 .37600003 .71400007 .45000003 .71400007 .545 C .71400007 .619 .64800009 .683 .52800008 .683 L .192 .683 C .17300001 .683 .16300002 .683 .16300002 .66300007 C .16300002 .652 .17200002 .652 .19100002 .652 C .19300002 .652 .21200001 .652 .22900003 .65000006 C .24700001 .648 .256 .647 .256 .634 C .256 .63000008 .25500003 .62700006 .252 .615 L .11800001 .078 M .26900003 .36600004 L .33100004 .614 C .34000004 .64900007 .342 .652 .38500003 .652 L .51400008 .652 C .60200008 .652 .623 .59300008 .623 .549 C .623 .46100004 .53700008 .36600004 .41500003 .36600004 L .26900003 .36600004 M .224 .031000002 C .21000001 .031000002 .208 .031000002 .20200002 .032 C .192 .033 .18900001 .034 .18900001 .042000005 C .18900001 .045 .18900001 .047000003 .194 .065000008 L .263 .344 L .45200003 .344 C .54800006 .344 .56700006 .27 .56700006 .22700002 C .56700006 .128 .47800005 .031000002 .36 .031000002 L .224 .031000002 Z "/>
</symbol>
<use xlink:href="#font_1_2" transform="matrix(9.9626,0,0,-9.9626,142.09043,51.87599)" fill="#0000ff"/>
<path transform="matrix(1,0,0,-1,141.732,113.384998)" d="M 1.19553 -141.73404 C 1.19553 -141.07378 .66026 -140.53852 0 -140.53852 C -.66026 -140.53852 -1.19553 -141.07378 -1.19553 -141.73404 C -1.19553 -142.3943 -.66026 -142.92957 0 -142.92957 C .66026 -142.92957 1.19553 -142.3943 1.19553 -141.73404 Z M 0 -141.73404 " fill="#0000ff"/>
<path transform="matrix(1,0,0,-1,141.732,113.384998)" stroke-width=".79701" stroke-linecap="round" stroke-linejoin="round" fill="none" stroke="#000000" d="M 1.19553 -141.73404 C 1.19553 -141.07378 .66026 -140.53852 0 -140.53852 C -.66026 -140.53852 -1.19553 -141.07378 -1.19553 -141.73404 C -1.19553 -142.3943 -.66026 -142.92957 0 -142.92957 C .66026 -142.92957 1.19553 -142.3943 1.19553 -141.73404 Z M 0 -141.73404 "/>
<symbol id="font_1_4">
<path d="M .119 .078 C .109 .039 .10699999 .031000002 .028 .031000002 C .011 .031000002 0 .031000002 0 .012 C 0 0 .009 0 .028 0 L .35900004 0 C .56700006 0 .764 .21100001 .764 .43 C .764 .57100006 .679 .683 .529 .683 L .193 .683 C .17400001 .683 .163 .683 .163 .66400006 C .163 .652 .172 .652 .192 .652 C .205 .652 .223 .651 .235 .65000006 C .25100003 .648 .25700004 .64500007 .25700004 .634 C .25700004 .63000008 .256 .62700006 .25300003 .615 L .119 .078 M .33500005 .614 C .344 .64900007 .34600003 .652 .38900004 .652 L .49600003 .652 C .594 .652 .677 .59900006 .677 .467 C .677 .418 .657 .254 .572 .14400001 C .543 .10700001 .46400003 .031000002 .34100003 .031000002 L .228 .031000002 C .214 .031000002 .212 .031000002 .206 .032 C .19600001 .033 .193 .034 .193 .042000005 C .193 .045 .193 .047000003 .198 .065000008 L .33500005 .614 Z "/>
</symbol>
<use xlink:href="#font_1_4" transform="matrix(9.9626,0,0,-9.9626,130.49849,261.072)" fill="#0000ff"/>
<path transform="matrix(1,0,0,-1,141.732,113.384998)" d="M 1.19553 0 C 1.19553 .66026 .66026 1.19553 0 1.19553 C -.66026 1.19553 -1.19553 .66026 -1.19553 0 C -1.19553 -.66026 -.66026 -1.19553 0 -1.19553 C .66026 -1.19553 1.19553 -.66026 1.19553 0 Z M 0 0 " fill="#0000ff"/>
<path transform="matrix(1,0,0,-1,141.732,113.384998)" stroke-width=".79701" stroke-linecap="round" stroke-linejoin="round" fill="none" stroke="#000000" d="M 1.19553 0 C 1.19553 .66026 .66026 1.19553 0 1.19553 C -.66026 1.19553 -1.19553 .66026 -1.19553 0 C -1.19553 -.66026 -.66026 -1.19553 0 -1.19553 C .66026 -1.19553 1.19553 -.66026 1.19553 0 Z M 0 0 "/>
<symbol id="font_1_5">
<path d="M .458 .411 L .374 .61 C .37100003 .61800006 .36900003 .62200006 .36900003 .623 C .36900003 .629 .386 .648 .428 .652 C .43800003 .65300008 .448 .65400007 .448 .671 C .448 .683 .43600003 .683 .433 .683 C .39200003 .683 .349 .68 .307 .68 C .282 .68 .22000002 .683 .19500003 .683 C .18900001 .683 .17700002 .683 .17700002 .66300007 C .17700002 .652 .18700002 .652 .20000002 .652 C .26 .652 .266 .642 .275 .62 L .393 .34100003 L .18200001 .11400001 L .16900002 .10300001 C .12 .05 .073 .034 .022000002 .031000002 C .0090000019 .030000002 0 .030000002 0 .011000001 C 0 .010000001 0 0 .013000002 0 C .042999999 0 .076000008 .003 .107 .003 C .14400001 .003 .18300002 0 .21900001 0 C .22500001 0 .237 0 .237 .020000002 C .237 .030000002 .22700002 .031000002 .22500001 .031000002 C .21600002 .032 .18500002 .034 .18500002 .062000004 C .18500002 .078 .20000002 .094000007 .21200001 .10700001 L .314 .215 L .404 .31300003 L .505 .074 C .509 .063 .51 .062000004 .51 .060000004 C .51 .052 .491 .035 .45200003 .031000002 C .441 .030000002 .432 .029000001 .432 .012 C .432 0 .44300003 0 .44700004 0 C .47500003 0 .545 .003 .573 .003 C .598 .003 .65900006 0 .684 0 C .69100007 0 .703 0 .703 .019000002 C .703 .031000002 .693 .031000002 .685 .031000002 C .61800006 .032 .616 .035 .59900006 .075 C .56 .16800002 .49300004 .324 .47 .384 C .538 .45400004 .643 .573 .675 .601 C .704 .625 .74200007 .64900007 .80200007 .652 C .81500008 .65300008 .824 .65300008 .824 .67200008 C .824 .67300006 .824 .683 .81100007 .683 C .781 .683 .748 .68 .717 .68 C .68 .68 .642 .683 .606 .683 C .6 .683 .587 .683 .587 .66300007 C .587 .656 .592 .65300008 .59900006 .652 C .60800006 .651 .639 .64900007 .639 .62100008 C .639 .60700008 .628 .59400007 .62 .58500006 L .458 .411 Z "/>
</symbol>
<use xlink:href="#font_1_5" transform="matrix(9.9626,0,0,-9.9626,130.114,124.159)" fill="#0000ff"/>
<path transform="matrix(1,0,0,-1,141.732,113.384998)" stroke-width=".79701" stroke-linecap="round" stroke-linejoin="round" fill="none" stroke="#0000ff" d="M -141.53479 0 C -141.53479 .11003 -141.62401 .19925 -141.73404 .19925 C -141.84407 .19925 -141.93329 .11003 -141.93329 0 C -141.93329 -.11003 -141.84407 -.19925 -141.73404 -.19925 C -141.62401 -.19925 -141.53479 -.11003 -141.53479 0 Z M -141.73404 0 "/>
</g>
</g>
</svg>
