<?xml version="1.0" encoding="UTF-8" standalone="no"?>
<!DOCTYPE svg PUBLIC "-//W3C//DTD SVG 1.1//EN" "http://www.w3.org/Graphics/SVG/1.1/DTD/svg11.dtd">
<svg xmlns="http://www.w3.org/2000/svg" xmlns:xlink="http://www.w3.org/1999/xlink" version="1.1" width="436.861pt" height="242.885pt" viewBox="0 0 436.861 242.885">
<g enable-background="new">
<path transform="matrix(1,0,0,-1,156.756,15.14299)" d="M 49.14937 14.94415 L -49.14937 14.94415 C -51.35031 14.94415 -53.13448 13.15999 -53.13448 10.95905 L -53.13448 -10.95905 C -53.13448 -13.15999 -51.35031 -14.94415 -49.14937 -14.94415 L 49.14937 -14.94415 C 51.35031 -14.94415 53.13448 -13.15999 53.13448 -10.95905 L 53.13448 10.95905 C 53.13448 13.15999 51.35031 14.94415 49.14937 14.94415 Z M -53.13448 -14.94415 " fill="#ccffcc"/>
<path transform="matrix(1,0,0,-1,156.756,15.14299)" stroke-width=".3985" stroke-linecap="butt" stroke-miterlimit="10" stroke-linejoin="miter" fill="none" stroke="#000000" d="M 49.14937 14.94415 L -49.14937 14.94415 C -51.35031 14.94415 -53.13448 13.15999 -53.13448 10.95905 L -53.13448 -10.95905 C -53.13448 -13.15999 -51.35031 -14.94415 -49.14937 -14.94415 L 49.14937 -14.94415 C 51.35031 -14.94415 53.13448 -13.15999 53.13448 -10.95905 L 53.13448 10.95905 C 53.13448 13.15999 51.35031 14.94415 49.14937 14.94415 Z M -53.13448 -14.94415 "/>
<symbol id="font_0_4">
<path d="M .407 .697 C .4 .70900008 .397 .716 .38500003 .716 C .374 .716 .371 .712 .363 .69600006 L .007999998 .039 C 0 .026 0 .024 0 .020000002 C 0 0 .021000002 0 .036000004 0 L .735 0 C .75200006 0 .77000007 0 .77000007 .020000002 C .77000007 .025 .768 .028 .764 .036000004 L .407 .697 M .38500003 .65400007 L .717 .040000004 L .053 .040000004 L .38500003 .65400007 Z "/>
</symbol>
<use xlink:href="#font_0_4" transform="matrix(9.9626,0,0,-9.9626,116.38278,17.633988)"/>
<symbol id="font_1_2">
<path d="M .11800001 .078 C .108 .039 .106 .031000002 .027000003 .031000002 C .009999998 .031000002 0 .031000002 0 .011000001 C 0 0 .009 0 .027000003 0 L .38400004 0 C .54200008 0 .66 .11800001 .66 .216 C .66 .28800003 .60200008 .34600003 .50500008 .35700003 C .609 .37600003 .71400007 .45000003 .71400007 .545 C .71400007 .619 .64800009 .683 .52800008 .683 L .192 .683 C .17300001 .683 .16300002 .683 .16300002 .66300007 C .16300002 .652 .17200002 .652 .19100002 .652 C .19300002 .652 .21200001 .652 .22900003 .65000006 C .24700001 .648 .256 .647 .256 .634 C .256 .63000008 .25500003 .62700006 .252 .615 L .11800001 .078 M .26900003 .36600004 L .33100004 .614 C .34000004 .64900007 .342 .652 .38500003 .652 L .51400008 .652 C .60200008 .652 .623 .59300008 .623 .549 C .623 .46100004 .53700008 .36600004 .41500003 .36600004 L .26900003 .36600004 M .224 .031000002 C .21000001 .031000002 .208 .031000002 .20200002 .032 C .192 .033 .18900001 .034 .18900001 .042000005 C .18900001 .045 .18900001 .047000003 .194 .065000008 L .263 .344 L .45200003 .344 C .54800006 .344 .56700006 .27 .56700006 .22700002 C .56700006 .128 .47800005 .031000002 .36 .031000002 L .224 .031000002 Z "/>
</symbol>
<symbol id="font_1_1">
<path d="M .14400001 .115 C .10400002 .048 .065 .034 .021000002 .031000002 C .009000003 .030000002 0 .030000002 0 .011000001 C 0 .0050000005 .0050000029 0 .013 0 C .040000004 0 .07100001 .003 .09900001 .003 C .13200002 .003 .16700001 0 .19900002 0 C .20500002 0 .21800003 0 .21800003 .019000002 C .21800003 .030000002 .20900002 .031000002 .20200002 .031000002 C .17900002 .033 .15500002 .041 .15500002 .066 C .15500002 .078 .16100002 .089 .16900002 .10300001 L .245 .231 L .49600003 .231 C .49800007 .21000001 .512 .074 .512 .064 C .512 .034 .46000005 .031000002 .44000004 .031000002 C .42600004 .031000002 .41600005 .031000002 .41600005 .011000001 C .41600005 0 .42800004 0 .43000005 0 C .47100006 0 .514 .003 .555 .003 C .58 .003 .643 0 .668 0 C .674 0 .686 0 .686 .020000002 C .686 .031000002 .676 .031000002 .663 .031000002 C .601 .031000002 .601 .038000004 .598 .067 L .537 .69200006 C .535 .712 .535 .716 .518 .716 C .502 .716 .49800007 .70900008 .492 .69900009 L .14400001 .115 M .26400004 .26200003 L .46100004 .592 L .493 .26200003 L .26400004 .26200003 Z "/>
</symbol>
<symbol id="font_1_4">
<path d="M .119 .078 C .109 .039 .10699999 .031000002 .028 .031000002 C .011 .031000002 0 .031000002 0 .012 C 0 0 .009 0 .028 0 L .35900004 0 C .56700006 0 .764 .21100001 .764 .43 C .764 .57100006 .679 .683 .529 .683 L .193 .683 C .17400001 .683 .163 .683 .163 .66400006 C .163 .652 .172 .652 .192 .652 C .205 .652 .223 .651 .235 .65000006 C .25100003 .648 .25700004 .64500007 .25700004 .634 C .25700004 .63000008 .256 .62700006 .25300003 .615 L .119 .078 M .33500005 .614 C .344 .64900007 .34600003 .652 .38900004 .652 L .49600003 .652 C .594 .652 .677 .59900006 .677 .467 C .677 .418 .657 .254 .572 .14400001 C .543 .10700001 .46400003 .031000002 .34100003 .031000002 L .228 .031000002 C .214 .031000002 .212 .031000002 .206 .032 C .19600001 .033 .193 .034 .193 .042000005 C .193 .045 .193 .047000003 .198 .065000008 L .33500005 .614 Z "/>
</symbol>
<use xlink:href="#font_1_2" transform="matrix(9.9626,0,0,-9.9626,125.06942,17.633988)"/>
<use xlink:href="#font_1_1" transform="matrix(9.9626,0,0,-9.9626,133.05942,17.633988)"/>
<use xlink:href="#font_1_4" transform="matrix(9.9626,0,0,-9.9626,140.58118,17.633988)"/>
<symbol id="font_0_1">
<path d="M .66700008 .20100002 C .66700008 .223 .661 .23300003 .653 .23300003 C .648 .23300003 .64000007 .22600003 .639 .207 C .63500007 .11100002 .569 .05600001 .499 .05600001 C .43600003 .05600001 .388 .09900001 .33900003 .142 C .28800003 .18800001 .236 .23400001 .168 .23400001 C .059000005 .23400001 0 .124 0 .033000009 C 0 .001000002 .013 .001000002 .014000002 .001000002 C .025000003 .001000002 .028 .021000013 .028 .024000004 C .032 .13400002 .10699999 .17800002 .168 .17800002 C .231 .17800002 .279 .135 .328 .09200001 C .379 .046000005 .43100003 0 .499 0 C .60800006 0 .66700008 .110000018 .66700008 .20100002 Z "/>
</symbol>
<use xlink:href="#font_0_1" transform="matrix(9.9626,0,0,-9.9626,153.24893,13.649965)"/>
<symbol id="font_2_1">
<path d="M .63100007 .19400002 C .646 .19400002 .665 .19400002 .665 .214 C .665 .23400001 .646 .23400001 .632 .23400001 L .033 .23400001 C .019000002 .23400001 0 .23400001 0 .214 C 0 .19400002 .019000002 .19400002 .034 .19400002 L .63100007 .19400002 M .632 0 C .646 0 .665 0 .665 .02000001 C .665 .040000008 .646 .040000008 .63100007 .040000008 L .034 .040000008 C .019000002 .040000008 0 .040000008 0 .02000001 C 0 0 .019000002 0 .033 0 L .632 0 Z "/>
</symbol>
<use xlink:href="#font_2_1" transform="matrix(9.9626,0,0,-9.9626,153.2589,16.806963)"/>
<use xlink:href="#font_0_4" transform="matrix(9.9626,0,0,-9.9626,165.03479,17.633988)"/>
<symbol id="font_1_3">
<path d="M .71000006 .71700009 C .71000006 .72 .708 .72700008 .699 .72700008 C .69600006 .72700008 .69500008 .7260001 .684 .71500006 L .614 .6380001 C .605 .65200009 .559 .72700008 .448 .72700008 C .22500001 .72700008 0 .50600007 0 .27400003 C 0 .109000008 .118000019 0 .271 0 C .358 0 .43400003 .040000004 .487 .086 C .58000007 .16800002 .597 .25900004 .597 .26200003 C .597 .272 .587 .272 .58500006 .272 C .579 .272 .574 .27 .572 .26200003 C .563 .23300001 .54 .162 .47100003 .104 C .402 .048 .33900003 .031000004 .287 .031000004 C .19700001 .031000004 .091000009 .083000008 .091000009 .23900001 C .091000009 .29600004 .112 .45800004 .21200003 .57500007 C .273 .646 .367 .69600006 .45600004 .69600006 C .558 .69600006 .61700007 .619 .61700007 .503 C .61700007 .46300004 .614 .46200005 .614 .45200003 C .614 .44200004 .625 .44200004 .629 .44200004 C .642 .44200004 .642 .44400005 .647 .46200005 L .71000006 .71700009 Z "/>
</symbol>
<use xlink:href="#font_1_2" transform="matrix(9.9626,0,0,-9.9626,173.72144,17.633988)"/>
<use xlink:href="#font_1_3" transform="matrix(9.9626,0,0,-9.9626,181.86086,17.853165)"/>
<use xlink:href="#font_1_4" transform="matrix(9.9626,0,0,-9.9626,189.6018,17.633988)"/>
<path transform="matrix(1,0,0,-1,156.756,15.14299)" d="M -74.20068 9.96277 L -152.57387 9.96277 C -154.77481 9.96277 -156.55898 8.1786 -156.55898 5.97766 L -156.55898 -5.97766 C -156.55898 -8.1786 -154.77481 -9.96277 -152.57387 -9.96277 L -74.20068 -9.96277 C -71.99974 -9.96277 -70.21558 -8.1786 -70.21558 -5.97766 L -70.21558 5.97766 C -70.21558 8.1786 -71.99974 9.96277 -74.20068 9.96277 Z M -156.55898 -9.96277 " fill="#ccccff"/>
<path transform="matrix(1,0,0,-1,156.756,15.14299)" stroke-width=".3985" stroke-linecap="butt" stroke-miterlimit="10" stroke-linejoin="miter" fill="none" stroke="#000000" d="M -74.20068 9.96277 L -152.57387 9.96277 C -154.77481 9.96277 -156.55898 8.1786 -156.55898 5.97766 L -156.55898 -5.97766 C -156.55898 -8.1786 -154.77481 -9.96277 -152.57387 -9.96277 L -74.20068 -9.96277 C -71.99974 -9.96277 -70.21558 -8.1786 -70.21558 -5.97766 L -70.21558 5.97766 C -70.21558 8.1786 -71.99974 9.96277 -74.20068 9.96277 Z M -156.55898 -9.96277 "/>
<use xlink:href="#font_1_1" transform="matrix(9.9626,0,0,-9.9626,18.822697,18.546982)"/>
<use xlink:href="#font_1_4" transform="matrix(9.9626,0,0,-9.9626,26.34446,18.546982)"/>
<use xlink:href="#font_2_1" transform="matrix(9.9626,0,0,-9.9626,39.872915,17.221957)"/>
<use xlink:href="#font_1_3" transform="matrix(9.9626,0,0,-9.9626,52.40614,18.76616)"/>
<use xlink:href="#font_1_4" transform="matrix(9.9626,0,0,-9.9626,60.14708,18.546982)"/>
<path transform="matrix(1,0,0,-1,156.756,15.14299)" d="M 152.57387 9.96277 L 74.20068 9.96277 C 71.99974 9.96277 70.21558 8.1786 70.21558 5.97766 L 70.21558 -5.97766 C 70.21558 -8.1786 71.99974 -9.96277 74.20068 -9.96277 L 152.57387 -9.96277 C 154.77481 -9.96277 156.55898 -8.1786 156.55898 -5.97766 L 156.55898 5.97766 C 156.55898 8.1786 154.77481 9.96277 152.57387 9.96277 Z M 70.21558 -9.96277 " fill="#ccccff"/>
<path transform="matrix(1,0,0,-1,156.756,15.14299)" stroke-width=".3985" stroke-linecap="butt" stroke-miterlimit="10" stroke-linejoin="miter" fill="none" stroke="#000000" d="M 152.57387 9.96277 L 74.20068 9.96277 C 71.99974 9.96277 70.21558 8.1786 70.21558 5.97766 L 70.21558 -5.97766 C 70.21558 -8.1786 71.99974 -9.96277 74.20068 -9.96277 L 152.57387 -9.96277 C 154.77481 -9.96277 156.55898 -8.1786 156.55898 -5.97766 L 156.55898 5.97766 C 156.55898 8.1786 154.77481 9.96277 152.57387 9.96277 Z M 70.21558 -9.96277 "/>
<use xlink:href="#font_1_2" transform="matrix(9.9626,0,0,-9.9626,245.30944,18.546982)"/>
<use xlink:href="#font_1_4" transform="matrix(9.9626,0,0,-9.9626,253.34925,18.546982)"/>
<use xlink:href="#font_2_1" transform="matrix(9.9626,0,0,-9.9626,266.8259,17.221957)"/>
<use xlink:href="#font_1_2" transform="matrix(9.9626,0,0,-9.9626,279.22944,18.546982)"/>
<use xlink:href="#font_1_4" transform="matrix(9.9626,0,0,-9.9626,287.26927,18.546982)"/>
<path transform="matrix(1,0,0,-1,156.756,15.14299)" d="M 152.57387 -32.55743 L 74.20068 -32.55743 C 71.99974 -32.55743 70.21558 -34.3416 70.21558 -36.54254 L 70.21558 -48.4979 C 70.21558 -50.69884 71.99974 -52.483 74.20068 -52.483 L 152.57387 -52.483 C 154.77481 -52.483 156.55898 -50.69884 156.55898 -48.4979 L 156.55898 -36.54254 C 156.55898 -34.3416 154.77481 -32.55743 152.57387 -32.55743 Z M 70.21558 -52.483 " fill="#ccccff"/>
<path transform="matrix(1,0,0,-1,156.756,15.14299)" stroke-width=".3985" stroke-linecap="butt" stroke-miterlimit="10" stroke-linejoin="miter" fill="none" stroke="#000000" d="M 152.57387 -32.55743 L 74.20068 -32.55743 C 71.99974 -32.55743 70.21558 -34.3416 70.21558 -36.54254 L 70.21558 -48.4979 C 70.21558 -50.69884 71.99974 -52.483 74.20068 -52.483 L 152.57387 -52.483 C 154.77481 -52.483 156.55898 -50.69884 156.55898 -48.4979 L 156.55898 -36.54254 C 156.55898 -34.3416 154.77481 -32.55743 152.57387 -32.55743 Z M 70.21558 -52.483 "/>
<use xlink:href="#font_1_1" transform="matrix(9.9626,0,0,-9.9626,246.00569,61.066987)"/>
<use xlink:href="#font_1_2" transform="matrix(9.9626,0,0,-9.9626,253.54738,61.066987)"/>
<use xlink:href="#font_2_1" transform="matrix(9.9626,0,0,-9.9626,266.6449,59.74196)"/>
<use xlink:href="#font_1_3" transform="matrix(9.9626,0,0,-9.9626,279.23515,61.286165)"/>
<use xlink:href="#font_1_2" transform="matrix(9.9626,0,0,-9.9626,286.996,61.066987)"/>
<path transform="matrix(1,0,0,-1,156.756,15.14299)" d="M 39.18658 -32.55743 L -39.18658 -32.55743 C -41.38753 -32.55743 -43.17169 -34.3416 -43.17169 -36.54254 L -43.17169 -48.4979 C -43.17169 -50.69884 -41.38753 -52.483 -39.18658 -52.483 L 39.18658 -52.483 C 41.38753 -52.483 43.17169 -50.69884 43.17169 -48.4979 L 43.17169 -36.54254 C 43.17169 -34.3416 41.38753 -32.55743 39.18658 -32.55743 Z M -43.17169 -52.483 " fill="#ccccff"/>
<path transform="matrix(1,0,0,-1,156.756,15.14299)" stroke-width=".3985" stroke-linecap="butt" stroke-miterlimit="10" stroke-linejoin="miter" fill="none" stroke="#000000" d="M 39.18658 -32.55743 L -39.18658 -32.55743 C -41.38753 -32.55743 -43.17169 -34.3416 -43.17169 -36.54254 L -43.17169 -48.4979 C -43.17169 -50.69884 -41.38753 -52.483 -39.18658 -52.483 L 39.18658 -52.483 C 41.38753 -52.483 43.17169 -50.69884 43.17169 -48.4979 L 43.17169 -36.54254 C 43.17169 -34.3416 41.38753 -32.55743 39.18658 -32.55743 Z M -43.17169 -52.483 "/>
<symbol id="font_3_1">
<path d="M .59800007 .65300008 C .609 .665 .609 .67 .609 .674 C .609 .68500009 .6 .694 .58900007 .694 C .58300009 .694 .577 .69100007 .56700006 .68 L .012000002 .041 C .0030000024 .031000002 0 .028 0 .020000002 C 0 0 .019000002 0 .036000007 0 L .57400009 0 C .591 0 .609 0 .609 .020000002 C .609 .040000004 .591 .040000004 .57400009 .040000004 L .064 .040000004 L .59800007 .65300008 Z "/>
</symbol>
<use xlink:href="#font_3_1" transform="matrix(9.9626,0,0,-9.9626,119.02591,60.861986)"/>
<use xlink:href="#font_1_1" transform="matrix(9.9626,0,0,-9.9626,126.011699,60.861986)"/>
<use xlink:href="#font_1_2" transform="matrix(9.9626,0,0,-9.9626,133.55338,60.861986)"/>
<use xlink:href="#font_1_4" transform="matrix(9.9626,0,0,-9.9626,141.59319,60.861986)"/>
<use xlink:href="#font_0_1" transform="matrix(9.9626,0,0,-9.9626,153.24895,56.87796)"/>
<use xlink:href="#font_2_1" transform="matrix(9.9626,0,0,-9.9626,153.25891,60.034959)"/>
<use xlink:href="#font_3_1" transform="matrix(9.9626,0,0,-9.9626,163.99192,60.861986)"/>
<use xlink:href="#font_1_3" transform="matrix(9.9626,0,0,-9.9626,171.12813,61.08116)"/>
<use xlink:href="#font_1_2" transform="matrix(9.9626,0,0,-9.9626,178.88899,60.861986)"/>
<use xlink:href="#font_1_4" transform="matrix(9.9626,0,0,-9.9626,186.9288,60.861986)"/>
<path transform="matrix(1,0,0,-1,156.756,15.14299)" d="M -74.20068 -32.55743 L -152.57387 -32.55743 C -154.77481 -32.55743 -156.55898 -34.3416 -156.55898 -36.54254 L -156.55898 -48.4979 C -156.55898 -50.69884 -154.77481 -52.483 -152.57387 -52.483 L -74.20068 -52.483 C -71.99974 -52.483 -70.21558 -50.69884 -70.21558 -48.4979 L -70.21558 -36.54254 C -70.21558 -34.3416 -71.99974 -32.55743 -74.20068 -32.55743 Z M -156.55898 -52.483 " fill="#ccccff"/>
<path transform="matrix(1,0,0,-1,156.756,15.14299)" stroke-width=".3985" stroke-linecap="butt" stroke-miterlimit="10" stroke-linejoin="miter" fill="none" stroke="#000000" d="M -74.20068 -32.55743 L -152.57387 -32.55743 C -154.77481 -32.55743 -156.55898 -34.3416 -156.55898 -36.54254 L -156.55898 -48.4979 C -156.55898 -50.69884 -154.77481 -52.483 -152.57387 -52.483 L -74.20068 -52.483 C -71.99974 -52.483 -70.21558 -50.69884 -70.21558 -48.4979 L -70.21558 -36.54254 C -70.21558 -34.3416 -71.99974 -32.55743 -74.20068 -32.55743 Z M -156.55898 -52.483 "/>
<symbol id="font_1_5">
<path d="M .458 .411 L .374 .61 C .37100003 .61800006 .36900003 .62200006 .36900003 .623 C .36900003 .629 .386 .648 .428 .652 C .43800003 .65300008 .448 .65400007 .448 .671 C .448 .683 .43600003 .683 .433 .683 C .39200003 .683 .349 .68 .307 .68 C .282 .68 .22000002 .683 .19500003 .683 C .18900001 .683 .17700002 .683 .17700002 .66300007 C .17700002 .652 .18700002 .652 .20000002 .652 C .26 .652 .266 .642 .275 .62 L .393 .34100003 L .18200001 .11400001 L .16900002 .10300001 C .12 .05 .073 .034 .022000002 .031000002 C .0090000019 .030000002 0 .030000002 0 .011000001 C 0 .010000001 0 0 .013000002 0 C .042999999 0 .076000008 .003 .107 .003 C .14400001 .003 .18300002 0 .21900001 0 C .22500001 0 .237 0 .237 .020000002 C .237 .030000002 .22700002 .031000002 .22500001 .031000002 C .21600002 .032 .18500002 .034 .18500002 .062000004 C .18500002 .078 .20000002 .094000007 .21200001 .10700001 L .314 .215 L .404 .31300003 L .505 .074 C .509 .063 .51 .062000004 .51 .060000004 C .51 .052 .491 .035 .45200003 .031000002 C .441 .030000002 .432 .029000001 .432 .012 C .432 0 .44300003 0 .44700004 0 C .47500003 0 .545 .003 .573 .003 C .598 .003 .65900006 0 .684 0 C .69100007 0 .703 0 .703 .019000002 C .703 .031000002 .693 .031000002 .685 .031000002 C .61800006 .032 .616 .035 .59900006 .075 C .56 .16800002 .49300004 .324 .47 .384 C .538 .45400004 .643 .573 .675 .601 C .704 .625 .74200007 .64900007 .80200007 .652 C .81500008 .65300008 .824 .65300008 .824 .67200008 C .824 .67300006 .824 .683 .81100007 .683 C .781 .683 .748 .68 .717 .68 C .68 .68 .642 .683 .606 .683 C .6 .683 .587 .683 .587 .66300007 C .587 .656 .592 .65300008 .59900006 .652 C .60800006 .651 .639 .64900007 .639 .62100008 C .639 .60700008 .628 .59400007 .62 .58500006 L .458 .411 Z "/>
</symbol>
<use xlink:href="#font_1_2" transform="matrix(9.9626,0,0,-9.9626,18.089432,61.066987)"/>
<use xlink:href="#font_1_5" transform="matrix(9.9626,0,0,-9.9626,25.999737,61.066987)"/>
<use xlink:href="#font_2_1" transform="matrix(9.9626,0,0,-9.9626,40.053915,59.74196)"/>
<use xlink:href="#font_1_2" transform="matrix(9.9626,0,0,-9.9626,52.395437,61.066987)"/>
<use xlink:href="#font_1_5" transform="matrix(9.9626,0,0,-9.9626,60.30574,61.066987)"/>
<path transform="matrix(1,0,0,-1,156.756,15.14299)" d="M 49.14937 -70.09627 L -49.14937 -70.09627 C -51.35031 -70.09627 -53.13448 -71.88043 -53.13448 -74.08138 L -53.13448 -95.9995 C -53.13448 -98.20044 -51.35031 -99.9846 -49.14937 -99.9846 L 49.14937 -99.9846 C 51.35031 -99.9846 53.13448 -98.20044 53.13448 -95.9995 L 53.13448 -74.08138 C 53.13448 -71.88043 51.35031 -70.09627 49.14937 -70.09627 Z M -53.13448 -99.9846 " fill="#ccffcc"/>
<path transform="matrix(1,0,0,-1,156.756,15.14299)" stroke-width=".3985" stroke-linecap="butt" stroke-miterlimit="10" stroke-linejoin="miter" fill="none" stroke="#000000" d="M 49.14937 -70.09627 L -49.14937 -70.09627 C -51.35031 -70.09627 -53.13448 -71.88043 -53.13448 -74.08138 L -53.13448 -95.9995 C -53.13448 -98.20044 -51.35031 -99.9846 -49.14937 -99.9846 L 49.14937 -99.9846 C 51.35031 -99.9846 53.13448 -98.20044 53.13448 -95.9995 L 53.13448 -74.08138 C 53.13448 -71.88043 51.35031 -70.09627 49.14937 -70.09627 Z M -53.13448 -99.9846 "/>
<use xlink:href="#font_0_4" transform="matrix(9.9626,0,0,-9.9626,115.934787,102.67299)"/>
<use xlink:href="#font_1_1" transform="matrix(9.9626,0,0,-9.9626,124.55169,102.67299)"/>
<use xlink:href="#font_1_2" transform="matrix(9.9626,0,0,-9.9626,132.09339,102.67299)"/>
<use xlink:href="#font_1_5" transform="matrix(9.9626,0,0,-9.9626,140.00368,102.67299)"/>
<use xlink:href="#font_0_1" transform="matrix(9.9626,0,0,-9.9626,153.24893,98.68996)"/>
<use xlink:href="#font_2_1" transform="matrix(9.9626,0,0,-9.9626,153.2589,101.84596)"/>
<use xlink:href="#font_0_4" transform="matrix(9.9626,0,0,-9.9626,164.97281,102.67299)"/>
<use xlink:href="#font_1_3" transform="matrix(9.9626,0,0,-9.9626,173.73812,102.892169)"/>
<use xlink:href="#font_1_2" transform="matrix(9.9626,0,0,-9.9626,181.499,102.67299)"/>
<use xlink:href="#font_1_5" transform="matrix(9.9626,0,0,-9.9626,189.40929,102.67299)"/>
<path transform="matrix(1,0,0,-1,156.756,15.14299)" d="M 39.18658 -117.59787 L -39.18658 -117.59787 C -41.38753 -117.59787 -43.17169 -119.38203 -43.17169 -121.58298 L -43.17169 -133.53833 C -43.17169 -135.73928 -41.38753 -137.52344 -39.18658 -137.52344 L 39.18658 -137.52344 C 41.38753 -137.52344 43.17169 -135.73928 43.17169 -133.53833 L 43.17169 -121.58298 C 43.17169 -119.38203 41.38753 -117.59787 39.18658 -117.59787 Z M -43.17169 -137.52344 " fill="#ccccff"/>
<path transform="matrix(1,0,0,-1,156.756,15.14299)" stroke-width=".3985" stroke-linecap="butt" stroke-miterlimit="10" stroke-linejoin="miter" fill="none" stroke="#000000" d="M 39.18658 -117.59787 L -39.18658 -117.59787 C -41.38753 -117.59787 -43.17169 -119.38203 -43.17169 -121.58298 L -43.17169 -133.53833 C -43.17169 -135.73928 -41.38753 -137.52344 -39.18658 -137.52344 L 39.18658 -137.52344 C 41.38753 -137.52344 43.17169 -135.73928 43.17169 -133.53833 L 43.17169 -121.58298 C 43.17169 -119.38203 41.38753 -117.59787 39.18658 -117.59787 Z M -43.17169 -137.52344 "/>
<use xlink:href="#font_1_1" transform="matrix(9.9626,0,0,-9.9626,131.7607,146.10599)"/>
<use xlink:href="#font_1_5" transform="matrix(9.9626,0,0,-9.9626,139.15296,146.10599)"/>
<use xlink:href="#font_2_1" transform="matrix(9.9626,0,0,-9.9626,153.25891,144.78096)"/>
<use xlink:href="#font_1_3" transform="matrix(9.9626,0,0,-9.9626,165.73014,146.32517)"/>
<use xlink:href="#font_1_5" transform="matrix(9.9626,0,0,-9.9626,173.34157,146.10599)"/>
<path transform="matrix(1,0,0,-1,156.756,15.14299)" d="M 39.18658 -156.35475 L -39.18658 -156.35475 C -41.38753 -156.35475 -43.17169 -158.13892 -43.17169 -160.33986 L -43.17169 -179.8219 C -43.17169 -182.02285 -41.38753 -183.807 -39.18658 -183.807 L 39.18658 -183.807 C 41.38753 -183.807 43.17169 -182.02285 43.17169 -179.8219 L 43.17169 -160.33986 C 43.17169 -158.13892 41.38753 -156.35475 39.18658 -156.35475 Z M -43.17169 -183.807 " fill="#ccccff"/>
<path transform="matrix(1,0,0,-1,156.756,15.14299)" stroke-width=".3985" stroke-linecap="butt" stroke-miterlimit="10" stroke-linejoin="miter" fill="none" stroke="#000000" d="M 39.18658 -156.35475 L -39.18658 -156.35475 C -41.38753 -156.35475 -43.17169 -158.13892 -43.17169 -160.33986 L -43.17169 -179.8219 C -43.17169 -182.02285 -41.38753 -183.807 -39.18658 -183.807 L 39.18658 -183.807 C 41.38753 -183.807 43.17169 -182.02285 43.17169 -179.8219 L 43.17169 -160.33986 C 43.17169 -158.13892 41.38753 -156.35475 39.18658 -156.35475 Z M -43.17169 -183.807 "/>
<use xlink:href="#font_1_5" transform="matrix(9.9626,0,0,-9.9626,135.87599,181.73499)"/>
<symbol id="font_4_e">
<path d="M .25200004 .623 C .25200004 .646 .23500002 .669 .20500002 .669 C .17700002 .669 .14500001 .64500007 .14500001 .609 C .14500001 .58000007 .16600001 .563 .192 .563 C .22300002 .563 .25200004 .592 .25200004 .623 M .095000009 .43300004 C .07700001 .432 .076000008 .43 .075 .425 C .075 .42200003 .071 .402 .071 .4 C .125 .4 .13800001 .395 .13800001 .36800004 C .13800001 .367 .13800001 .36 .13500002 .342 L .09 .074 C .08400001 .036000004 .080000009 .031000002 .006000001 .031000002 L .0050000029 .031000002 L 0 0 C .032000007 .001 .086 .003 .11000001 .003 C .14700002 .003 .185 .001 .213 0 L .21900001 .031000002 C .17400003 .031000002 .15400002 .031000002 .15400002 .055000005 C .15400002 .060000004 .15400002 .062000004 .157 .078 L .21800003 .44200004 L .095000009 .43300004 Z "/>
</symbol>
<symbol id="font_4_15">
<path d="M .37300004 .43400003 C .37500004 .44300003 .37500004 .44500003 .37500004 .448 C .37500004 .45400004 .37200005 .45900003 .36400003 .45900003 C .36 .45900003 .35800005 .45900003 .34300003 .44600005 C .33100004 .43700005 .33 .43700005 .323 .43100003 C .29000003 .45900003 .24600002 .45900003 .23300001 .45900003 C .09 .45900003 .053000004 .36900003 .053000004 .321 C .053000004 .28700004 .069000009 .26400004 .08900001 .24700003 C .116000007 .22400002 .146 .21800003 .19300002 .20900002 C .23700002 .20000002 .29700003 .18800001 .29700003 .127 C .29700003 .093 .272 .022000002 .16600001 .022000002 C .117000009 .022000002 .058000007 .039 .052 .16000001 C .051000008 .17600002 .051000008 .18100001 .039000006 .18100001 C .029000003 .18100001 .028000005 .17800002 .025000003 .16000001 L .0020000004 .026 C 0 .017 0 .015000001 0 .011000001 C 0 .0040000008 .0040000008 0 .011000004 0 C .016000003 0 .017 .0010000002 .038000004 .021000002 C .044000009 .026 .058000007 .039 .063 .044 C .08900001 .010000001 .127 0 .16600001 0 C .31200005 0 .35000003 .106000009 .35000003 .158 C .35000003 .19600001 .33400003 .22100002 .316 .23800002 C .28700004 .268 .261 .27300004 .20700002 .28300003 C .162 .29200004 .10600001 .30300004 .10600001 .35300002 C .10600001 .35400004 .10600001 .44000004 .23300001 .44000004 C .25200004 .44000004 .33100004 .44000004 .33100004 .34900005 C .33100004 .33600004 .32900004 .323 .32900004 .32000003 C .32900004 .31100003 .33800004 .31000004 .34100003 .31000004 C .35200004 .31000004 .35300002 .316 .35600005 .33300004 L .37300004 .43400003 Z "/>
</symbol>
<symbol id="font_4_10">
<path d="M .754 .303 C .757 .321 .757 .324 .757 .34 C .757 .416 .708 .44200004 .639 .44200004 C .56 .44200004 .50600007 .38900004 .48000003 .34500004 C .476 .432 .405 .44200004 .361 .44200004 C .268 .44200004 .214 .36800004 .199 .342 L .198 .34300003 L .215 .44200004 L .09200001 .432 C .09 .432 .075 .43100003 .074 .43 C .07100001 .42800004 .067 .40300004 .067 .4 C .124 .4 .138 .395 .138 .36800004 C .138 .367 .138 .36 .135 .342 L .09 .074 C .08400001 .036000004 .08 .031000002 .006000001 .031000002 L .004999999 .031000002 L 0 0 C .033999999 .001 .087 .003 .113000009 .003 C .138 .003 .192 .001 .224 0 L .23000002 .031000002 C .18 .031000002 .157 .031000002 .157 .056 C .157 .059000005 .164 .097 .16700001 .117000009 C .17400001 .16100002 .18100001 .20500002 .18900001 .24900002 C .194 .282 .20300001 .33 .252 .377 C .282 .404 .32000003 .42000003 .35300002 .42000003 C .39200003 .42000003 .41200004 .4 .41200004 .35300002 C .41200004 .33800004 .41000004 .32700003 .40100003 .26900003 L .367 .069000009 C .361 .031000002 .345 .031000002 .284 .031000002 L .28300003 .031000002 L .278 0 C .312 .001 .365 .003 .391 .003 C .416 .003 .47000004 .001 .50200006 0 L .508 .031000002 C .458 .031000002 .435 .031000002 .435 .056 C .435 .059000005 .44200004 .097 .44500003 .117000009 C .45200003 .16100002 .45900003 .20500002 .467 .24900002 C .472 .282 .481 .33 .53000006 .377 C .56 .404 .59800007 .42000003 .63100007 .42000003 C .67 .42000003 .69000008 .4 .69000008 .35300002 C .69000008 .33800004 .688 .32700003 .679 .26900003 L .64500007 .069000009 C .639 .031000002 .623 .031000002 .56200006 .031000002 L .56100007 .031000002 L .556 0 C .59000006 .001 .643 .003 .669 .003 C .694 .003 .748 .001 .78000006 0 L .786 .031000002 C .736 .031000002 .71300008 .031000002 .71300008 .056 C .71300008 .060000004 .71400007 .066 .71500006 .071 L .754 .303 Z "/>
</symbol>
<symbol id="font_4_a">
<path d="M .498 .705 L .372 .695 C .37 .695 .35500003 .694 .35400004 .693 C .351 .691 .34700004 .666 .34700004 .663 C .404 .663 .418 .658 .418 .631 C .418 .63 .418 .623 .41500003 .605 L .379 .39000003 C .36900003 .40600003 .335 .45300005 .26200003 .45300005 C .13200002 .45300005 0 .335 0 .18900001 C 0 .07000001 .08500001 0 .179 0 C .26000003 0 .314 .057000005 .321 .064 L .31100003 0 L .44000004 .010000001 C .442 .010000001 .45700006 .011000001 .45800004 .012000001 C .461 .014 .465 .039 .465 .042000005 C .40600003 .042000005 .39400003 .047000003 .39400003 .074 C .39400003 .076000008 .39400003 .083000008 .397 .101 L .498 .705 M .33200003 .12900001 C .32900004 .11000001 .32900004 .109000008 .312 .08800001 C .28100003 .051000004 .23400003 .022000002 .18400002 .022000002 C .14500001 .022000002 .07900001 .046 .07900001 .15400002 C .07900001 .17300001 .08400001 .286 .133 .35600005 C .171 .40800003 .224 .43100003 .26500003 .43100003 C .34600003 .43100003 .36900003 .358 .36900003 .35200004 C .36900003 .34900005 .36900003 .34700004 .367 .33600004 L .33200003 .12900001 Z "/>
</symbol>
<symbol id="font_4_3">
<path d="M .275 .058 L .009999998 .058 L 0 0 L .26500003 0 L .275 .058 Z "/>
</symbol>
<symbol id="font_4_13">
<path d="M .23 .031000004 C .167 .031000004 .157 .033999996 .157 .055999996 C .157 .066 .184 .221 .18800001 .245 C .199 .227 .23200001 .183 .30200003 .183 C .43200005 .183 .564 .301 .564 .448 C .564 .56200006 .48500005 .63600006 .38700003 .63600006 C .30600003 .63600006 .25 .58300009 .23900001 .571 L .25 .63600006 L .104 .625 L .09900001 .594 C .156 .594 .171 .59000006 .171 .566 C .171 .559 .169 .55 .168 .54200008 L .089 .071 C .082 .031000004 .069000009 .031000004 .0050000005 .031000004 L 0 0 C .034 .001000002 .086 .0029999912 .112 .0029999912 C .139 .0029999912 .19 .001000002 .22500001 0 L .23 .031000004 M .236 .53000006 C .279 .591 .33800004 .61100009 .37900005 .61100009 C .43900005 .61100009 .48200003 .551 .48200003 .46100004 C .48200003 .319 .38500003 .20500002 .298 .20500002 C .242 .20500002 .208 .244 .19500001 .289 L .236 .53000006 Z "/>
</symbol>
<symbol id="font_4_12">
<path d="M .45000006 .26500003 C .45000006 .37600003 .372 .45900003 .264 .45900003 C .12200001 .45900003 0 .32000003 0 .18700002 C 0 .083000008 .076000008 0 .18800001 0 C .321 0 .45000006 .120000008 .45000006 .26500003 M .192 .025000003 C .164 .025000003 .08 .035 .08 .15500002 C .08 .19200002 .09300001 .30200003 .12400001 .35300002 C .17300001 .43300004 .243 .43700005 .26000003 .43700005 C .29200004 .43700005 .37300004 .42200003 .37300004 .31000004 C .37300004 .28700004 .365 .17900002 .33 .113000009 C .29900003 .056 .24400002 .025000003 .192 .025000003 Z "/>
</symbol>
<symbol id="font_4_11">
<path d="M .198 .34300003 L .215 .44200004 L .072 .43100003 L .067 .4 C .124 .4 .138 .395 .138 .36800004 C .138 .35900004 .102 .143 .097 .113000009 C .094 .095000009 .088 .061000006 .087 .059000005 C .08 .031000002 .057 .031000002 .004999999 .031000002 L 0 0 C .033999999 .001 .087 .003 .113000009 .003 C .139 .003 .191 .001 .225 0 L .23000002 .031000002 C .18 .031000002 .157 .031000002 .157 .056 C .157 .059000005 .164 .097 .16700001 .117000009 C .17400001 .16100002 .18100001 .20500002 .18900001 .24900002 C .194 .282 .20300001 .33 .252 .377 C .282 .404 .32000003 .42000003 .35300002 .42000003 C .39200003 .42000003 .41200004 .4 .41200004 .35300002 C .41200004 .33800004 .41000004 .32700003 .40100003 .26900003 L .367 .069000009 C .361 .031000002 .345 .031000002 .28300003 .031000002 L .278 0 C .312 .001 .365 .003 .391 .003 C .41700004 .003 .46900005 .001 .503 0 L .508 .031000002 C .458 .031000002 .435 .031000002 .435 .056 C .435 .061000006 .451 .156 .45400004 .172 L .46900005 .261 C .473 .287 .47900004 .323 .47900004 .34 C .47900004 .416 .43 .44200004 .361 .44200004 C .268 .44200004 .214 .36800004 .199 .342 L .198 .34300003 Z "/>
</symbol>
<symbol id="font_4_16">
<path d="M .15400002 .411 L .29700003 .411 C .29900003 .42100004 .3 .43200005 .30200003 .44200004 L .15900001 .44200004 L .18900001 .626 L .164 .626 C .148 .532 .095000009 .43600003 .0029999987 .43300004 L 0 .411 L .084 .411 L .038999998 .13800001 C .036000007 .120000008 .036000007 .11800001 .036000007 .105000007 C .036000007 .008000001 .117000009 0 .14700002 0 C .194 0 .22500003 .031000004 .24300003 .065000008 C .261 .096 .263 .109000008 .27600003 .19200002 L .25100003 .19200002 C .23900002 .119 .23700002 .105000007 .224 .079 C .21600002 .064 .19300002 .025000003 .155 .025000003 C .11300001 .025000003 .10300001 .064 .10300001 .093 C .10300001 .104 .10400001 .108 .10500001 .115 L .15400002 .411 Z "/>
</symbol>
<symbol id="font_4_c">
<path d="M .211 .4 L .32500003 .4 L .33 .43100003 L .213 .43100003 L .22800002 .521 C .236 .569 .241 .59900006 .268 .63500007 C .289 .661 .317 .683 .34800003 .683 C .35700003 .683 .372 .68 .38000003 .67700007 C .352 .669 .34100003 .646 .34100003 .628 C .34100003 .61200007 .35 .591 .38000003 .591 C .404 .591 .42900003 .60800006 .42900003 .643 C .42900003 .68500009 .388 .70500007 .349 .70500007 C .272 .70500007 .187 .646 .17000002 .55300006 C .162 .509 .157 .47700004 .15 .43100003 L .071 .43100003 L .066 .4 L .144 .4 L .09 .074 C .083000008 .031000002 .071 .031000002 .004999999 .031000002 L 0 0 C .04 .001 .086 .003 .115 .003 C .121 .003 .20900002 .002 .241 0 L .24599999 .031000002 C .21900001 .031000002 .206 .031000002 .18800003 .033 C .171 .035 .15400002 .036000004 .15400002 .059000005 C .15400002 .062000004 .15400002 .064 .157 .078 L .211 .4 Z "/>
</symbol>
<use xlink:href="#font_4_e" transform="matrix(9.9626,0,0,-9.9626,148.29177,181.73499)"/>
<use xlink:href="#font_4_15" transform="matrix(9.9626,0,0,-9.9626,151.06137,181.84458)"/>
<use xlink:href="#font_4_10" transform="matrix(9.9626,0,0,-9.9626,158.29422,181.73499)"/>
<use xlink:href="#font_4_e" transform="matrix(9.9626,0,0,-9.9626,166.60303,181.73499)"/>
<use xlink:href="#font_4_a" transform="matrix(9.9626,0,0,-9.9626,169.71137,181.84458)"/>
<use xlink:href="#font_4_3" transform="matrix(9.9626,0,0,-9.9626,175.0015,179.87198)"/>
<use xlink:href="#font_4_13" transform="matrix(9.9626,0,0,-9.9626,130.38414,195.62271)"/>
<use xlink:href="#font_4_12" transform="matrix(9.9626,0,0,-9.9626,136.8399,193.79956)"/>
<use xlink:href="#font_4_e" transform="matrix(9.9626,0,0,-9.9626,141.5522,193.68997)"/>
<use xlink:href="#font_4_11" transform="matrix(9.9626,0,0,-9.9626,144.31185,193.68997)"/>
<use xlink:href="#font_4_16" transform="matrix(9.9626,0,0,-9.9626,150.11008,193.79956)"/>
<use xlink:href="#font_4_12" transform="matrix(9.9626,0,0,-9.9626,157.04407,193.79956)"/>
<use xlink:href="#font_4_c" transform="matrix(9.9626,0,0,-9.9626,161.76633,193.68997)"/>
<path transform="matrix(1,0,0,-1,167.783,185.48798)" stroke-width=".398" stroke-linecap="butt" stroke-miterlimit="10" stroke-linejoin="miter" fill="none" stroke="#000000" d="M 0 0 L 15.305 0 "/>
<use xlink:href="#font_1_1" transform="matrix(9.9626,0,0,-9.9626,168.1317,193.68997)"/>
<use xlink:href="#font_1_3" transform="matrix(9.9626,0,0,-9.9626,175.75308,193.90915)"/>
<path transform="matrix(1,0,0,-1,156.756,15.14299)" d="M 152.57387 -117.59787 L 74.20068 -117.59787 C 71.99974 -117.59787 70.21558 -119.38203 70.21558 -121.58298 L 70.21558 -133.53833 C 70.21558 -135.73928 71.99974 -137.52344 74.20068 -137.52344 L 152.57387 -137.52344 C 154.77481 -137.52344 156.55898 -135.73928 156.55898 -133.53833 L 156.55898 -121.58298 C 156.55898 -119.38203 154.77481 -117.59787 152.57387 -117.59787 Z M 70.21558 -137.52344 " fill="#ccccff"/>
<path transform="matrix(1,0,0,-1,156.756,15.14299)" stroke-width=".3985" stroke-linecap="butt" stroke-miterlimit="10" stroke-linejoin="miter" fill="none" stroke="#000000" d="M 152.57387 -117.59787 L 74.20068 -117.59787 C 71.99974 -117.59787 70.21558 -119.38203 70.21558 -121.58298 L 70.21558 -133.53833 C 70.21558 -135.73928 71.99974 -137.52344 74.20068 -137.52344 L 152.57387 -137.52344 C 154.77481 -137.52344 156.55898 -135.73928 156.55898 -133.53833 L 156.55898 -121.58298 C 156.55898 -119.38203 154.77481 -117.59787 152.57387 -117.59787 Z M 70.21558 -137.52344 "/>
<use xlink:href="#font_3_1" transform="matrix(9.9626,0,0,-9.9626,231.96392,145.902)"/>
<use xlink:href="#font_1_2" transform="matrix(9.9626,0,0,-9.9626,239.01944,145.902)"/>
<use xlink:href="#font_1_5" transform="matrix(9.9626,0,0,-9.9626,246.92975,145.902)"/>
<use xlink:href="#font_1_1" transform="matrix(9.9626,0,0,-9.9626,256.05549,145.902)"/>
<use xlink:href="#font_0_1" transform="matrix(9.9626,0,0,-9.9626,266.63496,141.91797)"/>
<use xlink:href="#font_2_1" transform="matrix(9.9626,0,0,-9.9626,266.6449,145.07497)"/>
<use xlink:href="#font_3_1" transform="matrix(9.9626,0,0,-9.9626,277.3159,145.902)"/>
<use xlink:href="#font_1_2" transform="matrix(9.9626,0,0,-9.9626,284.37144,145.902)"/>
<use xlink:href="#font_1_5" transform="matrix(9.9626,0,0,-9.9626,292.28175,145.902)"/>
<use xlink:href="#font_1_3" transform="matrix(9.9626,0,0,-9.9626,301.55696,146.12117)"/>
<path transform="matrix(1,0,0,-1,156.756,15.14299)" d="M 275.92393 -113.83453 L 177.62519 -113.83453 C 175.42424 -113.83453 173.64008 -115.6187 173.64008 -117.81964 L 173.64008 -137.30168 C 173.64008 -139.50263 175.42424 -141.28679 177.62519 -141.28679 L 275.92393 -141.28679 C 278.12489 -141.28679 279.90904 -139.50263 279.90904 -137.30168 L 279.90904 -117.81964 C 279.90904 -115.6187 278.12489 -113.83453 275.92393 -113.83453 Z M 173.64008 -141.28679 " fill="#ccccff"/>
<path transform="matrix(1,0,0,-1,156.756,15.14299)" stroke-width=".3985" stroke-linecap="butt" stroke-miterlimit="10" stroke-linejoin="miter" fill="none" stroke="#000000" d="M 275.92393 -113.83453 L 177.62519 -113.83453 C 175.42424 -113.83453 173.64008 -115.6187 173.64008 -117.81964 L 173.64008 -137.30168 C 173.64008 -139.50263 175.42424 -141.28679 177.62519 -141.28679 L 275.92393 -141.28679 C 278.12489 -141.28679 279.90904 -139.50263 279.90904 -137.30168 L 279.90904 -117.81964 C 279.90904 -115.6187 278.12489 -113.83453 275.92393 -113.83453 Z M 173.64008 -141.28679 "/>
<use xlink:href="#font_3_1" transform="matrix(9.9626,0,0,-9.9626,340.7999,139.215)"/>
<use xlink:href="#font_1_2" transform="matrix(9.9626,0,0,-9.9626,347.85545,139.215)"/>
<use xlink:href="#font_1_5" transform="matrix(9.9626,0,0,-9.9626,355.76576,139.215)"/>
<use xlink:href="#font_1_1" transform="matrix(9.9626,0,0,-9.9626,364.8915,139.215)"/>
<symbol id="font_4_7">
<path d="M .435 .15600002 C .43100003 .13000001 .42400003 .08800001 .421 .079 C .41300003 .049000004 .39400003 .036000004 .379 .036000004 C .35700003 .036000004 .35 .058000003 .35 .077 C .35 .087000008 .359 .136 .361 .14900002 C .367 .18100001 .39000003 .31100003 .39000003 .33300004 C .39000003 .40900005 .322 .45900003 .238 .45900003 C .137 .45900003 .069 .39400003 .069 .33800004 C .069 .321 .079 .29900003 .11000001 .29900003 C .139 .29900003 .162 .323 .162 .351 C .162 .37700004 .144 .39000003 .12 .39100004 C .151 .42600004 .20500002 .43700005 .23500002 .43700005 C .292 .43700005 .322 .39000003 .322 .34000004 C .322 .33 .315 .27600003 .31100003 .27300004 C .30900003 .272 .307 .272 .284 .27100004 C .11900001 .26500003 0 .18600002 0 .093 C 0 .016 .09700001 0 .14500001 0 C .234 0 .28100003 .07000001 .289 .08400001 C .289 .015000001 .33200003 .005000001 .35300002 .005000001 C .382 .005000001 .43800003 .025000003 .45000003 .098000008 C .45300005 .111 .45400004 .119 .46 .15600002 L .435 .15600002 M .294 .16100002 C .289 .13100001 .284 .1 .24599999 .063 C .222 .039 .187 .022000002 .15200001 .022000002 C .109000008 .022000002 .077 .05 .077 .091000009 C .077 .092 .077 .24100001 .30900003 .25100003 L .294 .16100002 Z "/>
</symbol>
<use xlink:href="#font_4_7" transform="matrix(9.9626,0,0,-9.9626,375.8899,139.32459)"/>
<use xlink:href="#font_4_11" transform="matrix(9.9626,0,0,-9.9626,380.62214,139.215)"/>
<use xlink:href="#font_4_a" transform="matrix(9.9626,0,0,-9.9626,386.51,139.32459)"/>
<use xlink:href="#font_3_1" transform="matrix(9.9626,0,0,-9.9626,395.25093,139.215)"/>
<use xlink:href="#font_1_2" transform="matrix(9.9626,0,0,-9.9626,402.30747,139.215)"/>
<use xlink:href="#font_1_5" transform="matrix(9.9626,0,0,-9.9626,410.21778,139.215)"/>
<use xlink:href="#font_1_3" transform="matrix(9.9626,0,0,-9.9626,419.49299,139.43418)"/>
<symbol id="font_4_14">
<path d="M .19600001 .33800004 L .21300002 .44200004 L .091000009 .43300004 C .073 .432 .072 .43 .07100001 .425 C .07100001 .42200003 .067 .402 .067 .4 C .12400001 .4 .13800001 .395 .13800001 .36800004 C .13800001 .367 .13800001 .36 .135 .342 L .09 .074 C .08400001 .036000004 .08 .031000002 .006000001 .031000002 L .004999999 .031000002 L 0 0 C .040000004 .001 .08600001 .003 .11500001 .003 C .12100001 .003 .20900002 .002 .24100003 0 C .24300003 .010000001 .24400002 .021000002 .24600002 .031000002 L .22700003 .031000002 C .16600001 .031000002 .15400002 .037 .15400002 .059000005 C .15400002 .07300001 .18600002 .25 .19100002 .27 C .20800002 .326 .24900002 .42000003 .34000004 .42000003 L .34000004 .41900004 C .32400004 .41200004 .31300003 .39400003 .31300003 .374 C .31300003 .344 .33800004 .337 .351 .337 C .37600003 .337 .40000005 .35700003 .40000005 .38700003 C .40000005 .41900004 .37300004 .44200004 .33400003 .44200004 C .27 .44200004 .22100002 .38900004 .19700001 .337 L .19600001 .33800004 Z "/>
</symbol>
<symbol id="font_4_f">
<path d="M .26000003 .694 L .134 .684 C .132 .684 .117000009 .683 .116000007 .68200007 C .11300001 .68 .109000008 .65500006 .109000008 .652 C .16600001 .652 .18 .647 .18 .62 C .18 .619 .18 .61200007 .17700002 .59400007 L .09 .074 C .08400001 .036000004 .080000009 .031000002 .006000001 .031000002 L .0050000029 .031000002 L 0 0 C .033 .001 .086 .003 .11100001 .003 C .13500002 .003 .185 .001 .22100002 0 L .22700003 .031000002 C .17700002 .031000002 .15400002 .031000002 .15400002 .056 C .15400002 .060000004 .155 .066 .15600002 .071 L .26000003 .694 Z "/>
</symbol>
<symbol id="font_4_b">
<path d="M .36700005 .24200002 C .39100004 .24200002 .393 .24200002 .39600004 .261 C .399 .28300003 .399 .29900003 .399 .305 C .399 .42300005 .32 .45900003 .24800001 .45900003 C .113000009 .45900003 0 .32400004 0 .19300002 C 0 .081 .082 0 .187 0 C .31 0 .37300004 .11400001 .37300004 .13100001 C .37300004 .135 .371 .14200002 .362 .14200002 C .35400004 .14200002 .352 .13800001 .347 .128 C .29900003 .036000004 .22000002 .025000003 .193 .025000003 C .147 .025000003 .08 .054 .08 .16200002 C .08 .19200002 .085999999 .22700002 .089 .24200002 L .36700005 .24200002 M .09300001 .263 C .128 .42200003 .223 .43700005 .24700003 .43700005 C .334 .43700005 .334 .33900003 .334 .31900005 C .334 .29700003 .333 .29000003 .329 .263 L .09300001 .263 Z "/>
</symbol>
<use xlink:href="#font_4_c" transform="matrix(9.9626,0,0,-9.9626,345.49678,151.17099)"/>
<use xlink:href="#font_4_12" transform="matrix(9.9626,0,0,-9.9626,348.80436,151.28058)"/>
<use xlink:href="#font_4_14" transform="matrix(9.9626,0,0,-9.9626,353.46687,151.17099)"/>
<use xlink:href="#font_4_10" transform="matrix(9.9626,0,0,-9.9626,357.41206,151.17099)"/>
<use xlink:href="#font_4_7" transform="matrix(9.9626,0,0,-9.9626,369.2775,151.28058)"/>
<use xlink:href="#font_4_f" transform="matrix(9.9626,0,0,-9.9626,377.3472,151.17099)"/>
<use xlink:href="#font_4_e" transform="matrix(9.9626,0,0,-9.9626,380.1168,151.17099)"/>
<use xlink:href="#font_4_11" transform="matrix(9.9626,0,0,-9.9626,382.87644,151.17099)"/>
<use xlink:href="#font_4_b" transform="matrix(9.9626,0,0,-9.9626,388.70457,151.28058)"/>
<use xlink:href="#font_4_7" transform="matrix(9.9626,0,0,-9.9626,393.0881,151.28058)"/>
<use xlink:href="#font_4_14" transform="matrix(9.9626,0,0,-9.9626,397.7805,151.17099)"/>
<use xlink:href="#font_4_13" transform="matrix(9.9626,0,0,-9.9626,404.68455,153.10373)"/>
<use xlink:href="#font_4_7" transform="matrix(9.9626,0,0,-9.9626,410.83149,151.28058)"/>
<use xlink:href="#font_4_e" transform="matrix(9.9626,0,0,-9.9626,415.57368,151.17099)"/>
<use xlink:href="#font_4_14" transform="matrix(9.9626,0,0,-9.9626,418.29347,151.17099)"/>
<path transform="matrix(1,0,0,-1,156.756,15.14299)" d="M 152.57387 -155.13716 L 74.20068 -155.13716 C 71.99974 -155.13716 70.21558 -156.92133 70.21558 -159.12227 L 70.21558 -181.0395 C 70.21558 -183.24045 71.99974 -185.02462 74.20068 -185.02462 L 152.57387 -185.02462 C 154.77481 -185.02462 156.55898 -183.24045 156.55898 -181.0395 L 156.55898 -159.12227 C 156.55898 -156.92133 154.77481 -155.13716 152.57387 -155.13716 Z M 70.21558 -185.02462 " fill="#ccccff"/>
<path transform="matrix(1,0,0,-1,156.756,15.14299)" stroke-width=".3985" stroke-linecap="butt" stroke-miterlimit="10" stroke-linejoin="miter" fill="none" stroke="#000000" d="M 152.57387 -155.13716 L 74.20068 -155.13716 C 71.99974 -155.13716 70.21558 -156.92133 70.21558 -159.12227 L 70.21558 -181.0395 C 70.21558 -183.24045 71.99974 -185.02462 74.20068 -185.02462 L 152.57387 -185.02462 C 154.77481 -185.02462 156.55898 -183.24045 156.55898 -181.0395 L 156.55898 -159.12227 C 156.55898 -156.92133 154.77481 -155.13716 152.57387 -155.13716 Z M 70.21558 -185.02462 "/>
<path transform="matrix(1,0,0,-1,245.227,174.19699)" stroke-width=".398" stroke-linecap="butt" stroke-miterlimit="10" stroke-linejoin="miter" fill="none" stroke="#000000" d="M 0 0 L 15.305 0 "/>
<use xlink:href="#font_1_1" transform="matrix(9.9626,0,0,-9.9626,245.5757,182.39899)"/>
<use xlink:href="#font_1_3" transform="matrix(9.9626,0,0,-9.9626,253.19709,182.61817)"/>
<symbol id="font_0_5">
<path d="M .354 .632 C .354 .65000006 .354 .66800007 .33400003 .66800007 C .314 .66800007 .314 .647 .314 .632 L .314 .040000004 L .036000004 .040000004 C .021000002 .040000004 0 .040000004 0 .020000002 C 0 0 .021000002 0 .036000004 0 L .633 0 C .65000006 0 .66800007 0 .66800007 .020000002 C .66800007 .040000004 .65000006 .040000004 .633 .040000004 L .354 .040000004 L .354 .632 Z "/>
</symbol>
<use xlink:href="#font_0_5" transform="matrix(9.9626,0,0,-9.9626,265.92195,182.39899)"/>
<path transform="matrix(1,0,0,-1,277.965,174.19698)" stroke-width=".398" stroke-linecap="butt" stroke-miterlimit="10" stroke-linejoin="miter" fill="none" stroke="#000000" d="M 0 0 L 17.092 0 "/>
<use xlink:href="#font_1_2" transform="matrix(9.9626,0,0,-9.9626,278.38343,182.39899)"/>
<use xlink:href="#font_1_5" transform="matrix(9.9626,0,0,-9.9626,286.29374,182.39899)"/>
<symbol id="font_4_1">
<path d="M .162 .00999999 C .162 .0119999949 .162 .013999984 .15200001 .024999991 C .12799999 .054999994 .055000009 .145 .055000009 .338 C .055000009 .393 .063999999 .762 .312 .97400006 C .324 .985 .32500003 .98600009 .32500003 .99 C .32500003 .99700006 .321 1 .31500004 1 C .305 1 .257 .96300008 .20200002 .907 C .09900001 .801 0 .592 0 .36900003 C 0 .303 .010000005 .21700001 .046000005 .137 C .078999999 .06299999 .13800001 0 .15200001 0 C .15799999 0 .162 .003999993 .162 .00999999 Z "/>
</symbol>
<symbol id="font_4_d">
<path d="M .476 .303 C .47900004 .321 .47900004 .324 .47900004 .34 C .47900004 .416 .43 .44200004 .361 .44200004 C .27600003 .44200004 .22300002 .381 .20300001 .34800003 L .202 .349 L .26000003 .694 L .134 .684 C .132 .684 .117 .683 .116 .68200007 C .113000009 .68 .109 .65500006 .109 .652 C .16600001 .652 .18 .647 .18 .62 C .18 .619 .18 .61200007 .177 .59400007 L .09 .074 C .08400001 .036000004 .08 .031000002 .006000001 .031000002 L .004999999 .031000002 L 0 0 C .033999999 .001 .087 .003 .113000009 .003 C .138 .003 .192 .001 .224 0 L .23000002 .031000002 C .18 .031000002 .157 .031000002 .157 .056 C .157 .059000005 .164 .097 .16700001 .117000009 C .17400001 .16100002 .18100001 .20500002 .18900001 .24900002 C .194 .282 .20300001 .33 .252 .377 C .282 .404 .32000003 .42000003 .35300002 .42000003 C .39200003 .42000003 .41200004 .4 .41200004 .35300002 C .41200004 .33800004 .41000004 .32700003 .40100003 .26900003 L .367 .069000009 C .361 .031000002 .345 .031000002 .284 .031000002 L .28300003 .031000002 L .278 0 C .312 .001 .365 .003 .391 .003 C .416 .003 .47000004 .001 .50200006 0 L .508 .031000002 C .458 .031000002 .435 .031000002 .435 .056 C .435 .060000004 .43600003 .066 .437 .071 L .476 .303 Z "/>
</symbol>
<symbol id="font_4_17">
<path d="M .432 .45300005 L .303 .44300003 C .301 .44300003 .286 .44200004 .285 .441 C .282 .43900005 .278 .41400004 .278 .411 C .335 .411 .349 .40600003 .349 .37900005 C .349 .37200005 .34300003 .33800004 .34 .31700004 L .319 .19100002 C .31300003 .16000001 .305 .108 .26200003 .064 C .23000002 .032 .199 .022000002 .16800002 .022000002 C .095 .022000002 .094 .060000004 .094 .079 C .094 .08400001 .095 .10300001 .096 .107 L .15400002 .45300005 L .024999999 .44300003 C .023000002 .44300003 .008000001 .44200004 .0069999995 .441 C .0040000008 .43900005 0 .41400004 0 .411 C .056999998 .411 .070999998 .40600003 .070999998 .37900005 C .070999998 .36900003 .048999996 .23900002 .045 .21700002 C .039000006 .17900002 .029 .123 .029 .104 C .029 .043 .060000004 0 .16300002 0 C .252 0 .29700003 .075 .303 .085 L .30400003 .08400001 L .29000003 0 L .41600005 .010000001 C .418 .010000001 .433 .011000001 .43400005 .012000001 C .437 .014 .441 .039 .441 .042000005 C .38200004 .042000005 .37 .047000003 .37 .074 C .37 .076000008 .37 .083000008 .37300004 .101 L .432 .45300005 Z "/>
</symbol>
<use xlink:href="#font_4_1" transform="matrix(9.9626,0,0,-9.9626,238.61717,196.84462)"/>
<use xlink:href="#font_4_7" transform="matrix(9.9626,0,0,-9.9626,241.77533,194.46356)"/>
<use xlink:href="#font_4_11" transform="matrix(9.9626,0,0,-9.9626,246.50756,194.35398)"/>
<use xlink:href="#font_4_a" transform="matrix(9.9626,0,0,-9.9626,252.39545,194.46356)"/>
<use xlink:href="#font_4_16" transform="matrix(9.9626,0,0,-9.9626,261.44148,194.46356)"/>
<use xlink:href="#font_4_d" transform="matrix(9.9626,0,0,-9.9626,264.77897,194.35398)"/>
<use xlink:href="#font_4_17" transform="matrix(9.9626,0,0,-9.9626,270.7067,194.46356)"/>
<use xlink:href="#font_4_15" transform="matrix(9.9626,0,0,-9.9626,275.58839,194.46356)"/>
<symbol id="font_0_2">
<path d="M .85200008 .24100001 C .87000009 .24100001 .8880001 .24100001 .8880001 .261 C .8880001 .28100003 .87000009 .28100003 .85200008 .28100003 L .109000008 .28100003 C .164 .323 .19100002 .36400003 .19900003 .37700004 C .24400002 .44600005 .25200004 .509 .25200004 .51 C .25200004 .522 .24000001 .522 .23200003 .522 C .21500004 .522 .21400002 .52 .21000001 .50200006 C .187 .404 .12800002 .321 .015000001 .27400003 C .0040000008 .27 0 .268 0 .261 C 0 .254 .0050000029 .252 .015000001 .24800003 C .11900001 .20500002 .18600002 .127 .21100003 .015000001 C .21400002 .0030000006 .21500004 0 .23200003 0 C .24000001 0 .25200004 0 .25200004 .012000001 C .25200004 .014 .24300003 .077 .201 .14400001 C .18100003 .17400001 .15200001 .20900002 .109000008 .24100001 L .85200008 .24100001 Z "/>
</symbol>
<symbol id="font_0_3">
<path d="M .77900007 .24100001 C .72400006 .19900002 .697 .158 .689 .14500001 C .64400008 .076000008 .63600006 .013000001 .63600006 .012000001 C .63600006 0 .648 0 .656 0 C .67300006 0 .674 .0020000004 .67800006 .020000002 C .70100006 .11800001 .76000007 .20200002 .873 .24800003 C .88500007 .252 .888 .254 .888 .261 C .888 .268 .882 .27100004 .88000008 .272 C .836 .28900004 .71500006 .33900003 .67700007 .507 C .674 .519 .67300006 .522 .656 .522 C .648 .522 .63600006 .522 .63600006 .51 C .63600006 .508 .64500007 .44500003 .68700006 .37800003 C .707 .34800003 .736 .31300003 .77900007 .28100003 L .036000004 .28100003 C .018000003 .28100003 0 .28100003 0 .261 C 0 .24100001 .018000003 .24100001 .036000004 .24100001 L .77900007 .24100001 Z "/>
</symbol>
<use xlink:href="#font_0_2" transform="matrix(9.9626,0,0,-9.9626,283.0539,187.65657)"/>
<use xlink:href="#font_0_3" transform="matrix(9.9626,0,0,-9.9626,289.6591,187.65657)"/>
<use xlink:href="#font_1_2" transform="matrix(9.9626,0,0,-9.9626,282.91444,194.35398)"/>
<use xlink:href="#font_1_4" transform="matrix(9.9626,0,0,-9.9626,290.95426,194.35398)"/>
<symbol id="font_4_2">
<path d="M .32500003 .63 C .32500003 .675 .32100005 .753 .29100005 .83500006 C .25300003 .93700006 .185 1 .17400001 1 C .168 1 .163 .99700006 .163 .99 C .163 .98700007 .164 .985 .171 .97700008 C .24300002 .893 .27 .78300008 .27 .661 C .27 .523 .228 .205 .014 .026999996 C .0010000002 .013999984 0 .012999982 0 .00999999 C 0 .0029999912 .0040000008 0 .01 0 C .024 0 .089 .058 .111 .08 C .29000003 .268 .32500003 .508 .32500003 .63 Z "/>
</symbol>
<use xlink:href="#font_4_2" transform="matrix(9.9626,0,0,-9.9626,299.24638,196.84462)"/>
<path transform="matrix(1,0,0,-1,156.756,15.14299)" d="M 59.11215 -197.65694 L -59.11215 -197.65694 C -61.3131 -197.65694 -63.09726 -199.4411 -63.09726 -201.64205 L -63.09726 -223.56017 C -63.09726 -225.76111 -61.3131 -227.54528 -59.11215 -227.54528 L 59.11215 -227.54528 C 61.3131 -227.54528 63.09726 -225.76111 63.09726 -223.56017 L 63.09726 -201.64205 C 63.09726 -199.4411 61.3131 -197.65694 59.11215 -197.65694 Z M -63.09726 -227.54528 " fill="#ccffcc"/>
<path transform="matrix(1,0,0,-1,156.756,15.14299)" stroke-width=".3985" stroke-linecap="butt" stroke-miterlimit="10" stroke-linejoin="miter" fill="none" stroke="#000000" d="M 59.11215 -197.65694 L -59.11215 -197.65694 C -61.3131 -197.65694 -63.09726 -199.4411 -63.09726 -201.64205 L -63.09726 -223.56017 C -63.09726 -225.76111 -61.3131 -227.54528 -59.11215 -227.54528 L 59.11215 -227.54528 C 61.3131 -227.54528 63.09726 -225.76111 63.09726 -223.56017 L 63.09726 -201.64205 C 63.09726 -199.4411 61.3131 -197.65694 59.11215 -197.65694 Z M -63.09726 -227.54528 "/>
<symbol id="font_4_6">
<path d="M .534 .716 C .534 .72400006 .528 .72700008 .522 .72700008 C .51600006 .72700008 .515 .725 .506 .71400007 L .46100006 .65700009 C .44000004 .68900009 .39400003 .72700008 .31300003 .72700008 C .192 .72700008 .08500001 .62200006 .08500001 .503 C .08500001 .48100005 .087 .43900005 .122999999 .39500005 C .154 .35800005 .18 .35200004 .26100005 .33100004 L .34100003 .31000004 C .40500004 .28400005 .40900005 .21800001 .40900005 .201 C .40900005 .122 .34200005 .031000004 .24700003 .031000004 C .146 .031000004 .059000005 .08100001 .059000005 .19500001 C .059000005 .208 .06300001 .22600001 .06300001 .238 C .06300001 .24900002 .054 .24900002 .051000004 .24900002 C .040000004 .24900002 .039 .24400002 .036000004 .22700002 L .0020000004 .025000003 C 0 .016000003 0 .014000001 0 .011000001 C 0 .005000001 .0030000024 0 .011000004 0 C .018000003 0 .019000005 .0010000002 .026999999 .011000001 L .073 .07 C .095 .047000003 .139 0 .246 0 C .37700004 0 .47900007 .124000009 .47900007 .24200002 C .47900007 .26200003 .47700004 .31300003 .43900005 .35900004 C .40900005 .39700005 .37700004 .40500004 .31700004 .42000006 L .279 .43000005 C .25900004 .43500004 .226 .44400005 .219 .44600005 C .186 .46000005 .155 .49400006 .155 .545 C .155 .62200006 .22500001 .69900009 .31200005 .69900009 C .42300005 .69900009 .47200004 .623 .47200004 .517 C .47200004 .5 .47100006 .512 .47100006 .49600006 C .47100006 .48600004 .47100006 .47800005 .483 .47800005 C .48600004 .47800005 .49100004 .47900004 .49400006 .48100005 L .534 .716 Z "/>
</symbol>
<symbol id="font_4_18">
<path d="M .47500003 .541 C .499 .582 .52800008 .60300007 .577 .605 L .5820001 .63600006 C .55100008 .633 .53700008 .633 .508 .633 C .48200003 .633 .43600003 .635 .42200003 .63600006 L .416 .60600009 C .423 .60600009 .45700003 .602 .45700003 .57000008 C .45700003 .55700007 .449 .544 .444 .535 L .303 .29200004 L .23700002 .56000009 C .23600002 .564 .23400001 .57100006 .23400001 .57500007 C .23400001 .605 .276 .605 .29500003 .605 C .296 .61300006 .299 .62700006 .3 .63600006 C .27 .635 .21400002 .633 .19100002 .633 C .16100002 .633 .12100001 .63400009 .095000009 .63600006 L .089 .605 C .15 .605 .15500002 .6 .16300002 .569 L .24900002 .22100002 C .25100003 .21200001 .252 .20800002 .252 .20600002 C .252 .20300001 .20000002 .11100001 .18200001 .087000008 C .15900001 .055000009 .12500002 .022 .084 .022 C .072000008 .022 .053 .025000006 .039 .040000008 C .074 .044 .086 .07100001 .086 .09000001 C .086 .11600001 .066 .12400001 .05 .12400001 C .028 .12400001 0 .10700001 0 .07000001 C 0 .029 .035 0 .080000009 0 C .16100002 0 .21900001 .10000001 .22500003 .11000001 L .47500003 .541 Z "/>
</symbol>
<symbol id="font_4_5">
<path d="M .162 .38500003 C .162 .407 .146 .43100003 .115 .43100003 C .08200001 .43100003 .053999999 .40100003 .053999999 .37100003 C .053999999 .349 .07 .32500003 .101 .32500003 C .134 .32500003 .162 .35500003 .162 .38500003 M .107 .060000004 C .107 .09200001 .08200001 .106000009 .060999998 .106000009 C .027000003 .106000009 0 .076000008 0 .046000005 C 0 .023000002 .017000005 0 .047 0 C .076 0 .107 .026 .107 .060000004 Z "/>
</symbol>
<use xlink:href="#font_4_6" transform="matrix(9.9626,0,0,-9.9626,110.63397,227.21417)"/>
<use xlink:href="#font_4_17" transform="matrix(9.9626,0,0,-9.9626,116.6215,227.10459)"/>
<use xlink:href="#font_4_10" transform="matrix(9.9626,0,0,-9.9626,121.49321,226.995)"/>
<use xlink:href="#font_4_10" transform="matrix(9.9626,0,0,-9.9626,129.79207,226.995)"/>
<use xlink:href="#font_4_7" transform="matrix(9.9626,0,0,-9.9626,138.33997,227.10459)"/>
<use xlink:href="#font_4_14" transform="matrix(9.9626,0,0,-9.9626,143.03234,226.995)"/>
<use xlink:href="#font_4_18" transform="matrix(9.9626,0,0,-9.9626,146.62883,229.03733)"/>
<use xlink:href="#font_4_5" transform="matrix(9.9626,0,0,-9.9626,152.85546,226.995)"/>
<use xlink:href="#font_0_2" transform="matrix(9.9626,0,0,-9.9626,160.21791,220.29758)"/>
<use xlink:href="#font_0_3" transform="matrix(9.9626,0,0,-9.9626,166.82312,220.29758)"/>
<use xlink:href="#font_1_2" transform="matrix(9.9626,0,0,-9.9626,160.07843,226.995)"/>
<use xlink:href="#font_1_4" transform="matrix(9.9626,0,0,-9.9626,168.11823,226.995)"/>
<use xlink:href="#font_4_e" transform="matrix(9.9626,0,0,-9.9626,179.89078,226.995)"/>
<use xlink:href="#font_4_15" transform="matrix(9.9626,0,0,-9.9626,182.66037,227.10459)"/>
<use xlink:href="#font_4_16" transform="matrix(9.9626,0,0,-9.9626,190.43122,227.10459)"/>
<use xlink:href="#font_4_d" transform="matrix(9.9626,0,0,-9.9626,193.76869,226.995)"/>
<use xlink:href="#font_4_b" transform="matrix(9.9626,0,0,-9.9626,199.59679,227.10459)"/>
<use xlink:href="#font_0_5" transform="matrix(9.9626,0,0,-9.9626,118.47695,238.95099)"/>
<symbol id="font_4_8">
<path d="M .18200001 .705 L .055999996 .695 C .054000006 .695 .039000006 .694 .038000004 .693 C .034999998 .691 .031000004 .666 .031000004 .663 C .088 .663 .102 .658 .102 .631 C .102 .63 .102 .623 .09900001 .605 L 0 .011000001 C .023000002 .011000001 .024000004 .012000001 .027999998 .015000001 C .029 .017 .033999996 .024 .072 .074 C .09200001 .035 .13000001 0 .192 0 C .324 0 .454 .120000008 .454 .26400004 C .454 .381 .37 .45300005 .275 .45300005 C .20200002 .45300005 .15 .41000004 .13000001 .39000003 L .18200001 .705 M .12300001 .33100004 C .126 .34900005 .126 .351 .142 .36900003 C .171 .40300004 .21900001 .43100003 .27 .43100003 C .312 .43100003 .37500004 .404 .37500004 .29900003 C .37500004 .28200004 .37 .17500001 .328 .108 C .291 .049000004 .23500002 .022000002 .18900001 .022000002 C .106000009 .022000002 .085999999 .102000009 .085999999 .107 C .085999999 .111 .087 .120000008 .088 .124000009 L .12300001 .33100004 Z "/>
</symbol>
<symbol id="font_4_9">
<path d="M .358 .397 C .30600003 .395 .30100004 .35400004 .30100004 .344 C .30100004 .32700003 .31100003 .305 .342 .305 C .367 .305 .395 .32400004 .395 .36400003 C .395 .42900003 .323 .45900003 .257 .45900003 C .120000008 .45900003 0 .328 0 .18900001 C 0 .075 .082 0 .18200001 0 C .316 0 .367 .12100001 .367 .13000001 C .367 .13800001 .36 .14000002 .35500003 .14000002 C .34700004 .14000002 .34600003 .13800001 .34 .126 C .307 .058000003 .25 .025000003 .192 .025000003 C .143 .025000003 .081 .060000004 .081 .16800002 C .081 .30300004 .15300001 .43400003 .257 .43400003 C .27100004 .43400003 .32900004 .43200005 .358 .397 Z "/>
</symbol>
<use xlink:href="#font_4_8" transform="matrix(9.9626,0,0,-9.9626,130.05506,239.06058)"/>
<use xlink:href="#font_4_e" transform="matrix(9.9626,0,0,-9.9626,134.86698,238.95099)"/>
<use xlink:href="#font_4_15" transform="matrix(9.9626,0,0,-9.9626,137.6366,239.06058)"/>
<use xlink:href="#font_4_b" transform="matrix(9.9626,0,0,-9.9626,141.8408,239.06058)"/>
<use xlink:href="#font_4_9" transform="matrix(9.9626,0,0,-9.9626,146.32399,239.06058)"/>
<use xlink:href="#font_4_16" transform="matrix(9.9626,0,0,-9.9626,150.93668,239.06058)"/>
<use xlink:href="#font_4_12" transform="matrix(9.9626,0,0,-9.9626,154.55312,239.06058)"/>
<use xlink:href="#font_4_14" transform="matrix(9.9626,0,0,-9.9626,159.21559,238.95099)"/>
<use xlink:href="#font_4_12" transform="matrix(9.9626,0,0,-9.9626,166.75728,239.06058)"/>
<use xlink:href="#font_4_c" transform="matrix(9.9626,0,0,-9.9626,171.47954,238.95099)"/>
<path transform="matrix(1,0,0,-1,177.51099,230.748)" stroke-width=".398" stroke-linecap="butt" stroke-miterlimit="10" stroke-linejoin="miter" fill="none" stroke="#000000" d="M 0 0 L 15.305 0 "/>
<use xlink:href="#font_1_1" transform="matrix(9.9626,0,0,-9.9626,177.85968,238.95099)"/>
<use xlink:href="#font_1_3" transform="matrix(9.9626,0,0,-9.9626,185.48107,239.17017)"/>
<symbol id="font_4_4">
<path d="M .107 .060000004 C .107 .09200001 .08200001 .106000009 .060999998 .106000009 C .027000003 .106000009 0 .076000008 0 .046000005 C 0 .023000002 .017000005 0 .047 0 C .076 0 .107 .026 .107 .060000004 Z "/>
</symbol>
<use xlink:href="#font_4_4" transform="matrix(9.9626,0,0,-9.9626,193.75249,238.95099)"/>
<path transform="matrix(1,0,0,-1,156.756,15.14299)" stroke-width=".3985" stroke-linecap="butt" stroke-miterlimit="10" stroke-linejoin="miter" fill="none" stroke="#000000" d="M -70.01633 0 L -55.72476 0 "/>
<path transform="matrix(1,0,0,-1,101.031238,15.14299)" d="M 2.39102 0 C 1.39476 .19925 -.3985 .59775 -1.59401 1.49438 C -.59775 .3985 -.59775 -.3985 -1.59401 -1.49438 C -.3985 -.59775 1.39476 -.19925 2.39102 0 Z "/>
<path transform="matrix(1,0,0,-1,156.756,15.14299)" stroke-width=".3985" stroke-linecap="butt" stroke-miterlimit="10" stroke-linejoin="miter" fill="none" stroke="#000000" d="M 70.01633 0 L 55.72476 0 "/>
<path transform="matrix(-1,0,0,1,212.48076,15.14299)" d="M 2.39102 0 C 1.39476 .19925 -.3985 .59775 -1.59401 1.49438 C -.59775 .3985 -.59775 -.3985 -1.59401 -1.49438 C -.3985 -.59775 1.39476 -.19925 2.39102 0 Z "/>
<path transform="matrix(1,0,0,-1,156.756,15.14299)" stroke-width=".3985" stroke-linecap="butt" stroke-miterlimit="10" stroke-linejoin="miter" fill="none" stroke="#000000" d="M 86.29375 -32.35818 L 42.60649 -15.98254 "/>
<path transform="matrix(-.93633,-.35095,-.35095,.93633,199.36249,31.12553)" d="M 2.39102 0 C 1.39476 .19925 -.3985 .59775 -1.59401 1.49438 C -.59775 .3985 -.59775 -.3985 -1.59401 -1.49438 C -.3985 -.59775 1.39476 -.19925 2.39102 0 Z "/>
<path transform="matrix(1,0,0,-1,156.756,15.14299)" stroke-width=".3985" stroke-linecap="butt" stroke-miterlimit="10" stroke-linejoin="miter" fill="none" stroke="#000000" d="M 86.29375 -52.68225 L 42.60649 -69.05788 "/>
<path transform="matrix(-.93633,.35095,.35095,.93633,199.36249,84.20087)" d="M 2.39102 0 C 1.39476 .19925 -.3985 .59775 -1.59401 1.49438 C -.59775 .3985 -.59775 -.3985 -1.59401 -1.49438 C -.3985 -.59775 1.39476 -.19925 2.39102 0 Z "/>
<path transform="matrix(1,0,0,-1,156.756,15.14299)" stroke-width=".3985" stroke-linecap="butt" stroke-miterlimit="10" stroke-linejoin="miter" fill="none" stroke="#000000" d="M 0 -15.14342 L 0 -29.96715 "/>
<path transform="matrix(0,1,1,0,156.756,45.110139)" d="M 2.39102 0 C 1.39476 .19925 -.3985 .59775 -1.59401 1.49438 C -.59775 .3985 -.59775 -.3985 -1.59401 -1.49438 C -.3985 -.59775 1.39476 -.19925 2.39102 0 Z "/>
<path transform="matrix(1,0,0,-1,156.756,15.14299)" stroke-width=".3985" stroke-linecap="butt" stroke-miterlimit="10" stroke-linejoin="miter" fill="none" stroke="#000000" d="M 0 -52.68225 L 0 -67.50598 "/>
<path transform="matrix(0,1,1,0,156.756,82.64897)" d="M 2.39102 0 C 1.39476 .19925 -.3985 .59775 -1.59401 1.49438 C -.59775 .3985 -.59775 -.3985 -1.59401 -1.49438 C -.3985 -.59775 1.39476 -.19925 2.39102 0 Z "/>
<path transform="matrix(1,0,0,-1,156.756,15.14299)" stroke-width=".3985" stroke-linecap="butt" stroke-miterlimit="10" stroke-linejoin="miter" fill="none" stroke="#000000" d="M -86.29375 -52.68225 L -42.60649 -69.05788 "/>
<path transform="matrix(.93633,.35095,.35095,-.93633,114.1495,84.20087)" d="M 2.39102 0 C 1.39476 .19925 -.3985 .59775 -1.59401 1.49438 C -.59775 .3985 -.59775 -.3985 -1.59401 -1.49438 C -.3985 -.59775 1.39476 -.19925 2.39102 0 Z "/>
<path transform="matrix(1,0,0,-1,156.756,15.14299)" stroke-width=".3985" stroke-linecap="butt" stroke-miterlimit="10" stroke-linejoin="miter" fill="none" stroke="#000000" d="M 0 -100.18385 L 0 -115.0076 "/>
<path transform="matrix(0,1,1,0,156.756,130.15059)" d="M 2.39102 0 C 1.39476 .19925 -.3985 .59775 -1.59401 1.49438 C -.59775 .3985 -.59775 -.3985 -1.59401 -1.49438 C -.3985 -.59775 1.39476 -.19925 2.39102 0 Z "/>
<path transform="matrix(1,0,0,-1,156.756,15.14299)" stroke-width=".3985" stroke-linecap="butt" stroke-miterlimit="10" stroke-linejoin="miter" fill="none" stroke="#000000" d="M 0 -137.7227 L 0 -153.76448 "/>
<path transform="matrix(0,1,1,0,156.756,168.90747)" d="M 2.39102 0 C 1.39476 .19925 -.3985 .59775 -1.59401 1.49438 C -.59775 .3985 -.59775 -.3985 -1.59401 -1.49438 C -.3985 -.59775 1.39476 -.19925 2.39102 0 Z "/>
<path transform="matrix(1,0,0,-1,156.756,15.14299)" stroke-width=".3985" stroke-linecap="butt" stroke-miterlimit="10" stroke-linejoin="miter" fill="none" stroke="#000000" d="M 40.37119 -100.18385 L 84.05963 -116.5595 "/>
<path transform="matrix(.93633,.35095,.35095,-.93633,240.81562,131.70249)" d="M 2.39102 0 C 1.39476 .19925 -.3985 .59775 -1.59401 1.49438 C -.59775 .3985 -.59775 -.3985 -1.59401 -1.49438 C -.3985 -.59775 1.39476 -.19925 2.39102 0 Z "/>
<path transform="matrix(1,0,0,-1,156.756,15.14299)" stroke-width=".3985" stroke-linecap="butt" stroke-miterlimit="10" stroke-linejoin="miter" fill="none" stroke="#000000" d="M 113.38728 -137.7227 L 113.38728 -152.54688 "/>
<path transform="matrix(0,1,1,0,270.14329,167.68987)" d="M 2.39102 0 C 1.39476 .19925 -.3985 .59775 -1.59401 1.49438 C -.59775 .3985 -.59775 -.3985 -1.59401 -1.49438 C -.3985 -.59775 1.39476 -.19925 2.39102 0 Z "/>
<path transform="matrix(1,0,0,-1,156.756,15.14299)" stroke-width=".3985" stroke-linecap="butt" stroke-miterlimit="10" stroke-linejoin="miter" fill="none" stroke="#000000" d="M 189.64696 -141.48604 L 155.99265 -154.09889 "/>
<path transform="matrix(-.93634,.3509,.3509,.93634,312.74867,169.24187)" d="M 2.39102 0 C 1.39476 .19925 -.3985 .59775 -1.59401 1.49438 C -.59775 .3985 -.59775 -.3985 -1.59401 -1.49438 C -.3985 -.59775 1.39476 -.19925 2.39102 0 Z "/>
<path transform="matrix(1,0,0,-1,156.756,15.14299)" stroke-width=".3985" stroke-linecap="butt" stroke-miterlimit="10" stroke-linejoin="miter" fill="none" stroke="#000000" d="M 0 -184.00626 L 0 -195.06665 "/>
<path transform="matrix(0,1,1,0,156.756,210.20964)" d="M 2.39102 0 C 1.39476 .19925 -.3985 .59775 -1.59401 1.49438 C -.59775 .3985 -.59775 -.3985 -1.59401 -1.49438 C -.3985 -.59775 1.39476 -.19925 2.39102 0 Z "/>
<path transform="matrix(1,0,0,-1,156.756,15.14299)" stroke-width=".3985" stroke-linecap="butt" stroke-miterlimit="10" stroke-linejoin="miter" fill="none" stroke="#000000" d="M 73.0138 -185.22386 L 42.60657 -196.6187 "/>
<path transform="matrix(-.93636,.35089,.35089,.93636,199.36258,211.76169)" d="M 2.39102 0 C 1.39476 .19925 -.3985 .59775 -1.59401 1.49438 C -.59775 .3985 -.59775 -.3985 -1.59401 -1.49438 C -.3985 -.59775 1.39476 -.19925 2.39102 0 Z "/>
</g>
</svg>
