<?xml version="1.0" encoding="UTF-8" standalone="no"?>
<!DOCTYPE svg PUBLIC "-//W3C//DTD SVG 1.1//EN" "http://www.w3.org/Graphics/SVG/1.1/DTD/svg11.dtd">
<svg xmlns="http://www.w3.org/2000/svg" xmlns:xlink="http://www.w3.org/1999/xlink" version="1.1" width="255.118pt" height="121.89pt" viewBox="0 0 255.118 121.89">
<g enable-background="new">
<clipPath id="cp0">
<path transform="matrix(1,0,0,-1,22.677,291.969)" d="M -22.67752 170.08086 L -22.67752 291.9722 L 232.44374 291.9722 L 232.44374 170.08086 Z M 232.44374 291.9722 "/>
</clipPath>
<g clip-path="url(#cp0)">
<path transform="matrix(1,0,0,-1,22.677,291.969)" stroke-width=".79701" stroke-linecap="round" stroke-linejoin="round" fill="none" stroke="#000000" d="M -23.8112 175.43177 L -13.08685 177.32239 L -2.3625 179.21346 L 8.36182 181.10408 L 19.08615 182.9947 L 29.81052 184.88533 L 40.53485 186.77639 L 51.2592 188.667 L 61.98355 190.55764 L 72.70789 192.44826 L 83.43224 194.33931 L 94.15659 196.22992 L 104.88094 198.12055 L 115.60527 200.01117 L 126.32962 201.90222 L 137.05397 203.79242 L 147.77832 205.68347 L 158.50266 207.57454 L 169.22702 209.46472 L 179.95136 211.35535 L 190.6757 213.2464 L 201.40006 215.1366 L 212.1244 217.02722 L 222.84874 218.91828 L 233.5731 220.8089 "/>
<path transform="matrix(1,0,0,-1,22.677,291.969)" stroke-width=".79701" stroke-linecap="round" stroke-dasharray="1.99255,1.99255" stroke-linejoin="round" fill="none" stroke="#000000" d="M -23.8112 247.80965 L -13.08685 249.70072 L -2.3625 251.59134 L 8.36182 253.48197 L 19.08615 255.37259 L 29.81052 257.26365 L 40.53485 259.15428 L 51.2592 261.04447 L 61.98355 262.9355 L 72.70789 264.82655 L 83.43224 266.71675 L 94.15659 268.6074 L 104.88094 270.49845 L 115.60527 272.3886 L 126.32962 274.2797 L 137.05397 276.1703 L 147.77832 278.06095 L 158.50266 279.95198 L 169.22702 281.8426 L 179.95136 283.73323 L 190.6757 285.62388 L 201.40006 287.51493 L 212.1244 289.40553 L 222.84874 291.29618 L 233.5731 293.1872 "/>
<path transform="matrix(1,0,0,-1,22.677,291.969)" stroke-width=".59776" stroke-linecap="round" stroke-dasharray="1.99255,2.98883" stroke-linejoin="round" fill="none" stroke="#000000" d="M -14.74045 286.38514 L -4.53601 281.5329 L 5.6684 276.68116 L 15.87283 271.82893 L 26.07727 266.9767 L 36.28171 262.1245 L 46.48613 257.2727 L 56.69057 252.42052 L 66.895 247.56873 L 77.09946 242.7165 L 87.3039 237.86475 L 97.50833 233.01253 L 107.71275 228.15988 L 117.91719 223.3081 L 128.12163 218.45589 L 138.32607 213.60411 L 148.5305 208.75234 L 158.73494 203.90013 L 168.93938 199.04747 L 179.14382 194.19614 L 189.34825 189.34349 L 199.55269 184.49172 L 209.75711 179.63994 L 219.96155 174.78772 L 230.16599 169.9355 "/>
<symbol id="font_1_6">
<path d="M .22 .674 C .22100002 .676 .224 .689 .224 .69 C .224 .69500008 .22 .704 .208 .704 C .188 .704 .105000007 .69600006 .08 .694 C .073 .693 .059000005 .69200006 .059000005 .671 C .059000005 .657 .073 .657 .08400001 .657 C .132 .657 .132 .65000006 .132 .642 C .132 .635 .13 .629 .128 .62 L .003999997 .126 C .0009999983 .116000007 0 .105000007 0 .095 C 0 .031000004 .057 0 .105000007 0 C .12900001 0 .15900001 .008 .185 .053000004 C .206 .09 .22 .14900002 .22 .15300001 C .22 .16600001 .20700002 .16600001 .204 .16600001 C .19 .16600001 .188 .16000001 .184 .142 C .171 .092 .15200001 .028 .109 .028 C .082 .028 .075 .053000004 .075 .077 C .075 .088 .077999997 .107 .081 .118 L .22 .674 Z "/>
</symbol>
<use xlink:href="#font_1_6" transform="matrix(6.9738,0,0,-6.9738,20.696375,107.372737)"/>
<symbol id="font_1_5">
<path d="M .23800002 .674 C .23900001 .676 .242 .689 .242 .69 C .242 .69500008 .23800002 .704 .22600003 .704 C .20600002 .704 .12300001 .69600006 .098000008 .694 C .09 .693 .076000008 .69200006 .076000008 .671 C .076000008 .657 .09 .657 .102 .657 C .15 .657 .15 .65000006 .15 .642 C .15 .635 .148 .629 .14600002 .62 L .0050000029 .054000006 C 0 .036000004 0 .034 0 .032 C 0 .017 .012000002 0 .034 0 C .061000006 0 .074 .020000002 .08 .042000005 C .082 .046000005 .125 .22200002 .12900001 .23600002 C .2 .22900002 .25700004 .20600002 .25700004 .15400002 C .25700004 .14900002 .25700004 .14400001 .255 .134 C .251 .119 .251 .114 .251 .103 C .251 .032 .30900003 0 .357 0 C .45400007 0 .48400004 .15200001 .48400004 .15300001 C .48400004 .16600001 .47100003 .16600001 .46800006 .16600001 C .45400007 .16600001 .453 .16100002 .448 .142 C .43600006 .099 .40900005 .028 .36 .028 C .333 .028 .325 .053000004 .325 .08 C .325 .097 .325 .099 .33100004 .125 C .33200003 .128 .33600004 .14500001 .33600004 .15600002 C .33600004 .24500002 .216 .259 .17400001 .262 C .20300003 .28 .24000003 .313 .25700004 .328 C .30800004 .37600003 .35800005 .423 .41400004 .423 C .42600007 .423 .439 .42000003 .44700004 .41 C .40400005 .403 .39500005 .36900003 .39500005 .354 C .39500005 .33200003 .412 .317 .43500007 .317 C .462 .317 .49200005 .33900003 .49200005 .381 C .49200005 .414 .46800006 .451 .41500003 .451 C .35800005 .451 .306 .41 .255 .363 C .21300002 .323 .18000002 .292 .13900002 .275 L .23800002 .674 Z "/>
</symbol>
<use xlink:href="#font_1_5" transform="matrix(6.9738,0,0,-6.9738,227.92804,107.372737)"/>
<path transform="matrix(1,0,0,-1,22.677,291.969)" d="M 98.70862 233.01079 C 98.70862 233.67107 98.17336 234.20633 97.51308 234.20633 C 96.85281 234.20633 96.31755 233.67107 96.31755 233.01079 C 96.31755 232.35053 96.85281 231.81526 97.51308 231.81526 C 98.17336 231.81526 98.70862 232.35053 98.70862 233.01079 Z M 97.51308 233.01079 " fill="#0000ff"/>
<path transform="matrix(1,0,0,-1,22.677,291.969)" stroke-width=".3985" stroke-linecap="round" stroke-linejoin="round" fill="none" stroke="#000000" d="M 98.70862 233.01079 C 98.70862 233.67107 98.17336 234.20633 97.51308 234.20633 C 96.85281 234.20633 96.31755 233.67107 96.31755 233.01079 C 96.31755 232.35053 96.85281 231.81526 97.51308 231.81526 C 98.17336 231.81526 98.70862 232.35053 98.70862 233.01079 Z M 97.51308 233.01079 "/>
<symbol id="font_1_1">
<path d="M .76000007 .44500003 C .76000007 .602 .647 .723 .47000004 .723 C .231 .723 0 .49900005 0 .27400003 C 0 .113000009 .119 0 .291 0 C .52900007 0 .76000007 .21800001 .76000007 .44500003 M .29900003 .033 C .19300002 .033 .103 .105000007 .103 .25300003 C .103 .30400003 .117 .44600005 .20900002 .56 C .27600003 .642 .37300004 .691 .462 .691 C .56600007 .691 .662 .625 .662 .48000003 C .662 .40700004 .63100007 .261 .53800007 .154 C .468 .074 .377 .033 .29900003 .033 Z "/>
</symbol>
<use xlink:href="#font_1_1" transform="matrix(6.9738,0,0,-6.9738,120.65119,53.546476)" fill="#0000ff"/>
<symbol id="font_1_4">
<path d="M .342 .633 C .349 .661 .351 .66400006 .37300004 .667 L .437 .667 C .53000006 .667 .64500007 .667 .64500007 .564 C .64500007 .523 .62600007 .46000005 .57900008 .42400003 C .53800007 .39200003 .47600005 .37600003 .407 .37600003 L .278 .37600003 L .342 .633 M .52300009 .36 C .6420001 .38800005 .7480001 .46000005 .7480001 .549 C .7480001 .635 .646 .703 .50100007 .703 L .194 .703 C .17500001 .703 .162 .703 .162 .681 C .162 .667 .174 .667 .194 .667 C .195 .667 .21400002 .667 .232 .665 C .253 .663 .255 .661 .255 .651 C .255 .649 .255 .644 .25100003 .629 L .11800001 .098000008 C .11000001 .064 .108 .056 .030000002 .056 C .013000004 .056 0 .056 0 .035000005 C 0 .025000003 .0069999995 .020000002 .016000003 .020000002 C .035000005 .020000002 .058000007 .023000002 .078 .023000002 C .09700001 .023000002 .12600002 .024000003 .144 .024000003 C .164 .024000003 .187 .023000002 .208 .023000002 C .229 .023000002 .254 .020000002 .275 .020000002 C .28 .020000002 .296 .020000002 .296 .041 C .296 .056 .286 .056 .263 .056 C .24700001 .056 .243 .056 .225 .058000007 C .20300001 .061000006 .20300001 .063 .20300001 .07300001 C .20300001 .074 .20300001 .080000009 .20700002 .095000009 L .27 .34800003 L .40600003 .34800003 C .492 .34800003 .52900007 .30500005 .52900007 .25800003 C .52900007 .245 .52000007 .21100001 .51500007 .18800001 C .503 .142 .49900005 .127 .49900005 .11000001 C .49900005 .031000004 .572 0 .646 0 C .73800006 0 .77800008 .098000008 .77800008 .116000007 C .77800008 .11900001 .7760001 .13000001 .76100006 .13000001 C .7480001 .13000001 .74600008 .12300001 .74300006 .113000009 C .72900006 .069000009 .69200006 .028 .65000006 .028 C .6240001 .028 .6050001 .039000006 .6050001 .09300001 C .6050001 .11800001 .61100009 .17 .61500009 .197 C .6190001 .224 .6190001 .23400001 .6190001 .244 C .6190001 .256 .6190001 .28800003 .5910001 .31800003 C .572 .33900003 .5450001 .35200004 .52300009 .36 Z "/>
</symbol>
<use xlink:href="#font_1_4" transform="matrix(6.9738,0,0,-6.9738,11.225141,50.072477)"/>
<symbol id="font_2_1">
<path d="M .24000001 .9990001 C .050000006 .86500009 0 .653 0 .5 C 0 .35900004 .042000005 .14000002 .24000001 0 C .248 0 .26000003 0 .26000003 .0119999949 C .26000003 .018000007 .257 .019999996 .25 .026999996 C .117000009 .14700002 .06800001 .31700004 .06800001 .499 C .06800001 .76900008 .171 .901 .25300003 .975 C .257 .97900006 .26000003 .98200008 .26000003 .98700007 C .26000003 .9990001 .248 .9990001 .24000001 .9990001 Z "/>
</symbol>
<use xlink:href="#font_2_1" transform="matrix(6.9738,0,0,-6.9738,17.568989,51.669477)"/>
<use xlink:href="#font_1_6" transform="matrix(6.9738,0,0,-6.9738,20.312376,50.002737)"/>
<symbol id="font_2_2">
<path d="M .019000002 .9990001 C .012000002 .9990001 0 .9990001 0 .98700007 C 0 .98200008 .0029999987 .97900006 .009000003 .97200009 C .095000009 .89300009 .19100002 .758 .19100002 .5 C .19100002 .291 .12600002 .13300002 .018 .034999998 C .001000002 .018000007 0 .017000005 0 .0119999949 C 0 .0069999995 .0029999987 0 .013000004 0 C .024999999 0 .12000001 .066 .18599999 .19100002 C .23000002 .27400003 .259 .38200004 .259 .499 C .259 .64000007 .21700001 .859 .019000002 .9990001 Z "/>
</symbol>
<use xlink:href="#font_2_2" transform="matrix(6.9738,0,0,-6.9738,22.935143,51.669477)"/>
<path transform="matrix(1,0,0,-1,22.677,291.969)" d="M 43.18716 259.4103 C 43.18716 260.0706 42.65192 260.60585 41.99164 260.60585 C 41.33138 260.60585 40.79611 260.0706 40.79611 259.4103 C 40.79611 258.75007 41.33138 258.2148 41.99164 258.2148 C 42.65192 258.2148 43.18716 258.75007 43.18716 259.4103 Z M 41.99164 259.4103 " fill="#0000ff"/>
<path transform="matrix(1,0,0,-1,22.677,291.969)" stroke-width=".3985" stroke-linecap="round" stroke-linejoin="round" fill="none" stroke="#000000" d="M 43.18716 259.4103 C 43.18716 260.0706 42.65192 260.60585 41.99164 260.60585 C 41.33138 260.60585 40.79611 260.0706 40.79611 259.4103 C 40.79611 258.75007 41.33138 258.2148 41.99164 258.2148 C 42.65192 258.2148 43.18716 258.75007 43.18716 259.4103 Z M 41.99164 259.4103 "/>
<symbol id="font_1_2">
<path d="M .27 .31 L .451 .31 C .62000009 .31 .7630001 .418 .7630001 .527 C .7630001 .611 .68100008 .683 .544 .683 L .194 .683 C .174 .683 .162 .683 .162 .661 C .162 .647 .17300001 .647 .195 .647 C .211 .647 .215 .647 .23300001 .64500007 C .253 .643 .255 .64100006 .255 .63100007 C .255 .629 .255 .624 .25100003 .609 L .11900001 .082 C .109000008 .043 .108 .036000004 .030000002 .036000004 C .012000002 .036000004 0 .036000004 0 .014 C 0 .013 0 0 .016000003 0 C .045 0 .117000009 .004 .146 .004 C .16300002 .004 .19800002 .004 .215 .003 C .23500002 .002 .26000003 0 .279 0 C .285 0 .3 0 .3 .022000002 C .3 .036000004 .28800003 .036000004 .268 .036000004 C .26700003 .036000004 .248 .036000004 .23000002 .038000004 C .20700002 .040000004 .20700002 .043 .20700002 .053000004 C .20700002 .054 .20700002 .060000004 .211 .075 L .27 .31 M .342 .61300006 C .35000003 .64400008 .351 .647 .393 .647 L .51000007 .647 C .60300007 .647 .6610001 .619 .6610001 .54800006 C .6610001 .517 .64900007 .43800003 .59900006 .393 C .563 .36100004 .50600007 .342 .434 .342 L .27400003 .342 L .342 .61300006 Z "/>
</symbol>
<use xlink:href="#font_1_2" transform="matrix(6.9738,0,0,-6.9738,66.02114,26.477997)" fill="#0000ff"/>
<path transform="matrix(1,0,0,-1,22.677,291.969)" d="M 154.22876 206.61127 C 154.22876 207.27153 153.6935 207.8068 153.03324 207.8068 C 152.37297 207.8068 151.8377 207.27153 151.8377 206.61127 C 151.8377 205.951 152.37297 205.41574 153.03324 205.41574 C 153.6935 205.41574 154.22876 205.951 154.22876 206.61127 Z M 153.03324 206.61127 " fill="#0000ff"/>
<path transform="matrix(1,0,0,-1,22.677,291.969)" stroke-width=".3985" stroke-linecap="round" stroke-linejoin="round" fill="none" stroke="#000000" d="M 154.22876 206.61127 C 154.22876 207.27153 153.6935 207.8068 153.03324 207.8068 C 152.37297 207.8068 151.8377 207.27153 151.8377 206.61127 C 151.8377 205.951 152.37297 205.41574 153.03324 205.41574 C 153.6935 205.41574 154.22876 205.951 154.22876 206.61127 Z M 153.03324 206.61127 "/>
<symbol id="font_1_3">
<path d="M .39600004 .134 C .39600004 .069000009 .409 0 .491 0 C .61200007 0 .67 .172 .67 .194 C .67 .201 .66400006 .208 .656 .208 C .646 .208 .643 .199 .642 .19500001 C .61800006 .125 .55200007 .105000007 .518 .105000007 C .47800005 .105000007 .45700003 .122 .439 .202 C .61700007 .26500003 .76000007 .44200004 .76000007 .619 C .76000007 .776 .647 .897 .47000004 .897 C .231 .897 0 .67300006 0 .448 C 0 .287 .119 .17400001 .291 .17400001 C .31 .17400001 .344 .17500001 .39600004 .18800001 L .39600004 .134 M .22300002 .21900001 C .171 .237 .097 .289 .097 .42300005 C .097 .48700003 .118 .62 .20900002 .73300006 C .272 .81000009 .36900003 .865 .462 .865 C .57100006 .865 .66300007 .79200008 .66300007 .646 C .66300007 .546 .614 .33100004 .431 .24000001 C .41500003 .303 .38900004 .34500004 .33 .34500004 C .27400003 .34500004 .21900001 .298 .21900001 .245 C .21900001 .227 .22 .22600001 .22300002 .21900001 M .39600004 .224 C .374 .216 .337 .206 .298 .206 C .282 .206 .24700001 .206 .24700001 .245 C .24700001 .283 .28800003 .317 .33 .317 C .36600004 .317 .393 .301 .39600004 .224 Z "/>
</symbol>
<use xlink:href="#font_1_3" transform="matrix(6.9738,0,0,-6.9738,177.06018,95.183917)" fill="#0000ff"/>
</g>
</g>
</svg>
