<?xml version="1.0" encoding="UTF-8" standalone="no"?>
<!DOCTYPE svg PUBLIC "-//W3C//DTD SVG 1.1//EN" "http://www.w3.org/Graphics/SVG/1.1/DTD/svg11.dtd">
<svg xmlns="http://www.w3.org/2000/svg" xmlns:xlink="http://www.w3.org/1999/xlink" version="1.1" width="303.307pt" height="99.213pt" viewBox="0 0 303.307 99.213">
<g enable-background="new">
<clipPath id="cp0">
<path transform="matrix(1,0,0,-1,-22.677,325.985)" d="M 22.67752 226.77448 L 22.67752 325.9883 L 325.9883 325.9883 L 325.9883 226.77448 Z M 325.9883 325.9883 "/>
</clipPath>
<g clip-path="url(#cp0)">
<path transform="matrix(1,0,0,-1,-22.677,325.985)" stroke-width=".79701" stroke-linecap="round" stroke-linejoin="round" fill="none" stroke="#000000" d="M 22.67752 222.32408 L 35.31541 226.85405 L 47.95331 231.38359 L 60.5912 235.91616 L 73.2291 240.44612 L 85.867 244.97609 L 98.50488 249.50565 L 111.14278 254.0356 L 123.78067 258.56816 L 136.41858 263.09815 L 149.05648 267.62767 L 161.69437 272.15766 L 174.33226 276.69023 L 186.97016 281.22019 L 199.60805 285.75276 L 212.24594 290.2827 L 224.88385 294.81269 L 237.52175 299.34223 L 250.15962 303.87223 L 262.79753 308.4048 L 275.43544 312.93476 L 288.07334 317.4643 L 300.7112 321.99424 L 313.3491 326.52684 L 325.987 331.0568 "/>
<path transform="matrix(1,0,0,-1,-22.677,325.985)" d="M 171.00821 274.96397 C 171.00821 275.78929 170.33913 276.45838 169.5138 276.45838 C 168.68845 276.45838 168.01938 275.78929 168.01938 274.96397 C 168.01938 274.1386 168.68845 273.46955 169.5138 273.46955 C 170.33913 273.46955 171.00821 274.1386 171.00821 274.96397 Z M 169.5138 274.96397 " fill="#0000ff"/>
<path transform="matrix(1,0,0,-1,-22.677,325.985)" stroke-width=".3985" stroke-linecap="round" stroke-linejoin="round" fill="none" stroke="#000000" d="M 171.00821 274.96397 C 171.00821 275.78929 170.33913 276.45838 169.5138 276.45838 C 168.68845 276.45838 168.01938 275.78929 168.01938 274.96397 C 168.01938 274.1386 168.68845 273.46955 169.5138 273.46955 C 170.33913 273.46955 171.00821 274.1386 171.00821 274.96397 Z M 169.5138 274.96397 "/>
<symbol id="font_1_1">
<path d="M .264 .314 L .431 .314 C .593 .314 .725 .425 .725 .531 C .725 .61 .65400007 .683 .523 .683 L .193 .683 C .17500001 .683 .163 .683 .163 .665 C .163 .652 .172 .652 .193 .652 C .19700001 .652 .21500002 .652 .23100002 .65000006 C .24800001 .648 .255 .646 .255 .63500007 C .255 .63000008 .254 .62600007 .251 .615 L .11600001 .076000008 C .10700001 .040000004 .105000007 .031000002 .030000002 .031000002 C .011 .031000002 0 .031000002 0 .013 C 0 .002 .008000001 0 .015000001 0 C .034 0 .059 .001 .078 .002 C .10800001 .003 .11 .003 .142 .003 C .17400001 .003 .17600002 .003 .20600002 .002 C .22600003 .001 .25200004 0 .27100004 0 C .278 0 .291 0 .291 .018000002 C .291 .031000002 .28100003 .031000002 .26 .031000002 C .25600005 .031000002 .23800002 .031000002 .22200002 .033 C .2 .036000004 .19900002 .040000004 .19900002 .049000004 C .19900002 .052 .19900002 .054 .20400001 .072000008 L .264 .314 M .33600004 .61300006 C .34500004 .64900007 .347 .652 .389 .652 L .49 .652 C .568 .652 .63 .628 .63 .555 C .63 .53400006 .619 .44000004 .56700006 .39200003 C .545 .372 .499 .342 .41300006 .342 L .268 .342 L .33600004 .61300006 Z "/>
</symbol>
<use xlink:href="#font_1_1" transform="matrix(8.9664,0,0,-8.9664,147.62448,61.17398)" fill="#0000ff"/>
<path transform="matrix(1,0,0,-1,-22.677,325.985)" d="M 231.10373 296.5078 C 231.10373 297.33317 230.43466 298.0022 229.60932 298.0022 C 228.78398 298.0022 228.1149 297.33317 228.1149 296.5078 C 228.1149 295.68247 228.78398 295.01338 229.60932 295.01338 C 230.43466 295.01338 231.10373 295.68247 231.10373 296.5078 Z M 229.60932 296.5078 " fill="#0000ff"/>
<path transform="matrix(1,0,0,-1,-22.677,325.985)" stroke-width=".3985" stroke-linecap="round" stroke-linejoin="round" fill="none" stroke="#000000" d="M 231.10373 296.5078 C 231.10373 297.33317 230.43466 298.0022 229.60932 298.0022 C 228.78398 298.0022 228.1149 297.33317 228.1149 296.5078 C 228.1149 295.68247 228.78398 295.01338 229.60932 295.01338 C 230.43466 295.01338 231.10373 295.68247 231.10373 296.5078 Z M 229.60932 296.5078 "/>
<symbol id="font_1_2">
<path d="M .36200003 .153 C .36 .142 .36 .128 .36 .116000007 C .36 .068 .368 0 .447 0 C .56600007 0 .61700007 .179 .61700007 .194 C .61700007 .2 .61200007 .206 .60400006 .206 C .596 .206 .59400007 .199 .591 .192 C .568 .124000009 .51 .099 .473 .099 C .42700003 .099 .412 .128 .402 .199 C .62 .293 .708 .49 .708 .62700006 C .708 .785 .602 .89900007 .44500003 .89900007 C .22100003 .89900007 0 .669 0 .441 C 0 .277 .113000009 .172 .264 .172 C .305 .172 .34600003 .18100001 .363 .186 L .36200003 .153 M .20400001 .21200001 C .158 .23 .091000009 .282 .091000009 .411 C .091000009 .46400003 .10800001 .625 .216 .754 C .268 .81500008 .352 .87100008 .43800003 .87100008 C .537 .87100008 .61700007 .79800006 .61700007 .658 C .61700007 .558 .568 .33200003 .396 .236 C .387 .29000003 .368 .343 .304 .343 C .24800001 .343 .19900002 .292 .19900002 .24100001 C .19900002 .23300001 .20100002 .21900001 .20400001 .21200001 M .365 .22 C .351 .214 .312 .2 .271 .2 C .25800003 .2 .22400002 .2 .22400002 .24100001 C .22400002 .278 .261 .31800003 .305 .31800003 C .36400003 .31800003 .365 .264 .365 .22 Z "/>
</symbol>
<use xlink:href="#font_1_2" transform="matrix(8.9664,0,0,-8.9664,207.71231,40.782484)" fill="#0000ff"/>
<path transform="matrix(1,0,0,-1,-22.677,325.985)" d="M 125.27338 258.56816 C 125.27338 259.39353 124.6043 260.0626 123.77896 260.0626 C 122.95361 260.0626 122.28455 259.39353 122.28455 258.56816 C 122.28455 257.7428 122.95361 257.07377 123.77896 257.07377 C 124.6043 257.07377 125.27338 257.7428 125.27338 258.56816 Z M 123.77896 258.56816 " fill="#0000ff"/>
<path transform="matrix(1,0,0,-1,-22.677,325.985)" stroke-width=".3985" stroke-linecap="round" stroke-linejoin="round" fill="none" stroke="#000000" d="M 125.27338 258.56816 C 125.27338 259.39353 124.6043 260.0626 123.77896 260.0626 C 122.95361 260.0626 122.28455 259.39353 122.28455 258.56816 C 122.28455 257.7428 122.95361 257.07377 123.77896 257.07377 C 124.6043 257.07377 125.27338 257.7428 125.27338 258.56816 Z M 123.77896 258.56816 "/>
<symbol id="font_1_3">
<path d="M .33600004 .63500007 C .342 .66 .34500004 .67 .36300005 .67300006 C .37200005 .674 .40500004 .674 .426 .674 C .505 .674 .615 .674 .615 .573 C .615 .536 .6 .46100004 .543 .41800005 C .519 .40200005 .46899999 .37600003 .388 .37600003 L .27100004 .37600003 L .33600004 .63500007 M .491 .36100004 C .62700006 .39600004 .711 .47200004 .711 .554 C .711 .64100006 .616 .70500007 .48299999 .70500007 L .193 .70500007 C .17500001 .70500007 .163 .70500007 .163 .68700006 C .163 .674 .172 .674 .193 .674 C .19700001 .674 .21500002 .674 .23100002 .67200008 C .24800001 .67 .255 .66800007 .255 .65700009 C .255 .65200009 .254 .64800009 .251 .637 L .11600001 .098000008 C .10700001 .062000008 .105000007 .053000004 .030000002 .053000004 C .011 .053000004 0 .053000004 0 .035000005 C 0 .024000003 .008000001 .022000002 .015000001 .022000002 C .031000004 .022000002 .061000006 .023000002 .078 .024000003 C .09900001 .025000003 .10100001 .025000003 .14 .025000003 C .172 .025000003 .17400001 .025000003 .20400001 .024000003 C .22400002 .023000002 .249 .022000002 .268 .022000002 C .27500005 .022000002 .288 .022000002 .288 .040000004 C .288 .053000004 .278 .053000004 .25700004 .053000004 C .25300003 .053000004 .235 .053000004 .219 .055 C .19700001 .058000007 .19600001 .062000008 .19600001 .071 C .19600001 .074 .19600001 .076000008 .201 .094000007 L .265 .35100005 L .388 .35100005 C .478 .35100005 .501 .29900003 .501 .261 C .501 .254 .501 .24700001 .495 .22500001 C .47100003 .13300002 .47100003 .124000009 .47100003 .109000008 C .47100003 .019000002 .556 0 .607 0 C .694 0 .73 .101 .73 .117000009 C .73 .124000009 .72400006 .12900001 .717 .12900001 C .70600005 .12900001 .70500007 .124000009 .70100006 .112 C .684 .060000004 .647 .025000003 .61 .025000003 C .572 .025000003 .57 .055 .57 .08400001 C .57 .109000008 .577 .16700001 .578 .17400001 C .58 .19000001 .58500006 .23 .58500006 .245 C .58500006 .30200003 .549 .34100003 .491 .36100004 Z "/>
</symbol>
<use xlink:href="#font_1_3" transform="matrix(8.9664,0,0,-8.9664,93.26349,62.789247)" fill="#0000ff"/>
<symbol id="font_1_4">
<path d="M .232 .671 C .236 .685 .236 .68700006 .236 .691 C .236 .7 .23000002 .705 .22100002 .705 C .20700002 .705 .119 .697 .09900001 .695 C .089 .694 .077999997 .693 .077999997 .676 C .077999997 .663 .089 .663 .105000007 .663 C .15200001 .663 .15200001 .656 .15200001 .647 C .15200001 .643 .15200001 .64100006 .147 .623 L .0040000008 .048 C 0 .034 0 .032 0 .029000003 C 0 .013000001 .013 0 .031 0 C .063999999 0 .070999998 .029000003 .076000008 .049000004 L .122999999 .23800002 C .191 .23200003 .24200002 .20500002 .24200002 .15500002 C .24200002 .14900002 .24200002 .14500001 .239 .13000001 C .238 .126 .23500002 .112 .23500002 .101 C .23500002 .042000005 .27600003 0 .331 0 C .36900003 0 .393 .023000002 .411 .052 C .43600003 .09 .45 .15000002 .45 .15400002 C .45 .15900001 .44700004 .16600001 .437 .16600001 C .42600004 .16600001 .42400003 .16100002 .41900004 .143 C .40600003 .092 .381 .025000003 .33400003 .025000003 C .305 .025000003 .30200003 .051000004 .30200003 .07300001 C .30200003 .098000008 .308 .124000009 .30900003 .126 C .31100003 .13200002 .31300003 .14400001 .31300003 .15600002 C .31300003 .22600001 .24000001 .25300003 .163 .26200003 C .193 .28100003 .215 .30200003 .24700001 .33400003 C .298 .38500003 .34 .42800004 .393 .42800004 C .405 .42800004 .418 .42500005 .42600004 .41600005 C .381 .41200004 .37 .37500004 .37 .36100004 C .37 .34200005 .384 .32500003 .409 .32500003 C .432 .32500003 .46400006 .34300003 .46400006 .38700003 C .46400006 .42000003 .44000004 .45300005 .393 .45300005 C .33200003 .45300005 .28300003 .404 .241 .36100004 C .193 .314 .169 .29000003 .132 .27400003 L .232 .671 Z "/>
</symbol>
<use xlink:href="#font_1_4" transform="matrix(8.9664,0,0,-8.9664,31.978152,85.41661)"/>
</g>
</g>
</svg>
