<?xml version="1.0" encoding="UTF-8" standalone="no"?>
<!DOCTYPE svg PUBLIC "-//W3C//DTD SVG 1.1//EN" "http://www.w3.org/Graphics/SVG/1.1/DTD/svg11.dtd">
<svg xmlns="http://www.w3.org/2000/svg" xmlns:xlink="http://www.w3.org/1999/xlink" version="1.1" width="226.772pt" height="96.378pt" viewBox="0 0 226.772 96.378">
<clipPath id="cp0">
<path transform="matrix(1,0,0,-1,85.039,93.543)" d="M -85.04042 -2.83484 L -85.04042 93.54454 L 141.73404 93.54454 L 141.73404 -2.83484 Z M 141.73404 93.54454 "/>
</clipPath>
<g clip-path="url(#cp0)">
<path transform="matrix(1,0,0,-1,85.039,93.543)" d="M 0 0 L 0 7.08669 L 7.08669 7.08669 L 7.08669 0 Z " fill="#006400" fill-opacity=".1"/>
<path transform="matrix(1,0,0,-1,85.039,93.543)" stroke-width=".79701" stroke-linecap="round" stroke-linejoin="round" fill="none" stroke="#006400" d="M 0 0 L 0 7.08669 L 7.08669 7.08669 L 7.08669 0 Z "/>
<path transform="matrix(1,0,0,-1,85.039,93.543)" d="M 35.31152 32.07138 L 29.40392 28.13399 L 33.34131 22.2294 L 39.24892 26.16681 Z " fill="#006400" fill-opacity=".1"/>
<path transform="matrix(1,0,0,-1,85.039,93.543)" stroke-width=".79701" stroke-linecap="round" stroke-linejoin="round" fill="none" stroke="#006400" d="M 35.31152 32.07138 L 29.40392 28.13399 L 33.34131 22.2294 L 39.24892 26.16681 Z "/>
<path transform="matrix(1,0,0,-1,85.039,93.543)" d="M 33.34131 22.2294 L 37.28174 16.32224 L 43.18631 20.25964 L 39.24892 26.16681 Z " fill="#006400" fill-opacity=".1"/>
<path transform="matrix(1,0,0,-1,85.039,93.543)" stroke-width=".79701" stroke-linecap="round" stroke-linejoin="round" fill="none" stroke="#006400" d="M 33.34131 22.2294 L 37.28174 16.32224 L 43.18631 20.25964 L 39.24892 26.16681 Z "/>
<path transform="matrix(1,0,0,-1,85.039,93.543)" stroke-width=".79701" stroke-linecap="round" stroke-linejoin="round" fill="none" stroke="#000000" d="M 0 0 L 56.69362 0 "/>
<path transform="matrix(1,0,0,-1,85.039,93.543)" stroke-width=".79701" stroke-linecap="round" stroke-linejoin="round" fill="none" stroke="#000000" d="M 0 85.04042 L 0 0 "/>
<path transform="matrix(1,0,0,-1,85.039,93.543)" stroke-width=".79701" stroke-linecap="round" stroke-linejoin="round" fill="none" stroke="#000000" d="M 0 85.04042 L 56.69362 0 "/>
<path transform="matrix(1,0,0,-1,85.039,93.543)" stroke-width=".79701" stroke-linecap="round" stroke-dasharray="2.98883,2.98883" stroke-linejoin="round" fill="none" stroke="#000000" d="M 0 0 L 39.24892 26.16681 "/>
<path transform="matrix(1,0,0,-1,85.039,93.543)" d="M 1.19553 0 C 1.19553 .66026 .66026 1.19553 0 1.19553 C -.66026 1.19553 -1.19553 .66026 -1.19553 0 C -1.19553 -.66026 -.66026 -1.19553 0 -1.19553 C .66026 -1.19553 1.19553 -.66026 1.19553 0 Z M 0 0 " fill="#0000ff"/>
<path transform="matrix(1,0,0,-1,85.039,93.543)" stroke-width=".3985" stroke-linecap="round" stroke-linejoin="round" fill="none" stroke="#000000" d="M 1.19553 0 C 1.19553 .66026 .66026 1.19553 0 1.19553 C -.66026 1.19553 -1.19553 .66026 -1.19553 0 C -1.19553 -.66026 -.66026 -1.19553 0 -1.19553 C .66026 -1.19553 1.19553 -.66026 1.19553 0 Z M 0 0 "/>
<symbol id="font_1_1">
<path d="M .14900002 .120000008 C .114 .066 .08200001 .040000004 .023000002 .036000004 C .012999997 .035 0 .035 0 .015000001 C 0 .004 .008999996 0 .013999999 0 C .04 0 .07300001 .004 .1 .004 C .132 .004 .17300001 0 .20300001 0 C .208 0 .22299999 0 .22299999 .022000002 C .22299999 .035 .21000001 .036000004 .206 .036000004 C .19800002 .037 .162 .039 .162 .066 C .162 .078 .17200002 .095000009 .17700002 .104 L .257 .22800002 L .54300007 .22800002 L .56700006 .062000004 C .563 .052 .55700007 .036000004 .498 .036000004 C .48600004 .036000004 .47200004 .036000004 .47200004 .014 C .47200004 .010000001 .475 0 .488 0 C .517 0 .58800008 .004 .61700007 .004 C .63500007 .004 .65800008 .003 .67600008 .003 C .69400009 .002 .71500006 0 .73300006 0 C .74600008 0 .7530001 .008 .7530001 .021000002 C .7530001 .036000004 .74100008 .036000004 .7250001 .036000004 C .66700008 .036000004 .6650001 .044000005 .66200008 .068 L .57400009 .68500009 C .57100006 .70600005 .56900009 .71300008 .5500001 .71300008 C .531 .71300008 .52500006 .70400008 .51600006 .69000008 L .14900002 .120000008 M .28100003 .264 L .49100004 .591 L .53800007 .264 L .28100003 .264 Z "/>
</symbol>
<use xlink:href="#font_1_1" transform="matrix(6.9738,0,0,-6.9738,75.35451,91.673999)" fill="#0000ff"/>
<path transform="matrix(1,0,0,-1,85.039,93.543)" d="M 57.88914 0 C 57.88914 .66026 57.35388 1.19553 56.69362 1.19553 C 56.03334 1.19553 55.49808 .66026 55.49808 0 C 55.49808 -.66026 56.03334 -1.19553 56.69362 -1.19553 C 57.35388 -1.19553 57.88914 -.66026 57.88914 0 Z M 56.69362 0 " fill="#0000ff"/>
<path transform="matrix(1,0,0,-1,85.039,93.543)" stroke-width=".3985" stroke-linecap="round" stroke-linejoin="round" fill="none" stroke="#000000" d="M 57.88914 0 C 57.88914 .66026 57.35388 1.19553 56.69362 1.19553 C 56.03334 1.19553 55.49808 .66026 55.49808 0 C 55.49808 -.66026 56.03334 -1.19553 56.69362 -1.19553 C 57.35388 -1.19553 57.88914 -.66026 57.88914 0 Z M 56.69362 0 "/>
<symbol id="font_1_2">
<path d="M .11800001 .078 C .109000008 .044000005 .107 .036000004 .030000002 .036000004 C .012999997 .036000004 0 .036000004 0 .015000001 C 0 0 .012000002 0 .030000002 0 L .41700004 0 C .585 0 .714 .115 .714 .21400002 C .714 .28500004 .649 .34600003 .543 .35700003 C .66400006 .379 .765 .455 .765 .541 C .765 .61700007 .688 .683 .558 .683 L .194 .683 C .17500001 .683 .162 .683 .162 .661 C .162 .647 .174 .647 .194 .647 C .19500003 .647 .21400002 .647 .23200003 .64500007 C .25300003 .643 .25500003 .64100006 .25500003 .63100007 C .25500003 .629 .25500003 .624 .25100003 .609 L .11800001 .078 M .27800004 .36900003 L .33900003 .61300006 C .34700004 .64400008 .34800003 .647 .39000003 .647 L .542 .647 C .644 .647 .667 .58000007 .667 .54200008 C .667 .46100004 .576 .36900003 .442 .36900003 L .27800004 .36900003 M .23000002 .036000004 C .19900003 .036000004 .19800002 .037 .19800002 .046000005 C .19800002 .047000003 .19800002 .052 .20200002 .067 L .27100004 .34100003 L .483 .34100003 C .577 .34100003 .61300006 .279 .61300006 .22100002 C .61300006 .12200001 .512 .036000004 .39100004 .036000004 L .23000002 .036000004 Z "/>
</symbol>
<use xlink:href="#font_1_2" transform="matrix(6.9738,0,0,-6.9738,144.72412,91.673999)" fill="#0000ff"/>
<path transform="matrix(1,0,0,-1,85.039,93.543)" d="M 1.19553 85.04042 C 1.19553 85.70068 .66026 86.23595 0 86.23595 C -.66026 86.23595 -1.19553 85.70068 -1.19553 85.04042 C -1.19553 84.38016 -.66026 83.8449 0 83.8449 C .66026 83.8449 1.19553 84.38016 1.19553 85.04042 Z M 0 85.04042 " fill="#0000ff"/>
<path transform="matrix(1,0,0,-1,85.039,93.543)" stroke-width=".3985" stroke-linecap="round" stroke-linejoin="round" fill="none" stroke="#000000" d="M 1.19553 85.04042 C 1.19553 85.70068 .66026 86.23595 0 86.23595 C -.66026 86.23595 -1.19553 85.70068 -1.19553 85.04042 C -1.19553 84.38016 -.66026 83.8449 0 83.8449 C .66026 83.8449 1.19553 84.38016 1.19553 85.04042 Z M 0 85.04042 "/>
<symbol id="font_1_3">
<path d="M .77300009 .71000006 C .77300009 .71500006 .77000007 .723 .76000007 .723 C .753 .723 .75100007 .721 .74200007 .711 L .669 .634 C .66 .646 .60400006 .723 .481 .723 C .23800004 .723 0 .508 0 .28200004 C 0 .11900001 .12800002 0 .307 0 C .36100004 0 .45700003 .011000001 .56000009 .098000008 C .63900008 .165 .661 .252 .661 .26000003 C .661 .27300004 .64900007 .27300004 .64400008 .27300004 C .63100007 .27300004 .62900009 .268 .62600007 .25700004 C .58500006 .120000008 .44500006 .036000004 .32400004 .036000004 C .21800003 .036000004 .1 .09300001 .1 .25100003 C .1 .28000004 .107 .43800003 .22200004 .564 C .29100005 .64100006 .39600004 .68700006 .49100007 .68700006 C .60700008 .68700006 .6750001 .603 .6750001 .49100004 C .6750001 .46300004 .67200008 .45600004 .67200008 .45000003 C .67200008 .43700005 .68500009 .43700005 .69000008 .43700005 C .70600005 .43700005 .70600005 .44000004 .711 .45900003 L .77300009 .71000006 Z "/>
</symbol>
<use xlink:href="#font_1_3" transform="matrix(6.9738,0,0,-6.9738,88.66217,5.3564789)" fill="#0000ff"/>
<path transform="matrix(1,0,0,-1,85.039,93.543)" d="M 40.44444 26.16681 C 40.44444 26.82707 39.90918 27.36234 39.24892 27.36234 C 38.58865 27.36234 38.05339 26.82707 38.05339 26.16681 C 38.05339 25.50655 38.58865 24.97128 39.24892 24.97128 C 39.90918 24.97128 40.44444 25.50655 40.44444 26.16681 Z M 39.24892 26.16681 " fill="#444444"/>
<path transform="matrix(1,0,0,-1,85.039,93.543)" stroke-width=".3985" stroke-linecap="round" stroke-linejoin="round" fill="none" stroke="#000000" d="M 40.44444 26.16681 C 40.44444 26.82707 39.90918 27.36234 39.24892 27.36234 C 38.58865 27.36234 38.05339 26.82707 38.05339 26.16681 C 38.05339 25.50655 38.58865 24.97128 39.24892 24.97128 C 39.90918 24.97128 40.44444 25.50655 40.44444 26.16681 Z M 39.24892 26.16681 "/>
<symbol id="font_1_4">
<path d="M .11800001 .078 C .11000001 .044000005 .108 .036000004 .030000002 .036000004 C .012000002 .036000004 0 .036000004 0 .014 C 0 0 .012000002 0 .030000002 0 L .38700003 0 C .609 0 .8220001 .20400001 .8220001 .42200003 C .8220001 .568 .7210001 .683 .558 .683 L .194 .683 C .174 .683 .162 .683 .162 .661 C .162 .647 .17300001 .647 .195 .647 C .211 .647 .215 .647 .23300001 .64500007 C .253 .643 .255 .64100006 .255 .63100007 C .255 .629 .255 .624 .25100003 .609 L .11800001 .078 M .342 .61300006 C .35000003 .64400008 .351 .647 .393 .647 L .521 .647 C .6330001 .647 .72700008 .591 .72700008 .455 C .72700008 .432 .71700009 .259 .61700007 .14500001 C .57800009 .1 .492 .036000004 .36900003 .036000004 L .23300001 .036000004 C .20199999 .036000004 .201 .037 .201 .046000005 C .201 .047000003 .201 .052 .20500002 .067 L .342 .61300006 Z "/>
</symbol>
<use xlink:href="#font_1_4" transform="matrix(6.9738,0,0,-6.9738,126.957149,64.744998)" fill="#444444"/>
</g>
</svg>
