<?xml version="1.0" encoding="UTF-8" standalone="no"?>
<!DOCTYPE svg PUBLIC "-//W3C//DTD SVG 1.1//EN" "http://www.w3.org/Graphics/SVG/1.1/DTD/svg11.dtd">
<svg xmlns="http://www.w3.org/2000/svg" xmlns:xlink="http://www.w3.org/1999/xlink" version="1.1" width="66.674pt" height="78.87pt" viewBox="0 0 66.674 78.87">
<path transform="matrix(1,0,0,-1,11.135,77.41901)" d="M 0 0 L 0 5.66936 L 5.66936 5.66936 L 5.66936 0 Z " fill="#006400" fill-opacity=".1"/>
<path transform="matrix(1,0,0,-1,11.135,77.41901)" stroke-width=".79701" stroke-linecap="round" stroke-linejoin="round" fill="none" stroke="#006400" d="M 0 0 L 0 5.66936 L 5.66936 5.66936 L 5.66936 0 Z "/>
<path transform="matrix(1,0,0,-1,11.135,77.41901)" d="M 28.24933 25.6572 L 23.52321 22.50726 L 26.67314 17.78358 L 31.39923 20.93352 Z " fill="#006400" fill-opacity=".1"/>
<path transform="matrix(1,0,0,-1,11.135,77.41901)" stroke-width=".79701" stroke-linecap="round" stroke-linejoin="round" fill="none" stroke="#006400" d="M 28.24933 25.6572 L 23.52321 22.50726 L 26.67314 17.78358 L 31.39923 20.93352 Z "/>
<path transform="matrix(1,0,0,-1,11.135,77.41901)" d="M 26.67314 17.78358 L 29.8255 13.05782 L 34.54916 16.20776 L 31.39923 20.93352 Z " fill="#006400" fill-opacity=".1"/>
<path transform="matrix(1,0,0,-1,11.135,77.41901)" stroke-width=".79701" stroke-linecap="round" stroke-linejoin="round" fill="none" stroke="#006400" d="M 26.67314 17.78358 L 29.8255 13.05782 L 34.54916 16.20776 L 31.39923 20.93352 Z "/>
<path transform="matrix(1,0,0,-1,11.135,77.41901)" stroke-width=".79701" stroke-linecap="round" stroke-linejoin="round" fill="none" stroke="#000000" d="M 0 0 L 45.35506 0 "/>
<path transform="matrix(1,0,0,-1,11.135,77.41901)" stroke-width=".79701" stroke-linecap="round" stroke-linejoin="round" fill="none" stroke="#000000" d="M 0 68.0326 L 0 0 "/>
<path transform="matrix(1,0,0,-1,11.135,77.41901)" stroke-width=".79701" stroke-linecap="round" stroke-linejoin="round" fill="none" stroke="#000000" d="M 0 68.0326 L 45.35506 0 "/>
<path transform="matrix(1,0,0,-1,11.135,77.41901)" stroke-width=".79701" stroke-linecap="round" stroke-dasharray="2.98883,2.98883" stroke-linejoin="round" fill="none" stroke="#000000" d="M 0 0 L 31.39923 20.93352 "/>
<path transform="matrix(1,0,0,-1,11.135,77.41901)" d="M .9564 0 C .9564 .5282 .5282 .9564 0 .9564 C -.5282 .9564 -.9564 .5282 -.9564 0 C -.9564 -.5282 -.5282 -.9564 0 -.9564 C .5282 -.9564 .9564 -.5282 .9564 0 Z M 0 0 " fill="#0000ff"/>
<path transform="matrix(1,0,0,-1,11.135,77.41901)" stroke-width=".3985" stroke-linecap="round" stroke-linejoin="round" fill="none" stroke="#000000" d="M .9564 0 C .9564 .5282 .5282 .9564 0 .9564 C -.5282 .9564 -.9564 .5282 -.9564 0 C -.9564 -.5282 -.5282 -.9564 0 -.9564 C .5282 -.9564 .9564 -.5282 .9564 0 Z M 0 0 "/>
<symbol id="font_0_1">
<path d="M .14900002 .120000008 C .114 .066 .08200001 .040000004 .023000002 .036000004 C .012999997 .035 0 .035 0 .015000001 C 0 .004 .008999996 0 .013999999 0 C .04 0 .07300001 .004 .1 .004 C .132 .004 .17300001 0 .20300001 0 C .208 0 .22299999 0 .22299999 .022000002 C .22299999 .035 .21000001 .036000004 .206 .036000004 C .19800002 .037 .162 .039 .162 .066 C .162 .078 .17200002 .095000009 .17700002 .104 L .257 .22800002 L .54300007 .22800002 L .56700006 .062000004 C .563 .052 .55700007 .036000004 .498 .036000004 C .48600004 .036000004 .47200004 .036000004 .47200004 .014 C .47200004 .010000001 .475 0 .488 0 C .517 0 .58800008 .004 .61700007 .004 C .63500007 .004 .65800008 .003 .67600008 .003 C .69400009 .002 .71500006 0 .73300006 0 C .74600008 0 .7530001 .008 .7530001 .021000002 C .7530001 .036000004 .74100008 .036000004 .7250001 .036000004 C .66700008 .036000004 .6650001 .044000005 .66200008 .068 L .57400009 .68500009 C .57100006 .70600005 .56900009 .71300008 .5500001 .71300008 C .531 .71300008 .52500006 .70400008 .51600006 .69000008 L .14900002 .120000008 M .28100003 .264 L .49100004 .591 L .53800007 .264 L .28100003 .264 Z "/>
</symbol>
<use xlink:href="#font_0_1" transform="matrix(6.9738,0,0,-6.9738,2.867507,76.40001)" fill="#0000ff"/>
<path transform="matrix(1,0,0,-1,11.135,77.41901)" d="M 46.31146 0 C 46.31146 .5282 45.88326 .9564 45.35506 .9564 C 44.82684 .9564 44.39864 .5282 44.39864 0 C 44.39864 -.5282 44.82684 -.9564 45.35506 -.9564 C 45.88326 -.9564 46.31146 -.5282 46.31146 0 Z M 45.35506 0 " fill="#0000ff"/>
<path transform="matrix(1,0,0,-1,11.135,77.41901)" stroke-width=".3985" stroke-linecap="round" stroke-linejoin="round" fill="none" stroke="#000000" d="M 46.31146 0 C 46.31146 .5282 45.88326 .9564 45.35506 .9564 C 44.82684 .9564 44.39864 .5282 44.39864 0 C 44.39864 -.5282 44.82684 -.9564 45.35506 -.9564 C 45.88326 -.9564 46.31146 -.5282 46.31146 0 Z M 45.35506 0 "/>
<symbol id="font_0_2">
<path d="M .11800001 .078 C .109000008 .044000005 .107 .036000004 .030000002 .036000004 C .012999997 .036000004 0 .036000004 0 .015000001 C 0 0 .012000002 0 .030000002 0 L .41700004 0 C .585 0 .714 .115 .714 .21400002 C .714 .28500004 .649 .34600003 .543 .35700003 C .66400006 .379 .765 .455 .765 .541 C .765 .61700007 .688 .683 .558 .683 L .194 .683 C .17500001 .683 .162 .683 .162 .661 C .162 .647 .174 .647 .194 .647 C .19500003 .647 .21400002 .647 .23200003 .64500007 C .25300003 .643 .25500003 .64100006 .25500003 .63100007 C .25500003 .629 .25500003 .624 .25100003 .609 L .11800001 .078 M .27800004 .36900003 L .33900003 .61300006 C .34700004 .64400008 .34800003 .647 .39000003 .647 L .542 .647 C .644 .647 .667 .58000007 .667 .54200008 C .667 .46100004 .576 .36900003 .442 .36900003 L .27800004 .36900003 M .23000002 .036000004 C .19900003 .036000004 .19800002 .037 .19800002 .046000005 C .19800002 .047000003 .19800002 .052 .20200002 .067 L .27100004 .34100003 L .483 .34100003 C .577 .34100003 .61300006 .279 .61300006 .22100002 C .61300006 .12200001 .512 .036000004 .39100004 .036000004 L .23000002 .036000004 Z "/>
</symbol>
<use xlink:href="#font_0_2" transform="matrix(6.9738,0,0,-6.9738,58.347116,76.40001)" fill="#0000ff"/>
<path transform="matrix(1,0,0,-1,11.135,77.41901)" d="M .9564 68.0326 C .9564 68.56079 .5282 68.989 0 68.989 C -.5282 68.989 -.9564 68.56079 -.9564 68.0326 C -.9564 67.50438 -.5282 67.07617 0 67.07617 C .5282 67.07617 .9564 67.50438 .9564 68.0326 Z M 0 68.0326 " fill="#0000ff"/>
<path transform="matrix(1,0,0,-1,11.135,77.41901)" stroke-width=".3985" stroke-linecap="round" stroke-linejoin="round" fill="none" stroke="#000000" d="M .9564 68.0326 C .9564 68.56079 .5282 68.989 0 68.989 C -.5282 68.989 -.9564 68.56079 -.9564 68.0326 C -.9564 67.50438 -.5282 67.07617 0 67.07617 C .5282 67.07617 .9564 67.50438 .9564 68.0326 Z M 0 68.0326 "/>
<symbol id="font_0_3">
<path d="M .77300009 .71000006 C .77300009 .71500006 .77000007 .723 .76000007 .723 C .753 .723 .75100007 .721 .74200007 .711 L .669 .634 C .66 .646 .60400006 .723 .481 .723 C .23800004 .723 0 .508 0 .28200004 C 0 .11900001 .12800002 0 .307 0 C .36100004 0 .45700003 .011000001 .56000009 .098000008 C .63900008 .165 .661 .252 .661 .26000003 C .661 .27300004 .64900007 .27300004 .64400008 .27300004 C .63100007 .27300004 .62900009 .268 .62600007 .25700004 C .58500006 .120000008 .44500006 .036000004 .32400004 .036000004 C .21800003 .036000004 .1 .09300001 .1 .25100003 C .1 .28000004 .107 .43800003 .22200004 .564 C .29100005 .64100006 .39600004 .68700006 .49100007 .68700006 C .60700008 .68700006 .6750001 .603 .6750001 .49100004 C .6750001 .46300004 .67200008 .45600004 .67200008 .45000003 C .67200008 .43700005 .68500009 .43700005 .69000008 .43700005 C .70600005 .43700005 .70600005 .44000004 .711 .45900003 L .77300009 .71000006 Z "/>
</symbol>
<use xlink:href="#font_0_3" transform="matrix(6.9738,0,0,-6.9738,13.510166,7.374484)" fill="#0000ff"/>
<path transform="matrix(1,0,0,-1,11.135,77.41901)" d="M 32.35565 20.93352 C 32.35565 21.46172 31.92744 21.88992 31.39923 21.88992 C 30.87103 21.88992 30.44283 21.46172 30.44283 20.93352 C 30.44283 20.4053 30.87103 19.9771 31.39923 19.9771 C 31.92744 19.9771 32.35565 20.4053 32.35565 20.93352 Z M 31.39923 20.93352 " fill="#444444"/>
<path transform="matrix(1,0,0,-1,11.135,77.41901)" stroke-width=".3985" stroke-linecap="round" stroke-linejoin="round" fill="none" stroke="#000000" d="M 32.35565 20.93352 C 32.35565 21.46172 31.92744 21.88992 31.39923 21.88992 C 30.87103 21.88992 30.44283 21.46172 30.44283 20.93352 C 30.44283 20.4053 30.87103 19.9771 31.39923 19.9771 C 31.92744 19.9771 32.35565 20.4053 32.35565 20.93352 Z M 31.39923 20.93352 "/>
<symbol id="font_0_4">
<path d="M .11800001 .078 C .11000001 .044000005 .108 .036000004 .030000002 .036000004 C .012000002 .036000004 0 .036000004 0 .014 C 0 0 .012000002 0 .030000002 0 L .38700003 0 C .609 0 .8220001 .20400001 .8220001 .42200003 C .8220001 .568 .7210001 .683 .558 .683 L .194 .683 C .174 .683 .162 .683 .162 .661 C .162 .647 .17300001 .647 .195 .647 C .211 .647 .215 .647 .23300001 .64500007 C .253 .643 .255 .64100006 .255 .63100007 C .255 .629 .255 .624 .25100003 .609 L .11800001 .078 M .342 .61300006 C .35000003 .64400008 .351 .647 .393 .647 L .521 .647 C .6330001 .647 .72700008 .591 .72700008 .455 C .72700008 .432 .71700009 .259 .61700007 .14500001 C .57800009 .1 .492 .036000004 .36900003 .036000004 L .23300001 .036000004 C .20199999 .036000004 .201 .037 .201 .046000005 C .201 .047000003 .201 .052 .20500002 .067 L .342 .61300006 Z "/>
</symbol>
<use xlink:href="#font_0_4" transform="matrix(6.9738,0,0,-6.9738,44.096139,54.85701)" fill="#444444"/>
</svg>
