<?xml version="1.0" encoding="UTF-8" standalone="no"?>
<!DOCTYPE svg PUBLIC "-//W3C//DTD SVG 1.1//EN" "http://www.w3.org/Graphics/SVG/1.1/DTD/svg11.dtd">
<svg xmlns="http://www.w3.org/2000/svg" xmlns:xlink="http://www.w3.org/1999/xlink" version="1.1" width="280.63pt" height="133.228pt" viewBox="0 0 280.63 133.228">
<clipPath id="cp0">
<path transform="matrix(1,0,0,-1,70.866,96.378)" d="M -70.867 -36.85092 L -70.867 96.37897 L 209.7662 96.37897 L 209.7662 -36.85092 Z M 209.7662 96.37897 "/>
</clipPath>
<g clip-path="url(#cp0)">
<path transform="matrix(1,0,0,-1,70.866,96.378)" stroke-width=".79701" stroke-linecap="round" stroke-linejoin="round" fill="none" stroke="#000000" d="M -68.03217 -34.01608 L -56.57552 -28.28754 L -45.11888 -22.55943 L -33.66225 -16.8309 L -22.20561 -11.1028 L -10.749 -5.37427 L .70761 .3538 L 12.16425 6.08191 L 23.62088 11.81044 L 35.07753 17.53853 L 46.53415 23.26706 L 57.99078 28.99516 L 69.44742 34.7237 L 80.90405 40.4518 L 92.36069 46.18033 L 103.81732 51.90845 L 115.27396 57.63698 L 126.73059 63.36508 L 138.18723 69.09361 L 149.64386 74.8217 L 161.1005 80.55025 L 172.55712 86.27834 L 184.01375 92.00687 L 195.47039 97.73497 L 206.92704 103.4635 "/>
<path transform="matrix(1,0,0,-1,70.866,96.378)" stroke-width=".79701" stroke-linecap="round" stroke-linejoin="round" fill="none" stroke="#000000" d="M -68.03217 69.92192 L -56.57552 66.10303 L -45.11888 62.28415 L -33.66225 58.46529 L -22.20561 54.64641 L -10.749 50.82751 L .70761 47.00865 L 12.16425 43.18977 L 23.62088 39.3709 L 35.07753 35.552 L 46.53415 31.73314 L 57.99078 27.91426 L 69.44742 24.09537 L 80.90405 20.2765 L 92.36069 16.45763 L 103.81732 12.63875 L 115.27396 8.81985 L 126.73059 5.00099 L 138.18723 1.18211 L 149.64386 -2.6363 L 161.1005 -6.45518 L 172.55712 -10.27406 L 184.01375 -14.09294 L 195.47039 -17.91182 L 206.92704 -21.73068 "/>
<symbol id="font_1_1">
<path d="M .205 .64000007 C .205 .66400006 .205 .666 .18200003 .666 C .120000008 .60200008 .032000007 .60200008 0 .60200008 L 0 .57100006 C .020000004 .57100006 .07900001 .57100006 .13100001 .597 L .13100001 .079 C .13100001 .043 .128 .031000002 .038000004 .031000002 L .0060000049 .031000002 L .0060000049 0 C .04100001 .003 .128 .003 .168 .003 C .20800002 .003 .29500003 .003 .33000005 0 L .33000005 .031000002 L .29800005 .031000002 C .20800002 .031000002 .205 .042000005 .205 .079 L .205 .64000007 Z "/>
</symbol>
<use xlink:href="#font_1_1" transform="matrix(9.9626,0,0,-9.9626,109.288669,72.302)"/>
<symbol id="font_1_2">
<path d="M .07700001 .07700001 L .18300002 .18 C .33900003 .31800003 .39900003 .372 .39900003 .47200004 C .39900003 .586 .30900003 .666 .18700002 .666 C .074 .666 0 .574 0 .485 C 0 .42900003 .05 .42900003 .053000008 .42900003 C .07000001 .42900003 .105000007 .441 .105000007 .48200003 C .105000007 .508 .08700001 .53400006 .052000006 .53400006 C .044000005 .53400006 .042000008 .53400006 .039 .53300008 C .062000004 .59800007 .11600001 .63500007 .17400001 .63500007 C .26500003 .63500007 .308 .554 .308 .47200004 C .308 .39200003 .25800003 .31300003 .20300003 .25100003 L .011000004 .037 C 0 .026 0 .024 0 0 L .37100003 0 L .39900003 .17400001 L .374 .17400001 C .36900003 .14400001 .36200003 .1 .352 .085 C .345 .07700001 .279 .07700001 .257 .07700001 L .07700001 .07700001 Z "/>
</symbol>
<use xlink:href="#font_1_2" transform="matrix(9.9626,0,0,-9.9626,125.90813,60.962999)"/>
<symbol id="font_1_3">
<path d="M .24800003 .37400005 C .33 .40100003 .388 .47100006 .388 .55 C .388 .632 .3 .688 .204 .688 C .10300001 .688 .027000003 .628 .027000003 .55200007 C .027000003 .519 .049000004 .5 .078 .5 C .109000008 .5 .12900001 .522 .12900001 .55100008 C .12900001 .6010001 .082 .6010001 .067 .6010001 C .098 .65000006 .164 .66300007 .20000002 .66300007 C .24100003 .66300007 .29600004 .64100006 .29600004 .55100008 C .29600004 .53900006 .29400004 .48100005 .268 .43700005 C .238 .38900004 .204 .38600005 .17900002 .38500003 C .171 .38400004 .14700002 .38200004 .14000002 .38200004 C .132 .38100005 .125 .38000003 .125 .37000004 C .125 .35900004 .132 .35900004 .14900002 .35900004 L .19300002 .35900004 C .275 .35900004 .312 .29100005 .312 .193 C .312 .057000005 .24300003 .028 .199 .028 C .15600002 .028 .081 .045 .046000005 .104 C .081 .09900001 .11200001 .12100001 .11200001 .15900001 C .11200001 .19500001 .085 .215 .056 .215 C .031999999 .215 0 .201 0 .157 C 0 .06600001 .093 0 .20200002 0 C .32400004 0 .41500003 .091000009 .41500003 .193 C .41500003 .27500005 .35200004 .35300005 .24800003 .37400005 Z "/>
</symbol>
<use xlink:href="#font_1_3" transform="matrix(9.9626,0,0,-9.9626,144.25342,69.68617)"/>
<path transform="matrix(1,0,0,-1,70.866,96.378)" d="M 58.18803 28.3468 C 58.18803 29.17215 57.51895 29.84122 56.69362 29.84122 C 55.86827 29.84122 55.1992 29.17215 55.1992 28.3468 C 55.1992 27.52145 55.86827 26.85239 56.69362 26.85239 C 57.51895 26.85239 58.18803 27.52145 58.18803 28.3468 Z M 56.69362 28.3468 " fill="#0000ff"/>
<path transform="matrix(1,0,0,-1,70.866,96.378)" stroke-width=".3985" stroke-linecap="round" stroke-linejoin="round" fill="none" stroke="#000000" d="M 58.18803 28.3468 C 58.18803 29.17215 57.51895 29.84122 56.69362 29.84122 C 55.86827 29.84122 55.1992 29.17215 55.1992 28.3468 C 55.1992 27.52145 55.86827 26.85239 56.69362 26.85239 C 57.51895 26.85239 58.18803 27.52145 58.18803 28.3468 Z M 56.69362 28.3468 "/>
<symbol id="font_2_1">
<path d="M .263 .316 L .43300004 .316 C .575 .316 .714 .42000003 .714 .532 C .714 .609 .648 .683 .517 .683 L .193 .683 C .17400001 .683 .163 .683 .163 .66400006 C .163 .652 .172 .652 .192 .652 C .205 .652 .223 .651 .235 .65000006 C .25100003 .648 .25700004 .64500007 .25700004 .634 C .25700004 .63000008 .256 .62700006 .25300003 .615 L .119 .078 C .109 .039 .10699999 .031000002 .028 .031000002 C .011 .031000002 0 .031000002 0 .012 C 0 0 .011999998 0 .015000001 0 C .043 0 .11400001 .003 .142 .003 C .163 .003 .185 .002 .206 .002 C .228 .002 .25000004 0 .27100004 0 C .27800004 0 .29100005 0 .29100005 .020000002 C .29100005 .031000002 .28200004 .031000002 .263 .031000002 C .226 .031000002 .198 .031000002 .198 .049000004 C .198 .055000005 .2 .060000004 .201 .066 L .263 .316 M .33500005 .614 C .344 .64900007 .34600003 .652 .38900004 .652 L .48500005 .652 C .568 .652 .621 .625 .621 .55600008 C .621 .517 .601 .43100003 .56200006 .395 C .512 .35000003 .45200003 .342 .40800003 .342 L .26700003 .342 L .33500005 .614 Z "/>
</symbol>
<use xlink:href="#font_2_1" transform="matrix(9.9626,0,0,-9.9626,119.8155,81.355998)" fill="#0000ff"/>
<symbol id="font_2_2">
<path d="M .059000009 .07000001 C .056 .055000005 .050000006 .032 .050000006 .027000003 C .050000006 .009000001 .064 0 .079 0 C .091000009 0 .10900001 .008000001 .11600001 .028 C .11700001 .030000002 .12900001 .077 .135 .102000009 L .157 .19200002 C .163 .21400002 .16900002 .23600002 .17400001 .259 C .17800002 .27600003 .186 .305 .187 .30900003 C .202 .34000004 .255 .43100003 .35 .43100003 C .395 .43100003 .404 .39400003 .404 .36100004 C .404 .33600004 .397 .30800004 .389 .27800004 L .361 .16200002 L .341 .086 C .337 .06600001 .328 .032 .328 .027000003 C .328 .009000001 .342 0 .357 0 C .388 0 .394 .025000003 .402 .057000005 C .416 .113000009 .453 .259 .462 .298 C .465 .31100003 .51800009 .43100003 .62700006 .43100003 C .6700001 .43100003 .68100008 .397 .68100008 .36100004 C .68100008 .30400003 .63900008 .19000001 .619 .13700001 C .6100001 .113000009 .60600009 .102000009 .60600009 .082 C .60600009 .035 .64100006 0 .688 0 C .78200009 0 .81900009 .14600002 .81900009 .15400002 C .81900009 .16400002 .81000009 .16400002 .80700007 .16400002 C .79700008 .16400002 .79700008 .16100002 .79200008 .14600002 C .77700009 .093 .74500009 .022000002 .69000008 .022000002 C .67300006 .022000002 .66600009 .032 .66600009 .055000005 C .66600009 .080000009 .6750001 .104 .6840001 .126 C .70300009 .17800002 .74500009 .28900004 .74500009 .34600003 C .74500009 .411 .70500007 .45300005 .63000008 .45300005 C .55500009 .45300005 .50400009 .40900005 .467 .35600005 C .46600003 .36900003 .463 .40300004 .435 .42700003 C .41 .448 .378 .45300005 .35300002 .45300005 C .263 .45300005 .21400002 .38900004 .19700001 .36600004 C .19200002 .42300005 .15 .45300005 .105000007 .45300005 C .059000009 .45300005 .040000008 .41400004 .031000002 .39600004 C .013000002 .36100004 0 .30200003 0 .29900003 C 0 .28900004 .01 .28900004 .012 .28900004 C .022000002 .28900004 .023 .29000003 .029000001 .31200005 C .046000005 .38300003 .06600001 .43100003 .10200001 .43100003 C .118 .43100003 .133 .42300005 .133 .38500003 C .133 .36400003 .13000001 .35300002 .11700001 .30100004 L .059000009 .07000001 Z "/>
</symbol>
<use xlink:href="#font_2_2" transform="matrix(9.9626,0,0,-9.9626,10.088911,118.47459)"/>
<symbol id="font_2_3">
<path d="M .059000009 .07000001 C .056 .055000005 .050000006 .032 .050000006 .027000003 C .050000006 .009000001 .064 0 .079 0 C .091000009 0 .10900001 .008000001 .11600001 .028 C .11700001 .030000002 .12900001 .077 .135 .102000009 L .157 .19200002 C .163 .21400002 .16900002 .23600002 .17400001 .259 C .17800002 .27600003 .186 .305 .187 .30900003 C .202 .34000004 .255 .43100003 .35 .43100003 C .395 .43100003 .404 .39400003 .404 .36100004 C .404 .29900003 .355 .17100002 .33900003 .128 C .33 .105000007 .329 .093 .329 .082 C .329 .035 .364 0 .411 0 C .50500008 0 .54200008 .14600002 .54200008 .15400002 C .54200008 .16400002 .53300008 .16400002 .53000006 .16400002 C .52000007 .16400002 .52000007 .16100002 .51500007 .14600002 C .49500004 .078 .462 .022000002 .41300003 .022000002 C .396 .022000002 .389 .032 .389 .055000005 C .389 .080000009 .398 .104 .407 .126 C .426 .17900002 .468 .28900004 .468 .34600003 C .468 .41300003 .425 .45300005 .35300002 .45300005 C .263 .45300005 .21400002 .38900004 .19700001 .36600004 C .19200002 .42200003 .15100001 .45300005 .105000007 .45300005 C .059000009 .45300005 .040000008 .41400004 .030000003 .39600004 C .014 .36200003 0 .30300004 0 .29900003 C 0 .28900004 .01 .28900004 .012 .28900004 C .022000002 .28900004 .023 .29000003 .029000001 .31200005 C .046000005 .38300003 .06600001 .43100003 .10200001 .43100003 C .12200001 .43100003 .133 .418 .133 .38500003 C .133 .36400003 .13000001 .35300002 .11700001 .30100004 L .059000009 .07000001 Z "/>
</symbol>
<use xlink:href="#font_2_3" transform="matrix(9.9626,0,0,-9.9626,17.140913,27.765587)"/>
</g>
</svg>
