<?xml version="1.0" encoding="UTF-8" standalone="no"?>
<!DOCTYPE svg PUBLIC "-//W3C//DTD SVG 1.1//EN" "http://www.w3.org/Graphics/SVG/1.1/DTD/svg11.dtd">
<svg xmlns="http://www.w3.org/2000/svg" xmlns:xlink="http://www.w3.org/1999/xlink" version="1.1" width="314.646pt" height="158.378pt" viewBox="0 0 314.646 158.378">
<g enable-background="new">
<path transform="matrix(1,0,0,-1,-26.929,143.15001)" d="M 29.76422 0 C 29.76422 .78282 29.12962 1.4174 28.3468 1.4174 C 27.56398 1.4174 26.92938 .78282 26.92938 0 C 26.92938 -.78282 27.56398 -1.4174 28.3468 -1.4174 C 29.12962 -1.4174 29.76422 -.78282 29.76422 0 Z M 28.3468 0 " fill="#929292"/>
<path transform="matrix(1,0,0,-1,-26.929,143.15001)" d="M 29.76422 28.3468 C 29.76422 29.12962 29.12962 29.76422 28.3468 29.76422 C 27.56398 29.76422 26.92938 29.12962 26.92938 28.3468 C 26.92938 27.56398 27.56398 26.92938 28.3468 26.92938 C 29.12962 26.92938 29.76422 27.56398 29.76422 28.3468 Z M 28.3468 28.3468 " fill="#929292"/>
<path transform="matrix(1,0,0,-1,-26.929,143.15001)" d="M 29.76422 56.69362 C 29.76422 57.47644 29.12962 58.11102 28.3468 58.11102 C 27.56398 58.11102 26.92938 57.47644 26.92938 56.69362 C 26.92938 55.91078 27.56398 55.2762 28.3468 55.2762 C 29.12962 55.2762 29.76422 55.91078 29.76422 56.69362 Z M 28.3468 56.69362 " fill="#929292"/>
<path transform="matrix(1,0,0,-1,-26.929,143.15001)" d="M 29.76422 85.04042 C 29.76422 85.82324 29.12962 86.45784 28.3468 86.45784 C 27.56398 86.45784 26.92938 85.82324 26.92938 85.04042 C 26.92938 84.2576 27.56398 83.623 28.3468 83.623 C 29.12962 83.623 29.76422 84.2576 29.76422 85.04042 Z M 28.3468 85.04042 " fill="#929292"/>
<path transform="matrix(1,0,0,-1,-26.929,143.15001)" d="M 29.76422 113.38724 C 29.76422 114.17006 29.12962 114.80464 28.3468 114.80464 C 27.56398 114.80464 26.92938 114.17006 26.92938 113.38724 C 26.92938 112.6044 27.56398 111.96982 28.3468 111.96982 C 29.12962 111.96982 29.76422 112.6044 29.76422 113.38724 Z M 28.3468 113.38724 " fill="#929292"/>
<path transform="matrix(1,0,0,-1,-26.929,143.15001)" d="M 29.76422 141.73404 C 29.76422 142.51686 29.12962 143.15146 28.3468 143.15146 C 27.56398 143.15146 26.92938 142.51686 26.92938 141.73404 C 26.92938 140.95122 27.56398 140.31662 28.3468 140.31662 C 29.12962 140.31662 29.76422 140.95122 29.76422 141.73404 Z M 28.3468 141.73404 " fill="#929292"/>
<path transform="matrix(1,0,0,-1,-26.929,143.15001)" d="M 58.11102 0 C 58.11102 .78282 57.47644 1.4174 56.69362 1.4174 C 55.91078 1.4174 55.2762 .78282 55.2762 0 C 55.2762 -.78282 55.91078 -1.4174 56.69362 -1.4174 C 57.47644 -1.4174 58.11102 -.78282 58.11102 0 Z M 56.69362 0 " fill="#929292"/>
<path transform="matrix(1,0,0,-1,-26.929,143.15001)" d="M 58.11102 28.3468 C 58.11102 29.12962 57.47644 29.76422 56.69362 29.76422 C 55.91078 29.76422 55.2762 29.12962 55.2762 28.3468 C 55.2762 27.56398 55.91078 26.92938 56.69362 26.92938 C 57.47644 26.92938 58.11102 27.56398 58.11102 28.3468 Z M 56.69362 28.3468 " fill="#929292"/>
<path transform="matrix(1,0,0,-1,-26.929,143.15001)" d="M 58.11102 56.69362 C 58.11102 57.47644 57.47644 58.11102 56.69362 58.11102 C 55.91078 58.11102 55.2762 57.47644 55.2762 56.69362 C 55.2762 55.91078 55.91078 55.2762 56.69362 55.2762 C 57.47644 55.2762 58.11102 55.91078 58.11102 56.69362 Z M 56.69362 56.69362 " fill="#929292"/>
<path transform="matrix(1,0,0,-1,-26.929,143.15001)" d="M 58.11102 85.04042 C 58.11102 85.82324 57.47644 86.45784 56.69362 86.45784 C 55.91078 86.45784 55.2762 85.82324 55.2762 85.04042 C 55.2762 84.2576 55.91078 83.623 56.69362 83.623 C 57.47644 83.623 58.11102 84.2576 58.11102 85.04042 Z M 56.69362 85.04042 " fill="#929292"/>
<path transform="matrix(1,0,0,-1,-26.929,143.15001)" d="M 58.11102 113.38724 C 58.11102 114.17006 57.47644 114.80464 56.69362 114.80464 C 55.91078 114.80464 55.2762 114.17006 55.2762 113.38724 C 55.2762 112.6044 55.91078 111.96982 56.69362 111.96982 C 57.47644 111.96982 58.11102 112.6044 58.11102 113.38724 Z M 56.69362 113.38724 " fill="#929292"/>
<path transform="matrix(1,0,0,-1,-26.929,143.15001)" d="M 58.11102 141.73404 C 58.11102 142.51686 57.47644 143.15146 56.69362 143.15146 C 55.91078 143.15146 55.2762 142.51686 55.2762 141.73404 C 55.2762 140.95122 55.91078 140.31662 56.69362 140.31662 C 57.47644 140.31662 58.11102 140.95122 58.11102 141.73404 Z M 56.69362 141.73404 " fill="#929292"/>
<path transform="matrix(1,0,0,-1,-26.929,143.15001)" d="M 86.45784 0 C 86.45784 .78282 85.82324 1.4174 85.04042 1.4174 C 84.2576 1.4174 83.623 .78282 83.623 0 C 83.623 -.78282 84.2576 -1.4174 85.04042 -1.4174 C 85.82324 -1.4174 86.45784 -.78282 86.45784 0 Z M 85.04042 0 " fill="#929292"/>
<path transform="matrix(1,0,0,-1,-26.929,143.15001)" d="M 86.45784 28.3468 C 86.45784 29.12962 85.82324 29.76422 85.04042 29.76422 C 84.2576 29.76422 83.623 29.12962 83.623 28.3468 C 83.623 27.56398 84.2576 26.92938 85.04042 26.92938 C 85.82324 26.92938 86.45784 27.56398 86.45784 28.3468 Z M 85.04042 28.3468 " fill="#929292"/>
<path transform="matrix(1,0,0,-1,-26.929,143.15001)" d="M 86.45784 56.69362 C 86.45784 57.47644 85.82324 58.11102 85.04042 58.11102 C 84.2576 58.11102 83.623 57.47644 83.623 56.69362 C 83.623 55.91078 84.2576 55.2762 85.04042 55.2762 C 85.82324 55.2762 86.45784 55.91078 86.45784 56.69362 Z M 85.04042 56.69362 " fill="#929292"/>
<path transform="matrix(1,0,0,-1,-26.929,143.15001)" d="M 86.45784 85.04042 C 86.45784 85.82324 85.82324 86.45784 85.04042 86.45784 C 84.2576 86.45784 83.623 85.82324 83.623 85.04042 C 83.623 84.2576 84.2576 83.623 85.04042 83.623 C 85.82324 83.623 86.45784 84.2576 86.45784 85.04042 Z M 85.04042 85.04042 " fill="#929292"/>
<path transform="matrix(1,0,0,-1,-26.929,143.15001)" d="M 86.45784 113.38724 C 86.45784 114.17006 85.82324 114.80464 85.04042 114.80464 C 84.2576 114.80464 83.623 114.17006 83.623 113.38724 C 83.623 112.6044 84.2576 111.96982 85.04042 111.96982 C 85.82324 111.96982 86.45784 112.6044 86.45784 113.38724 Z M 85.04042 113.38724 " fill="#929292"/>
<path transform="matrix(1,0,0,-1,-26.929,143.15001)" d="M 86.45784 141.73404 C 86.45784 142.51686 85.82324 143.15146 85.04042 143.15146 C 84.2576 143.15146 83.623 142.51686 83.623 141.73404 C 83.623 140.95122 84.2576 140.31662 85.04042 140.31662 C 85.82324 140.31662 86.45784 140.95122 86.45784 141.73404 Z M 85.04042 141.73404 " fill="#929292"/>
<path transform="matrix(1,0,0,-1,-26.929,143.15001)" d="M 114.80464 0 C 114.80464 .78282 114.17006 1.4174 113.38724 1.4174 C 112.6044 1.4174 111.96982 .78282 111.96982 0 C 111.96982 -.78282 112.6044 -1.4174 113.38724 -1.4174 C 114.17006 -1.4174 114.80464 -.78282 114.80464 0 Z M 113.38724 0 " fill="#929292"/>
<path transform="matrix(1,0,0,-1,-26.929,143.15001)" d="M 114.80464 28.3468 C 114.80464 29.12962 114.17006 29.76422 113.38724 29.76422 C 112.6044 29.76422 111.96982 29.12962 111.96982 28.3468 C 111.96982 27.56398 112.6044 26.92938 113.38724 26.92938 C 114.17006 26.92938 114.80464 27.56398 114.80464 28.3468 Z M 113.38724 28.3468 " fill="#929292"/>
<path transform="matrix(1,0,0,-1,-26.929,143.15001)" d="M 114.80464 56.69362 C 114.80464 57.47644 114.17006 58.11102 113.38724 58.11102 C 112.6044 58.11102 111.96982 57.47644 111.96982 56.69362 C 111.96982 55.91078 112.6044 55.2762 113.38724 55.2762 C 114.17006 55.2762 114.80464 55.91078 114.80464 56.69362 Z M 113.38724 56.69362 " fill="#929292"/>
<path transform="matrix(1,0,0,-1,-26.929,143.15001)" d="M 114.80464 85.04042 C 114.80464 85.82324 114.17006 86.45784 113.38724 86.45784 C 112.6044 86.45784 111.96982 85.82324 111.96982 85.04042 C 111.96982 84.2576 112.6044 83.623 113.38724 83.623 C 114.17006 83.623 114.80464 84.2576 114.80464 85.04042 Z M 113.38724 85.04042 " fill="#929292"/>
<path transform="matrix(1,0,0,-1,-26.929,143.15001)" d="M 114.80464 113.38724 C 114.80464 114.17006 114.17006 114.80464 113.38724 114.80464 C 112.6044 114.80464 111.96982 114.17006 111.96982 113.38724 C 111.96982 112.6044 112.6044 111.96982 113.38724 111.96982 C 114.17006 111.96982 114.80464 112.6044 114.80464 113.38724 Z M 113.38724 113.38724 " fill="#929292"/>
<path transform="matrix(1,0,0,-1,-26.929,143.15001)" d="M 114.80464 141.73404 C 114.80464 142.51686 114.17006 143.15146 113.38724 143.15146 C 112.6044 143.15146 111.96982 142.51686 111.96982 141.73404 C 111.96982 140.95122 112.6044 140.31662 113.38724 140.31662 C 114.17006 140.31662 114.80464 140.95122 114.80464 141.73404 Z M 113.38724 141.73404 " fill="#929292"/>
<path transform="matrix(1,0,0,-1,-26.929,143.15001)" d="M 143.15146 0 C 143.15146 .78282 142.51686 1.4174 141.73404 1.4174 C 140.95122 1.4174 140.31662 .78282 140.31662 0 C 140.31662 -.78282 140.95122 -1.4174 141.73404 -1.4174 C 142.51686 -1.4174 143.15146 -.78282 143.15146 0 Z M 141.73404 0 " fill="#929292"/>
<path transform="matrix(1,0,0,-1,-26.929,143.15001)" d="M 143.15146 28.3468 C 143.15146 29.12962 142.51686 29.76422 141.73404 29.76422 C 140.95122 29.76422 140.31662 29.12962 140.31662 28.3468 C 140.31662 27.56398 140.95122 26.92938 141.73404 26.92938 C 142.51686 26.92938 143.15146 27.56398 143.15146 28.3468 Z M 141.73404 28.3468 " fill="#929292"/>
<path transform="matrix(1,0,0,-1,-26.929,143.15001)" d="M 143.15146 56.69362 C 143.15146 57.47644 142.51686 58.11102 141.73404 58.11102 C 140.95122 58.11102 140.31662 57.47644 140.31662 56.69362 C 140.31662 55.91078 140.95122 55.2762 141.73404 55.2762 C 142.51686 55.2762 143.15146 55.91078 143.15146 56.69362 Z M 141.73404 56.69362 " fill="#929292"/>
<path transform="matrix(1,0,0,-1,-26.929,143.15001)" d="M 143.15146 85.04042 C 143.15146 85.82324 142.51686 86.45784 141.73404 86.45784 C 140.95122 86.45784 140.31662 85.82324 140.31662 85.04042 C 140.31662 84.2576 140.95122 83.623 141.73404 83.623 C 142.51686 83.623 143.15146 84.2576 143.15146 85.04042 Z M 141.73404 85.04042 " fill="#929292"/>
<path transform="matrix(1,0,0,-1,-26.929,143.15001)" d="M 143.15146 113.38724 C 143.15146 114.17006 142.51686 114.80464 141.73404 114.80464 C 140.95122 114.80464 140.31662 114.17006 140.31662 113.38724 C 140.31662 112.6044 140.95122 111.96982 141.73404 111.96982 C 142.51686 111.96982 143.15146 112.6044 143.15146 113.38724 Z M 141.73404 113.38724 " fill="#929292"/>
<path transform="matrix(1,0,0,-1,-26.929,143.15001)" d="M 143.15146 141.73404 C 143.15146 142.51686 142.51686 143.15146 141.73404 143.15146 C 140.95122 143.15146 140.31662 142.51686 140.31662 141.73404 C 140.31662 140.95122 140.95122 140.31662 141.73404 140.31662 C 142.51686 140.31662 143.15146 140.95122 143.15146 141.73404 Z M 141.73404 141.73404 " fill="#929292"/>
<path transform="matrix(1,0,0,-1,-26.929,143.15001)" d="M 171.49828 0 C 171.49828 .78282 170.86368 1.4174 170.08086 1.4174 C 169.29802 1.4174 168.66344 .78282 168.66344 0 C 168.66344 -.78282 169.29802 -1.4174 170.08086 -1.4174 C 170.86368 -1.4174 171.49828 -.78282 171.49828 0 Z M 170.08086 0 " fill="#929292"/>
<path transform="matrix(1,0,0,-1,-26.929,143.15001)" d="M 171.49828 28.3468 C 171.49828 29.12962 170.86368 29.76422 170.08086 29.76422 C 169.29802 29.76422 168.66344 29.12962 168.66344 28.3468 C 168.66344 27.56398 169.29802 26.92938 170.08086 26.92938 C 170.86368 26.92938 171.49828 27.56398 171.49828 28.3468 Z M 170.08086 28.3468 " fill="#929292"/>
<path transform="matrix(1,0,0,-1,-26.929,143.15001)" d="M 171.49828 56.69362 C 171.49828 57.47644 170.86368 58.11102 170.08086 58.11102 C 169.29802 58.11102 168.66344 57.47644 168.66344 56.69362 C 168.66344 55.91078 169.29802 55.2762 170.08086 55.2762 C 170.86368 55.2762 171.49828 55.91078 171.49828 56.69362 Z M 170.08086 56.69362 " fill="#929292"/>
<path transform="matrix(1,0,0,-1,-26.929,143.15001)" d="M 171.49828 85.04042 C 171.49828 85.82324 170.86368 86.45784 170.08086 86.45784 C 169.29802 86.45784 168.66344 85.82324 168.66344 85.04042 C 168.66344 84.2576 169.29802 83.623 170.08086 83.623 C 170.86368 83.623 171.49828 84.2576 171.49828 85.04042 Z M 170.08086 85.04042 " fill="#929292"/>
<path transform="matrix(1,0,0,-1,-26.929,143.15001)" d="M 171.49828 113.38724 C 171.49828 114.17006 170.86368 114.80464 170.08086 114.80464 C 169.29802 114.80464 168.66344 114.17006 168.66344 113.38724 C 168.66344 112.6044 169.29802 111.96982 170.08086 111.96982 C 170.86368 111.96982 171.49828 112.6044 171.49828 113.38724 Z M 170.08086 113.38724 " fill="#929292"/>
<path transform="matrix(1,0,0,-1,-26.929,143.15001)" d="M 171.49828 141.73404 C 171.49828 142.51686 170.86368 143.15146 170.08086 143.15146 C 169.29802 143.15146 168.66344 142.51686 168.66344 141.73404 C 168.66344 140.95122 169.29802 140.31662 170.08086 140.31662 C 170.86368 140.31662 171.49828 140.95122 171.49828 141.73404 Z M 170.08086 141.73404 " fill="#929292"/>
<path transform="matrix(1,0,0,-1,-26.929,143.15001)" d="M 199.84508 0 C 199.84508 .78282 199.21048 1.4174 198.42766 1.4174 C 197.64484 1.4174 197.01024 .78282 197.01024 0 C 197.01024 -.78282 197.64484 -1.4174 198.42766 -1.4174 C 199.21048 -1.4174 199.84508 -.78282 199.84508 0 Z M 198.42766 0 " fill="#929292"/>
<path transform="matrix(1,0,0,-1,-26.929,143.15001)" d="M 199.84508 28.3468 C 199.84508 29.12962 199.21048 29.76422 198.42766 29.76422 C 197.64484 29.76422 197.01024 29.12962 197.01024 28.3468 C 197.01024 27.56398 197.64484 26.92938 198.42766 26.92938 C 199.21048 26.92938 199.84508 27.56398 199.84508 28.3468 Z M 198.42766 28.3468 " fill="#929292"/>
<path transform="matrix(1,0,0,-1,-26.929,143.15001)" d="M 199.84508 56.69362 C 199.84508 57.47644 199.21048 58.11102 198.42766 58.11102 C 197.64484 58.11102 197.01024 57.47644 197.01024 56.69362 C 197.01024 55.91078 197.64484 55.2762 198.42766 55.2762 C 199.21048 55.2762 199.84508 55.91078 199.84508 56.69362 Z M 198.42766 56.69362 " fill="#929292"/>
<path transform="matrix(1,0,0,-1,-26.929,143.15001)" d="M 199.84508 85.04042 C 199.84508 85.82324 199.21048 86.45784 198.42766 86.45784 C 197.64484 86.45784 197.01024 85.82324 197.01024 85.04042 C 197.01024 84.2576 197.64484 83.623 198.42766 83.623 C 199.21048 83.623 199.84508 84.2576 199.84508 85.04042 Z M 198.42766 85.04042 " fill="#929292"/>
<path transform="matrix(1,0,0,-1,-26.929,143.15001)" d="M 199.84508 113.38724 C 199.84508 114.17006 199.21048 114.80464 198.42766 114.80464 C 197.64484 114.80464 197.01024 114.17006 197.01024 113.38724 C 197.01024 112.6044 197.64484 111.96982 198.42766 111.96982 C 199.21048 111.96982 199.84508 112.6044 199.84508 113.38724 Z M 198.42766 113.38724 " fill="#929292"/>
<path transform="matrix(1,0,0,-1,-26.929,143.15001)" d="M 199.84508 141.73404 C 199.84508 142.51686 199.21048 143.15146 198.42766 143.15146 C 197.64484 143.15146 197.01024 142.51686 197.01024 141.73404 C 197.01024 140.95122 197.64484 140.31662 198.42766 140.31662 C 199.21048 140.31662 199.84508 140.95122 199.84508 141.73404 Z M 198.42766 141.73404 " fill="#929292"/>
<path transform="matrix(1,0,0,-1,-26.929,143.15001)" d="M 228.1919 0 C 228.1919 .78282 227.5573 1.4174 226.77448 1.4174 C 225.99164 1.4174 225.35706 .78282 225.35706 0 C 225.35706 -.78282 225.99164 -1.4174 226.77448 -1.4174 C 227.5573 -1.4174 228.1919 -.78282 228.1919 0 Z M 226.77448 0 " fill="#929292"/>
<path transform="matrix(1,0,0,-1,-26.929,143.15001)" d="M 228.1919 28.3468 C 228.1919 29.12962 227.5573 29.76422 226.77448 29.76422 C 225.99164 29.76422 225.35706 29.12962 225.35706 28.3468 C 225.35706 27.56398 225.99164 26.92938 226.77448 26.92938 C 227.5573 26.92938 228.1919 27.56398 228.1919 28.3468 Z M 226.77448 28.3468 " fill="#929292"/>
<path transform="matrix(1,0,0,-1,-26.929,143.15001)" d="M 228.1919 56.69362 C 228.1919 57.47644 227.5573 58.11102 226.77448 58.11102 C 225.99164 58.11102 225.35706 57.47644 225.35706 56.69362 C 225.35706 55.91078 225.99164 55.2762 226.77448 55.2762 C 227.5573 55.2762 228.1919 55.91078 228.1919 56.69362 Z M 226.77448 56.69362 " fill="#929292"/>
<path transform="matrix(1,0,0,-1,-26.929,143.15001)" d="M 228.1919 85.04042 C 228.1919 85.82324 227.5573 86.45784 226.77448 86.45784 C 225.99164 86.45784 225.35706 85.82324 225.35706 85.04042 C 225.35706 84.2576 225.99164 83.623 226.77448 83.623 C 227.5573 83.623 228.1919 84.2576 228.1919 85.04042 Z M 226.77448 85.04042 " fill="#929292"/>
<path transform="matrix(1,0,0,-1,-26.929,143.15001)" d="M 228.1919 113.38724 C 228.1919 114.17006 227.5573 114.80464 226.77448 114.80464 C 225.99164 114.80464 225.35706 114.17006 225.35706 113.38724 C 225.35706 112.6044 225.99164 111.96982 226.77448 111.96982 C 227.5573 111.96982 228.1919 112.6044 228.1919 113.38724 Z M 226.77448 113.38724 " fill="#929292"/>
<path transform="matrix(1,0,0,-1,-26.929,143.15001)" d="M 228.1919 141.73404 C 228.1919 142.51686 227.5573 143.15146 226.77448 143.15146 C 225.99164 143.15146 225.35706 142.51686 225.35706 141.73404 C 225.35706 140.95122 225.99164 140.31662 226.77448 140.31662 C 227.5573 140.31662 228.1919 140.95122 228.1919 141.73404 Z M 226.77448 141.73404 " fill="#929292"/>
<path transform="matrix(1,0,0,-1,-26.929,143.15001)" d="M 256.5387 0 C 256.5387 .78282 255.90412 1.4174 255.12128 1.4174 C 254.33846 1.4174 253.70386 .78282 253.70386 0 C 253.70386 -.78282 254.33846 -1.4174 255.12128 -1.4174 C 255.90412 -1.4174 256.5387 -.78282 256.5387 0 Z M 255.12128 0 " fill="#929292"/>
<path transform="matrix(1,0,0,-1,-26.929,143.15001)" d="M 256.5387 28.3468 C 256.5387 29.12962 255.90412 29.76422 255.12128 29.76422 C 254.33846 29.76422 253.70386 29.12962 253.70386 28.3468 C 253.70386 27.56398 254.33846 26.92938 255.12128 26.92938 C 255.90412 26.92938 256.5387 27.56398 256.5387 28.3468 Z M 255.12128 28.3468 " fill="#929292"/>
<path transform="matrix(1,0,0,-1,-26.929,143.15001)" d="M 256.5387 56.69362 C 256.5387 57.47644 255.90412 58.11102 255.12128 58.11102 C 254.33846 58.11102 253.70386 57.47644 253.70386 56.69362 C 253.70386 55.91078 254.33846 55.2762 255.12128 55.2762 C 255.90412 55.2762 256.5387 55.91078 256.5387 56.69362 Z M 255.12128 56.69362 " fill="#929292"/>
<path transform="matrix(1,0,0,-1,-26.929,143.15001)" d="M 256.5387 85.04042 C 256.5387 85.82324 255.90412 86.45784 255.12128 86.45784 C 254.33846 86.45784 253.70386 85.82324 253.70386 85.04042 C 253.70386 84.2576 254.33846 83.623 255.12128 83.623 C 255.90412 83.623 256.5387 84.2576 256.5387 85.04042 Z M 255.12128 85.04042 " fill="#929292"/>
<path transform="matrix(1,0,0,-1,-26.929,143.15001)" d="M 256.5387 113.38724 C 256.5387 114.17006 255.90412 114.80464 255.12128 114.80464 C 254.33846 114.80464 253.70386 114.17006 253.70386 113.38724 C 253.70386 112.6044 254.33846 111.96982 255.12128 111.96982 C 255.90412 111.96982 256.5387 112.6044 256.5387 113.38724 Z M 255.12128 113.38724 " fill="#929292"/>
<path transform="matrix(1,0,0,-1,-26.929,143.15001)" d="M 256.5387 141.73404 C 256.5387 142.51686 255.90412 143.15146 255.12128 143.15146 C 254.33846 143.15146 253.70386 142.51686 253.70386 141.73404 C 253.70386 140.95122 254.33846 140.31662 255.12128 140.31662 C 255.90412 140.31662 256.5387 140.95122 256.5387 141.73404 Z M 255.12128 141.73404 " fill="#929292"/>
<path transform="matrix(1,0,0,-1,-26.929,143.15001)" d="M 284.8855 0 C 284.8855 .78282 284.25093 1.4174 283.4681 1.4174 C 282.68528 1.4174 282.05067 .78282 282.05067 0 C 282.05067 -.78282 282.68528 -1.4174 283.4681 -1.4174 C 284.25093 -1.4174 284.8855 -.78282 284.8855 0 Z M 283.4681 0 " fill="#929292"/>
<path transform="matrix(1,0,0,-1,-26.929,143.15001)" d="M 284.8855 28.3468 C 284.8855 29.12962 284.25093 29.76422 283.4681 29.76422 C 282.68528 29.76422 282.05067 29.12962 282.05067 28.3468 C 282.05067 27.56398 282.68528 26.92938 283.4681 26.92938 C 284.25093 26.92938 284.8855 27.56398 284.8855 28.3468 Z M 283.4681 28.3468 " fill="#929292"/>
<path transform="matrix(1,0,0,-1,-26.929,143.15001)" d="M 284.8855 56.69362 C 284.8855 57.47644 284.25093 58.11102 283.4681 58.11102 C 282.68528 58.11102 282.05067 57.47644 282.05067 56.69362 C 282.05067 55.91078 282.68528 55.2762 283.4681 55.2762 C 284.25093 55.2762 284.8855 55.91078 284.8855 56.69362 Z M 283.4681 56.69362 " fill="#929292"/>
<path transform="matrix(1,0,0,-1,-26.929,143.15001)" d="M 284.8855 85.04042 C 284.8855 85.82324 284.25093 86.45784 283.4681 86.45784 C 282.68528 86.45784 282.05067 85.82324 282.05067 85.04042 C 282.05067 84.2576 282.68528 83.623 283.4681 83.623 C 284.25093 83.623 284.8855 84.2576 284.8855 85.04042 Z M 283.4681 85.04042 " fill="#929292"/>
<path transform="matrix(1,0,0,-1,-26.929,143.15001)" d="M 284.8855 113.38724 C 284.8855 114.17006 284.25093 114.80464 283.4681 114.80464 C 282.68528 114.80464 282.05067 114.17006 282.05067 113.38724 C 282.05067 112.6044 282.68528 111.96982 283.4681 111.96982 C 284.25093 111.96982 284.8855 112.6044 284.8855 113.38724 Z M 283.4681 113.38724 " fill="#929292"/>
<path transform="matrix(1,0,0,-1,-26.929,143.15001)" d="M 284.8855 141.73404 C 284.8855 142.51686 284.25093 143.15146 283.4681 143.15146 C 282.68528 143.15146 282.05067 142.51686 282.05067 141.73404 C 282.05067 140.95122 282.68528 140.31662 283.4681 140.31662 C 284.25093 140.31662 284.8855 140.95122 284.8855 141.73404 Z M 283.4681 141.73404 " fill="#929292"/>
<path transform="matrix(1,0,0,-1,-26.929,143.15001)" d="M 313.23234 0 C 313.23234 .78282 312.59773 1.4174 311.8149 1.4174 C 311.03208 1.4174 310.3975 .78282 310.3975 0 C 310.3975 -.78282 311.03208 -1.4174 311.8149 -1.4174 C 312.59773 -1.4174 313.23234 -.78282 313.23234 0 Z M 311.8149 0 " fill="#929292"/>
<path transform="matrix(1,0,0,-1,-26.929,143.15001)" d="M 313.23234 28.3468 C 313.23234 29.12962 312.59773 29.76422 311.8149 29.76422 C 311.03208 29.76422 310.3975 29.12962 310.3975 28.3468 C 310.3975 27.56398 311.03208 26.92938 311.8149 26.92938 C 312.59773 26.92938 313.23234 27.56398 313.23234 28.3468 Z M 311.8149 28.3468 " fill="#929292"/>
<path transform="matrix(1,0,0,-1,-26.929,143.15001)" d="M 313.23234 56.69362 C 313.23234 57.47644 312.59773 58.11102 311.8149 58.11102 C 311.03208 58.11102 310.3975 57.47644 310.3975 56.69362 C 310.3975 55.91078 311.03208 55.2762 311.8149 55.2762 C 312.59773 55.2762 313.23234 55.91078 313.23234 56.69362 Z M 311.8149 56.69362 " fill="#929292"/>
<path transform="matrix(1,0,0,-1,-26.929,143.15001)" d="M 313.23234 85.04042 C 313.23234 85.82324 312.59773 86.45784 311.8149 86.45784 C 311.03208 86.45784 310.3975 85.82324 310.3975 85.04042 C 310.3975 84.2576 311.03208 83.623 311.8149 83.623 C 312.59773 83.623 313.23234 84.2576 313.23234 85.04042 Z M 311.8149 85.04042 " fill="#929292"/>
<path transform="matrix(1,0,0,-1,-26.929,143.15001)" d="M 313.23234 113.38724 C 313.23234 114.17006 312.59773 114.80464 311.8149 114.80464 C 311.03208 114.80464 310.3975 114.17006 310.3975 113.38724 C 310.3975 112.6044 311.03208 111.96982 311.8149 111.96982 C 312.59773 111.96982 313.23234 112.6044 313.23234 113.38724 Z M 311.8149 113.38724 " fill="#929292"/>
<path transform="matrix(1,0,0,-1,-26.929,143.15001)" d="M 313.23234 141.73404 C 313.23234 142.51686 312.59773 143.15146 311.8149 143.15146 C 311.03208 143.15146 310.3975 142.51686 310.3975 141.73404 C 310.3975 140.95122 311.03208 140.31662 311.8149 140.31662 C 312.59773 140.31662 313.23234 140.95122 313.23234 141.73404 Z M 311.8149 141.73404 " fill="#929292"/>
<path transform="matrix(1,0,0,-1,-26.929,143.15001)" d="M 341.57914 0 C 341.57914 .78282 340.94453 1.4174 340.1617 1.4174 C 339.37889 1.4174 338.7443 .78282 338.7443 0 C 338.7443 -.78282 339.37889 -1.4174 340.1617 -1.4174 C 340.94453 -1.4174 341.57914 -.78282 341.57914 0 Z M 340.1617 0 " fill="#929292"/>
<path transform="matrix(1,0,0,-1,-26.929,143.15001)" d="M 341.57914 28.3468 C 341.57914 29.12962 340.94453 29.76422 340.1617 29.76422 C 339.37889 29.76422 338.7443 29.12962 338.7443 28.3468 C 338.7443 27.56398 339.37889 26.92938 340.1617 26.92938 C 340.94453 26.92938 341.57914 27.56398 341.57914 28.3468 Z M 340.1617 28.3468 " fill="#929292"/>
<path transform="matrix(1,0,0,-1,-26.929,143.15001)" d="M 341.57914 56.69362 C 341.57914 57.47644 340.94453 58.11102 340.1617 58.11102 C 339.37889 58.11102 338.7443 57.47644 338.7443 56.69362 C 338.7443 55.91078 339.37889 55.2762 340.1617 55.2762 C 340.94453 55.2762 341.57914 55.91078 341.57914 56.69362 Z M 340.1617 56.69362 " fill="#929292"/>
<path transform="matrix(1,0,0,-1,-26.929,143.15001)" d="M 341.57914 85.04042 C 341.57914 85.82324 340.94453 86.45784 340.1617 86.45784 C 339.37889 86.45784 338.7443 85.82324 338.7443 85.04042 C 338.7443 84.2576 339.37889 83.623 340.1617 83.623 C 340.94453 83.623 341.57914 84.2576 341.57914 85.04042 Z M 340.1617 85.04042 " fill="#929292"/>
<path transform="matrix(1,0,0,-1,-26.929,143.15001)" d="M 341.57914 113.38724 C 341.57914 114.17006 340.94453 114.80464 340.1617 114.80464 C 339.37889 114.80464 338.7443 114.17006 338.7443 113.38724 C 338.7443 112.6044 339.37889 111.96982 340.1617 111.96982 C 340.94453 111.96982 341.57914 112.6044 341.57914 113.38724 Z M 340.1617 113.38724 " fill="#929292"/>
<path transform="matrix(1,0,0,-1,-26.929,143.15001)" d="M 341.57914 141.73404 C 341.57914 142.51686 340.94453 143.15146 340.1617 143.15146 C 339.37889 143.15146 338.7443 142.51686 338.7443 141.73404 C 338.7443 140.95122 339.37889 140.31662 340.1617 140.31662 C 340.94453 140.31662 341.57914 140.95122 341.57914 141.73404 Z M 340.1617 141.73404 " fill="#929292"/>
<path transform="matrix(1,0,0,-1,-26.929,143.15001)" d="M 113.38724 0 L 198.42766 0 L 56.69362 113.38724 Z " fill="#800080" fill-opacity=".1"/>
<path transform="matrix(1,0,0,-1,-26.929,143.15001)" stroke-width=".79701" stroke-linecap="butt" stroke-miterlimit="10" stroke-linejoin="miter" fill="none" stroke="#800080" d="M 113.38724 0 L 198.42766 0 L 56.69362 113.38724 Z "/>
<path transform="matrix(1,0,0,-1,-26.929,143.15001)" d="M 113.38724 0 L 198.42766 0 L 85.04042 113.38724 Z " fill="#800080" fill-opacity=".1"/>
<path transform="matrix(1,0,0,-1,-26.929,143.15001)" stroke-width=".79701" stroke-linecap="butt" stroke-miterlimit="10" stroke-linejoin="miter" fill="none" stroke="#800080" d="M 113.38724 0 L 198.42766 0 L 85.04042 113.38724 Z "/>
<path transform="matrix(1,0,0,-1,-26.929,143.15001)" d="M 113.38724 0 L 198.42766 0 L 141.73404 113.38724 Z " fill="#800080" fill-opacity=".1"/>
<path transform="matrix(1,0,0,-1,-26.929,143.15001)" stroke-width=".79701" stroke-linecap="butt" stroke-miterlimit="10" stroke-linejoin="miter" fill="none" stroke="#800080" d="M 113.38724 0 L 198.42766 0 L 141.73404 113.38724 Z "/>
<path transform="matrix(1,0,0,-1,-26.929,143.15001)" d="M 113.38724 0 L 198.42766 0 L 170.08086 113.38724 Z " fill="#800080" fill-opacity=".1"/>
<path transform="matrix(1,0,0,-1,-26.929,143.15001)" stroke-width=".79701" stroke-linecap="butt" stroke-miterlimit="10" stroke-linejoin="miter" fill="none" stroke="#800080" d="M 113.38724 0 L 198.42766 0 L 170.08086 113.38724 Z "/>
<path transform="matrix(1,0,0,-1,-26.929,143.15001)" d="M 113.38724 0 L 198.42766 0 L 198.42766 113.38724 Z " fill="#800080" fill-opacity=".1"/>
<path transform="matrix(1,0,0,-1,-26.929,143.15001)" stroke-width=".79701" stroke-linecap="butt" stroke-miterlimit="10" stroke-linejoin="miter" fill="none" stroke="#800080" d="M 113.38724 0 L 198.42766 0 L 198.42766 113.38724 Z "/>
<path transform="matrix(1,0,0,-1,-26.929,143.15001)" d="M 113.38724 0 L 198.42766 0 L 255.12128 113.38724 Z " fill="#800080" fill-opacity=".1"/>
<path transform="matrix(1,0,0,-1,-26.929,143.15001)" stroke-width=".79701" stroke-linecap="butt" stroke-miterlimit="10" stroke-linejoin="miter" fill="none" stroke="#800080" d="M 113.38724 0 L 198.42766 0 L 255.12128 113.38724 Z "/>
<path transform="matrix(1,0,0,-1,-26.929,143.15001)" d="M 113.38724 0 L 198.42766 0 L 311.8149 113.38724 Z " fill="#800080" fill-opacity=".1"/>
<path transform="matrix(1,0,0,-1,-26.929,143.15001)" stroke-width=".79701" stroke-linecap="butt" stroke-miterlimit="10" stroke-linejoin="miter" fill="none" stroke="#800080" d="M 113.38724 0 L 198.42766 0 L 311.8149 113.38724 Z "/>
<symbol id="font_0_1">
<path d="M .88400009 .606 C .89300009 .642 .89500007 .652 .9700001 .652 C .9930001 .652 1.002 .652 1.002 .67200008 C 1.002 .683 .99200007 .683 .9750001 .683 L .84300008 .683 C .81700006 .683 .81600007 .683 .804 .66400006 L .43900005 .094000007 L .36100004 .66 C .358 .683 .35600005 .683 .33 .683 L .19300002 .683 C .174 .683 .16300002 .683 .16300002 .66400006 C .16300002 .652 .17200002 .652 .192 .652 C .20500002 .652 .22300002 .651 .23500002 .65000006 C .25100003 .648 .25700004 .64500007 .25700004 .634 C .25700004 .63000008 .256 .62700006 .25300003 .615 L .12600002 .106000009 C .116000007 .066 .099 .034 .018 .031000002 C .013 .031000002 0 .030000002 0 .012 C 0 .003 .0059999974 0 .013999999 0 C .046000005 0 .081 .003 .114 .003 C .148 .003 .18400002 0 .21700001 0 C .222 0 .23500002 0 .23500002 .020000002 C .23500002 .031000002 .224 .031000002 .21700001 .031000002 C .16 .032 .14900002 .052 .14900002 .075 C .14900002 .082 .15 .087000008 .153 .098000008 L .28900004 .643 L .29000003 .643 L .37600003 .023000002 C .37800003 .011000001 .37900005 0 .39100004 0 C .40200005 0 .40800003 .011000001 .41300003 .018000002 L .81700006 .651 L .818 .651 L .675 .078 C .665 .039 .66300007 .031000002 .58400008 .031000002 C .56700006 .031000002 .55600008 .031000002 .55600008 .012 C .55600008 0 .568 0 .57100006 0 C .59900006 0 .66700008 .003 .69500008 .003 C .73600009 .003 .77900007 0 .82000008 0 C .82600006 0 .83900007 0 .83900007 .020000002 C .83900007 .031000002 .83000007 .031000002 .81100007 .031000002 C .77400007 .031000002 .74600008 .031000002 .74600008 .049000004 C .74600008 .053000004 .74600008 .055000005 .75100007 .07300001 L .88400009 .606 Z "/>
</symbol>
<use xlink:href="#font_0_1" transform="matrix(9.9626,0,0,-9.9626,81.49943,155.057)"/>
<symbol id="font_0_2">
<path d="M .71700009 .578 C .72700008 .61800006 .74500009 .64900007 .82500007 .652 C .83000007 .652 .84200009 .65300008 .84200009 .67200008 C .84200009 .67300006 .84200009 .683 .82900008 .683 C .79600009 .683 .76100006 .68 .72800007 .68 C .69400009 .68 .65900006 .683 .62600007 .683 C .62000009 .683 .60800006 .683 .60800006 .66300007 C .60800006 .652 .61800006 .652 .62600007 .652 C .6830001 .651 .69400009 .63000008 .69400009 .60800006 C .69400009 .605 .69200006 .59000006 .69100007 .587 L .57900008 .142 L .358 .66400006 C .35000003 .68200007 .349 .683 .326 .683 L .192 .683 C .172 .683 .163 .683 .163 .66300007 C .163 .652 .172 .652 .191 .652 C .19600001 .652 .259 .652 .259 .643 L .125 .106000009 C .11500001 .066 .098000008 .034 .017 .031000002 C .011 .031000002 0 .030000002 0 .011000001 C 0 .004 .0050000029 0 .013 0 C .045000007 0 .08 .003 .113000009 .003 C .147 .003 .18300002 0 .21600002 0 C .22100002 0 .234 0 .234 .020000002 C .234 .030000002 .225 .031000002 .21400002 .031000002 C .156 .033 .148 .055000005 .148 .075 C .148 .082 .149 .087000008 .15200001 .098000008 L .284 .62600007 C .28800003 .62 .28800003 .61800006 .293 .60800006 L .54200008 .019000002 C .549 .002 .55200007 0 .56100007 0 C .572 0 .572 .003 .5770001 .021000002 L .71700009 .578 Z "/>
</symbol>
<use xlink:href="#font_0_2" transform="matrix(9.9626,0,0,-9.9626,167.33954,155.057)"/>
<symbol id="font_0_3">
<path d="M .40300004 .60700008 C .41000004 .63500007 .41400004 .64100006 .42600004 .64400008 C .43500004 .646 .46800003 .646 .48900003 .646 C .59000006 .646 .63500007 .642 .63500007 .564 C .63500007 .549 .63100007 .51000007 .62700006 .48400004 C .62600007 .48000003 .624 .46800003 .624 .46500004 C .624 .45900003 .62700006 .45200003 .63600006 .45200003 C .647 .45200003 .64900007 .46 .651 .47500003 L .67800006 .64900007 C .679 .65300008 .68000009 .66300007 .68000009 .666 C .68000009 .67700007 .67 .67700007 .65300008 .67700007 L .098000008 .67700007 C .074 .67700007 .073 .67600008 .066 .657 L .006000001 .48100005 C .005000001 .47900004 0 .46500004 0 .46300004 C 0 .45700003 .005000001 .45200003 .012000002 .45200003 C .022000004 .45200003 .023000002 .45700003 .029000003 .47300003 C .083000008 .628 .109 .646 .25700004 .646 L .29600004 .646 C .32400004 .646 .32400004 .642 .32400004 .634 C .32400004 .628 .32100005 .61600008 .32000003 .61300006 L .186 .079 C .177 .042000005 .17400001 .031000002 .067 .031000002 C .031000004 .031000002 .025000003 .031000002 .025000003 .012 C .025000003 0 .036000004 0 .042 0 C .069000009 0 .097 .002 .124 .002 C .15200001 .002 .18100001 .003 .209 .003 C .237 .003 .26500003 .002 .29200004 .002 C .32100005 .002 .35100005 0 .37900005 0 C .38900004 0 .40100003 0 .40100003 .020000002 C .40100003 .031000002 .39300005 .031000002 .36700005 .031000002 C .34200005 .031000002 .32900004 .031000002 .30300004 .033 C .27400003 .036000004 .26600004 .039 .26600004 .055000005 C .26600004 .056 .26600004 .061000006 .27 .076000008 L .40300004 .60700008 Z "/>
</symbol>
<use xlink:href="#font_0_3" transform="matrix(9.9626,0,0,-9.9626,26.400103,24.664017)"/>
<symbol id="font_0_4">
<path d="M .5680001 .6 C .57800009 .64100006 .5960001 .67100009 .676 .674 C .681 .674 .6930001 .6750001 .6930001 .69400009 C .6930001 .69500008 .6930001 .70500007 .68000009 .70500007 C .6470001 .70500007 .612 .702 .57800009 .702 C .544 .702 .50699999 .70500007 .474 .70500007 C .46800003 .70500007 .456 .70500007 .456 .68500009 C .456 .674 .46600006 .674 .474 .674 C .531 .67300006 .54200008 .65200009 .54200008 .63000008 C .54200008 .62700006 .5400001 .61200007 .53900006 .609 L .44900004 .252 C .41500003 .118 .3 .031000004 .20000002 .031000004 C .13200002 .031000004 .07800001 .075 .07800001 .16100002 C .07800001 .163 .07800001 .19500001 .089 .23900001 L .18600002 .628 C .19500003 .66400006 .197 .674 .27 .674 C .296 .674 .30400003 .674 .30400003 .69400009 C .30400003 .70500007 .293 .70500007 .29000003 .70500007 C .26200003 .70500007 .19 .702 .16200002 .702 C .133 .702 .062000008 .70500007 .033 .70500007 C .025000006 .70500007 .013999999 .70500007 .013999999 .68500009 C .013999999 .674 .023000002 .674 .042000005 .674 C .044000009 .674 .06300001 .674 .08 .67200008 C .098000008 .67 .10700001 .669 .10700001 .656 C .10700001 .65000006 .096 .60800006 .09 .58500006 L .068 .49700005 C .059 .45800004 .011 .26900003 .0069999995 .25000004 C 0 .222 0 .207 0 .192 C 0 .07 .091000009 0 .19600001 0 C .32200004 0 .446 .113000009 .479 .245 L .5680001 .6 Z "/>
</symbol>
<use xlink:href="#font_0_4" transform="matrix(9.9626,0,0,-9.9626,54.833498,24.883194)"/>
<symbol id="font_0_5">
<path d="M .572 .591 C .62100008 .669 .66300007 .67200008 .70000007 .674 C .712 .6750001 .71300008 .69200006 .71300008 .693 C .71300008 .70100006 .70800009 .70500007 .70000007 .70500007 C .674 .70500007 .64500007 .702 .61800006 .702 C .58500006 .702 .55100008 .70500007 .51900008 .70500007 C .513 .70500007 .50000008 .70500007 .50000008 .68600007 C .50000008 .6750001 .509 .674 .51600006 .674 C .54300007 .67200008 .56200006 .66200008 .56200006 .64100006 C .56200006 .62600007 .54700008 .60400006 .54700008 .60300007 L .24000001 .115 L .17200002 .64400008 C .17200002 .6610001 .19500003 .674 .24100003 .674 C .25500003 .674 .26600004 .674 .26600004 .69400009 C .26600004 .70300009 .25800003 .70500007 .25200004 .70500007 C .21200001 .70500007 .169 .702 .12800002 .702 C .11000001 .702 .091 .70300009 .07300001 .70300009 C .055000009 .70300009 .036000007 .70500007 .019000002 .70500007 C .012000002 .70500007 0 .70500007 0 .68600007 C 0 .674 .009000003 .674 .024999999 .674 C .08100001 .674 .08200001 .665 .085 .64000007 L .164 .023000002 C .167 .0030000006 .171 0 .18400002 0 C .20000002 0 .20400003 .005000001 .21200001 .018000002 L .572 .591 Z "/>
</symbol>
<use xlink:href="#font_0_5" transform="matrix(9.9626,0,0,-9.9626,111.3479,24.883194)"/>
<symbol id="font_0_6">
<path d="M .86200007 .58900007 C .887 .633 .911 .669 .97400006 .674 C .9830001 .6750001 .9930001 .6750001 .9930001 .69400009 C .9930001 .6980001 .989 .70500007 .981 .70500007 C .9570001 .70500007 .929 .702 .90400007 .702 C .87000009 .702 .83300009 .70500007 .8 .70500007 C .794 .70500007 .781 .70500007 .781 .68600007 C .781 .6750001 .79 .674 .796 .674 C .82000008 .67300006 .855 .665 .855 .63500007 C .855 .6240001 .85 .61600008 .842 .60200008 L .572 .13100001 L .535 .62700006 C .53400006 .647 .532 .67300006 .605 .674 C .62200006 .674 .632 .674 .632 .69400009 C .632 .70400008 .62100008 .70500007 .61700007 .70500007 C .577 .70500007 .535 .702 .495 .702 C .472 .702 .41300003 .70500007 .39000003 .70500007 C .384 .70500007 .37100003 .70500007 .37100003 .68500009 C .37100003 .674 .381 .674 .395 .674 C .439 .674 .44600005 .66800007 .448 .64900007 L .454 .572 L .201 .13100001 L .163 .6380001 C .163 .65000006 .163 .67300006 .239 .674 C .24900002 .674 .26000003 .674 .26000003 .69400009 C .26000003 .70500007 .248 .70500007 .24600002 .70500007 C .206 .70500007 .164 .702 .122999999 .702 C .088 .702 .052000006 .70500007 .018000003 .70500007 C .013 .70500007 0 .70500007 0 .68600007 C 0 .674 .009 .674 .025000003 .674 C .075 .674 .076000008 .665 .077999997 .637 L .122999999 .026000003 C .124 .008000001 .125 0 .139 0 C .15100001 0 .154 .006000001 .163 .021000002 L .45700003 .531 L .49400003 .026000003 C .496 .005000001 .49800004 0 .51 0 C .523 0 .52900007 .010000002 .53400006 .019000002 L .86200007 .58900007 Z "/>
</symbol>
<use xlink:href="#font_0_6" transform="matrix(9.9626,0,0,-9.9626,138.30095,24.883194)"/>
<symbol id="font_0_7">
<path d="M .458 .411 L .374 .61 C .37100003 .61800006 .36900003 .62200006 .36900003 .623 C .36900003 .629 .386 .648 .428 .652 C .43800003 .65300008 .448 .65400007 .448 .671 C .448 .683 .43600003 .683 .433 .683 C .39200003 .683 .349 .68 .307 .68 C .282 .68 .22000002 .683 .19500003 .683 C .18900001 .683 .17700002 .683 .17700002 .66300007 C .17700002 .652 .18700002 .652 .20000002 .652 C .26 .652 .266 .642 .275 .62 L .393 .34100003 L .18200001 .11400001 L .16900002 .10300001 C .12 .05 .073 .034 .022000002 .031000002 C .0090000019 .030000002 0 .030000002 0 .011000001 C 0 .010000001 0 0 .013000002 0 C .042999999 0 .076000008 .003 .107 .003 C .14400001 .003 .18300002 0 .21900001 0 C .22500001 0 .237 0 .237 .020000002 C .237 .030000002 .22700002 .031000002 .22500001 .031000002 C .21600002 .032 .18500002 .034 .18500002 .062000004 C .18500002 .078 .20000002 .094000007 .21200001 .10700001 L .314 .215 L .404 .31300003 L .505 .074 C .509 .063 .51 .062000004 .51 .060000004 C .51 .052 .491 .035 .45200003 .031000002 C .441 .030000002 .432 .029000001 .432 .012 C .432 0 .44300003 0 .44700004 0 C .47500003 0 .545 .003 .573 .003 C .598 .003 .65900006 0 .684 0 C .69100007 0 .703 0 .703 .019000002 C .703 .031000002 .693 .031000002 .685 .031000002 C .61800006 .032 .616 .035 .59900006 .075 C .56 .16800002 .49300004 .324 .47 .384 C .538 .45400004 .643 .573 .675 .601 C .704 .625 .74200007 .64900007 .80200007 .652 C .81500008 .65300008 .824 .65300008 .824 .67200008 C .824 .67300006 .824 .683 .81100007 .683 C .781 .683 .748 .68 .717 .68 C .68 .68 .642 .683 .606 .683 C .6 .683 .587 .683 .587 .66300007 C .587 .656 .592 .65300008 .59900006 .652 C .60800006 .651 .639 .64900007 .639 .62100008 C .639 .60700008 .628 .59400007 .62 .58500006 L .458 .411 Z "/>
</symbol>
<use xlink:href="#font_0_7" transform="matrix(9.9626,0,0,-9.9626,167.247,24.664017)"/>
<symbol id="font_0_8">
<path d="M .562 .569 L .576 .583 C .606 .61300006 .639 .647 .707 .652 C .718 .65300008 .727 .65300008 .727 .671 C .727 .679 .722 .683 .714 .683 C .688 .683 .659 .68 .632 .68 C .599 .68 .564 .683 .532 .683 C .526 .683 .513 .683 .513 .66400006 C .513 .65300008 .523 .652 .528 .652 C .535 .652 .564 .65000006 .564 .629 C .564 .61200007 .541 .586 .537 .58100005 L .305 .314 L .19500001 .611 C .18900001 .625 .18900001 .62700006 .18900001 .628 C .18900001 .652 .238 .652 .24800003 .652 C .26200003 .652 .272 .652 .272 .67200008 C .272 .683 .26000003 .683 .25700004 .683 C .229 .683 .15900001 .68 .13100001 .68 C .106000009 .68 .044000005 .683 .019000002 .683 C .013 .683 0 .683 0 .66300007 C 0 .652 .010000002 .652 .023000002 .652 C .083000008 .652 .08700001 .643 .096000019 .61800006 L .21900001 .289 C .22000003 .286 .22300002 .275 .22300002 .272 C .22300002 .26900003 .18300002 .108 .17800002 .09 C .165 .035 .16400002 .032 .08400001 .031000002 C .065 .031000002 .057000009 .031000002 .057000009 .011000001 C .057000009 0 .069000009 0 .07100001 0 C .09900001 0 .16900002 .003 .19700001 .003 C .22500003 .003 .29700003 0 .32500003 0 C .33200003 0 .344 0 .344 .020000002 C .344 .031000002 .335 .031000002 .316 .031000002 C .314 .031000002 .29500003 .031000002 .27800004 .033 C .25700004 .035 .25100003 .037 .25100003 .049000004 C .25100003 .056 .26000003 .091000009 .26500003 .112 L .3 .25300003 C .305 .272 .30600003 .275 .314 .284 L .562 .569 Z "/>
</symbol>
<use xlink:href="#font_0_8" transform="matrix(9.9626,0,0,-9.9626,224.5387,24.664017)"/>
<symbol id="font_0_9">
<path d="M .662 .65900006 C .663 .66300007 .665 .66800007 .665 .674 C .665 .683 .66 .683 .64 .683 L .21800003 .683 C .194 .683 .19300002 .68200007 .187 .66300007 L .13200002 .483 C .13000001 .47800002 .12900001 .47100003 .12900001 .469 C .12900001 .46800003 .12900001 .45800004 .14100002 .45800004 C .15 .45800004 .15200001 .46500004 .15400002 .46800003 C .192 .586 .24400002 .652 .40000005 .652 L .563 .652 L .0040000008 .027 C .0040000008 .026 0 .012 0 .009000001 C 0 0 .007000003 0 .025000003 0 L .46 0 C .48400007 0 .48500005 .001 .49100004 .020000002 L .562 .24100001 C .563 .245 .566 .252 .566 .256 C .566 .261 .562 .26700003 .553 .26700003 C .544 .26700003 .543 .263 .536 .24200002 C .492 .106000009 .44400005 .034 .27400003 .034 L .103000018 .034 L .662 .65900006 Z "/>
</symbol>
<use xlink:href="#font_0_9" transform="matrix(9.9626,0,0,-9.9626,281.70283,24.664017)"/>
</g>
</svg>
