<?xml version="1.0" encoding="UTF-8" standalone="no"?>
<!DOCTYPE svg PUBLIC "-//W3C//DTD SVG 1.1//EN" "http://www.w3.org/Graphics/SVG/1.1/DTD/svg11.dtd">
<svg xmlns="http://www.w3.org/2000/svg" xmlns:xlink="http://www.w3.org/1999/xlink" version="1.1" width="382.801pt" height="263.26pt" viewBox="0 0 382.801 263.26">
<g enable-background="new">
<path transform="matrix(1,0,0,-1,12.88,256.536)" d="M 1.4174 0 C 1.4174 .78282 .78282 1.4174 0 1.4174 C -.78282 1.4174 -1.4174 .78282 -1.4174 0 C -1.4174 -.78282 -.78282 -1.4174 0 -1.4174 C .78282 -1.4174 1.4174 -.78282 1.4174 0 Z M 0 0 " fill="#929292"/>
<path transform="matrix(1,0,0,-1,12.88,256.536)" d="M 1.4174 28.3468 C 1.4174 29.12962 .78282 29.76422 0 29.76422 C -.78282 29.76422 -1.4174 29.12962 -1.4174 28.3468 C -1.4174 27.56398 -.78282 26.92938 0 26.92938 C .78282 26.92938 1.4174 27.56398 1.4174 28.3468 Z M 0 28.3468 " fill="#929292"/>
<path transform="matrix(1,0,0,-1,12.88,256.536)" d="M 1.4174 56.69362 C 1.4174 57.47644 .78282 58.11102 0 58.11102 C -.78282 58.11102 -1.4174 57.47644 -1.4174 56.69362 C -1.4174 55.91078 -.78282 55.2762 0 55.2762 C .78282 55.2762 1.4174 55.91078 1.4174 56.69362 Z M 0 56.69362 " fill="#929292"/>
<path transform="matrix(1,0,0,-1,12.88,256.536)" d="M 1.4174 85.04042 C 1.4174 85.82324 .78282 86.45784 0 86.45784 C -.78282 86.45784 -1.4174 85.82324 -1.4174 85.04042 C -1.4174 84.2576 -.78282 83.623 0 83.623 C .78282 83.623 1.4174 84.2576 1.4174 85.04042 Z M 0 85.04042 " fill="#929292"/>
<path transform="matrix(1,0,0,-1,12.88,256.536)" d="M 1.4174 113.38724 C 1.4174 114.17006 .78282 114.80464 0 114.80464 C -.78282 114.80464 -1.4174 114.17006 -1.4174 113.38724 C -1.4174 112.6044 -.78282 111.96982 0 111.96982 C .78282 111.96982 1.4174 112.6044 1.4174 113.38724 Z M 0 113.38724 " fill="#929292"/>
<path transform="matrix(1,0,0,-1,12.88,256.536)" d="M 1.4174 141.73404 C 1.4174 142.51686 .78282 143.15146 0 143.15146 C -.78282 143.15146 -1.4174 142.51686 -1.4174 141.73404 C -1.4174 140.95122 -.78282 140.31662 0 140.31662 C .78282 140.31662 1.4174 140.95122 1.4174 141.73404 Z M 0 141.73404 " fill="#929292"/>
<path transform="matrix(1,0,0,-1,12.88,256.536)" d="M 1.4174 170.08086 C 1.4174 170.86368 .78282 171.49828 0 171.49828 C -.78282 171.49828 -1.4174 170.86368 -1.4174 170.08086 C -1.4174 169.29802 -.78282 168.66344 0 168.66344 C .78282 168.66344 1.4174 169.29802 1.4174 170.08086 Z M 0 170.08086 " fill="#929292"/>
<path transform="matrix(1,0,0,-1,12.88,256.536)" d="M 1.4174 198.42766 C 1.4174 199.21048 .78282 199.84508 0 199.84508 C -.78282 199.84508 -1.4174 199.21048 -1.4174 198.42766 C -1.4174 197.64484 -.78282 197.01024 0 197.01024 C .78282 197.01024 1.4174 197.64484 1.4174 198.42766 Z M 0 198.42766 " fill="#929292"/>
<path transform="matrix(1,0,0,-1,12.88,256.536)" d="M 1.4174 226.77448 C 1.4174 227.5573 .78282 228.1919 0 228.1919 C -.78282 228.1919 -1.4174 227.5573 -1.4174 226.77448 C -1.4174 225.99164 -.78282 225.35706 0 225.35706 C .78282 225.35706 1.4174 225.99164 1.4174 226.77448 Z M 0 226.77448 " fill="#929292"/>
<path transform="matrix(1,0,0,-1,12.88,256.536)" d="M 1.4174 255.12128 C 1.4174 255.90412 .78282 256.5387 0 256.5387 C -.78282 256.5387 -1.4174 255.90412 -1.4174 255.12128 C -1.4174 254.33846 -.78282 253.70386 0 253.70386 C .78282 253.70386 1.4174 254.33846 1.4174 255.12128 Z M 0 255.12128 " fill="#929292"/>
<path transform="matrix(1,0,0,-1,12.88,256.536)" d="M 29.76422 0 C 29.76422 .78282 29.12962 1.4174 28.3468 1.4174 C 27.56398 1.4174 26.92938 .78282 26.92938 0 C 26.92938 -.78282 27.56398 -1.4174 28.3468 -1.4174 C 29.12962 -1.4174 29.76422 -.78282 29.76422 0 Z M 28.3468 0 " fill="#929292"/>
<path transform="matrix(1,0,0,-1,12.88,256.536)" d="M 29.76422 28.3468 C 29.76422 29.12962 29.12962 29.76422 28.3468 29.76422 C 27.56398 29.76422 26.92938 29.12962 26.92938 28.3468 C 26.92938 27.56398 27.56398 26.92938 28.3468 26.92938 C 29.12962 26.92938 29.76422 27.56398 29.76422 28.3468 Z M 28.3468 28.3468 " fill="#929292"/>
<path transform="matrix(1,0,0,-1,12.88,256.536)" d="M 29.76422 56.69362 C 29.76422 57.47644 29.12962 58.11102 28.3468 58.11102 C 27.56398 58.11102 26.92938 57.47644 26.92938 56.69362 C 26.92938 55.91078 27.56398 55.2762 28.3468 55.2762 C 29.12962 55.2762 29.76422 55.91078 29.76422 56.69362 Z M 28.3468 56.69362 " fill="#929292"/>
<path transform="matrix(1,0,0,-1,12.88,256.536)" d="M 29.76422 85.04042 C 29.76422 85.82324 29.12962 86.45784 28.3468 86.45784 C 27.56398 86.45784 26.92938 85.82324 26.92938 85.04042 C 26.92938 84.2576 27.56398 83.623 28.3468 83.623 C 29.12962 83.623 29.76422 84.2576 29.76422 85.04042 Z M 28.3468 85.04042 " fill="#929292"/>
<path transform="matrix(1,0,0,-1,12.88,256.536)" d="M 29.76422 113.38724 C 29.76422 114.17006 29.12962 114.80464 28.3468 114.80464 C 27.56398 114.80464 26.92938 114.17006 26.92938 113.38724 C 26.92938 112.6044 27.56398 111.96982 28.3468 111.96982 C 29.12962 111.96982 29.76422 112.6044 29.76422 113.38724 Z M 28.3468 113.38724 " fill="#929292"/>
<path transform="matrix(1,0,0,-1,12.88,256.536)" d="M 29.76422 141.73404 C 29.76422 142.51686 29.12962 143.15146 28.3468 143.15146 C 27.56398 143.15146 26.92938 142.51686 26.92938 141.73404 C 26.92938 140.95122 27.56398 140.31662 28.3468 140.31662 C 29.12962 140.31662 29.76422 140.95122 29.76422 141.73404 Z M 28.3468 141.73404 " fill="#929292"/>
<path transform="matrix(1,0,0,-1,12.88,256.536)" d="M 29.76422 170.08086 C 29.76422 170.86368 29.12962 171.49828 28.3468 171.49828 C 27.56398 171.49828 26.92938 170.86368 26.92938 170.08086 C 26.92938 169.29802 27.56398 168.66344 28.3468 168.66344 C 29.12962 168.66344 29.76422 169.29802 29.76422 170.08086 Z M 28.3468 170.08086 " fill="#929292"/>
<path transform="matrix(1,0,0,-1,12.88,256.536)" d="M 29.76422 198.42766 C 29.76422 199.21048 29.12962 199.84508 28.3468 199.84508 C 27.56398 199.84508 26.92938 199.21048 26.92938 198.42766 C 26.92938 197.64484 27.56398 197.01024 28.3468 197.01024 C 29.12962 197.01024 29.76422 197.64484 29.76422 198.42766 Z M 28.3468 198.42766 " fill="#929292"/>
<path transform="matrix(1,0,0,-1,12.88,256.536)" d="M 29.76422 226.77448 C 29.76422 227.5573 29.12962 228.1919 28.3468 228.1919 C 27.56398 228.1919 26.92938 227.5573 26.92938 226.77448 C 26.92938 225.99164 27.56398 225.35706 28.3468 225.35706 C 29.12962 225.35706 29.76422 225.99164 29.76422 226.77448 Z M 28.3468 226.77448 " fill="#929292"/>
<path transform="matrix(1,0,0,-1,12.88,256.536)" d="M 29.76422 255.12128 C 29.76422 255.90412 29.12962 256.5387 28.3468 256.5387 C 27.56398 256.5387 26.92938 255.90412 26.92938 255.12128 C 26.92938 254.33846 27.56398 253.70386 28.3468 253.70386 C 29.12962 253.70386 29.76422 254.33846 29.76422 255.12128 Z M 28.3468 255.12128 " fill="#929292"/>
<path transform="matrix(1,0,0,-1,12.88,256.536)" d="M 58.11102 0 C 58.11102 .78282 57.47644 1.4174 56.69362 1.4174 C 55.91078 1.4174 55.2762 .78282 55.2762 0 C 55.2762 -.78282 55.91078 -1.4174 56.69362 -1.4174 C 57.47644 -1.4174 58.11102 -.78282 58.11102 0 Z M 56.69362 0 " fill="#929292"/>
<path transform="matrix(1,0,0,-1,12.88,256.536)" d="M 58.11102 28.3468 C 58.11102 29.12962 57.47644 29.76422 56.69362 29.76422 C 55.91078 29.76422 55.2762 29.12962 55.2762 28.3468 C 55.2762 27.56398 55.91078 26.92938 56.69362 26.92938 C 57.47644 26.92938 58.11102 27.56398 58.11102 28.3468 Z M 56.69362 28.3468 " fill="#929292"/>
<path transform="matrix(1,0,0,-1,12.88,256.536)" d="M 58.11102 56.69362 C 58.11102 57.47644 57.47644 58.11102 56.69362 58.11102 C 55.91078 58.11102 55.2762 57.47644 55.2762 56.69362 C 55.2762 55.91078 55.91078 55.2762 56.69362 55.2762 C 57.47644 55.2762 58.11102 55.91078 58.11102 56.69362 Z M 56.69362 56.69362 " fill="#929292"/>
<path transform="matrix(1,0,0,-1,12.88,256.536)" d="M 58.11102 85.04042 C 58.11102 85.82324 57.47644 86.45784 56.69362 86.45784 C 55.91078 86.45784 55.2762 85.82324 55.2762 85.04042 C 55.2762 84.2576 55.91078 83.623 56.69362 83.623 C 57.47644 83.623 58.11102 84.2576 58.11102 85.04042 Z M 56.69362 85.04042 " fill="#929292"/>
<path transform="matrix(1,0,0,-1,12.88,256.536)" d="M 58.11102 113.38724 C 58.11102 114.17006 57.47644 114.80464 56.69362 114.80464 C 55.91078 114.80464 55.2762 114.17006 55.2762 113.38724 C 55.2762 112.6044 55.91078 111.96982 56.69362 111.96982 C 57.47644 111.96982 58.11102 112.6044 58.11102 113.38724 Z M 56.69362 113.38724 " fill="#929292"/>
<path transform="matrix(1,0,0,-1,12.88,256.536)" d="M 58.11102 141.73404 C 58.11102 142.51686 57.47644 143.15146 56.69362 143.15146 C 55.91078 143.15146 55.2762 142.51686 55.2762 141.73404 C 55.2762 140.95122 55.91078 140.31662 56.69362 140.31662 C 57.47644 140.31662 58.11102 140.95122 58.11102 141.73404 Z M 56.69362 141.73404 " fill="#929292"/>
<path transform="matrix(1,0,0,-1,12.88,256.536)" d="M 58.11102 170.08086 C 58.11102 170.86368 57.47644 171.49828 56.69362 171.49828 C 55.91078 171.49828 55.2762 170.86368 55.2762 170.08086 C 55.2762 169.29802 55.91078 168.66344 56.69362 168.66344 C 57.47644 168.66344 58.11102 169.29802 58.11102 170.08086 Z M 56.69362 170.08086 " fill="#929292"/>
<path transform="matrix(1,0,0,-1,12.88,256.536)" d="M 58.11102 198.42766 C 58.11102 199.21048 57.47644 199.84508 56.69362 199.84508 C 55.91078 199.84508 55.2762 199.21048 55.2762 198.42766 C 55.2762 197.64484 55.91078 197.01024 56.69362 197.01024 C 57.47644 197.01024 58.11102 197.64484 58.11102 198.42766 Z M 56.69362 198.42766 " fill="#929292"/>
<path transform="matrix(1,0,0,-1,12.88,256.536)" d="M 58.11102 226.77448 C 58.11102 227.5573 57.47644 228.1919 56.69362 228.1919 C 55.91078 228.1919 55.2762 227.5573 55.2762 226.77448 C 55.2762 225.99164 55.91078 225.35706 56.69362 225.35706 C 57.47644 225.35706 58.11102 225.99164 58.11102 226.77448 Z M 56.69362 226.77448 " fill="#929292"/>
<path transform="matrix(1,0,0,-1,12.88,256.536)" d="M 58.11102 255.12128 C 58.11102 255.90412 57.47644 256.5387 56.69362 256.5387 C 55.91078 256.5387 55.2762 255.90412 55.2762 255.12128 C 55.2762 254.33846 55.91078 253.70386 56.69362 253.70386 C 57.47644 253.70386 58.11102 254.33846 58.11102 255.12128 Z M 56.69362 255.12128 " fill="#929292"/>
<path transform="matrix(1,0,0,-1,12.88,256.536)" d="M 86.45784 0 C 86.45784 .78282 85.82324 1.4174 85.04042 1.4174 C 84.2576 1.4174 83.623 .78282 83.623 0 C 83.623 -.78282 84.2576 -1.4174 85.04042 -1.4174 C 85.82324 -1.4174 86.45784 -.78282 86.45784 0 Z M 85.04042 0 " fill="#929292"/>
<path transform="matrix(1,0,0,-1,12.88,256.536)" d="M 86.45784 28.3468 C 86.45784 29.12962 85.82324 29.76422 85.04042 29.76422 C 84.2576 29.76422 83.623 29.12962 83.623 28.3468 C 83.623 27.56398 84.2576 26.92938 85.04042 26.92938 C 85.82324 26.92938 86.45784 27.56398 86.45784 28.3468 Z M 85.04042 28.3468 " fill="#929292"/>
<path transform="matrix(1,0,0,-1,12.88,256.536)" d="M 86.45784 56.69362 C 86.45784 57.47644 85.82324 58.11102 85.04042 58.11102 C 84.2576 58.11102 83.623 57.47644 83.623 56.69362 C 83.623 55.91078 84.2576 55.2762 85.04042 55.2762 C 85.82324 55.2762 86.45784 55.91078 86.45784 56.69362 Z M 85.04042 56.69362 " fill="#929292"/>
<path transform="matrix(1,0,0,-1,12.88,256.536)" d="M 86.45784 85.04042 C 86.45784 85.82324 85.82324 86.45784 85.04042 86.45784 C 84.2576 86.45784 83.623 85.82324 83.623 85.04042 C 83.623 84.2576 84.2576 83.623 85.04042 83.623 C 85.82324 83.623 86.45784 84.2576 86.45784 85.04042 Z M 85.04042 85.04042 " fill="#929292"/>
<path transform="matrix(1,0,0,-1,12.88,256.536)" d="M 86.45784 113.38724 C 86.45784 114.17006 85.82324 114.80464 85.04042 114.80464 C 84.2576 114.80464 83.623 114.17006 83.623 113.38724 C 83.623 112.6044 84.2576 111.96982 85.04042 111.96982 C 85.82324 111.96982 86.45784 112.6044 86.45784 113.38724 Z M 85.04042 113.38724 " fill="#929292"/>
<path transform="matrix(1,0,0,-1,12.88,256.536)" d="M 86.45784 141.73404 C 86.45784 142.51686 85.82324 143.15146 85.04042 143.15146 C 84.2576 143.15146 83.623 142.51686 83.623 141.73404 C 83.623 140.95122 84.2576 140.31662 85.04042 140.31662 C 85.82324 140.31662 86.45784 140.95122 86.45784 141.73404 Z M 85.04042 141.73404 " fill="#929292"/>
<path transform="matrix(1,0,0,-1,12.88,256.536)" d="M 86.45784 170.08086 C 86.45784 170.86368 85.82324 171.49828 85.04042 171.49828 C 84.2576 171.49828 83.623 170.86368 83.623 170.08086 C 83.623 169.29802 84.2576 168.66344 85.04042 168.66344 C 85.82324 168.66344 86.45784 169.29802 86.45784 170.08086 Z M 85.04042 170.08086 " fill="#929292"/>
<path transform="matrix(1,0,0,-1,12.88,256.536)" d="M 86.45784 198.42766 C 86.45784 199.21048 85.82324 199.84508 85.04042 199.84508 C 84.2576 199.84508 83.623 199.21048 83.623 198.42766 C 83.623 197.64484 84.2576 197.01024 85.04042 197.01024 C 85.82324 197.01024 86.45784 197.64484 86.45784 198.42766 Z M 85.04042 198.42766 " fill="#929292"/>
<path transform="matrix(1,0,0,-1,12.88,256.536)" d="M 86.45784 226.77448 C 86.45784 227.5573 85.82324 228.1919 85.04042 228.1919 C 84.2576 228.1919 83.623 227.5573 83.623 226.77448 C 83.623 225.99164 84.2576 225.35706 85.04042 225.35706 C 85.82324 225.35706 86.45784 225.99164 86.45784 226.77448 Z M 85.04042 226.77448 " fill="#929292"/>
<path transform="matrix(1,0,0,-1,12.88,256.536)" d="M 86.45784 255.12128 C 86.45784 255.90412 85.82324 256.5387 85.04042 256.5387 C 84.2576 256.5387 83.623 255.90412 83.623 255.12128 C 83.623 254.33846 84.2576 253.70386 85.04042 253.70386 C 85.82324 253.70386 86.45784 254.33846 86.45784 255.12128 Z M 85.04042 255.12128 " fill="#929292"/>
<path transform="matrix(1,0,0,-1,12.88,256.536)" d="M 114.80464 0 C 114.80464 .78282 114.17006 1.4174 113.38724 1.4174 C 112.6044 1.4174 111.96982 .78282 111.96982 0 C 111.96982 -.78282 112.6044 -1.4174 113.38724 -1.4174 C 114.17006 -1.4174 114.80464 -.78282 114.80464 0 Z M 113.38724 0 " fill="#929292"/>
<path transform="matrix(1,0,0,-1,12.88,256.536)" d="M 114.80464 28.3468 C 114.80464 29.12962 114.17006 29.76422 113.38724 29.76422 C 112.6044 29.76422 111.96982 29.12962 111.96982 28.3468 C 111.96982 27.56398 112.6044 26.92938 113.38724 26.92938 C 114.17006 26.92938 114.80464 27.56398 114.80464 28.3468 Z M 113.38724 28.3468 " fill="#929292"/>
<path transform="matrix(1,0,0,-1,12.88,256.536)" d="M 114.80464 56.69362 C 114.80464 57.47644 114.17006 58.11102 113.38724 58.11102 C 112.6044 58.11102 111.96982 57.47644 111.96982 56.69362 C 111.96982 55.91078 112.6044 55.2762 113.38724 55.2762 C 114.17006 55.2762 114.80464 55.91078 114.80464 56.69362 Z M 113.38724 56.69362 " fill="#929292"/>
<path transform="matrix(1,0,0,-1,12.88,256.536)" d="M 114.80464 85.04042 C 114.80464 85.82324 114.17006 86.45784 113.38724 86.45784 C 112.6044 86.45784 111.96982 85.82324 111.96982 85.04042 C 111.96982 84.2576 112.6044 83.623 113.38724 83.623 C 114.17006 83.623 114.80464 84.2576 114.80464 85.04042 Z M 113.38724 85.04042 " fill="#929292"/>
<path transform="matrix(1,0,0,-1,12.88,256.536)" d="M 114.80464 113.38724 C 114.80464 114.17006 114.17006 114.80464 113.38724 114.80464 C 112.6044 114.80464 111.96982 114.17006 111.96982 113.38724 C 111.96982 112.6044 112.6044 111.96982 113.38724 111.96982 C 114.17006 111.96982 114.80464 112.6044 114.80464 113.38724 Z M 113.38724 113.38724 " fill="#929292"/>
<path transform="matrix(1,0,0,-1,12.88,256.536)" d="M 114.80464 141.73404 C 114.80464 142.51686 114.17006 143.15146 113.38724 143.15146 C 112.6044 143.15146 111.96982 142.51686 111.96982 141.73404 C 111.96982 140.95122 112.6044 140.31662 113.38724 140.31662 C 114.17006 140.31662 114.80464 140.95122 114.80464 141.73404 Z M 113.38724 141.73404 " fill="#929292"/>
<path transform="matrix(1,0,0,-1,12.88,256.536)" d="M 114.80464 170.08086 C 114.80464 170.86368 114.17006 171.49828 113.38724 171.49828 C 112.6044 171.49828 111.96982 170.86368 111.96982 170.08086 C 111.96982 169.29802 112.6044 168.66344 113.38724 168.66344 C 114.17006 168.66344 114.80464 169.29802 114.80464 170.08086 Z M 113.38724 170.08086 " fill="#929292"/>
<path transform="matrix(1,0,0,-1,12.88,256.536)" d="M 114.80464 198.42766 C 114.80464 199.21048 114.17006 199.84508 113.38724 199.84508 C 112.6044 199.84508 111.96982 199.21048 111.96982 198.42766 C 111.96982 197.64484 112.6044 197.01024 113.38724 197.01024 C 114.17006 197.01024 114.80464 197.64484 114.80464 198.42766 Z M 113.38724 198.42766 " fill="#929292"/>
<path transform="matrix(1,0,0,-1,12.88,256.536)" d="M 114.80464 226.77448 C 114.80464 227.5573 114.17006 228.1919 113.38724 228.1919 C 112.6044 228.1919 111.96982 227.5573 111.96982 226.77448 C 111.96982 225.99164 112.6044 225.35706 113.38724 225.35706 C 114.17006 225.35706 114.80464 225.99164 114.80464 226.77448 Z M 113.38724 226.77448 " fill="#929292"/>
<path transform="matrix(1,0,0,-1,12.88,256.536)" d="M 114.80464 255.12128 C 114.80464 255.90412 114.17006 256.5387 113.38724 256.5387 C 112.6044 256.5387 111.96982 255.90412 111.96982 255.12128 C 111.96982 254.33846 112.6044 253.70386 113.38724 253.70386 C 114.17006 253.70386 114.80464 254.33846 114.80464 255.12128 Z M 113.38724 255.12128 " fill="#929292"/>
<path transform="matrix(1,0,0,-1,12.88,256.536)" d="M 143.15146 0 C 143.15146 .78282 142.51686 1.4174 141.73404 1.4174 C 140.95122 1.4174 140.31662 .78282 140.31662 0 C 140.31662 -.78282 140.95122 -1.4174 141.73404 -1.4174 C 142.51686 -1.4174 143.15146 -.78282 143.15146 0 Z M 141.73404 0 " fill="#929292"/>
<path transform="matrix(1,0,0,-1,12.88,256.536)" d="M 143.15146 28.3468 C 143.15146 29.12962 142.51686 29.76422 141.73404 29.76422 C 140.95122 29.76422 140.31662 29.12962 140.31662 28.3468 C 140.31662 27.56398 140.95122 26.92938 141.73404 26.92938 C 142.51686 26.92938 143.15146 27.56398 143.15146 28.3468 Z M 141.73404 28.3468 " fill="#929292"/>
<path transform="matrix(1,0,0,-1,12.88,256.536)" d="M 143.15146 56.69362 C 143.15146 57.47644 142.51686 58.11102 141.73404 58.11102 C 140.95122 58.11102 140.31662 57.47644 140.31662 56.69362 C 140.31662 55.91078 140.95122 55.2762 141.73404 55.2762 C 142.51686 55.2762 143.15146 55.91078 143.15146 56.69362 Z M 141.73404 56.69362 " fill="#929292"/>
<path transform="matrix(1,0,0,-1,12.88,256.536)" d="M 143.15146 85.04042 C 143.15146 85.82324 142.51686 86.45784 141.73404 86.45784 C 140.95122 86.45784 140.31662 85.82324 140.31662 85.04042 C 140.31662 84.2576 140.95122 83.623 141.73404 83.623 C 142.51686 83.623 143.15146 84.2576 143.15146 85.04042 Z M 141.73404 85.04042 " fill="#929292"/>
<path transform="matrix(1,0,0,-1,12.88,256.536)" d="M 143.15146 113.38724 C 143.15146 114.17006 142.51686 114.80464 141.73404 114.80464 C 140.95122 114.80464 140.31662 114.17006 140.31662 113.38724 C 140.31662 112.6044 140.95122 111.96982 141.73404 111.96982 C 142.51686 111.96982 143.15146 112.6044 143.15146 113.38724 Z M 141.73404 113.38724 " fill="#929292"/>
<path transform="matrix(1,0,0,-1,12.88,256.536)" d="M 143.15146 141.73404 C 143.15146 142.51686 142.51686 143.15146 141.73404 143.15146 C 140.95122 143.15146 140.31662 142.51686 140.31662 141.73404 C 140.31662 140.95122 140.95122 140.31662 141.73404 140.31662 C 142.51686 140.31662 143.15146 140.95122 143.15146 141.73404 Z M 141.73404 141.73404 " fill="#929292"/>
<path transform="matrix(1,0,0,-1,12.88,256.536)" d="M 143.15146 170.08086 C 143.15146 170.86368 142.51686 171.49828 141.73404 171.49828 C 140.95122 171.49828 140.31662 170.86368 140.31662 170.08086 C 140.31662 169.29802 140.95122 168.66344 141.73404 168.66344 C 142.51686 168.66344 143.15146 169.29802 143.15146 170.08086 Z M 141.73404 170.08086 " fill="#929292"/>
<path transform="matrix(1,0,0,-1,12.88,256.536)" d="M 143.15146 198.42766 C 143.15146 199.21048 142.51686 199.84508 141.73404 199.84508 C 140.95122 199.84508 140.31662 199.21048 140.31662 198.42766 C 140.31662 197.64484 140.95122 197.01024 141.73404 197.01024 C 142.51686 197.01024 143.15146 197.64484 143.15146 198.42766 Z M 141.73404 198.42766 " fill="#929292"/>
<path transform="matrix(1,0,0,-1,12.88,256.536)" d="M 143.15146 226.77448 C 143.15146 227.5573 142.51686 228.1919 141.73404 228.1919 C 140.95122 228.1919 140.31662 227.5573 140.31662 226.77448 C 140.31662 225.99164 140.95122 225.35706 141.73404 225.35706 C 142.51686 225.35706 143.15146 225.99164 143.15146 226.77448 Z M 141.73404 226.77448 " fill="#929292"/>
<path transform="matrix(1,0,0,-1,12.88,256.536)" d="M 143.15146 255.12128 C 143.15146 255.90412 142.51686 256.5387 141.73404 256.5387 C 140.95122 256.5387 140.31662 255.90412 140.31662 255.12128 C 140.31662 254.33846 140.95122 253.70386 141.73404 253.70386 C 142.51686 253.70386 143.15146 254.33846 143.15146 255.12128 Z M 141.73404 255.12128 " fill="#929292"/>
<path transform="matrix(1,0,0,-1,12.88,256.536)" d="M 171.49828 0 C 171.49828 .78282 170.86368 1.4174 170.08086 1.4174 C 169.29802 1.4174 168.66344 .78282 168.66344 0 C 168.66344 -.78282 169.29802 -1.4174 170.08086 -1.4174 C 170.86368 -1.4174 171.49828 -.78282 171.49828 0 Z M 170.08086 0 " fill="#929292"/>
<path transform="matrix(1,0,0,-1,12.88,256.536)" d="M 171.49828 28.3468 C 171.49828 29.12962 170.86368 29.76422 170.08086 29.76422 C 169.29802 29.76422 168.66344 29.12962 168.66344 28.3468 C 168.66344 27.56398 169.29802 26.92938 170.08086 26.92938 C 170.86368 26.92938 171.49828 27.56398 171.49828 28.3468 Z M 170.08086 28.3468 " fill="#929292"/>
<path transform="matrix(1,0,0,-1,12.88,256.536)" d="M 171.49828 56.69362 C 171.49828 57.47644 170.86368 58.11102 170.08086 58.11102 C 169.29802 58.11102 168.66344 57.47644 168.66344 56.69362 C 168.66344 55.91078 169.29802 55.2762 170.08086 55.2762 C 170.86368 55.2762 171.49828 55.91078 171.49828 56.69362 Z M 170.08086 56.69362 " fill="#929292"/>
<path transform="matrix(1,0,0,-1,12.88,256.536)" d="M 171.49828 85.04042 C 171.49828 85.82324 170.86368 86.45784 170.08086 86.45784 C 169.29802 86.45784 168.66344 85.82324 168.66344 85.04042 C 168.66344 84.2576 169.29802 83.623 170.08086 83.623 C 170.86368 83.623 171.49828 84.2576 171.49828 85.04042 Z M 170.08086 85.04042 " fill="#929292"/>
<path transform="matrix(1,0,0,-1,12.88,256.536)" d="M 171.49828 113.38724 C 171.49828 114.17006 170.86368 114.80464 170.08086 114.80464 C 169.29802 114.80464 168.66344 114.17006 168.66344 113.38724 C 168.66344 112.6044 169.29802 111.96982 170.08086 111.96982 C 170.86368 111.96982 171.49828 112.6044 171.49828 113.38724 Z M 170.08086 113.38724 " fill="#929292"/>
<path transform="matrix(1,0,0,-1,12.88,256.536)" d="M 171.49828 141.73404 C 171.49828 142.51686 170.86368 143.15146 170.08086 143.15146 C 169.29802 143.15146 168.66344 142.51686 168.66344 141.73404 C 168.66344 140.95122 169.29802 140.31662 170.08086 140.31662 C 170.86368 140.31662 171.49828 140.95122 171.49828 141.73404 Z M 170.08086 141.73404 " fill="#929292"/>
<path transform="matrix(1,0,0,-1,12.88,256.536)" d="M 171.49828 170.08086 C 171.49828 170.86368 170.86368 171.49828 170.08086 171.49828 C 169.29802 171.49828 168.66344 170.86368 168.66344 170.08086 C 168.66344 169.29802 169.29802 168.66344 170.08086 168.66344 C 170.86368 168.66344 171.49828 169.29802 171.49828 170.08086 Z M 170.08086 170.08086 " fill="#929292"/>
<path transform="matrix(1,0,0,-1,12.88,256.536)" d="M 171.49828 198.42766 C 171.49828 199.21048 170.86368 199.84508 170.08086 199.84508 C 169.29802 199.84508 168.66344 199.21048 168.66344 198.42766 C 168.66344 197.64484 169.29802 197.01024 170.08086 197.01024 C 170.86368 197.01024 171.49828 197.64484 171.49828 198.42766 Z M 170.08086 198.42766 " fill="#929292"/>
<path transform="matrix(1,0,0,-1,12.88,256.536)" d="M 171.49828 226.77448 C 171.49828 227.5573 170.86368 228.1919 170.08086 228.1919 C 169.29802 228.1919 168.66344 227.5573 168.66344 226.77448 C 168.66344 225.99164 169.29802 225.35706 170.08086 225.35706 C 170.86368 225.35706 171.49828 225.99164 171.49828 226.77448 Z M 170.08086 226.77448 " fill="#929292"/>
<path transform="matrix(1,0,0,-1,12.88,256.536)" d="M 171.49828 255.12128 C 171.49828 255.90412 170.86368 256.5387 170.08086 256.5387 C 169.29802 256.5387 168.66344 255.90412 168.66344 255.12128 C 168.66344 254.33846 169.29802 253.70386 170.08086 253.70386 C 170.86368 253.70386 171.49828 254.33846 171.49828 255.12128 Z M 170.08086 255.12128 " fill="#929292"/>
<path transform="matrix(1,0,0,-1,12.88,256.536)" d="M 199.84508 0 C 199.84508 .78282 199.21048 1.4174 198.42766 1.4174 C 197.64484 1.4174 197.01024 .78282 197.01024 0 C 197.01024 -.78282 197.64484 -1.4174 198.42766 -1.4174 C 199.21048 -1.4174 199.84508 -.78282 199.84508 0 Z M 198.42766 0 " fill="#929292"/>
<path transform="matrix(1,0,0,-1,12.88,256.536)" d="M 199.84508 28.3468 C 199.84508 29.12962 199.21048 29.76422 198.42766 29.76422 C 197.64484 29.76422 197.01024 29.12962 197.01024 28.3468 C 197.01024 27.56398 197.64484 26.92938 198.42766 26.92938 C 199.21048 26.92938 199.84508 27.56398 199.84508 28.3468 Z M 198.42766 28.3468 " fill="#929292"/>
<path transform="matrix(1,0,0,-1,12.88,256.536)" d="M 199.84508 56.69362 C 199.84508 57.47644 199.21048 58.11102 198.42766 58.11102 C 197.64484 58.11102 197.01024 57.47644 197.01024 56.69362 C 197.01024 55.91078 197.64484 55.2762 198.42766 55.2762 C 199.21048 55.2762 199.84508 55.91078 199.84508 56.69362 Z M 198.42766 56.69362 " fill="#929292"/>
<path transform="matrix(1,0,0,-1,12.88,256.536)" d="M 199.84508 85.04042 C 199.84508 85.82324 199.21048 86.45784 198.42766 86.45784 C 197.64484 86.45784 197.01024 85.82324 197.01024 85.04042 C 197.01024 84.2576 197.64484 83.623 198.42766 83.623 C 199.21048 83.623 199.84508 84.2576 199.84508 85.04042 Z M 198.42766 85.04042 " fill="#929292"/>
<path transform="matrix(1,0,0,-1,12.88,256.536)" d="M 199.84508 113.38724 C 199.84508 114.17006 199.21048 114.80464 198.42766 114.80464 C 197.64484 114.80464 197.01024 114.17006 197.01024 113.38724 C 197.01024 112.6044 197.64484 111.96982 198.42766 111.96982 C 199.21048 111.96982 199.84508 112.6044 199.84508 113.38724 Z M 198.42766 113.38724 " fill="#929292"/>
<path transform="matrix(1,0,0,-1,12.88,256.536)" d="M 199.84508 141.73404 C 199.84508 142.51686 199.21048 143.15146 198.42766 143.15146 C 197.64484 143.15146 197.01024 142.51686 197.01024 141.73404 C 197.01024 140.95122 197.64484 140.31662 198.42766 140.31662 C 199.21048 140.31662 199.84508 140.95122 199.84508 141.73404 Z M 198.42766 141.73404 " fill="#929292"/>
<path transform="matrix(1,0,0,-1,12.88,256.536)" d="M 199.84508 170.08086 C 199.84508 170.86368 199.21048 171.49828 198.42766 171.49828 C 197.64484 171.49828 197.01024 170.86368 197.01024 170.08086 C 197.01024 169.29802 197.64484 168.66344 198.42766 168.66344 C 199.21048 168.66344 199.84508 169.29802 199.84508 170.08086 Z M 198.42766 170.08086 " fill="#929292"/>
<path transform="matrix(1,0,0,-1,12.88,256.536)" d="M 199.84508 198.42766 C 199.84508 199.21048 199.21048 199.84508 198.42766 199.84508 C 197.64484 199.84508 197.01024 199.21048 197.01024 198.42766 C 197.01024 197.64484 197.64484 197.01024 198.42766 197.01024 C 199.21048 197.01024 199.84508 197.64484 199.84508 198.42766 Z M 198.42766 198.42766 " fill="#929292"/>
<path transform="matrix(1,0,0,-1,12.88,256.536)" d="M 199.84508 226.77448 C 199.84508 227.5573 199.21048 228.1919 198.42766 228.1919 C 197.64484 228.1919 197.01024 227.5573 197.01024 226.77448 C 197.01024 225.99164 197.64484 225.35706 198.42766 225.35706 C 199.21048 225.35706 199.84508 225.99164 199.84508 226.77448 Z M 198.42766 226.77448 " fill="#929292"/>
<path transform="matrix(1,0,0,-1,12.88,256.536)" d="M 199.84508 255.12128 C 199.84508 255.90412 199.21048 256.5387 198.42766 256.5387 C 197.64484 256.5387 197.01024 255.90412 197.01024 255.12128 C 197.01024 254.33846 197.64484 253.70386 198.42766 253.70386 C 199.21048 253.70386 199.84508 254.33846 199.84508 255.12128 Z M 198.42766 255.12128 " fill="#929292"/>
<path transform="matrix(1,0,0,-1,12.88,256.536)" d="M 228.1919 0 C 228.1919 .78282 227.5573 1.4174 226.77448 1.4174 C 225.99164 1.4174 225.35706 .78282 225.35706 0 C 225.35706 -.78282 225.99164 -1.4174 226.77448 -1.4174 C 227.5573 -1.4174 228.1919 -.78282 228.1919 0 Z M 226.77448 0 " fill="#929292"/>
<path transform="matrix(1,0,0,-1,12.88,256.536)" d="M 228.1919 28.3468 C 228.1919 29.12962 227.5573 29.76422 226.77448 29.76422 C 225.99164 29.76422 225.35706 29.12962 225.35706 28.3468 C 225.35706 27.56398 225.99164 26.92938 226.77448 26.92938 C 227.5573 26.92938 228.1919 27.56398 228.1919 28.3468 Z M 226.77448 28.3468 " fill="#929292"/>
<path transform="matrix(1,0,0,-1,12.88,256.536)" d="M 228.1919 56.69362 C 228.1919 57.47644 227.5573 58.11102 226.77448 58.11102 C 225.99164 58.11102 225.35706 57.47644 225.35706 56.69362 C 225.35706 55.91078 225.99164 55.2762 226.77448 55.2762 C 227.5573 55.2762 228.1919 55.91078 228.1919 56.69362 Z M 226.77448 56.69362 " fill="#929292"/>
<path transform="matrix(1,0,0,-1,12.88,256.536)" d="M 228.1919 85.04042 C 228.1919 85.82324 227.5573 86.45784 226.77448 86.45784 C 225.99164 86.45784 225.35706 85.82324 225.35706 85.04042 C 225.35706 84.2576 225.99164 83.623 226.77448 83.623 C 227.5573 83.623 228.1919 84.2576 228.1919 85.04042 Z M 226.77448 85.04042 " fill="#929292"/>
<path transform="matrix(1,0,0,-1,12.88,256.536)" d="M 228.1919 113.38724 C 228.1919 114.17006 227.5573 114.80464 226.77448 114.80464 C 225.99164 114.80464 225.35706 114.17006 225.35706 113.38724 C 225.35706 112.6044 225.99164 111.96982 226.77448 111.96982 C 227.5573 111.96982 228.1919 112.6044 228.1919 113.38724 Z M 226.77448 113.38724 " fill="#929292"/>
<path transform="matrix(1,0,0,-1,12.88,256.536)" d="M 228.1919 141.73404 C 228.1919 142.51686 227.5573 143.15146 226.77448 143.15146 C 225.99164 143.15146 225.35706 142.51686 225.35706 141.73404 C 225.35706 140.95122 225.99164 140.31662 226.77448 140.31662 C 227.5573 140.31662 228.1919 140.95122 228.1919 141.73404 Z M 226.77448 141.73404 " fill="#929292"/>
<path transform="matrix(1,0,0,-1,12.88,256.536)" d="M 228.1919 170.08086 C 228.1919 170.86368 227.5573 171.49828 226.77448 171.49828 C 225.99164 171.49828 225.35706 170.86368 225.35706 170.08086 C 225.35706 169.29802 225.99164 168.66344 226.77448 168.66344 C 227.5573 168.66344 228.1919 169.29802 228.1919 170.08086 Z M 226.77448 170.08086 " fill="#929292"/>
<path transform="matrix(1,0,0,-1,12.88,256.536)" d="M 228.1919 198.42766 C 228.1919 199.21048 227.5573 199.84508 226.77448 199.84508 C 225.99164 199.84508 225.35706 199.21048 225.35706 198.42766 C 225.35706 197.64484 225.99164 197.01024 226.77448 197.01024 C 227.5573 197.01024 228.1919 197.64484 228.1919 198.42766 Z M 226.77448 198.42766 " fill="#929292"/>
<path transform="matrix(1,0,0,-1,12.88,256.536)" d="M 228.1919 226.77448 C 228.1919 227.5573 227.5573 228.1919 226.77448 228.1919 C 225.99164 228.1919 225.35706 227.5573 225.35706 226.77448 C 225.35706 225.99164 225.99164 225.35706 226.77448 225.35706 C 227.5573 225.35706 228.1919 225.99164 228.1919 226.77448 Z M 226.77448 226.77448 " fill="#929292"/>
<path transform="matrix(1,0,0,-1,12.88,256.536)" d="M 228.1919 255.12128 C 228.1919 255.90412 227.5573 256.5387 226.77448 256.5387 C 225.99164 256.5387 225.35706 255.90412 225.35706 255.12128 C 225.35706 254.33846 225.99164 253.70386 226.77448 253.70386 C 227.5573 253.70386 228.1919 254.33846 228.1919 255.12128 Z M 226.77448 255.12128 " fill="#929292"/>
<path transform="matrix(1,0,0,-1,12.88,256.536)" d="M 256.5387 0 C 256.5387 .78282 255.90412 1.4174 255.12128 1.4174 C 254.33846 1.4174 253.70386 .78282 253.70386 0 C 253.70386 -.78282 254.33846 -1.4174 255.12128 -1.4174 C 255.90412 -1.4174 256.5387 -.78282 256.5387 0 Z M 255.12128 0 " fill="#929292"/>
<path transform="matrix(1,0,0,-1,12.88,256.536)" d="M 256.5387 28.3468 C 256.5387 29.12962 255.90412 29.76422 255.12128 29.76422 C 254.33846 29.76422 253.70386 29.12962 253.70386 28.3468 C 253.70386 27.56398 254.33846 26.92938 255.12128 26.92938 C 255.90412 26.92938 256.5387 27.56398 256.5387 28.3468 Z M 255.12128 28.3468 " fill="#929292"/>
<path transform="matrix(1,0,0,-1,12.88,256.536)" d="M 256.5387 56.69362 C 256.5387 57.47644 255.90412 58.11102 255.12128 58.11102 C 254.33846 58.11102 253.70386 57.47644 253.70386 56.69362 C 253.70386 55.91078 254.33846 55.2762 255.12128 55.2762 C 255.90412 55.2762 256.5387 55.91078 256.5387 56.69362 Z M 255.12128 56.69362 " fill="#929292"/>
<path transform="matrix(1,0,0,-1,12.88,256.536)" d="M 256.5387 85.04042 C 256.5387 85.82324 255.90412 86.45784 255.12128 86.45784 C 254.33846 86.45784 253.70386 85.82324 253.70386 85.04042 C 253.70386 84.2576 254.33846 83.623 255.12128 83.623 C 255.90412 83.623 256.5387 84.2576 256.5387 85.04042 Z M 255.12128 85.04042 " fill="#929292"/>
<path transform="matrix(1,0,0,-1,12.88,256.536)" d="M 256.5387 113.38724 C 256.5387 114.17006 255.90412 114.80464 255.12128 114.80464 C 254.33846 114.80464 253.70386 114.17006 253.70386 113.38724 C 253.70386 112.6044 254.33846 111.96982 255.12128 111.96982 C 255.90412 111.96982 256.5387 112.6044 256.5387 113.38724 Z M 255.12128 113.38724 " fill="#929292"/>
<path transform="matrix(1,0,0,-1,12.88,256.536)" d="M 256.5387 141.73404 C 256.5387 142.51686 255.90412 143.15146 255.12128 143.15146 C 254.33846 143.15146 253.70386 142.51686 253.70386 141.73404 C 253.70386 140.95122 254.33846 140.31662 255.12128 140.31662 C 255.90412 140.31662 256.5387 140.95122 256.5387 141.73404 Z M 255.12128 141.73404 " fill="#929292"/>
<path transform="matrix(1,0,0,-1,12.88,256.536)" d="M 256.5387 170.08086 C 256.5387 170.86368 255.90412 171.49828 255.12128 171.49828 C 254.33846 171.49828 253.70386 170.86368 253.70386 170.08086 C 253.70386 169.29802 254.33846 168.66344 255.12128 168.66344 C 255.90412 168.66344 256.5387 169.29802 256.5387 170.08086 Z M 255.12128 170.08086 " fill="#929292"/>
<path transform="matrix(1,0,0,-1,12.88,256.536)" d="M 256.5387 198.42766 C 256.5387 199.21048 255.90412 199.84508 255.12128 199.84508 C 254.33846 199.84508 253.70386 199.21048 253.70386 198.42766 C 253.70386 197.64484 254.33846 197.01024 255.12128 197.01024 C 255.90412 197.01024 256.5387 197.64484 256.5387 198.42766 Z M 255.12128 198.42766 " fill="#929292"/>
<path transform="matrix(1,0,0,-1,12.88,256.536)" d="M 256.5387 226.77448 C 256.5387 227.5573 255.90412 228.1919 255.12128 228.1919 C 254.33846 228.1919 253.70386 227.5573 253.70386 226.77448 C 253.70386 225.99164 254.33846 225.35706 255.12128 225.35706 C 255.90412 225.35706 256.5387 225.99164 256.5387 226.77448 Z M 255.12128 226.77448 " fill="#929292"/>
<path transform="matrix(1,0,0,-1,12.88,256.536)" d="M 256.5387 255.12128 C 256.5387 255.90412 255.90412 256.5387 255.12128 256.5387 C 254.33846 256.5387 253.70386 255.90412 253.70386 255.12128 C 253.70386 254.33846 254.33846 253.70386 255.12128 253.70386 C 255.90412 253.70386 256.5387 254.33846 256.5387 255.12128 Z M 255.12128 255.12128 " fill="#929292"/>
<path transform="matrix(1,0,0,-1,12.88,256.536)" d="M 284.8855 0 C 284.8855 .78282 284.25093 1.4174 283.4681 1.4174 C 282.68528 1.4174 282.05067 .78282 282.05067 0 C 282.05067 -.78282 282.68528 -1.4174 283.4681 -1.4174 C 284.25093 -1.4174 284.8855 -.78282 284.8855 0 Z M 283.4681 0 " fill="#929292"/>
<path transform="matrix(1,0,0,-1,12.88,256.536)" d="M 284.8855 28.3468 C 284.8855 29.12962 284.25093 29.76422 283.4681 29.76422 C 282.68528 29.76422 282.05067 29.12962 282.05067 28.3468 C 282.05067 27.56398 282.68528 26.92938 283.4681 26.92938 C 284.25093 26.92938 284.8855 27.56398 284.8855 28.3468 Z M 283.4681 28.3468 " fill="#929292"/>
<path transform="matrix(1,0,0,-1,12.88,256.536)" d="M 284.8855 56.69362 C 284.8855 57.47644 284.25093 58.11102 283.4681 58.11102 C 282.68528 58.11102 282.05067 57.47644 282.05067 56.69362 C 282.05067 55.91078 282.68528 55.2762 283.4681 55.2762 C 284.25093 55.2762 284.8855 55.91078 284.8855 56.69362 Z M 283.4681 56.69362 " fill="#929292"/>
<path transform="matrix(1,0,0,-1,12.88,256.536)" d="M 284.8855 85.04042 C 284.8855 85.82324 284.25093 86.45784 283.4681 86.45784 C 282.68528 86.45784 282.05067 85.82324 282.05067 85.04042 C 282.05067 84.2576 282.68528 83.623 283.4681 83.623 C 284.25093 83.623 284.8855 84.2576 284.8855 85.04042 Z M 283.4681 85.04042 " fill="#929292"/>
<path transform="matrix(1,0,0,-1,12.88,256.536)" d="M 284.8855 113.38724 C 284.8855 114.17006 284.25093 114.80464 283.4681 114.80464 C 282.68528 114.80464 282.05067 114.17006 282.05067 113.38724 C 282.05067 112.6044 282.68528 111.96982 283.4681 111.96982 C 284.25093 111.96982 284.8855 112.6044 284.8855 113.38724 Z M 283.4681 113.38724 " fill="#929292"/>
<path transform="matrix(1,0,0,-1,12.88,256.536)" d="M 284.8855 141.73404 C 284.8855 142.51686 284.25093 143.15146 283.4681 143.15146 C 282.68528 143.15146 282.05067 142.51686 282.05067 141.73404 C 282.05067 140.95122 282.68528 140.31662 283.4681 140.31662 C 284.25093 140.31662 284.8855 140.95122 284.8855 141.73404 Z M 283.4681 141.73404 " fill="#929292"/>
<path transform="matrix(1,0,0,-1,12.88,256.536)" d="M 284.8855 170.08086 C 284.8855 170.86368 284.25093 171.49828 283.4681 171.49828 C 282.68528 171.49828 282.05067 170.86368 282.05067 170.08086 C 282.05067 169.29802 282.68528 168.66344 283.4681 168.66344 C 284.25093 168.66344 284.8855 169.29802 284.8855 170.08086 Z M 283.4681 170.08086 " fill="#929292"/>
<path transform="matrix(1,0,0,-1,12.88,256.536)" d="M 284.8855 198.42766 C 284.8855 199.21048 284.25093 199.84508 283.4681 199.84508 C 282.68528 199.84508 282.05067 199.21048 282.05067 198.42766 C 282.05067 197.64484 282.68528 197.01024 283.4681 197.01024 C 284.25093 197.01024 284.8855 197.64484 284.8855 198.42766 Z M 283.4681 198.42766 " fill="#929292"/>
<path transform="matrix(1,0,0,-1,12.88,256.536)" d="M 284.8855 226.77448 C 284.8855 227.5573 284.25093 228.1919 283.4681 228.1919 C 282.68528 228.1919 282.05067 227.5573 282.05067 226.77448 C 282.05067 225.99164 282.68528 225.35706 283.4681 225.35706 C 284.25093 225.35706 284.8855 225.99164 284.8855 226.77448 Z M 283.4681 226.77448 " fill="#929292"/>
<path transform="matrix(1,0,0,-1,12.88,256.536)" d="M 284.8855 255.12128 C 284.8855 255.90412 284.25093 256.5387 283.4681 256.5387 C 282.68528 256.5387 282.05067 255.90412 282.05067 255.12128 C 282.05067 254.33846 282.68528 253.70386 283.4681 253.70386 C 284.25093 253.70386 284.8855 254.33846 284.8855 255.12128 Z M 283.4681 255.12128 " fill="#929292"/>
<path transform="matrix(1,0,0,-1,12.88,256.536)" d="M 313.23234 0 C 313.23234 .78282 312.59773 1.4174 311.8149 1.4174 C 311.03208 1.4174 310.3975 .78282 310.3975 0 C 310.3975 -.78282 311.03208 -1.4174 311.8149 -1.4174 C 312.59773 -1.4174 313.23234 -.78282 313.23234 0 Z M 311.8149 0 " fill="#929292"/>
<path transform="matrix(1,0,0,-1,12.88,256.536)" d="M 313.23234 28.3468 C 313.23234 29.12962 312.59773 29.76422 311.8149 29.76422 C 311.03208 29.76422 310.3975 29.12962 310.3975 28.3468 C 310.3975 27.56398 311.03208 26.92938 311.8149 26.92938 C 312.59773 26.92938 313.23234 27.56398 313.23234 28.3468 Z M 311.8149 28.3468 " fill="#929292"/>
<path transform="matrix(1,0,0,-1,12.88,256.536)" d="M 313.23234 56.69362 C 313.23234 57.47644 312.59773 58.11102 311.8149 58.11102 C 311.03208 58.11102 310.3975 57.47644 310.3975 56.69362 C 310.3975 55.91078 311.03208 55.2762 311.8149 55.2762 C 312.59773 55.2762 313.23234 55.91078 313.23234 56.69362 Z M 311.8149 56.69362 " fill="#929292"/>
<path transform="matrix(1,0,0,-1,12.88,256.536)" d="M 313.23234 85.04042 C 313.23234 85.82324 312.59773 86.45784 311.8149 86.45784 C 311.03208 86.45784 310.3975 85.82324 310.3975 85.04042 C 310.3975 84.2576 311.03208 83.623 311.8149 83.623 C 312.59773 83.623 313.23234 84.2576 313.23234 85.04042 Z M 311.8149 85.04042 " fill="#929292"/>
<path transform="matrix(1,0,0,-1,12.88,256.536)" d="M 313.23234 113.38724 C 313.23234 114.17006 312.59773 114.80464 311.8149 114.80464 C 311.03208 114.80464 310.3975 114.17006 310.3975 113.38724 C 310.3975 112.6044 311.03208 111.96982 311.8149 111.96982 C 312.59773 111.96982 313.23234 112.6044 313.23234 113.38724 Z M 311.8149 113.38724 " fill="#929292"/>
<path transform="matrix(1,0,0,-1,12.88,256.536)" d="M 313.23234 141.73404 C 313.23234 142.51686 312.59773 143.15146 311.8149 143.15146 C 311.03208 143.15146 310.3975 142.51686 310.3975 141.73404 C 310.3975 140.95122 311.03208 140.31662 311.8149 140.31662 C 312.59773 140.31662 313.23234 140.95122 313.23234 141.73404 Z M 311.8149 141.73404 " fill="#929292"/>
<path transform="matrix(1,0,0,-1,12.88,256.536)" d="M 313.23234 170.08086 C 313.23234 170.86368 312.59773 171.49828 311.8149 171.49828 C 311.03208 171.49828 310.3975 170.86368 310.3975 170.08086 C 310.3975 169.29802 311.03208 168.66344 311.8149 168.66344 C 312.59773 168.66344 313.23234 169.29802 313.23234 170.08086 Z M 311.8149 170.08086 " fill="#929292"/>
<path transform="matrix(1,0,0,-1,12.88,256.536)" d="M 313.23234 198.42766 C 313.23234 199.21048 312.59773 199.84508 311.8149 199.84508 C 311.03208 199.84508 310.3975 199.21048 310.3975 198.42766 C 310.3975 197.64484 311.03208 197.01024 311.8149 197.01024 C 312.59773 197.01024 313.23234 197.64484 313.23234 198.42766 Z M 311.8149 198.42766 " fill="#929292"/>
<path transform="matrix(1,0,0,-1,12.88,256.536)" d="M 313.23234 226.77448 C 313.23234 227.5573 312.59773 228.1919 311.8149 228.1919 C 311.03208 228.1919 310.3975 227.5573 310.3975 226.77448 C 310.3975 225.99164 311.03208 225.35706 311.8149 225.35706 C 312.59773 225.35706 313.23234 225.99164 313.23234 226.77448 Z M 311.8149 226.77448 " fill="#929292"/>
<path transform="matrix(1,0,0,-1,12.88,256.536)" d="M 313.23234 255.12128 C 313.23234 255.90412 312.59773 256.5387 311.8149 256.5387 C 311.03208 256.5387 310.3975 255.90412 310.3975 255.12128 C 310.3975 254.33846 311.03208 253.70386 311.8149 253.70386 C 312.59773 253.70386 313.23234 254.33846 313.23234 255.12128 Z M 311.8149 255.12128 " fill="#929292"/>
<path transform="matrix(1,0,0,-1,12.88,256.536)" d="M 341.57914 0 C 341.57914 .78282 340.94453 1.4174 340.1617 1.4174 C 339.37889 1.4174 338.7443 .78282 338.7443 0 C 338.7443 -.78282 339.37889 -1.4174 340.1617 -1.4174 C 340.94453 -1.4174 341.57914 -.78282 341.57914 0 Z M 340.1617 0 " fill="#929292"/>
<path transform="matrix(1,0,0,-1,12.88,256.536)" d="M 341.57914 28.3468 C 341.57914 29.12962 340.94453 29.76422 340.1617 29.76422 C 339.37889 29.76422 338.7443 29.12962 338.7443 28.3468 C 338.7443 27.56398 339.37889 26.92938 340.1617 26.92938 C 340.94453 26.92938 341.57914 27.56398 341.57914 28.3468 Z M 340.1617 28.3468 " fill="#929292"/>
<path transform="matrix(1,0,0,-1,12.88,256.536)" d="M 341.57914 56.69362 C 341.57914 57.47644 340.94453 58.11102 340.1617 58.11102 C 339.37889 58.11102 338.7443 57.47644 338.7443 56.69362 C 338.7443 55.91078 339.37889 55.2762 340.1617 55.2762 C 340.94453 55.2762 341.57914 55.91078 341.57914 56.69362 Z M 340.1617 56.69362 " fill="#929292"/>
<path transform="matrix(1,0,0,-1,12.88,256.536)" d="M 341.57914 85.04042 C 341.57914 85.82324 340.94453 86.45784 340.1617 86.45784 C 339.37889 86.45784 338.7443 85.82324 338.7443 85.04042 C 338.7443 84.2576 339.37889 83.623 340.1617 83.623 C 340.94453 83.623 341.57914 84.2576 341.57914 85.04042 Z M 340.1617 85.04042 " fill="#929292"/>
<path transform="matrix(1,0,0,-1,12.88,256.536)" d="M 341.57914 113.38724 C 341.57914 114.17006 340.94453 114.80464 340.1617 114.80464 C 339.37889 114.80464 338.7443 114.17006 338.7443 113.38724 C 338.7443 112.6044 339.37889 111.96982 340.1617 111.96982 C 340.94453 111.96982 341.57914 112.6044 341.57914 113.38724 Z M 340.1617 113.38724 " fill="#929292"/>
<path transform="matrix(1,0,0,-1,12.88,256.536)" d="M 341.57914 141.73404 C 341.57914 142.51686 340.94453 143.15146 340.1617 143.15146 C 339.37889 143.15146 338.7443 142.51686 338.7443 141.73404 C 338.7443 140.95122 339.37889 140.31662 340.1617 140.31662 C 340.94453 140.31662 341.57914 140.95122 341.57914 141.73404 Z M 340.1617 141.73404 " fill="#929292"/>
<path transform="matrix(1,0,0,-1,12.88,256.536)" d="M 341.57914 170.08086 C 341.57914 170.86368 340.94453 171.49828 340.1617 171.49828 C 339.37889 171.49828 338.7443 170.86368 338.7443 170.08086 C 338.7443 169.29802 339.37889 168.66344 340.1617 168.66344 C 340.94453 168.66344 341.57914 169.29802 341.57914 170.08086 Z M 340.1617 170.08086 " fill="#929292"/>
<path transform="matrix(1,0,0,-1,12.88,256.536)" d="M 341.57914 198.42766 C 341.57914 199.21048 340.94453 199.84508 340.1617 199.84508 C 339.37889 199.84508 338.7443 199.21048 338.7443 198.42766 C 338.7443 197.64484 339.37889 197.01024 340.1617 197.01024 C 340.94453 197.01024 341.57914 197.64484 341.57914 198.42766 Z M 340.1617 198.42766 " fill="#929292"/>
<path transform="matrix(1,0,0,-1,12.88,256.536)" d="M 341.57914 226.77448 C 341.57914 227.5573 340.94453 228.1919 340.1617 228.1919 C 339.37889 228.1919 338.7443 227.5573 338.7443 226.77448 C 338.7443 225.99164 339.37889 225.35706 340.1617 225.35706 C 340.94453 225.35706 341.57914 225.99164 341.57914 226.77448 Z M 340.1617 226.77448 " fill="#929292"/>
<path transform="matrix(1,0,0,-1,12.88,256.536)" d="M 341.57914 255.12128 C 341.57914 255.90412 340.94453 256.5387 340.1617 256.5387 C 339.37889 256.5387 338.7443 255.90412 338.7443 255.12128 C 338.7443 254.33846 339.37889 253.70386 340.1617 253.70386 C 340.94453 253.70386 341.57914 254.33846 341.57914 255.12128 Z M 340.1617 255.12128 " fill="#929292"/>
<path transform="matrix(1,0,0,-1,12.88,256.536)" d="M 369.92594 0 C 369.92594 .78282 369.29136 1.4174 368.5085 1.4174 C 367.7257 1.4174 367.0911 .78282 367.0911 0 C 367.0911 -.78282 367.7257 -1.4174 368.5085 -1.4174 C 369.29136 -1.4174 369.92594 -.78282 369.92594 0 Z M 368.5085 0 " fill="#929292"/>
<path transform="matrix(1,0,0,-1,12.88,256.536)" d="M 369.92594 28.3468 C 369.92594 29.12962 369.29136 29.76422 368.5085 29.76422 C 367.7257 29.76422 367.0911 29.12962 367.0911 28.3468 C 367.0911 27.56398 367.7257 26.92938 368.5085 26.92938 C 369.29136 26.92938 369.92594 27.56398 369.92594 28.3468 Z M 368.5085 28.3468 " fill="#929292"/>
<path transform="matrix(1,0,0,-1,12.88,256.536)" d="M 369.92594 56.69362 C 369.92594 57.47644 369.29136 58.11102 368.5085 58.11102 C 367.7257 58.11102 367.0911 57.47644 367.0911 56.69362 C 367.0911 55.91078 367.7257 55.2762 368.5085 55.2762 C 369.29136 55.2762 369.92594 55.91078 369.92594 56.69362 Z M 368.5085 56.69362 " fill="#929292"/>
<path transform="matrix(1,0,0,-1,12.88,256.536)" d="M 369.92594 85.04042 C 369.92594 85.82324 369.29136 86.45784 368.5085 86.45784 C 367.7257 86.45784 367.0911 85.82324 367.0911 85.04042 C 367.0911 84.2576 367.7257 83.623 368.5085 83.623 C 369.29136 83.623 369.92594 84.2576 369.92594 85.04042 Z M 368.5085 85.04042 " fill="#929292"/>
<path transform="matrix(1,0,0,-1,12.88,256.536)" d="M 369.92594 113.38724 C 369.92594 114.17006 369.29136 114.80464 368.5085 114.80464 C 367.7257 114.80464 367.0911 114.17006 367.0911 113.38724 C 367.0911 112.6044 367.7257 111.96982 368.5085 111.96982 C 369.29136 111.96982 369.92594 112.6044 369.92594 113.38724 Z M 368.5085 113.38724 " fill="#929292"/>
<path transform="matrix(1,0,0,-1,12.88,256.536)" d="M 369.92594 141.73404 C 369.92594 142.51686 369.29136 143.15146 368.5085 143.15146 C 367.7257 143.15146 367.0911 142.51686 367.0911 141.73404 C 367.0911 140.95122 367.7257 140.31662 368.5085 140.31662 C 369.29136 140.31662 369.92594 140.95122 369.92594 141.73404 Z M 368.5085 141.73404 " fill="#929292"/>
<path transform="matrix(1,0,0,-1,12.88,256.536)" d="M 369.92594 170.08086 C 369.92594 170.86368 369.29136 171.49828 368.5085 171.49828 C 367.7257 171.49828 367.0911 170.86368 367.0911 170.08086 C 367.0911 169.29802 367.7257 168.66344 368.5085 168.66344 C 369.29136 168.66344 369.92594 169.29802 369.92594 170.08086 Z M 368.5085 170.08086 " fill="#929292"/>
<path transform="matrix(1,0,0,-1,12.88,256.536)" d="M 369.92594 198.42766 C 369.92594 199.21048 369.29136 199.84508 368.5085 199.84508 C 367.7257 199.84508 367.0911 199.21048 367.0911 198.42766 C 367.0911 197.64484 367.7257 197.01024 368.5085 197.01024 C 369.29136 197.01024 369.92594 197.64484 369.92594 198.42766 Z M 368.5085 198.42766 " fill="#929292"/>
<path transform="matrix(1,0,0,-1,12.88,256.536)" d="M 369.92594 226.77448 C 369.92594 227.5573 369.29136 228.1919 368.5085 228.1919 C 367.7257 228.1919 367.0911 227.5573 367.0911 226.77448 C 367.0911 225.99164 367.7257 225.35706 368.5085 225.35706 C 369.29136 225.35706 369.92594 225.99164 369.92594 226.77448 Z M 368.5085 226.77448 " fill="#929292"/>
<path transform="matrix(1,0,0,-1,12.88,256.536)" d="M 369.92594 255.12128 C 369.92594 255.90412 369.29136 256.5387 368.5085 256.5387 C 367.7257 256.5387 367.0911 255.90412 367.0911 255.12128 C 367.0911 254.33846 367.7257 253.70386 368.5085 253.70386 C 369.29136 253.70386 369.92594 254.33846 369.92594 255.12128 Z M 368.5085 255.12128 " fill="#929292"/>
<path transform="matrix(1,0,0,-1,12.88,256.536)" d="M 170.08086 170.08086 L 170.08086 255.12128 L 311.8149 198.42766 L 311.8149 113.38724 Z " fill="#0000ff" fill-opacity=".1"/>
<path transform="matrix(1,0,0,-1,12.88,256.536)" stroke-width=".79701" stroke-linecap="butt" stroke-miterlimit="10" stroke-linejoin="miter" fill="none" stroke="#0000ff" d="M 170.08086 170.08086 L 170.08086 255.12128 L 311.8149 198.42766 L 311.8149 113.38724 Z "/>
<symbol id="font_0_1">
<path d="M .14400001 .115 C .10400002 .048 .065 .034 .021000002 .031000002 C .009000003 .030000002 0 .030000002 0 .011000001 C 0 .0050000005 .0050000029 0 .013 0 C .040000004 0 .07100001 .003 .09900001 .003 C .13200002 .003 .16700001 0 .19900002 0 C .20500002 0 .21800003 0 .21800003 .019000002 C .21800003 .030000002 .20900002 .031000002 .20200002 .031000002 C .17900002 .033 .15500002 .041 .15500002 .066 C .15500002 .078 .16100002 .089 .16900002 .10300001 L .245 .231 L .49600003 .231 C .49800007 .21000001 .512 .074 .512 .064 C .512 .034 .46000005 .031000002 .44000004 .031000002 C .42600004 .031000002 .41600005 .031000002 .41600005 .011000001 C .41600005 0 .42800004 0 .43000005 0 C .47100006 0 .514 .003 .555 .003 C .58 .003 .643 0 .668 0 C .674 0 .686 0 .686 .020000002 C .686 .031000002 .676 .031000002 .663 .031000002 C .601 .031000002 .601 .038000004 .598 .067 L .537 .69200006 C .535 .712 .535 .716 .518 .716 C .502 .716 .49800007 .70900008 .492 .69900009 L .14400001 .115 M .26400004 .26200003 L .46100004 .592 L .493 .26200003 L .26400004 .26200003 Z "/>
</symbol>
<use xlink:href="#font_0_1" transform="matrix(9.9626,0,0,-9.9626,250.43669,75.688)"/>
<path transform="matrix(1,0,0,-1,12.88,256.536)" d="M 141.73404 0 L 198.42766 0 L 368.5085 85.04042 L 311.8149 85.04042 Z " fill="#00ff00" fill-opacity=".1"/>
<path transform="matrix(1,0,0,-1,12.88,256.536)" stroke-width=".79701" stroke-linecap="butt" stroke-miterlimit="10" stroke-linejoin="miter" fill="none" stroke="#00ff00" d="M 141.73404 0 L 198.42766 0 L 368.5085 85.04042 L 311.8149 85.04042 Z "/>
<symbol id="font_0_2">
<path d="M .11800001 .078 C .108 .039 .106 .031000002 .027000003 .031000002 C .009999998 .031000002 0 .031000002 0 .011000001 C 0 0 .009 0 .027000003 0 L .38400004 0 C .54200008 0 .66 .11800001 .66 .216 C .66 .28800003 .60200008 .34600003 .50500008 .35700003 C .609 .37600003 .71400007 .45000003 .71400007 .545 C .71400007 .619 .64800009 .683 .52800008 .683 L .192 .683 C .17300001 .683 .16300002 .683 .16300002 .66300007 C .16300002 .652 .17200002 .652 .19100002 .652 C .19300002 .652 .21200001 .652 .22900003 .65000006 C .24700001 .648 .256 .647 .256 .634 C .256 .63000008 .25500003 .62700006 .252 .615 L .11800001 .078 M .26900003 .36600004 L .33100004 .614 C .34000004 .64900007 .342 .652 .38500003 .652 L .51400008 .652 C .60200008 .652 .623 .59300008 .623 .549 C .623 .46100004 .53700008 .36600004 .41500003 .36600004 L .26900003 .36600004 M .224 .031000002 C .21000001 .031000002 .208 .031000002 .20200002 .032 C .192 .033 .18900001 .034 .18900001 .042000005 C .18900001 .045 .18900001 .047000003 .194 .065000008 L .263 .344 L .45200003 .344 C .54800006 .344 .56700006 .27 .56700006 .22700002 C .56700006 .128 .47800005 .031000002 .36 .031000002 L .224 .031000002 Z "/>
</symbol>
<use xlink:href="#font_0_2" transform="matrix(9.9626,0,0,-9.9626,264.38743,217.42002)"/>
<path transform="matrix(1,0,0,-1,12.88,256.536)" d="M 0 56.69362 L 85.04042 0 L 141.73404 170.08086 L 56.69362 226.77448 Z " fill="#ff0000" fill-opacity=".1"/>
<path transform="matrix(1,0,0,-1,12.88,256.536)" stroke-width=".79701" stroke-linecap="butt" stroke-miterlimit="10" stroke-linejoin="miter" fill="none" stroke="#ff0000" d="M 0 56.69362 L 85.04042 0 L 141.73404 170.08086 L 56.69362 226.77448 Z "/>
<symbol id="font_0_3">
<path d="M .71000006 .71700009 C .71000006 .72 .708 .72700008 .699 .72700008 C .69600006 .72700008 .69500008 .7260001 .684 .71500006 L .614 .6380001 C .605 .65200009 .559 .72700008 .448 .72700008 C .22500001 .72700008 0 .50600007 0 .27400003 C 0 .109000008 .118000019 0 .271 0 C .358 0 .43400003 .040000004 .487 .086 C .58000007 .16800002 .597 .25900004 .597 .26200003 C .597 .272 .587 .272 .58500006 .272 C .579 .272 .574 .27 .572 .26200003 C .563 .23300001 .54 .162 .47100003 .104 C .402 .048 .33900003 .031000004 .287 .031000004 C .19700001 .031000004 .091000009 .083000008 .091000009 .23900001 C .091000009 .29600004 .112 .45800004 .21200003 .57500007 C .273 .646 .367 .69600006 .45600004 .69600006 C .558 .69600006 .61700007 .619 .61700007 .503 C .61700007 .46300004 .614 .46200005 .614 .45200003 C .614 .44200004 .625 .44200004 .629 .44200004 C .642 .44200004 .642 .44400005 .647 .46200005 L .71000006 .71700009 Z "/>
</symbol>
<use xlink:href="#font_0_3" transform="matrix(9.9626,0,0,-9.9626,80.327129,132.60019)"/>
<symbol id="font_0_4">
<path d="M .88400009 .606 C .89300009 .642 .89500007 .652 .9700001 .652 C .9930001 .652 1.002 .652 1.002 .67200008 C 1.002 .683 .99200007 .683 .9750001 .683 L .84300008 .683 C .81700006 .683 .81600007 .683 .804 .66400006 L .43900005 .094000007 L .36100004 .66 C .358 .683 .35600005 .683 .33 .683 L .19300002 .683 C .174 .683 .16300002 .683 .16300002 .66400006 C .16300002 .652 .17200002 .652 .192 .652 C .20500002 .652 .22300002 .651 .23500002 .65000006 C .25100003 .648 .25700004 .64500007 .25700004 .634 C .25700004 .63000008 .256 .62700006 .25300003 .615 L .12600002 .106000009 C .116000007 .066 .099 .034 .018 .031000002 C .013 .031000002 0 .030000002 0 .012 C 0 .003 .0059999974 0 .013999999 0 C .046000005 0 .081 .003 .114 .003 C .148 .003 .18400002 0 .21700001 0 C .222 0 .23500002 0 .23500002 .020000002 C .23500002 .031000002 .224 .031000002 .21700001 .031000002 C .16 .032 .14900002 .052 .14900002 .075 C .14900002 .082 .15 .087000008 .153 .098000008 L .28900004 .643 L .29000003 .643 L .37600003 .023000002 C .37800003 .011000001 .37900005 0 .39100004 0 C .40200005 0 .40800003 .011000001 .41300003 .018000002 L .81700006 .651 L .818 .651 L .675 .078 C .665 .039 .66300007 .031000002 .58400008 .031000002 C .56700006 .031000002 .55600008 .031000002 .55600008 .012 C .55600008 0 .568 0 .57100006 0 C .59900006 0 .66700008 .003 .69500008 .003 C .73600009 .003 .77900007 0 .82000008 0 C .82600006 0 .83900007 0 .83900007 .020000002 C .83900007 .031000002 .83000007 .031000002 .81100007 .031000002 C .77400007 .031000002 .74600008 .031000002 .74600008 .049000004 C .74600008 .053000004 .74600008 .055000005 .75100007 .07300001 L .88400009 .606 Z "/>
</symbol>
<use xlink:href="#font_0_4" transform="matrix(9.9626,0,0,-9.9626,101.46542,259.94)"/>
<symbol id="font_0_5">
<path d="M .71700009 .578 C .72700008 .61800006 .74500009 .64900007 .82500007 .652 C .83000007 .652 .84200009 .65300008 .84200009 .67200008 C .84200009 .67300006 .84200009 .683 .82900008 .683 C .79600009 .683 .76100006 .68 .72800007 .68 C .69400009 .68 .65900006 .683 .62600007 .683 C .62000009 .683 .60800006 .683 .60800006 .66300007 C .60800006 .652 .61800006 .652 .62600007 .652 C .6830001 .651 .69400009 .63000008 .69400009 .60800006 C .69400009 .605 .69200006 .59000006 .69100007 .587 L .57900008 .142 L .358 .66400006 C .35000003 .68200007 .349 .683 .326 .683 L .192 .683 C .172 .683 .163 .683 .163 .66300007 C .163 .652 .172 .652 .191 .652 C .19600001 .652 .259 .652 .259 .643 L .125 .106000009 C .11500001 .066 .098000008 .034 .017 .031000002 C .011 .031000002 0 .030000002 0 .011000001 C 0 .004 .0050000029 0 .013 0 C .045000007 0 .08 .003 .113000009 .003 C .147 .003 .18300002 0 .21600002 0 C .22100002 0 .234 0 .234 .020000002 C .234 .030000002 .225 .031000002 .21400002 .031000002 C .156 .033 .148 .055000005 .148 .075 C .148 .082 .149 .087000008 .15200001 .098000008 L .284 .62600007 C .28800003 .62 .28800003 .61800006 .293 .60800006 L .54200008 .019000002 C .549 .002 .55200007 0 .56100007 0 C .572 0 .572 .003 .5770001 .021000002 L .71700009 .578 Z "/>
</symbol>
<use xlink:href="#font_0_5" transform="matrix(9.9626,0,0,-9.9626,158.95854,89.86101)"/>
<symbol id="font_0_6">
<path d="M .691 .45800004 C .691 .619 .585 .72700008 .43600003 .72700008 C .22000003 .72700008 0 .5 0 .26700003 C 0 .101 .11200001 0 .256 0 C .46800003 0 .691 .21900001 .691 .45800004 M .26200003 .026000003 C .16300002 .026000003 .093 .107 .093 .23900001 C .093 .28300003 .107 .42900003 .18400002 .54600009 C .25300003 .65000006 .351 .702 .43000005 .702 C .512 .702 .602 .646 .602 .49700005 C .602 .42500005 .575 .26900003 .47600005 .14600002 C .42800004 .085 .34600003 .026000003 .26200003 .026000003 Z "/>
</symbol>
<use xlink:href="#font_0_6" transform="matrix(9.9626,0,0,-9.9626,60.453168,27.718186)"/>
<symbol id="font_0_7">
<path d="M .263 .316 L .43300004 .316 C .575 .316 .714 .42000003 .714 .532 C .714 .609 .648 .683 .517 .683 L .193 .683 C .17400001 .683 .163 .683 .163 .66400006 C .163 .652 .172 .652 .192 .652 C .205 .652 .223 .651 .235 .65000006 C .25100003 .648 .25700004 .64500007 .25700004 .634 C .25700004 .63000008 .256 .62700006 .25300003 .615 L .119 .078 C .109 .039 .10699999 .031000002 .028 .031000002 C .011 .031000002 0 .031000002 0 .012 C 0 0 .011999998 0 .015000001 0 C .043 0 .11400001 .003 .142 .003 C .163 .003 .185 .002 .206 .002 C .228 .002 .25000004 0 .27100004 0 C .27800004 0 .29100005 0 .29100005 .020000002 C .29100005 .031000002 .28200004 .031000002 .263 .031000002 C .226 .031000002 .198 .031000002 .198 .049000004 C .198 .055000005 .2 .060000004 .201 .066 L .263 .316 M .33500005 .614 C .344 .64900007 .34600003 .652 .38900004 .652 L .48500005 .652 C .568 .652 .621 .625 .621 .55600008 C .621 .517 .601 .43100003 .56200006 .395 C .512 .35000003 .45200003 .342 .40800003 .342 L .26700003 .342 L .33500005 .614 Z "/>
</symbol>
<use xlink:href="#font_0_7" transform="matrix(9.9626,0,0,-9.9626,3.719504,203.24701)"/>
</g>
</svg>
