<?xml version="1.0" encoding="UTF-8" standalone="no"?>
<!DOCTYPE svg PUBLIC "-//W3C//DTD SVG 1.1//EN" "http://www.w3.org/Graphics/SVG/1.1/DTD/svg11.dtd">
<svg xmlns="http://www.w3.org/2000/svg" xmlns:xlink="http://www.w3.org/1999/xlink" version="1.1" width="386.23pt" height="128.048pt" viewBox="0 0 386.23 128.048">
<g enable-background="new">
<path transform="matrix(1,0,0,-1,45.713,114.520008)" d="M 23.81145 0 C 23.81145 .62625 23.30377 1.13393 22.67752 1.13393 C 22.05125 1.13393 21.54358 .62625 21.54358 0 C 21.54358 -.62625 22.05125 -1.13393 22.67752 -1.13393 C 23.30377 -1.13393 23.81145 -.62625 23.81145 0 Z M 22.67752 0 " fill="#929292"/>
<path transform="matrix(1,0,0,-1,45.713,114.520008)" d="M 23.81145 22.67752 C 23.81145 23.30377 23.30377 23.81145 22.67752 23.81145 C 22.05125 23.81145 21.54358 23.30377 21.54358 22.67752 C 21.54358 22.05125 22.05125 21.54358 22.67752 21.54358 C 23.30377 21.54358 23.81145 22.05125 23.81145 22.67752 Z M 22.67752 22.67752 " fill="#929292"/>
<path transform="matrix(1,0,0,-1,45.713,114.520008)" d="M 23.81145 45.35506 C 23.81145 45.98131 23.30377 46.48898 22.67752 46.48898 C 22.05125 46.48898 21.54358 45.98131 21.54358 45.35506 C 21.54358 44.72879 22.05125 44.22112 22.67752 44.22112 C 23.30377 44.22112 23.81145 44.72879 23.81145 45.35506 Z M 22.67752 45.35506 " fill="#929292"/>
<path transform="matrix(1,0,0,-1,45.713,114.520008)" d="M 23.81145 68.0326 C 23.81145 68.65884 23.30377 69.16652 22.67752 69.16652 C 22.05125 69.16652 21.54358 68.65884 21.54358 68.0326 C 21.54358 67.40633 22.05125 66.89865 22.67752 66.89865 C 23.30377 66.89865 23.81145 67.40633 23.81145 68.0326 Z M 22.67752 68.0326 " fill="#929292"/>
<path transform="matrix(1,0,0,-1,45.713,114.520008)" d="M 23.81145 90.71013 C 23.81145 91.33638 23.30377 91.84406 22.67752 91.84406 C 22.05125 91.84406 21.54358 91.33638 21.54358 90.71013 C 21.54358 90.08386 22.05125 89.57619 22.67752 89.57619 C 23.30377 89.57619 23.81145 90.08386 23.81145 90.71013 Z M 22.67752 90.71013 " fill="#929292"/>
<path transform="matrix(1,0,0,-1,45.713,114.520008)" d="M 23.81145 113.38766 C 23.81145 114.01392 23.30377 114.52159 22.67752 114.52159 C 22.05125 114.52159 21.54358 114.01392 21.54358 113.38766 C 21.54358 112.7614 22.05125 112.25372 22.67752 112.25372 C 23.30377 112.25372 23.81145 112.7614 23.81145 113.38766 Z M 22.67752 113.38766 " fill="#929292"/>
<path transform="matrix(1,0,0,-1,45.713,114.520008)" d="M 46.48898 0 C 46.48898 .62625 45.98131 1.13393 45.35506 1.13393 C 44.72879 1.13393 44.22112 .62625 44.22112 0 C 44.22112 -.62625 44.72879 -1.13393 45.35506 -1.13393 C 45.98131 -1.13393 46.48898 -.62625 46.48898 0 Z M 45.35506 0 " fill="#929292"/>
<path transform="matrix(1,0,0,-1,45.713,114.520008)" d="M 46.48898 22.67752 C 46.48898 23.30377 45.98131 23.81145 45.35506 23.81145 C 44.72879 23.81145 44.22112 23.30377 44.22112 22.67752 C 44.22112 22.05125 44.72879 21.54358 45.35506 21.54358 C 45.98131 21.54358 46.48898 22.05125 46.48898 22.67752 Z M 45.35506 22.67752 " fill="#929292"/>
<path transform="matrix(1,0,0,-1,45.713,114.520008)" d="M 46.48898 45.35506 C 46.48898 45.98131 45.98131 46.48898 45.35506 46.48898 C 44.72879 46.48898 44.22112 45.98131 44.22112 45.35506 C 44.22112 44.72879 44.72879 44.22112 45.35506 44.22112 C 45.98131 44.22112 46.48898 44.72879 46.48898 45.35506 Z M 45.35506 45.35506 " fill="#929292"/>
<path transform="matrix(1,0,0,-1,45.713,114.520008)" d="M 46.48898 68.0326 C 46.48898 68.65884 45.98131 69.16652 45.35506 69.16652 C 44.72879 69.16652 44.22112 68.65884 44.22112 68.0326 C 44.22112 67.40633 44.72879 66.89865 45.35506 66.89865 C 45.98131 66.89865 46.48898 67.40633 46.48898 68.0326 Z M 45.35506 68.0326 " fill="#929292"/>
<path transform="matrix(1,0,0,-1,45.713,114.520008)" d="M 46.48898 90.71013 C 46.48898 91.33638 45.98131 91.84406 45.35506 91.84406 C 44.72879 91.84406 44.22112 91.33638 44.22112 90.71013 C 44.22112 90.08386 44.72879 89.57619 45.35506 89.57619 C 45.98131 89.57619 46.48898 90.08386 46.48898 90.71013 Z M 45.35506 90.71013 " fill="#929292"/>
<path transform="matrix(1,0,0,-1,45.713,114.520008)" d="M 46.48898 113.38766 C 46.48898 114.01392 45.98131 114.52159 45.35506 114.52159 C 44.72879 114.52159 44.22112 114.01392 44.22112 113.38766 C 44.22112 112.7614 44.72879 112.25372 45.35506 112.25372 C 45.98131 112.25372 46.48898 112.7614 46.48898 113.38766 Z M 45.35506 113.38766 " fill="#929292"/>
<path transform="matrix(1,0,0,-1,45.713,114.520008)" d="M 69.16652 0 C 69.16652 .62625 68.65884 1.13393 68.0326 1.13393 C 67.40633 1.13393 66.89865 .62625 66.89865 0 C 66.89865 -.62625 67.40633 -1.13393 68.0326 -1.13393 C 68.65884 -1.13393 69.16652 -.62625 69.16652 0 Z M 68.0326 0 " fill="#929292"/>
<path transform="matrix(1,0,0,-1,45.713,114.520008)" d="M 69.16652 22.67752 C 69.16652 23.30377 68.65884 23.81145 68.0326 23.81145 C 67.40633 23.81145 66.89865 23.30377 66.89865 22.67752 C 66.89865 22.05125 67.40633 21.54358 68.0326 21.54358 C 68.65884 21.54358 69.16652 22.05125 69.16652 22.67752 Z M 68.0326 22.67752 " fill="#929292"/>
<path transform="matrix(1,0,0,-1,45.713,114.520008)" d="M 69.16652 45.35506 C 69.16652 45.98131 68.65884 46.48898 68.0326 46.48898 C 67.40633 46.48898 66.89865 45.98131 66.89865 45.35506 C 66.89865 44.72879 67.40633 44.22112 68.0326 44.22112 C 68.65884 44.22112 69.16652 44.72879 69.16652 45.35506 Z M 68.0326 45.35506 " fill="#929292"/>
<path transform="matrix(1,0,0,-1,45.713,114.520008)" d="M 69.16652 68.0326 C 69.16652 68.65884 68.65884 69.16652 68.0326 69.16652 C 67.40633 69.16652 66.89865 68.65884 66.89865 68.0326 C 66.89865 67.40633 67.40633 66.89865 68.0326 66.89865 C 68.65884 66.89865 69.16652 67.40633 69.16652 68.0326 Z M 68.0326 68.0326 " fill="#929292"/>
<path transform="matrix(1,0,0,-1,45.713,114.520008)" d="M 69.16652 90.71013 C 69.16652 91.33638 68.65884 91.84406 68.0326 91.84406 C 67.40633 91.84406 66.89865 91.33638 66.89865 90.71013 C 66.89865 90.08386 67.40633 89.57619 68.0326 89.57619 C 68.65884 89.57619 69.16652 90.08386 69.16652 90.71013 Z M 68.0326 90.71013 " fill="#929292"/>
<path transform="matrix(1,0,0,-1,45.713,114.520008)" d="M 69.16652 113.38766 C 69.16652 114.01392 68.65884 114.52159 68.0326 114.52159 C 67.40633 114.52159 66.89865 114.01392 66.89865 113.38766 C 66.89865 112.7614 67.40633 112.25372 68.0326 112.25372 C 68.65884 112.25372 69.16652 112.7614 69.16652 113.38766 Z M 68.0326 113.38766 " fill="#929292"/>
<path transform="matrix(1,0,0,-1,45.713,114.520008)" d="M 91.84406 0 C 91.84406 .62625 91.33638 1.13393 90.71013 1.13393 C 90.08386 1.13393 89.57619 .62625 89.57619 0 C 89.57619 -.62625 90.08386 -1.13393 90.71013 -1.13393 C 91.33638 -1.13393 91.84406 -.62625 91.84406 0 Z M 90.71013 0 " fill="#929292"/>
<path transform="matrix(1,0,0,-1,45.713,114.520008)" d="M 91.84406 22.67752 C 91.84406 23.30377 91.33638 23.81145 90.71013 23.81145 C 90.08386 23.81145 89.57619 23.30377 89.57619 22.67752 C 89.57619 22.05125 90.08386 21.54358 90.71013 21.54358 C 91.33638 21.54358 91.84406 22.05125 91.84406 22.67752 Z M 90.71013 22.67752 " fill="#929292"/>
<path transform="matrix(1,0,0,-1,45.713,114.520008)" d="M 91.84406 45.35506 C 91.84406 45.98131 91.33638 46.48898 90.71013 46.48898 C 90.08386 46.48898 89.57619 45.98131 89.57619 45.35506 C 89.57619 44.72879 90.08386 44.22112 90.71013 44.22112 C 91.33638 44.22112 91.84406 44.72879 91.84406 45.35506 Z M 90.71013 45.35506 " fill="#929292"/>
<path transform="matrix(1,0,0,-1,45.713,114.520008)" d="M 91.84406 68.0326 C 91.84406 68.65884 91.33638 69.16652 90.71013 69.16652 C 90.08386 69.16652 89.57619 68.65884 89.57619 68.0326 C 89.57619 67.40633 90.08386 66.89865 90.71013 66.89865 C 91.33638 66.89865 91.84406 67.40633 91.84406 68.0326 Z M 90.71013 68.0326 " fill="#929292"/>
<path transform="matrix(1,0,0,-1,45.713,114.520008)" d="M 91.84406 90.71013 C 91.84406 91.33638 91.33638 91.84406 90.71013 91.84406 C 90.08386 91.84406 89.57619 91.33638 89.57619 90.71013 C 89.57619 90.08386 90.08386 89.57619 90.71013 89.57619 C 91.33638 89.57619 91.84406 90.08386 91.84406 90.71013 Z M 90.71013 90.71013 " fill="#929292"/>
<path transform="matrix(1,0,0,-1,45.713,114.520008)" d="M 91.84406 113.38766 C 91.84406 114.01392 91.33638 114.52159 90.71013 114.52159 C 90.08386 114.52159 89.57619 114.01392 89.57619 113.38766 C 89.57619 112.7614 90.08386 112.25372 90.71013 112.25372 C 91.33638 112.25372 91.84406 112.7614 91.84406 113.38766 Z M 90.71013 113.38766 " fill="#929292"/>
<path transform="matrix(1,0,0,-1,45.713,114.520008)" d="M 114.52159 0 C 114.52159 .62625 114.01392 1.13393 113.38766 1.13393 C 112.7614 1.13393 112.25372 .62625 112.25372 0 C 112.25372 -.62625 112.7614 -1.13393 113.38766 -1.13393 C 114.01392 -1.13393 114.52159 -.62625 114.52159 0 Z M 113.38766 0 " fill="#929292"/>
<path transform="matrix(1,0,0,-1,45.713,114.520008)" d="M 114.52159 22.67752 C 114.52159 23.30377 114.01392 23.81145 113.38766 23.81145 C 112.7614 23.81145 112.25372 23.30377 112.25372 22.67752 C 112.25372 22.05125 112.7614 21.54358 113.38766 21.54358 C 114.01392 21.54358 114.52159 22.05125 114.52159 22.67752 Z M 113.38766 22.67752 " fill="#929292"/>
<path transform="matrix(1,0,0,-1,45.713,114.520008)" d="M 114.52159 45.35506 C 114.52159 45.98131 114.01392 46.48898 113.38766 46.48898 C 112.7614 46.48898 112.25372 45.98131 112.25372 45.35506 C 112.25372 44.72879 112.7614 44.22112 113.38766 44.22112 C 114.01392 44.22112 114.52159 44.72879 114.52159 45.35506 Z M 113.38766 45.35506 " fill="#929292"/>
<path transform="matrix(1,0,0,-1,45.713,114.520008)" d="M 114.52159 68.0326 C 114.52159 68.65884 114.01392 69.16652 113.38766 69.16652 C 112.7614 69.16652 112.25372 68.65884 112.25372 68.0326 C 112.25372 67.40633 112.7614 66.89865 113.38766 66.89865 C 114.01392 66.89865 114.52159 67.40633 114.52159 68.0326 Z M 113.38766 68.0326 " fill="#929292"/>
<path transform="matrix(1,0,0,-1,45.713,114.520008)" d="M 114.52159 90.71013 C 114.52159 91.33638 114.01392 91.84406 113.38766 91.84406 C 112.7614 91.84406 112.25372 91.33638 112.25372 90.71013 C 112.25372 90.08386 112.7614 89.57619 113.38766 89.57619 C 114.01392 89.57619 114.52159 90.08386 114.52159 90.71013 Z M 113.38766 90.71013 " fill="#929292"/>
<path transform="matrix(1,0,0,-1,45.713,114.520008)" d="M 114.52159 113.38766 C 114.52159 114.01392 114.01392 114.52159 113.38766 114.52159 C 112.7614 114.52159 112.25372 114.01392 112.25372 113.38766 C 112.25372 112.7614 112.7614 112.25372 113.38766 112.25372 C 114.01392 112.25372 114.52159 112.7614 114.52159 113.38766 Z M 113.38766 113.38766 " fill="#929292"/>
<path transform="matrix(1,0,0,-1,45.713,114.520008)" d="M 137.19913 0 C 137.19913 .62625 136.69145 1.13393 136.0652 1.13393 C 135.43894 1.13393 134.93126 .62625 134.93126 0 C 134.93126 -.62625 135.43894 -1.13393 136.0652 -1.13393 C 136.69145 -1.13393 137.19913 -.62625 137.19913 0 Z M 136.0652 0 " fill="#929292"/>
<path transform="matrix(1,0,0,-1,45.713,114.520008)" d="M 137.19913 22.67752 C 137.19913 23.30377 136.69145 23.81145 136.0652 23.81145 C 135.43894 23.81145 134.93126 23.30377 134.93126 22.67752 C 134.93126 22.05125 135.43894 21.54358 136.0652 21.54358 C 136.69145 21.54358 137.19913 22.05125 137.19913 22.67752 Z M 136.0652 22.67752 " fill="#929292"/>
<path transform="matrix(1,0,0,-1,45.713,114.520008)" d="M 137.19913 45.35506 C 137.19913 45.98131 136.69145 46.48898 136.0652 46.48898 C 135.43894 46.48898 134.93126 45.98131 134.93126 45.35506 C 134.93126 44.72879 135.43894 44.22112 136.0652 44.22112 C 136.69145 44.22112 137.19913 44.72879 137.19913 45.35506 Z M 136.0652 45.35506 " fill="#929292"/>
<path transform="matrix(1,0,0,-1,45.713,114.520008)" d="M 137.19913 68.0326 C 137.19913 68.65884 136.69145 69.16652 136.0652 69.16652 C 135.43894 69.16652 134.93126 68.65884 134.93126 68.0326 C 134.93126 67.40633 135.43894 66.89865 136.0652 66.89865 C 136.69145 66.89865 137.19913 67.40633 137.19913 68.0326 Z M 136.0652 68.0326 " fill="#929292"/>
<path transform="matrix(1,0,0,-1,45.713,114.520008)" d="M 137.19913 90.71013 C 137.19913 91.33638 136.69145 91.84406 136.0652 91.84406 C 135.43894 91.84406 134.93126 91.33638 134.93126 90.71013 C 134.93126 90.08386 135.43894 89.57619 136.0652 89.57619 C 136.69145 89.57619 137.19913 90.08386 137.19913 90.71013 Z M 136.0652 90.71013 " fill="#929292"/>
<path transform="matrix(1,0,0,-1,45.713,114.520008)" d="M 137.19913 113.38766 C 137.19913 114.01392 136.69145 114.52159 136.0652 114.52159 C 135.43894 114.52159 134.93126 114.01392 134.93126 113.38766 C 134.93126 112.7614 135.43894 112.25372 136.0652 112.25372 C 136.69145 112.25372 137.19913 112.7614 137.19913 113.38766 Z M 136.0652 113.38766 " fill="#929292"/>
<path transform="matrix(1,0,0,-1,45.713,114.520008)" d="M 159.87667 0 C 159.87667 .62625 159.36899 1.13393 158.74274 1.13393 C 158.11647 1.13393 157.6088 .62625 157.6088 0 C 157.6088 -.62625 158.11647 -1.13393 158.74274 -1.13393 C 159.36899 -1.13393 159.87667 -.62625 159.87667 0 Z M 158.74274 0 " fill="#929292"/>
<path transform="matrix(1,0,0,-1,45.713,114.520008)" d="M 159.87667 22.67752 C 159.87667 23.30377 159.36899 23.81145 158.74274 23.81145 C 158.11647 23.81145 157.6088 23.30377 157.6088 22.67752 C 157.6088 22.05125 158.11647 21.54358 158.74274 21.54358 C 159.36899 21.54358 159.87667 22.05125 159.87667 22.67752 Z M 158.74274 22.67752 " fill="#929292"/>
<path transform="matrix(1,0,0,-1,45.713,114.520008)" d="M 159.87667 45.35506 C 159.87667 45.98131 159.36899 46.48898 158.74274 46.48898 C 158.11647 46.48898 157.6088 45.98131 157.6088 45.35506 C 157.6088 44.72879 158.11647 44.22112 158.74274 44.22112 C 159.36899 44.22112 159.87667 44.72879 159.87667 45.35506 Z M 158.74274 45.35506 " fill="#929292"/>
<path transform="matrix(1,0,0,-1,45.713,114.520008)" d="M 159.87667 68.0326 C 159.87667 68.65884 159.36899 69.16652 158.74274 69.16652 C 158.11647 69.16652 157.6088 68.65884 157.6088 68.0326 C 157.6088 67.40633 158.11647 66.89865 158.74274 66.89865 C 159.36899 66.89865 159.87667 67.40633 159.87667 68.0326 Z M 158.74274 68.0326 " fill="#929292"/>
<path transform="matrix(1,0,0,-1,45.713,114.520008)" d="M 159.87667 90.71013 C 159.87667 91.33638 159.36899 91.84406 158.74274 91.84406 C 158.11647 91.84406 157.6088 91.33638 157.6088 90.71013 C 157.6088 90.08386 158.11647 89.57619 158.74274 89.57619 C 159.36899 89.57619 159.87667 90.08386 159.87667 90.71013 Z M 158.74274 90.71013 " fill="#929292"/>
<path transform="matrix(1,0,0,-1,45.713,114.520008)" d="M 159.87667 113.38766 C 159.87667 114.01392 159.36899 114.52159 158.74274 114.52159 C 158.11647 114.52159 157.6088 114.01392 157.6088 113.38766 C 157.6088 112.7614 158.11647 112.25372 158.74274 112.25372 C 159.36899 112.25372 159.87667 112.7614 159.87667 113.38766 Z M 158.74274 113.38766 " fill="#929292"/>
<path transform="matrix(1,0,0,-1,45.713,114.520008)" d="M 182.5542 0 C 182.5542 .62625 182.04653 1.13393 181.42028 1.13393 C 180.794 1.13393 180.28633 .62625 180.28633 0 C 180.28633 -.62625 180.794 -1.13393 181.42028 -1.13393 C 182.04653 -1.13393 182.5542 -.62625 182.5542 0 Z M 181.42028 0 " fill="#929292"/>
<path transform="matrix(1,0,0,-1,45.713,114.520008)" d="M 182.5542 22.67752 C 182.5542 23.30377 182.04653 23.81145 181.42028 23.81145 C 180.794 23.81145 180.28633 23.30377 180.28633 22.67752 C 180.28633 22.05125 180.794 21.54358 181.42028 21.54358 C 182.04653 21.54358 182.5542 22.05125 182.5542 22.67752 Z M 181.42028 22.67752 " fill="#929292"/>
<path transform="matrix(1,0,0,-1,45.713,114.520008)" d="M 182.5542 45.35506 C 182.5542 45.98131 182.04653 46.48898 181.42028 46.48898 C 180.794 46.48898 180.28633 45.98131 180.28633 45.35506 C 180.28633 44.72879 180.794 44.22112 181.42028 44.22112 C 182.04653 44.22112 182.5542 44.72879 182.5542 45.35506 Z M 181.42028 45.35506 " fill="#929292"/>
<path transform="matrix(1,0,0,-1,45.713,114.520008)" d="M 182.5542 68.0326 C 182.5542 68.65884 182.04653 69.16652 181.42028 69.16652 C 180.794 69.16652 180.28633 68.65884 180.28633 68.0326 C 180.28633 67.40633 180.794 66.89865 181.42028 66.89865 C 182.04653 66.89865 182.5542 67.40633 182.5542 68.0326 Z M 181.42028 68.0326 " fill="#929292"/>
<path transform="matrix(1,0,0,-1,45.713,114.520008)" d="M 182.5542 90.71013 C 182.5542 91.33638 182.04653 91.84406 181.42028 91.84406 C 180.794 91.84406 180.28633 91.33638 180.28633 90.71013 C 180.28633 90.08386 180.794 89.57619 181.42028 89.57619 C 182.04653 89.57619 182.5542 90.08386 182.5542 90.71013 Z M 181.42028 90.71013 " fill="#929292"/>
<path transform="matrix(1,0,0,-1,45.713,114.520008)" d="M 182.5542 113.38766 C 182.5542 114.01392 182.04653 114.52159 181.42028 114.52159 C 180.794 114.52159 180.28633 114.01392 180.28633 113.38766 C 180.28633 112.7614 180.794 112.25372 181.42028 112.25372 C 182.04653 112.25372 182.5542 112.7614 182.5542 113.38766 Z M 181.42028 113.38766 " fill="#929292"/>
<path transform="matrix(1,0,0,-1,45.713,114.520008)" d="M 205.23174 0 C 205.23174 .62625 204.72406 1.13393 204.09781 1.13393 C 203.47154 1.13393 202.96387 .62625 202.96387 0 C 202.96387 -.62625 203.47154 -1.13393 204.09781 -1.13393 C 204.72406 -1.13393 205.23174 -.62625 205.23174 0 Z M 204.09781 0 " fill="#929292"/>
<path transform="matrix(1,0,0,-1,45.713,114.520008)" d="M 205.23174 22.67752 C 205.23174 23.30377 204.72406 23.81145 204.09781 23.81145 C 203.47154 23.81145 202.96387 23.30377 202.96387 22.67752 C 202.96387 22.05125 203.47154 21.54358 204.09781 21.54358 C 204.72406 21.54358 205.23174 22.05125 205.23174 22.67752 Z M 204.09781 22.67752 " fill="#929292"/>
<path transform="matrix(1,0,0,-1,45.713,114.520008)" d="M 205.23174 45.35506 C 205.23174 45.98131 204.72406 46.48898 204.09781 46.48898 C 203.47154 46.48898 202.96387 45.98131 202.96387 45.35506 C 202.96387 44.72879 203.47154 44.22112 204.09781 44.22112 C 204.72406 44.22112 205.23174 44.72879 205.23174 45.35506 Z M 204.09781 45.35506 " fill="#929292"/>
<path transform="matrix(1,0,0,-1,45.713,114.520008)" d="M 205.23174 68.0326 C 205.23174 68.65884 204.72406 69.16652 204.09781 69.16652 C 203.47154 69.16652 202.96387 68.65884 202.96387 68.0326 C 202.96387 67.40633 203.47154 66.89865 204.09781 66.89865 C 204.72406 66.89865 205.23174 67.40633 205.23174 68.0326 Z M 204.09781 68.0326 " fill="#929292"/>
<path transform="matrix(1,0,0,-1,45.713,114.520008)" d="M 205.23174 90.71013 C 205.23174 91.33638 204.72406 91.84406 204.09781 91.84406 C 203.47154 91.84406 202.96387 91.33638 202.96387 90.71013 C 202.96387 90.08386 203.47154 89.57619 204.09781 89.57619 C 204.72406 89.57619 205.23174 90.08386 205.23174 90.71013 Z M 204.09781 90.71013 " fill="#929292"/>
<path transform="matrix(1,0,0,-1,45.713,114.520008)" d="M 205.23174 113.38766 C 205.23174 114.01392 204.72406 114.52159 204.09781 114.52159 C 203.47154 114.52159 202.96387 114.01392 202.96387 113.38766 C 202.96387 112.7614 203.47154 112.25372 204.09781 112.25372 C 204.72406 112.25372 205.23174 112.7614 205.23174 113.38766 Z M 204.09781 113.38766 " fill="#929292"/>
<path transform="matrix(1,0,0,-1,45.713,114.520008)" d="M 227.90926 0 C 227.90926 .62625 227.40158 1.13393 226.77533 1.13393 C 226.14907 1.13393 225.64139 .62625 225.64139 0 C 225.64139 -.62625 226.14907 -1.13393 226.77533 -1.13393 C 227.40158 -1.13393 227.90926 -.62625 227.90926 0 Z M 226.77533 0 " fill="#929292"/>
<path transform="matrix(1,0,0,-1,45.713,114.520008)" d="M 227.90926 22.67752 C 227.90926 23.30377 227.40158 23.81145 226.77533 23.81145 C 226.14907 23.81145 225.64139 23.30377 225.64139 22.67752 C 225.64139 22.05125 226.14907 21.54358 226.77533 21.54358 C 227.40158 21.54358 227.90926 22.05125 227.90926 22.67752 Z M 226.77533 22.67752 " fill="#929292"/>
<path transform="matrix(1,0,0,-1,45.713,114.520008)" d="M 227.90926 45.35506 C 227.90926 45.98131 227.40158 46.48898 226.77533 46.48898 C 226.14907 46.48898 225.64139 45.98131 225.64139 45.35506 C 225.64139 44.72879 226.14907 44.22112 226.77533 44.22112 C 227.40158 44.22112 227.90926 44.72879 227.90926 45.35506 Z M 226.77533 45.35506 " fill="#929292"/>
<path transform="matrix(1,0,0,-1,45.713,114.520008)" d="M 227.90926 68.0326 C 227.90926 68.65884 227.40158 69.16652 226.77533 69.16652 C 226.14907 69.16652 225.64139 68.65884 225.64139 68.0326 C 225.64139 67.40633 226.14907 66.89865 226.77533 66.89865 C 227.40158 66.89865 227.90926 67.40633 227.90926 68.0326 Z M 226.77533 68.0326 " fill="#929292"/>
<path transform="matrix(1,0,0,-1,45.713,114.520008)" d="M 227.90926 90.71013 C 227.90926 91.33638 227.40158 91.84406 226.77533 91.84406 C 226.14907 91.84406 225.64139 91.33638 225.64139 90.71013 C 225.64139 90.08386 226.14907 89.57619 226.77533 89.57619 C 227.40158 89.57619 227.90926 90.08386 227.90926 90.71013 Z M 226.77533 90.71013 " fill="#929292"/>
<path transform="matrix(1,0,0,-1,45.713,114.520008)" d="M 227.90926 113.38766 C 227.90926 114.01392 227.40158 114.52159 226.77533 114.52159 C 226.14907 114.52159 225.64139 114.01392 225.64139 113.38766 C 225.64139 112.7614 226.14907 112.25372 226.77533 112.25372 C 227.40158 112.25372 227.90926 112.7614 227.90926 113.38766 Z M 226.77533 113.38766 " fill="#929292"/>
<path transform="matrix(1,0,0,-1,45.713,114.520008)" d="M 250.58679 0 C 250.58679 .62625 250.07912 1.13393 249.45287 1.13393 C 248.8266 1.13393 248.31893 .62625 248.31893 0 C 248.31893 -.62625 248.8266 -1.13393 249.45287 -1.13393 C 250.07912 -1.13393 250.58679 -.62625 250.58679 0 Z M 249.45287 0 " fill="#929292"/>
<path transform="matrix(1,0,0,-1,45.713,114.520008)" d="M 250.58679 22.67752 C 250.58679 23.30377 250.07912 23.81145 249.45287 23.81145 C 248.8266 23.81145 248.31893 23.30377 248.31893 22.67752 C 248.31893 22.05125 248.8266 21.54358 249.45287 21.54358 C 250.07912 21.54358 250.58679 22.05125 250.58679 22.67752 Z M 249.45287 22.67752 " fill="#929292"/>
<path transform="matrix(1,0,0,-1,45.713,114.520008)" d="M 250.58679 45.35506 C 250.58679 45.98131 250.07912 46.48898 249.45287 46.48898 C 248.8266 46.48898 248.31893 45.98131 248.31893 45.35506 C 248.31893 44.72879 248.8266 44.22112 249.45287 44.22112 C 250.07912 44.22112 250.58679 44.72879 250.58679 45.35506 Z M 249.45287 45.35506 " fill="#929292"/>
<path transform="matrix(1,0,0,-1,45.713,114.520008)" d="M 250.58679 68.0326 C 250.58679 68.65884 250.07912 69.16652 249.45287 69.16652 C 248.8266 69.16652 248.31893 68.65884 248.31893 68.0326 C 248.31893 67.40633 248.8266 66.89865 249.45287 66.89865 C 250.07912 66.89865 250.58679 67.40633 250.58679 68.0326 Z M 249.45287 68.0326 " fill="#929292"/>
<path transform="matrix(1,0,0,-1,45.713,114.520008)" d="M 250.58679 90.71013 C 250.58679 91.33638 250.07912 91.84406 249.45287 91.84406 C 248.8266 91.84406 248.31893 91.33638 248.31893 90.71013 C 248.31893 90.08386 248.8266 89.57619 249.45287 89.57619 C 250.07912 89.57619 250.58679 90.08386 250.58679 90.71013 Z M 249.45287 90.71013 " fill="#929292"/>
<path transform="matrix(1,0,0,-1,45.713,114.520008)" d="M 250.58679 113.38766 C 250.58679 114.01392 250.07912 114.52159 249.45287 114.52159 C 248.8266 114.52159 248.31893 114.01392 248.31893 113.38766 C 248.31893 112.7614 248.8266 112.25372 249.45287 112.25372 C 250.07912 112.25372 250.58679 112.7614 250.58679 113.38766 Z M 249.45287 113.38766 " fill="#929292"/>
<path transform="matrix(1,0,0,-1,45.713,114.520008)" d="M 273.26435 0 C 273.26435 .62625 272.75666 1.13393 272.1304 1.13393 C 271.50416 1.13393 270.99647 .62625 270.99647 0 C 270.99647 -.62625 271.50416 -1.13393 272.1304 -1.13393 C 272.75666 -1.13393 273.26435 -.62625 273.26435 0 Z M 272.1304 0 " fill="#929292"/>
<path transform="matrix(1,0,0,-1,45.713,114.520008)" d="M 273.26435 22.67752 C 273.26435 23.30377 272.75666 23.81145 272.1304 23.81145 C 271.50416 23.81145 270.99647 23.30377 270.99647 22.67752 C 270.99647 22.05125 271.50416 21.54358 272.1304 21.54358 C 272.75666 21.54358 273.26435 22.05125 273.26435 22.67752 Z M 272.1304 22.67752 " fill="#929292"/>
<path transform="matrix(1,0,0,-1,45.713,114.520008)" d="M 273.26435 45.35506 C 273.26435 45.98131 272.75666 46.48898 272.1304 46.48898 C 271.50416 46.48898 270.99647 45.98131 270.99647 45.35506 C 270.99647 44.72879 271.50416 44.22112 272.1304 44.22112 C 272.75666 44.22112 273.26435 44.72879 273.26435 45.35506 Z M 272.1304 45.35506 " fill="#929292"/>
<path transform="matrix(1,0,0,-1,45.713,114.520008)" d="M 273.26435 68.0326 C 273.26435 68.65884 272.75666 69.16652 272.1304 69.16652 C 271.50416 69.16652 270.99647 68.65884 270.99647 68.0326 C 270.99647 67.40633 271.50416 66.89865 272.1304 66.89865 C 272.75666 66.89865 273.26435 67.40633 273.26435 68.0326 Z M 272.1304 68.0326 " fill="#929292"/>
<path transform="matrix(1,0,0,-1,45.713,114.520008)" d="M 273.26435 90.71013 C 273.26435 91.33638 272.75666 91.84406 272.1304 91.84406 C 271.50416 91.84406 270.99647 91.33638 270.99647 90.71013 C 270.99647 90.08386 271.50416 89.57619 272.1304 89.57619 C 272.75666 89.57619 273.26435 90.08386 273.26435 90.71013 Z M 272.1304 90.71013 " fill="#929292"/>
<path transform="matrix(1,0,0,-1,45.713,114.520008)" d="M 273.26435 113.38766 C 273.26435 114.01392 272.75666 114.52159 272.1304 114.52159 C 271.50416 114.52159 270.99647 114.01392 270.99647 113.38766 C 270.99647 112.7614 271.50416 112.25372 272.1304 112.25372 C 272.75666 112.25372 273.26435 112.7614 273.26435 113.38766 Z M 272.1304 113.38766 " fill="#929292"/>
<path transform="matrix(1,0,0,-1,45.713,114.520008)" d="M 90.71013 0 L 158.74274 0 L 45.35506 90.71013 Z " fill="#800080" fill-opacity=".1"/>
<path transform="matrix(1,0,0,-1,45.713,114.520008)" stroke-width=".79701" stroke-linecap="butt" stroke-miterlimit="10" stroke-linejoin="miter" fill="none" stroke="#800080" d="M 90.71013 0 L 158.74274 0 L 45.35506 90.71013 Z "/>
<path transform="matrix(1,0,0,-1,45.713,114.520008)" d="M 90.71013 0 L 158.74274 0 L 68.0326 90.71013 Z " fill="#800080" fill-opacity=".1"/>
<path transform="matrix(1,0,0,-1,45.713,114.520008)" stroke-width=".79701" stroke-linecap="butt" stroke-miterlimit="10" stroke-linejoin="miter" fill="none" stroke="#800080" d="M 90.71013 0 L 158.74274 0 L 68.0326 90.71013 Z "/>
<path transform="matrix(1,0,0,-1,45.713,114.520008)" d="M 90.71013 0 L 158.74274 0 L 113.38766 90.71013 Z " fill="#800080" fill-opacity=".1"/>
<path transform="matrix(1,0,0,-1,45.713,114.520008)" stroke-width=".79701" stroke-linecap="butt" stroke-miterlimit="10" stroke-linejoin="miter" fill="none" stroke="#800080" d="M 90.71013 0 L 158.74274 0 L 113.38766 90.71013 Z "/>
<path transform="matrix(1,0,0,-1,45.713,114.520008)" d="M 90.71013 0 L 158.74274 0 L 136.0652 90.71013 Z " fill="#800080" fill-opacity=".1"/>
<path transform="matrix(1,0,0,-1,45.713,114.520008)" stroke-width=".79701" stroke-linecap="butt" stroke-miterlimit="10" stroke-linejoin="miter" fill="none" stroke="#800080" d="M 90.71013 0 L 158.74274 0 L 136.0652 90.71013 Z "/>
<path transform="matrix(1,0,0,-1,45.713,114.520008)" d="M 90.71013 0 L 158.74274 0 L 158.74274 90.71013 Z " fill="#800080" fill-opacity=".1"/>
<path transform="matrix(1,0,0,-1,45.713,114.520008)" stroke-width=".79701" stroke-linecap="butt" stroke-miterlimit="10" stroke-linejoin="miter" fill="none" stroke="#800080" d="M 90.71013 0 L 158.74274 0 L 158.74274 90.71013 Z "/>
<path transform="matrix(1,0,0,-1,45.713,114.520008)" d="M 90.71013 0 L 158.74274 0 L 204.09781 90.71013 Z " fill="#800080" fill-opacity=".1"/>
<path transform="matrix(1,0,0,-1,45.713,114.520008)" stroke-width=".79701" stroke-linecap="butt" stroke-miterlimit="10" stroke-linejoin="miter" fill="none" stroke="#800080" d="M 90.71013 0 L 158.74274 0 L 204.09781 90.71013 Z "/>
<path transform="matrix(1,0,0,-1,45.713,114.520008)" d="M 90.71013 0 L 158.74274 0 L 249.45287 90.71013 Z " fill="#800080" fill-opacity=".1"/>
<path transform="matrix(1,0,0,-1,45.713,114.520008)" stroke-width=".79701" stroke-linecap="butt" stroke-miterlimit="10" stroke-linejoin="miter" fill="none" stroke="#800080" d="M 90.71013 0 L 158.74274 0 L 249.45287 90.71013 Z "/>
<symbol id="font_0_1">
<path d="M .88400009 .606 C .89300009 .642 .89500007 .652 .9700001 .652 C .9930001 .652 1.002 .652 1.002 .67200008 C 1.002 .683 .99200007 .683 .9750001 .683 L .84300008 .683 C .81700006 .683 .81600007 .683 .804 .66400006 L .43900005 .094000007 L .36100004 .66 C .358 .683 .35600005 .683 .33 .683 L .19300002 .683 C .174 .683 .16300002 .683 .16300002 .66400006 C .16300002 .652 .17200002 .652 .192 .652 C .20500002 .652 .22300002 .651 .23500002 .65000006 C .25100003 .648 .25700004 .64500007 .25700004 .634 C .25700004 .63000008 .256 .62700006 .25300003 .615 L .12600002 .106000009 C .116000007 .066 .099 .034 .018 .031000002 C .013 .031000002 0 .030000002 0 .012 C 0 .003 .0059999974 0 .013999999 0 C .046000005 0 .081 .003 .114 .003 C .148 .003 .18400002 0 .21700001 0 C .222 0 .23500002 0 .23500002 .020000002 C .23500002 .031000002 .224 .031000002 .21700001 .031000002 C .16 .032 .14900002 .052 .14900002 .075 C .14900002 .082 .15 .087000008 .153 .098000008 L .28900004 .643 L .29000003 .643 L .37600003 .023000002 C .37800003 .011000001 .37900005 0 .39100004 0 C .40200005 0 .40800003 .011000001 .41300003 .018000002 L .81700006 .651 L .818 .651 L .675 .078 C .665 .039 .66300007 .031000002 .58400008 .031000002 C .56700006 .031000002 .55600008 .031000002 .55600008 .012 C .55600008 0 .568 0 .57100006 0 C .59900006 0 .66700008 .003 .69500008 .003 C .73600009 .003 .77900007 0 .82000008 0 C .82600006 0 .83900007 0 .83900007 .020000002 C .83900007 .031000002 .83000007 .031000002 .81100007 .031000002 C .77400007 .031000002 .74600008 .031000002 .74600008 .049000004 C .74600008 .053000004 .74600008 .055000005 .75100007 .07300001 L .88400009 .606 Z "/>
</symbol>
<use xlink:href="#font_0_1" transform="matrix(9.9626,0,0,-9.9626,131.46443,124.727008)"/>
<symbol id="font_0_2">
<path d="M .71700009 .578 C .72700008 .61800006 .74500009 .64900007 .82500007 .652 C .83000007 .652 .84200009 .65300008 .84200009 .67200008 C .84200009 .67300006 .84200009 .683 .82900008 .683 C .79600009 .683 .76100006 .68 .72800007 .68 C .69400009 .68 .65900006 .683 .62600007 .683 C .62000009 .683 .60800006 .683 .60800006 .66300007 C .60800006 .652 .61800006 .652 .62600007 .652 C .6830001 .651 .69400009 .63000008 .69400009 .60800006 C .69400009 .605 .69200006 .59000006 .69100007 .587 L .57900008 .142 L .358 .66400006 C .35000003 .68200007 .349 .683 .326 .683 L .192 .683 C .172 .683 .163 .683 .163 .66300007 C .163 .652 .172 .652 .191 .652 C .19600001 .652 .259 .652 .259 .643 L .125 .106000009 C .11500001 .066 .098000008 .034 .017 .031000002 C .011 .031000002 0 .030000002 0 .011000001 C 0 .004 .0050000029 0 .013 0 C .045000007 0 .08 .003 .113000009 .003 C .147 .003 .18300002 0 .21600002 0 C .22100002 0 .234 0 .234 .020000002 C .234 .030000002 .225 .031000002 .21400002 .031000002 C .156 .033 .148 .055000005 .148 .075 C .148 .082 .149 .087000008 .15200001 .098000008 L .284 .62600007 C .28800003 .62 .28800003 .61800006 .293 .60800006 L .54200008 .019000002 C .549 .002 .55200007 0 .56100007 0 C .572 0 .572 .003 .5770001 .021000002 L .71700009 .578 Z "/>
</symbol>
<use xlink:href="#font_0_2" transform="matrix(9.9626,0,0,-9.9626,200.29654,124.727008)"/>
<symbol id="font_0_3">
<path d="M .40300004 .60700008 C .41000004 .63500007 .41400004 .64100006 .42600004 .64400008 C .43500004 .646 .46800003 .646 .48900003 .646 C .59000006 .646 .63500007 .642 .63500007 .564 C .63500007 .549 .63100007 .51000007 .62700006 .48400004 C .62600007 .48000003 .624 .46800003 .624 .46500004 C .624 .45900003 .62700006 .45200003 .63600006 .45200003 C .647 .45200003 .64900007 .46 .651 .47500003 L .67800006 .64900007 C .679 .65300008 .68000009 .66300007 .68000009 .666 C .68000009 .67700007 .67 .67700007 .65300008 .67700007 L .098000008 .67700007 C .074 .67700007 .073 .67600008 .066 .657 L .006000001 .48100005 C .005000001 .47900004 0 .46500004 0 .46300004 C 0 .45700003 .005000001 .45200003 .012000002 .45200003 C .022000004 .45200003 .023000002 .45700003 .029000003 .47300003 C .083000008 .628 .109 .646 .25700004 .646 L .29600004 .646 C .32400004 .646 .32400004 .642 .32400004 .634 C .32400004 .628 .32100005 .61600008 .32000003 .61300006 L .186 .079 C .177 .042000005 .17400001 .031000002 .067 .031000002 C .031000004 .031000002 .025000003 .031000002 .025000003 .012 C .025000003 0 .036000004 0 .042 0 C .069000009 0 .097 .002 .124 .002 C .15200001 .002 .18100001 .003 .209 .003 C .237 .003 .26500003 .002 .29200004 .002 C .32100005 .002 .35100005 0 .37900005 0 C .38900004 0 .40100003 0 .40100003 .020000002 C .40100003 .031000002 .39300005 .031000002 .36700005 .031000002 C .34200005 .031000002 .32900004 .031000002 .30300004 .033 C .27400003 .036000004 .26600004 .039 .26600004 .055000005 C .26600004 .056 .26600004 .061000006 .27 .076000008 L .40300004 .60700008 Z "/>
</symbol>
<use xlink:href="#font_0_3" transform="matrix(9.9626,0,0,-9.9626,87.7041,20.412003)"/>
<symbol id="font_0_4">
<path d="M .5680001 .6 C .57800009 .64100006 .5960001 .67100009 .676 .674 C .681 .674 .6930001 .6750001 .6930001 .69400009 C .6930001 .69500008 .6930001 .70500007 .68000009 .70500007 C .6470001 .70500007 .612 .702 .57800009 .702 C .544 .702 .50699999 .70500007 .474 .70500007 C .46800003 .70500007 .456 .70500007 .456 .68500009 C .456 .674 .46600006 .674 .474 .674 C .531 .67300006 .54200008 .65200009 .54200008 .63000008 C .54200008 .62700006 .5400001 .61200007 .53900006 .609 L .44900004 .252 C .41500003 .118 .3 .031000004 .20000002 .031000004 C .13200002 .031000004 .07800001 .075 .07800001 .16100002 C .07800001 .163 .07800001 .19500001 .089 .23900001 L .18600002 .628 C .19500003 .66400006 .197 .674 .27 .674 C .296 .674 .30400003 .674 .30400003 .69400009 C .30400003 .70500007 .293 .70500007 .29000003 .70500007 C .26200003 .70500007 .19 .702 .16200002 .702 C .133 .702 .062000008 .70500007 .033 .70500007 C .025000006 .70500007 .013999999 .70500007 .013999999 .68500009 C .013999999 .674 .023000002 .674 .042000005 .674 C .044000009 .674 .06300001 .674 .08 .67200008 C .098000008 .67 .10700001 .669 .10700001 .656 C .10700001 .65000006 .096 .60800006 .09 .58500006 L .068 .49700005 C .059 .45800004 .011 .26900003 .0069999995 .25000004 C 0 .222 0 .207 0 .192 C 0 .07 .091000009 0 .19600001 0 C .32200004 0 .446 .113000009 .479 .245 L .5680001 .6 Z "/>
</symbol>
<use xlink:href="#font_0_4" transform="matrix(9.9626,0,0,-9.9626,110.46849,20.63118)"/>
<symbol id="font_0_5">
<path d="M .572 .591 C .62100008 .669 .66300007 .67200008 .70000007 .674 C .712 .6750001 .71300008 .69200006 .71300008 .693 C .71300008 .70100006 .70800009 .70500007 .70000007 .70500007 C .674 .70500007 .64500007 .702 .61800006 .702 C .58500006 .702 .55100008 .70500007 .51900008 .70500007 C .513 .70500007 .50000008 .70500007 .50000008 .68600007 C .50000008 .6750001 .509 .674 .51600006 .674 C .54300007 .67200008 .56200006 .66200008 .56200006 .64100006 C .56200006 .62600007 .54700008 .60400006 .54700008 .60300007 L .24000001 .115 L .17200002 .64400008 C .17200002 .6610001 .19500003 .674 .24100003 .674 C .25500003 .674 .26600004 .674 .26600004 .69400009 C .26600004 .70300009 .25800003 .70500007 .25200004 .70500007 C .21200001 .70500007 .169 .702 .12800002 .702 C .11000001 .702 .091 .70300009 .07300001 .70300009 C .055000009 .70300009 .036000007 .70500007 .019000002 .70500007 C .012000002 .70500007 0 .70500007 0 .68600007 C 0 .674 .009000003 .674 .024999999 .674 C .08100001 .674 .08200001 .665 .085 .64000007 L .164 .023000002 C .167 .0030000006 .171 0 .18400002 0 C .20000002 0 .20400003 .005000001 .21200001 .018000002 L .572 .591 Z "/>
</symbol>
<use xlink:href="#font_0_5" transform="matrix(9.9626,0,0,-9.9626,155.64492,20.63118)"/>
<symbol id="font_0_6">
<path d="M .86200007 .58900007 C .887 .633 .911 .669 .97400006 .674 C .9830001 .6750001 .9930001 .6750001 .9930001 .69400009 C .9930001 .6980001 .989 .70500007 .981 .70500007 C .9570001 .70500007 .929 .702 .90400007 .702 C .87000009 .702 .83300009 .70500007 .8 .70500007 C .794 .70500007 .781 .70500007 .781 .68600007 C .781 .6750001 .79 .674 .796 .674 C .82000008 .67300006 .855 .665 .855 .63500007 C .855 .6240001 .85 .61600008 .842 .60200008 L .572 .13100001 L .535 .62700006 C .53400006 .647 .532 .67300006 .605 .674 C .62200006 .674 .632 .674 .632 .69400009 C .632 .70400008 .62100008 .70500007 .61700007 .70500007 C .577 .70500007 .535 .702 .495 .702 C .472 .702 .41300003 .70500007 .39000003 .70500007 C .384 .70500007 .37100003 .70500007 .37100003 .68500009 C .37100003 .674 .381 .674 .395 .674 C .439 .674 .44600005 .66800007 .448 .64900007 L .454 .572 L .201 .13100001 L .163 .6380001 C .163 .65000006 .163 .67300006 .239 .674 C .24900002 .674 .26000003 .674 .26000003 .69400009 C .26000003 .70500007 .248 .70500007 .24600002 .70500007 C .206 .70500007 .164 .702 .122999999 .702 C .088 .702 .052000006 .70500007 .018000003 .70500007 C .013 .70500007 0 .70500007 0 .68600007 C 0 .674 .009 .674 .025000003 .674 C .075 .674 .076000008 .665 .077999997 .637 L .122999999 .026000003 C .124 .008000001 .125 0 .139 0 C .15100001 0 .154 .006000001 .163 .021000002 L .45700003 .531 L .49400003 .026000003 C .496 .005000001 .49800004 0 .51 0 C .523 0 .52900007 .010000002 .53400006 .019000002 L .86200007 .58900007 Z "/>
</symbol>
<use xlink:href="#font_0_6" transform="matrix(9.9626,0,0,-9.9626,176.92795,20.63118)"/>
<symbol id="font_0_7">
<path d="M .458 .411 L .374 .61 C .37100003 .61800006 .36900003 .62200006 .36900003 .623 C .36900003 .629 .386 .648 .428 .652 C .43800003 .65300008 .448 .65400007 .448 .671 C .448 .683 .43600003 .683 .433 .683 C .39200003 .683 .349 .68 .307 .68 C .282 .68 .22000002 .683 .19500003 .683 C .18900001 .683 .17700002 .683 .17700002 .66300007 C .17700002 .652 .18700002 .652 .20000002 .652 C .26 .652 .266 .642 .275 .62 L .393 .34100003 L .18200001 .11400001 L .16900002 .10300001 C .12 .05 .073 .034 .022000002 .031000002 C .0090000019 .030000002 0 .030000002 0 .011000001 C 0 .010000001 0 0 .013000002 0 C .042999999 0 .076000008 .003 .107 .003 C .14400001 .003 .18300002 0 .21900001 0 C .22500001 0 .237 0 .237 .020000002 C .237 .030000002 .22700002 .031000002 .22500001 .031000002 C .21600002 .032 .18500002 .034 .18500002 .062000004 C .18500002 .078 .20000002 .094000007 .21200001 .10700001 L .314 .215 L .404 .31300003 L .505 .074 C .509 .063 .51 .062000004 .51 .060000004 C .51 .052 .491 .035 .45200003 .031000002 C .441 .030000002 .432 .029000001 .432 .012 C .432 0 .44300003 0 .44700004 0 C .47500003 0 .545 .003 .573 .003 C .598 .003 .65900006 0 .684 0 C .69100007 0 .703 0 .703 .019000002 C .703 .031000002 .693 .031000002 .685 .031000002 C .61800006 .032 .616 .035 .59900006 .075 C .56 .16800002 .49300004 .324 .47 .384 C .538 .45400004 .643 .573 .675 .601 C .704 .625 .74200007 .64900007 .80200007 .652 C .81500008 .65300008 .824 .65300008 .824 .67200008 C .824 .67300006 .824 .683 .81100007 .683 C .781 .683 .748 .68 .717 .68 C .68 .68 .642 .683 .606 .683 C .6 .683 .587 .683 .587 .66300007 C .587 .656 .592 .65300008 .59900006 .652 C .60800006 .651 .639 .64900007 .639 .62100008 C .639 .60700008 .628 .59400007 .62 .58500006 L .458 .411 Z "/>
</symbol>
<use xlink:href="#font_0_7" transform="matrix(9.9626,0,0,-9.9626,200.205,20.412003)"/>
<symbol id="font_0_8">
<path d="M .562 .569 L .576 .583 C .606 .61300006 .639 .647 .707 .652 C .718 .65300008 .727 .65300008 .727 .671 C .727 .679 .722 .683 .714 .683 C .688 .683 .659 .68 .632 .68 C .599 .68 .564 .683 .532 .683 C .526 .683 .513 .683 .513 .66400006 C .513 .65300008 .523 .652 .528 .652 C .535 .652 .564 .65000006 .564 .629 C .564 .61200007 .541 .586 .537 .58100005 L .305 .314 L .19500001 .611 C .18900001 .625 .18900001 .62700006 .18900001 .628 C .18900001 .652 .238 .652 .24800003 .652 C .26200003 .652 .272 .652 .272 .67200008 C .272 .683 .26000003 .683 .25700004 .683 C .229 .683 .15900001 .68 .13100001 .68 C .106000009 .68 .044000005 .683 .019000002 .683 C .013 .683 0 .683 0 .66300007 C 0 .652 .010000002 .652 .023000002 .652 C .083000008 .652 .08700001 .643 .096000019 .61800006 L .21900001 .289 C .22000003 .286 .22300002 .275 .22300002 .272 C .22300002 .26900003 .18300002 .108 .17800002 .09 C .165 .035 .16400002 .032 .08400001 .031000002 C .065 .031000002 .057000009 .031000002 .057000009 .011000001 C .057000009 0 .069000009 0 .07100001 0 C .09900001 0 .16900002 .003 .19700001 .003 C .22500003 .003 .29700003 0 .32500003 0 C .33200003 0 .344 0 .344 .020000002 C .344 .031000002 .335 .031000002 .316 .031000002 C .314 .031000002 .29500003 .031000002 .27800004 .033 C .25700004 .035 .25100003 .037 .25100003 .049000004 C .25100003 .056 .26000003 .091000009 .26500003 .112 L .3 .25300003 C .305 .272 .30600003 .275 .314 .284 L .562 .569 Z "/>
</symbol>
<use xlink:href="#font_0_8" transform="matrix(9.9626,0,0,-9.9626,246.15769,20.412003)"/>
<symbol id="font_0_9">
<path d="M .662 .65900006 C .663 .66300007 .665 .66800007 .665 .674 C .665 .683 .66 .683 .64 .683 L .21800003 .683 C .194 .683 .19300002 .68200007 .187 .66300007 L .13200002 .483 C .13000001 .47800002 .12900001 .47100003 .12900001 .469 C .12900001 .46800003 .12900001 .45800004 .14100002 .45800004 C .15 .45800004 .15200001 .46500004 .15400002 .46800003 C .192 .586 .24400002 .652 .40000005 .652 L .563 .652 L .0040000008 .027 C .0040000008 .026 0 .012 0 .009000001 C 0 0 .007000003 0 .025000003 0 L .46 0 C .48400007 0 .48500005 .001 .49100004 .020000002 L .562 .24100001 C .563 .245 .566 .252 .566 .256 C .566 .261 .562 .26700003 .553 .26700003 C .544 .26700003 .543 .263 .536 .24200002 C .492 .106000009 .44400005 .034 .27400003 .034 L .103000018 .034 L .662 .65900006 Z "/>
</symbol>
<use xlink:href="#font_0_9" transform="matrix(9.9626,0,0,-9.9626,291.98384,20.412003)"/>
<path transform="matrix(1,0,0,-1,45.713,114.520008)" stroke-width=".3985" stroke-linecap="butt" stroke-miterlimit="10" stroke-linejoin="miter" fill="none" stroke="#ffffff" d="M -45.19566 0 C -45.19566 .08801 -45.26703 .15938 -45.35506 .15938 C -45.44307 .15938 -45.51443 .08801 -45.51443 0 C -45.51443 -.08801 -45.44307 -.15938 -45.35506 -.15938 C -45.26703 -.15938 -45.19566 -.08801 -45.19566 0 Z M -45.35506 0 "/>
<path transform="matrix(1,0,0,-1,45.713,114.520008)" stroke-width=".3985" stroke-linecap="butt" stroke-miterlimit="10" stroke-linejoin="miter" fill="none" stroke="#ffffff" d="M 340.3224 0 C 340.3224 .08801 340.251 .15938 340.16304 .15938 C 340.07499 .15938 340.00364 .08801 340.00364 0 C 340.00364 -.08801 340.07499 -.15938 340.16304 -.15938 C 340.251 -.15938 340.3224 -.08801 340.3224 0 Z M 340.16304 0 "/>
</g>
</svg>
