<?xml version="1.0" encoding="UTF-8" standalone="no"?>
<!DOCTYPE svg PUBLIC "-//W3C//DTD SVG 1.1//EN" "http://www.w3.org/Graphics/SVG/1.1/DTD/svg11.dtd">
<svg xmlns="http://www.w3.org/2000/svg" xmlns:xlink="http://www.w3.org/1999/xlink" version="1.1" width="297.072pt" height="206.363pt" viewBox="0 0 297.072 206.363">
<g enable-background="new">
<path transform="matrix(1,0,0,-1,1.134,205.229)" d="M 1.13393 0 C 1.13393 .62625 .62625 1.13393 0 1.13393 C -.62625 1.13393 -1.13393 .62625 -1.13393 0 C -1.13393 -.62625 -.62625 -1.13393 0 -1.13393 C .62625 -1.13393 1.13393 -.62625 1.13393 0 Z M 0 0 " fill="#929292"/>
<path transform="matrix(1,0,0,-1,1.134,205.229)" d="M 1.13393 22.67752 C 1.13393 23.30377 .62625 23.81145 0 23.81145 C -.62625 23.81145 -1.13393 23.30377 -1.13393 22.67752 C -1.13393 22.05125 -.62625 21.54358 0 21.54358 C .62625 21.54358 1.13393 22.05125 1.13393 22.67752 Z M 0 22.67752 " fill="#929292"/>
<path transform="matrix(1,0,0,-1,1.134,205.229)" d="M 1.13393 45.35506 C 1.13393 45.98131 .62625 46.48898 0 46.48898 C -.62625 46.48898 -1.13393 45.98131 -1.13393 45.35506 C -1.13393 44.72879 -.62625 44.22112 0 44.22112 C .62625 44.22112 1.13393 44.72879 1.13393 45.35506 Z M 0 45.35506 " fill="#929292"/>
<path transform="matrix(1,0,0,-1,1.134,205.229)" d="M 1.13393 68.0326 C 1.13393 68.65884 .62625 69.16652 0 69.16652 C -.62625 69.16652 -1.13393 68.65884 -1.13393 68.0326 C -1.13393 67.40633 -.62625 66.89865 0 66.89865 C .62625 66.89865 1.13393 67.40633 1.13393 68.0326 Z M 0 68.0326 " fill="#929292"/>
<path transform="matrix(1,0,0,-1,1.134,205.229)" d="M 1.13393 90.71013 C 1.13393 91.33638 .62625 91.84406 0 91.84406 C -.62625 91.84406 -1.13393 91.33638 -1.13393 90.71013 C -1.13393 90.08386 -.62625 89.57619 0 89.57619 C .62625 89.57619 1.13393 90.08386 1.13393 90.71013 Z M 0 90.71013 " fill="#929292"/>
<path transform="matrix(1,0,0,-1,1.134,205.229)" d="M 1.13393 113.38766 C 1.13393 114.01392 .62625 114.52159 0 114.52159 C -.62625 114.52159 -1.13393 114.01392 -1.13393 113.38766 C -1.13393 112.7614 -.62625 112.25372 0 112.25372 C .62625 112.25372 1.13393 112.7614 1.13393 113.38766 Z M 0 113.38766 " fill="#929292"/>
<path transform="matrix(1,0,0,-1,1.134,205.229)" d="M 1.13393 136.0652 C 1.13393 136.69145 .62625 137.19913 0 137.19913 C -.62625 137.19913 -1.13393 136.69145 -1.13393 136.0652 C -1.13393 135.43894 -.62625 134.93126 0 134.93126 C .62625 134.93126 1.13393 135.43894 1.13393 136.0652 Z M 0 136.0652 " fill="#929292"/>
<path transform="matrix(1,0,0,-1,1.134,205.229)" d="M 1.13393 158.74274 C 1.13393 159.36899 .62625 159.87667 0 159.87667 C -.62625 159.87667 -1.13393 159.36899 -1.13393 158.74274 C -1.13393 158.11647 -.62625 157.6088 0 157.6088 C .62625 157.6088 1.13393 158.11647 1.13393 158.74274 Z M 0 158.74274 " fill="#929292"/>
<path transform="matrix(1,0,0,-1,1.134,205.229)" d="M 1.13393 181.42028 C 1.13393 182.04653 .62625 182.5542 0 182.5542 C -.62625 182.5542 -1.13393 182.04653 -1.13393 181.42028 C -1.13393 180.794 -.62625 180.28633 0 180.28633 C .62625 180.28633 1.13393 180.794 1.13393 181.42028 Z M 0 181.42028 " fill="#929292"/>
<path transform="matrix(1,0,0,-1,1.134,205.229)" d="M 1.13393 204.09781 C 1.13393 204.72406 .62625 205.23174 0 205.23174 C -.62625 205.23174 -1.13393 204.72406 -1.13393 204.09781 C -1.13393 203.47154 -.62625 202.96387 0 202.96387 C .62625 202.96387 1.13393 203.47154 1.13393 204.09781 Z M 0 204.09781 " fill="#929292"/>
<path transform="matrix(1,0,0,-1,1.134,205.229)" d="M 23.81145 0 C 23.81145 .62625 23.30377 1.13393 22.67752 1.13393 C 22.05125 1.13393 21.54358 .62625 21.54358 0 C 21.54358 -.62625 22.05125 -1.13393 22.67752 -1.13393 C 23.30377 -1.13393 23.81145 -.62625 23.81145 0 Z M 22.67752 0 " fill="#929292"/>
<path transform="matrix(1,0,0,-1,1.134,205.229)" d="M 23.81145 22.67752 C 23.81145 23.30377 23.30377 23.81145 22.67752 23.81145 C 22.05125 23.81145 21.54358 23.30377 21.54358 22.67752 C 21.54358 22.05125 22.05125 21.54358 22.67752 21.54358 C 23.30377 21.54358 23.81145 22.05125 23.81145 22.67752 Z M 22.67752 22.67752 " fill="#929292"/>
<path transform="matrix(1,0,0,-1,1.134,205.229)" d="M 23.81145 45.35506 C 23.81145 45.98131 23.30377 46.48898 22.67752 46.48898 C 22.05125 46.48898 21.54358 45.98131 21.54358 45.35506 C 21.54358 44.72879 22.05125 44.22112 22.67752 44.22112 C 23.30377 44.22112 23.81145 44.72879 23.81145 45.35506 Z M 22.67752 45.35506 " fill="#929292"/>
<path transform="matrix(1,0,0,-1,1.134,205.229)" d="M 23.81145 68.0326 C 23.81145 68.65884 23.30377 69.16652 22.67752 69.16652 C 22.05125 69.16652 21.54358 68.65884 21.54358 68.0326 C 21.54358 67.40633 22.05125 66.89865 22.67752 66.89865 C 23.30377 66.89865 23.81145 67.40633 23.81145 68.0326 Z M 22.67752 68.0326 " fill="#929292"/>
<path transform="matrix(1,0,0,-1,1.134,205.229)" d="M 23.81145 90.71013 C 23.81145 91.33638 23.30377 91.84406 22.67752 91.84406 C 22.05125 91.84406 21.54358 91.33638 21.54358 90.71013 C 21.54358 90.08386 22.05125 89.57619 22.67752 89.57619 C 23.30377 89.57619 23.81145 90.08386 23.81145 90.71013 Z M 22.67752 90.71013 " fill="#929292"/>
<path transform="matrix(1,0,0,-1,1.134,205.229)" d="M 23.81145 113.38766 C 23.81145 114.01392 23.30377 114.52159 22.67752 114.52159 C 22.05125 114.52159 21.54358 114.01392 21.54358 113.38766 C 21.54358 112.7614 22.05125 112.25372 22.67752 112.25372 C 23.30377 112.25372 23.81145 112.7614 23.81145 113.38766 Z M 22.67752 113.38766 " fill="#929292"/>
<path transform="matrix(1,0,0,-1,1.134,205.229)" d="M 23.81145 136.0652 C 23.81145 136.69145 23.30377 137.19913 22.67752 137.19913 C 22.05125 137.19913 21.54358 136.69145 21.54358 136.0652 C 21.54358 135.43894 22.05125 134.93126 22.67752 134.93126 C 23.30377 134.93126 23.81145 135.43894 23.81145 136.0652 Z M 22.67752 136.0652 " fill="#929292"/>
<path transform="matrix(1,0,0,-1,1.134,205.229)" d="M 23.81145 158.74274 C 23.81145 159.36899 23.30377 159.87667 22.67752 159.87667 C 22.05125 159.87667 21.54358 159.36899 21.54358 158.74274 C 21.54358 158.11647 22.05125 157.6088 22.67752 157.6088 C 23.30377 157.6088 23.81145 158.11647 23.81145 158.74274 Z M 22.67752 158.74274 " fill="#929292"/>
<path transform="matrix(1,0,0,-1,1.134,205.229)" d="M 23.81145 181.42028 C 23.81145 182.04653 23.30377 182.5542 22.67752 182.5542 C 22.05125 182.5542 21.54358 182.04653 21.54358 181.42028 C 21.54358 180.794 22.05125 180.28633 22.67752 180.28633 C 23.30377 180.28633 23.81145 180.794 23.81145 181.42028 Z M 22.67752 181.42028 " fill="#929292"/>
<path transform="matrix(1,0,0,-1,1.134,205.229)" d="M 23.81145 204.09781 C 23.81145 204.72406 23.30377 205.23174 22.67752 205.23174 C 22.05125 205.23174 21.54358 204.72406 21.54358 204.09781 C 21.54358 203.47154 22.05125 202.96387 22.67752 202.96387 C 23.30377 202.96387 23.81145 203.47154 23.81145 204.09781 Z M 22.67752 204.09781 " fill="#929292"/>
<path transform="matrix(1,0,0,-1,1.134,205.229)" d="M 46.48898 0 C 46.48898 .62625 45.98131 1.13393 45.35506 1.13393 C 44.72879 1.13393 44.22112 .62625 44.22112 0 C 44.22112 -.62625 44.72879 -1.13393 45.35506 -1.13393 C 45.98131 -1.13393 46.48898 -.62625 46.48898 0 Z M 45.35506 0 " fill="#929292"/>
<path transform="matrix(1,0,0,-1,1.134,205.229)" d="M 46.48898 22.67752 C 46.48898 23.30377 45.98131 23.81145 45.35506 23.81145 C 44.72879 23.81145 44.22112 23.30377 44.22112 22.67752 C 44.22112 22.05125 44.72879 21.54358 45.35506 21.54358 C 45.98131 21.54358 46.48898 22.05125 46.48898 22.67752 Z M 45.35506 22.67752 " fill="#929292"/>
<path transform="matrix(1,0,0,-1,1.134,205.229)" d="M 46.48898 45.35506 C 46.48898 45.98131 45.98131 46.48898 45.35506 46.48898 C 44.72879 46.48898 44.22112 45.98131 44.22112 45.35506 C 44.22112 44.72879 44.72879 44.22112 45.35506 44.22112 C 45.98131 44.22112 46.48898 44.72879 46.48898 45.35506 Z M 45.35506 45.35506 " fill="#929292"/>
<path transform="matrix(1,0,0,-1,1.134,205.229)" d="M 46.48898 68.0326 C 46.48898 68.65884 45.98131 69.16652 45.35506 69.16652 C 44.72879 69.16652 44.22112 68.65884 44.22112 68.0326 C 44.22112 67.40633 44.72879 66.89865 45.35506 66.89865 C 45.98131 66.89865 46.48898 67.40633 46.48898 68.0326 Z M 45.35506 68.0326 " fill="#929292"/>
<path transform="matrix(1,0,0,-1,1.134,205.229)" d="M 46.48898 90.71013 C 46.48898 91.33638 45.98131 91.84406 45.35506 91.84406 C 44.72879 91.84406 44.22112 91.33638 44.22112 90.71013 C 44.22112 90.08386 44.72879 89.57619 45.35506 89.57619 C 45.98131 89.57619 46.48898 90.08386 46.48898 90.71013 Z M 45.35506 90.71013 " fill="#929292"/>
<path transform="matrix(1,0,0,-1,1.134,205.229)" d="M 46.48898 113.38766 C 46.48898 114.01392 45.98131 114.52159 45.35506 114.52159 C 44.72879 114.52159 44.22112 114.01392 44.22112 113.38766 C 44.22112 112.7614 44.72879 112.25372 45.35506 112.25372 C 45.98131 112.25372 46.48898 112.7614 46.48898 113.38766 Z M 45.35506 113.38766 " fill="#929292"/>
<path transform="matrix(1,0,0,-1,1.134,205.229)" d="M 46.48898 136.0652 C 46.48898 136.69145 45.98131 137.19913 45.35506 137.19913 C 44.72879 137.19913 44.22112 136.69145 44.22112 136.0652 C 44.22112 135.43894 44.72879 134.93126 45.35506 134.93126 C 45.98131 134.93126 46.48898 135.43894 46.48898 136.0652 Z M 45.35506 136.0652 " fill="#929292"/>
<path transform="matrix(1,0,0,-1,1.134,205.229)" d="M 46.48898 158.74274 C 46.48898 159.36899 45.98131 159.87667 45.35506 159.87667 C 44.72879 159.87667 44.22112 159.36899 44.22112 158.74274 C 44.22112 158.11647 44.72879 157.6088 45.35506 157.6088 C 45.98131 157.6088 46.48898 158.11647 46.48898 158.74274 Z M 45.35506 158.74274 " fill="#929292"/>
<path transform="matrix(1,0,0,-1,1.134,205.229)" d="M 46.48898 181.42028 C 46.48898 182.04653 45.98131 182.5542 45.35506 182.5542 C 44.72879 182.5542 44.22112 182.04653 44.22112 181.42028 C 44.22112 180.794 44.72879 180.28633 45.35506 180.28633 C 45.98131 180.28633 46.48898 180.794 46.48898 181.42028 Z M 45.35506 181.42028 " fill="#929292"/>
<path transform="matrix(1,0,0,-1,1.134,205.229)" d="M 46.48898 204.09781 C 46.48898 204.72406 45.98131 205.23174 45.35506 205.23174 C 44.72879 205.23174 44.22112 204.72406 44.22112 204.09781 C 44.22112 203.47154 44.72879 202.96387 45.35506 202.96387 C 45.98131 202.96387 46.48898 203.47154 46.48898 204.09781 Z M 45.35506 204.09781 " fill="#929292"/>
<path transform="matrix(1,0,0,-1,1.134,205.229)" d="M 69.16652 0 C 69.16652 .62625 68.65884 1.13393 68.0326 1.13393 C 67.40633 1.13393 66.89865 .62625 66.89865 0 C 66.89865 -.62625 67.40633 -1.13393 68.0326 -1.13393 C 68.65884 -1.13393 69.16652 -.62625 69.16652 0 Z M 68.0326 0 " fill="#929292"/>
<path transform="matrix(1,0,0,-1,1.134,205.229)" d="M 69.16652 22.67752 C 69.16652 23.30377 68.65884 23.81145 68.0326 23.81145 C 67.40633 23.81145 66.89865 23.30377 66.89865 22.67752 C 66.89865 22.05125 67.40633 21.54358 68.0326 21.54358 C 68.65884 21.54358 69.16652 22.05125 69.16652 22.67752 Z M 68.0326 22.67752 " fill="#929292"/>
<path transform="matrix(1,0,0,-1,1.134,205.229)" d="M 69.16652 45.35506 C 69.16652 45.98131 68.65884 46.48898 68.0326 46.48898 C 67.40633 46.48898 66.89865 45.98131 66.89865 45.35506 C 66.89865 44.72879 67.40633 44.22112 68.0326 44.22112 C 68.65884 44.22112 69.16652 44.72879 69.16652 45.35506 Z M 68.0326 45.35506 " fill="#929292"/>
<path transform="matrix(1,0,0,-1,1.134,205.229)" d="M 69.16652 68.0326 C 69.16652 68.65884 68.65884 69.16652 68.0326 69.16652 C 67.40633 69.16652 66.89865 68.65884 66.89865 68.0326 C 66.89865 67.40633 67.40633 66.89865 68.0326 66.89865 C 68.65884 66.89865 69.16652 67.40633 69.16652 68.0326 Z M 68.0326 68.0326 " fill="#929292"/>
<path transform="matrix(1,0,0,-1,1.134,205.229)" d="M 69.16652 90.71013 C 69.16652 91.33638 68.65884 91.84406 68.0326 91.84406 C 67.40633 91.84406 66.89865 91.33638 66.89865 90.71013 C 66.89865 90.08386 67.40633 89.57619 68.0326 89.57619 C 68.65884 89.57619 69.16652 90.08386 69.16652 90.71013 Z M 68.0326 90.71013 " fill="#929292"/>
<path transform="matrix(1,0,0,-1,1.134,205.229)" d="M 69.16652 113.38766 C 69.16652 114.01392 68.65884 114.52159 68.0326 114.52159 C 67.40633 114.52159 66.89865 114.01392 66.89865 113.38766 C 66.89865 112.7614 67.40633 112.25372 68.0326 112.25372 C 68.65884 112.25372 69.16652 112.7614 69.16652 113.38766 Z M 68.0326 113.38766 " fill="#929292"/>
<path transform="matrix(1,0,0,-1,1.134,205.229)" d="M 69.16652 136.0652 C 69.16652 136.69145 68.65884 137.19913 68.0326 137.19913 C 67.40633 137.19913 66.89865 136.69145 66.89865 136.0652 C 66.89865 135.43894 67.40633 134.93126 68.0326 134.93126 C 68.65884 134.93126 69.16652 135.43894 69.16652 136.0652 Z M 68.0326 136.0652 " fill="#929292"/>
<path transform="matrix(1,0,0,-1,1.134,205.229)" d="M 69.16652 158.74274 C 69.16652 159.36899 68.65884 159.87667 68.0326 159.87667 C 67.40633 159.87667 66.89865 159.36899 66.89865 158.74274 C 66.89865 158.11647 67.40633 157.6088 68.0326 157.6088 C 68.65884 157.6088 69.16652 158.11647 69.16652 158.74274 Z M 68.0326 158.74274 " fill="#929292"/>
<path transform="matrix(1,0,0,-1,1.134,205.229)" d="M 69.16652 181.42028 C 69.16652 182.04653 68.65884 182.5542 68.0326 182.5542 C 67.40633 182.5542 66.89865 182.04653 66.89865 181.42028 C 66.89865 180.794 67.40633 180.28633 68.0326 180.28633 C 68.65884 180.28633 69.16652 180.794 69.16652 181.42028 Z M 68.0326 181.42028 " fill="#929292"/>
<path transform="matrix(1,0,0,-1,1.134,205.229)" d="M 69.16652 204.09781 C 69.16652 204.72406 68.65884 205.23174 68.0326 205.23174 C 67.40633 205.23174 66.89865 204.72406 66.89865 204.09781 C 66.89865 203.47154 67.40633 202.96387 68.0326 202.96387 C 68.65884 202.96387 69.16652 203.47154 69.16652 204.09781 Z M 68.0326 204.09781 " fill="#929292"/>
<path transform="matrix(1,0,0,-1,1.134,205.229)" d="M 91.84406 0 C 91.84406 .62625 91.33638 1.13393 90.71013 1.13393 C 90.08386 1.13393 89.57619 .62625 89.57619 0 C 89.57619 -.62625 90.08386 -1.13393 90.71013 -1.13393 C 91.33638 -1.13393 91.84406 -.62625 91.84406 0 Z M 90.71013 0 " fill="#929292"/>
<path transform="matrix(1,0,0,-1,1.134,205.229)" d="M 91.84406 22.67752 C 91.84406 23.30377 91.33638 23.81145 90.71013 23.81145 C 90.08386 23.81145 89.57619 23.30377 89.57619 22.67752 C 89.57619 22.05125 90.08386 21.54358 90.71013 21.54358 C 91.33638 21.54358 91.84406 22.05125 91.84406 22.67752 Z M 90.71013 22.67752 " fill="#929292"/>
<path transform="matrix(1,0,0,-1,1.134,205.229)" d="M 91.84406 45.35506 C 91.84406 45.98131 91.33638 46.48898 90.71013 46.48898 C 90.08386 46.48898 89.57619 45.98131 89.57619 45.35506 C 89.57619 44.72879 90.08386 44.22112 90.71013 44.22112 C 91.33638 44.22112 91.84406 44.72879 91.84406 45.35506 Z M 90.71013 45.35506 " fill="#929292"/>
<path transform="matrix(1,0,0,-1,1.134,205.229)" d="M 91.84406 68.0326 C 91.84406 68.65884 91.33638 69.16652 90.71013 69.16652 C 90.08386 69.16652 89.57619 68.65884 89.57619 68.0326 C 89.57619 67.40633 90.08386 66.89865 90.71013 66.89865 C 91.33638 66.89865 91.84406 67.40633 91.84406 68.0326 Z M 90.71013 68.0326 " fill="#929292"/>
<path transform="matrix(1,0,0,-1,1.134,205.229)" d="M 91.84406 90.71013 C 91.84406 91.33638 91.33638 91.84406 90.71013 91.84406 C 90.08386 91.84406 89.57619 91.33638 89.57619 90.71013 C 89.57619 90.08386 90.08386 89.57619 90.71013 89.57619 C 91.33638 89.57619 91.84406 90.08386 91.84406 90.71013 Z M 90.71013 90.71013 " fill="#929292"/>
<path transform="matrix(1,0,0,-1,1.134,205.229)" d="M 91.84406 113.38766 C 91.84406 114.01392 91.33638 114.52159 90.71013 114.52159 C 90.08386 114.52159 89.57619 114.01392 89.57619 113.38766 C 89.57619 112.7614 90.08386 112.25372 90.71013 112.25372 C 91.33638 112.25372 91.84406 112.7614 91.84406 113.38766 Z M 90.71013 113.38766 " fill="#929292"/>
<path transform="matrix(1,0,0,-1,1.134,205.229)" d="M 91.84406 136.0652 C 91.84406 136.69145 91.33638 137.19913 90.71013 137.19913 C 90.08386 137.19913 89.57619 136.69145 89.57619 136.0652 C 89.57619 135.43894 90.08386 134.93126 90.71013 134.93126 C 91.33638 134.93126 91.84406 135.43894 91.84406 136.0652 Z M 90.71013 136.0652 " fill="#929292"/>
<path transform="matrix(1,0,0,-1,1.134,205.229)" d="M 91.84406 158.74274 C 91.84406 159.36899 91.33638 159.87667 90.71013 159.87667 C 90.08386 159.87667 89.57619 159.36899 89.57619 158.74274 C 89.57619 158.11647 90.08386 157.6088 90.71013 157.6088 C 91.33638 157.6088 91.84406 158.11647 91.84406 158.74274 Z M 90.71013 158.74274 " fill="#929292"/>
<path transform="matrix(1,0,0,-1,1.134,205.229)" d="M 91.84406 181.42028 C 91.84406 182.04653 91.33638 182.5542 90.71013 182.5542 C 90.08386 182.5542 89.57619 182.04653 89.57619 181.42028 C 89.57619 180.794 90.08386 180.28633 90.71013 180.28633 C 91.33638 180.28633 91.84406 180.794 91.84406 181.42028 Z M 90.71013 181.42028 " fill="#929292"/>
<path transform="matrix(1,0,0,-1,1.134,205.229)" d="M 91.84406 204.09781 C 91.84406 204.72406 91.33638 205.23174 90.71013 205.23174 C 90.08386 205.23174 89.57619 204.72406 89.57619 204.09781 C 89.57619 203.47154 90.08386 202.96387 90.71013 202.96387 C 91.33638 202.96387 91.84406 203.47154 91.84406 204.09781 Z M 90.71013 204.09781 " fill="#929292"/>
<path transform="matrix(1,0,0,-1,1.134,205.229)" d="M 114.52159 0 C 114.52159 .62625 114.01392 1.13393 113.38766 1.13393 C 112.7614 1.13393 112.25372 .62625 112.25372 0 C 112.25372 -.62625 112.7614 -1.13393 113.38766 -1.13393 C 114.01392 -1.13393 114.52159 -.62625 114.52159 0 Z M 113.38766 0 " fill="#929292"/>
<path transform="matrix(1,0,0,-1,1.134,205.229)" d="M 114.52159 22.67752 C 114.52159 23.30377 114.01392 23.81145 113.38766 23.81145 C 112.7614 23.81145 112.25372 23.30377 112.25372 22.67752 C 112.25372 22.05125 112.7614 21.54358 113.38766 21.54358 C 114.01392 21.54358 114.52159 22.05125 114.52159 22.67752 Z M 113.38766 22.67752 " fill="#929292"/>
<path transform="matrix(1,0,0,-1,1.134,205.229)" d="M 114.52159 45.35506 C 114.52159 45.98131 114.01392 46.48898 113.38766 46.48898 C 112.7614 46.48898 112.25372 45.98131 112.25372 45.35506 C 112.25372 44.72879 112.7614 44.22112 113.38766 44.22112 C 114.01392 44.22112 114.52159 44.72879 114.52159 45.35506 Z M 113.38766 45.35506 " fill="#929292"/>
<path transform="matrix(1,0,0,-1,1.134,205.229)" d="M 114.52159 68.0326 C 114.52159 68.65884 114.01392 69.16652 113.38766 69.16652 C 112.7614 69.16652 112.25372 68.65884 112.25372 68.0326 C 112.25372 67.40633 112.7614 66.89865 113.38766 66.89865 C 114.01392 66.89865 114.52159 67.40633 114.52159 68.0326 Z M 113.38766 68.0326 " fill="#929292"/>
<path transform="matrix(1,0,0,-1,1.134,205.229)" d="M 114.52159 90.71013 C 114.52159 91.33638 114.01392 91.84406 113.38766 91.84406 C 112.7614 91.84406 112.25372 91.33638 112.25372 90.71013 C 112.25372 90.08386 112.7614 89.57619 113.38766 89.57619 C 114.01392 89.57619 114.52159 90.08386 114.52159 90.71013 Z M 113.38766 90.71013 " fill="#929292"/>
<path transform="matrix(1,0,0,-1,1.134,205.229)" d="M 114.52159 113.38766 C 114.52159 114.01392 114.01392 114.52159 113.38766 114.52159 C 112.7614 114.52159 112.25372 114.01392 112.25372 113.38766 C 112.25372 112.7614 112.7614 112.25372 113.38766 112.25372 C 114.01392 112.25372 114.52159 112.7614 114.52159 113.38766 Z M 113.38766 113.38766 " fill="#929292"/>
<path transform="matrix(1,0,0,-1,1.134,205.229)" d="M 114.52159 136.0652 C 114.52159 136.69145 114.01392 137.19913 113.38766 137.19913 C 112.7614 137.19913 112.25372 136.69145 112.25372 136.0652 C 112.25372 135.43894 112.7614 134.93126 113.38766 134.93126 C 114.01392 134.93126 114.52159 135.43894 114.52159 136.0652 Z M 113.38766 136.0652 " fill="#929292"/>
<path transform="matrix(1,0,0,-1,1.134,205.229)" d="M 114.52159 158.74274 C 114.52159 159.36899 114.01392 159.87667 113.38766 159.87667 C 112.7614 159.87667 112.25372 159.36899 112.25372 158.74274 C 112.25372 158.11647 112.7614 157.6088 113.38766 157.6088 C 114.01392 157.6088 114.52159 158.11647 114.52159 158.74274 Z M 113.38766 158.74274 " fill="#929292"/>
<path transform="matrix(1,0,0,-1,1.134,205.229)" d="M 114.52159 181.42028 C 114.52159 182.04653 114.01392 182.5542 113.38766 182.5542 C 112.7614 182.5542 112.25372 182.04653 112.25372 181.42028 C 112.25372 180.794 112.7614 180.28633 113.38766 180.28633 C 114.01392 180.28633 114.52159 180.794 114.52159 181.42028 Z M 113.38766 181.42028 " fill="#929292"/>
<path transform="matrix(1,0,0,-1,1.134,205.229)" d="M 114.52159 204.09781 C 114.52159 204.72406 114.01392 205.23174 113.38766 205.23174 C 112.7614 205.23174 112.25372 204.72406 112.25372 204.09781 C 112.25372 203.47154 112.7614 202.96387 113.38766 202.96387 C 114.01392 202.96387 114.52159 203.47154 114.52159 204.09781 Z M 113.38766 204.09781 " fill="#929292"/>
<path transform="matrix(1,0,0,-1,1.134,205.229)" d="M 137.19913 0 C 137.19913 .62625 136.69145 1.13393 136.0652 1.13393 C 135.43894 1.13393 134.93126 .62625 134.93126 0 C 134.93126 -.62625 135.43894 -1.13393 136.0652 -1.13393 C 136.69145 -1.13393 137.19913 -.62625 137.19913 0 Z M 136.0652 0 " fill="#929292"/>
<path transform="matrix(1,0,0,-1,1.134,205.229)" d="M 137.19913 22.67752 C 137.19913 23.30377 136.69145 23.81145 136.0652 23.81145 C 135.43894 23.81145 134.93126 23.30377 134.93126 22.67752 C 134.93126 22.05125 135.43894 21.54358 136.0652 21.54358 C 136.69145 21.54358 137.19913 22.05125 137.19913 22.67752 Z M 136.0652 22.67752 " fill="#929292"/>
<path transform="matrix(1,0,0,-1,1.134,205.229)" d="M 137.19913 45.35506 C 137.19913 45.98131 136.69145 46.48898 136.0652 46.48898 C 135.43894 46.48898 134.93126 45.98131 134.93126 45.35506 C 134.93126 44.72879 135.43894 44.22112 136.0652 44.22112 C 136.69145 44.22112 137.19913 44.72879 137.19913 45.35506 Z M 136.0652 45.35506 " fill="#929292"/>
<path transform="matrix(1,0,0,-1,1.134,205.229)" d="M 137.19913 68.0326 C 137.19913 68.65884 136.69145 69.16652 136.0652 69.16652 C 135.43894 69.16652 134.93126 68.65884 134.93126 68.0326 C 134.93126 67.40633 135.43894 66.89865 136.0652 66.89865 C 136.69145 66.89865 137.19913 67.40633 137.19913 68.0326 Z M 136.0652 68.0326 " fill="#929292"/>
<path transform="matrix(1,0,0,-1,1.134,205.229)" d="M 137.19913 90.71013 C 137.19913 91.33638 136.69145 91.84406 136.0652 91.84406 C 135.43894 91.84406 134.93126 91.33638 134.93126 90.71013 C 134.93126 90.08386 135.43894 89.57619 136.0652 89.57619 C 136.69145 89.57619 137.19913 90.08386 137.19913 90.71013 Z M 136.0652 90.71013 " fill="#929292"/>
<path transform="matrix(1,0,0,-1,1.134,205.229)" d="M 137.19913 113.38766 C 137.19913 114.01392 136.69145 114.52159 136.0652 114.52159 C 135.43894 114.52159 134.93126 114.01392 134.93126 113.38766 C 134.93126 112.7614 135.43894 112.25372 136.0652 112.25372 C 136.69145 112.25372 137.19913 112.7614 137.19913 113.38766 Z M 136.0652 113.38766 " fill="#929292"/>
<path transform="matrix(1,0,0,-1,1.134,205.229)" d="M 137.19913 136.0652 C 137.19913 136.69145 136.69145 137.19913 136.0652 137.19913 C 135.43894 137.19913 134.93126 136.69145 134.93126 136.0652 C 134.93126 135.43894 135.43894 134.93126 136.0652 134.93126 C 136.69145 134.93126 137.19913 135.43894 137.19913 136.0652 Z M 136.0652 136.0652 " fill="#929292"/>
<path transform="matrix(1,0,0,-1,1.134,205.229)" d="M 137.19913 158.74274 C 137.19913 159.36899 136.69145 159.87667 136.0652 159.87667 C 135.43894 159.87667 134.93126 159.36899 134.93126 158.74274 C 134.93126 158.11647 135.43894 157.6088 136.0652 157.6088 C 136.69145 157.6088 137.19913 158.11647 137.19913 158.74274 Z M 136.0652 158.74274 " fill="#929292"/>
<path transform="matrix(1,0,0,-1,1.134,205.229)" d="M 137.19913 181.42028 C 137.19913 182.04653 136.69145 182.5542 136.0652 182.5542 C 135.43894 182.5542 134.93126 182.04653 134.93126 181.42028 C 134.93126 180.794 135.43894 180.28633 136.0652 180.28633 C 136.69145 180.28633 137.19913 180.794 137.19913 181.42028 Z M 136.0652 181.42028 " fill="#929292"/>
<path transform="matrix(1,0,0,-1,1.134,205.229)" d="M 137.19913 204.09781 C 137.19913 204.72406 136.69145 205.23174 136.0652 205.23174 C 135.43894 205.23174 134.93126 204.72406 134.93126 204.09781 C 134.93126 203.47154 135.43894 202.96387 136.0652 202.96387 C 136.69145 202.96387 137.19913 203.47154 137.19913 204.09781 Z M 136.0652 204.09781 " fill="#929292"/>
<path transform="matrix(1,0,0,-1,1.134,205.229)" d="M 159.87667 0 C 159.87667 .62625 159.36899 1.13393 158.74274 1.13393 C 158.11647 1.13393 157.6088 .62625 157.6088 0 C 157.6088 -.62625 158.11647 -1.13393 158.74274 -1.13393 C 159.36899 -1.13393 159.87667 -.62625 159.87667 0 Z M 158.74274 0 " fill="#929292"/>
<path transform="matrix(1,0,0,-1,1.134,205.229)" d="M 159.87667 22.67752 C 159.87667 23.30377 159.36899 23.81145 158.74274 23.81145 C 158.11647 23.81145 157.6088 23.30377 157.6088 22.67752 C 157.6088 22.05125 158.11647 21.54358 158.74274 21.54358 C 159.36899 21.54358 159.87667 22.05125 159.87667 22.67752 Z M 158.74274 22.67752 " fill="#929292"/>
<path transform="matrix(1,0,0,-1,1.134,205.229)" d="M 159.87667 45.35506 C 159.87667 45.98131 159.36899 46.48898 158.74274 46.48898 C 158.11647 46.48898 157.6088 45.98131 157.6088 45.35506 C 157.6088 44.72879 158.11647 44.22112 158.74274 44.22112 C 159.36899 44.22112 159.87667 44.72879 159.87667 45.35506 Z M 158.74274 45.35506 " fill="#929292"/>
<path transform="matrix(1,0,0,-1,1.134,205.229)" d="M 159.87667 68.0326 C 159.87667 68.65884 159.36899 69.16652 158.74274 69.16652 C 158.11647 69.16652 157.6088 68.65884 157.6088 68.0326 C 157.6088 67.40633 158.11647 66.89865 158.74274 66.89865 C 159.36899 66.89865 159.87667 67.40633 159.87667 68.0326 Z M 158.74274 68.0326 " fill="#929292"/>
<path transform="matrix(1,0,0,-1,1.134,205.229)" d="M 159.87667 90.71013 C 159.87667 91.33638 159.36899 91.84406 158.74274 91.84406 C 158.11647 91.84406 157.6088 91.33638 157.6088 90.71013 C 157.6088 90.08386 158.11647 89.57619 158.74274 89.57619 C 159.36899 89.57619 159.87667 90.08386 159.87667 90.71013 Z M 158.74274 90.71013 " fill="#929292"/>
<path transform="matrix(1,0,0,-1,1.134,205.229)" d="M 159.87667 113.38766 C 159.87667 114.01392 159.36899 114.52159 158.74274 114.52159 C 158.11647 114.52159 157.6088 114.01392 157.6088 113.38766 C 157.6088 112.7614 158.11647 112.25372 158.74274 112.25372 C 159.36899 112.25372 159.87667 112.7614 159.87667 113.38766 Z M 158.74274 113.38766 " fill="#929292"/>
<path transform="matrix(1,0,0,-1,1.134,205.229)" d="M 159.87667 136.0652 C 159.87667 136.69145 159.36899 137.19913 158.74274 137.19913 C 158.11647 137.19913 157.6088 136.69145 157.6088 136.0652 C 157.6088 135.43894 158.11647 134.93126 158.74274 134.93126 C 159.36899 134.93126 159.87667 135.43894 159.87667 136.0652 Z M 158.74274 136.0652 " fill="#929292"/>
<path transform="matrix(1,0,0,-1,1.134,205.229)" d="M 159.87667 158.74274 C 159.87667 159.36899 159.36899 159.87667 158.74274 159.87667 C 158.11647 159.87667 157.6088 159.36899 157.6088 158.74274 C 157.6088 158.11647 158.11647 157.6088 158.74274 157.6088 C 159.36899 157.6088 159.87667 158.11647 159.87667 158.74274 Z M 158.74274 158.74274 " fill="#929292"/>
<path transform="matrix(1,0,0,-1,1.134,205.229)" d="M 159.87667 181.42028 C 159.87667 182.04653 159.36899 182.5542 158.74274 182.5542 C 158.11647 182.5542 157.6088 182.04653 157.6088 181.42028 C 157.6088 180.794 158.11647 180.28633 158.74274 180.28633 C 159.36899 180.28633 159.87667 180.794 159.87667 181.42028 Z M 158.74274 181.42028 " fill="#929292"/>
<path transform="matrix(1,0,0,-1,1.134,205.229)" d="M 159.87667 204.09781 C 159.87667 204.72406 159.36899 205.23174 158.74274 205.23174 C 158.11647 205.23174 157.6088 204.72406 157.6088 204.09781 C 157.6088 203.47154 158.11647 202.96387 158.74274 202.96387 C 159.36899 202.96387 159.87667 203.47154 159.87667 204.09781 Z M 158.74274 204.09781 " fill="#929292"/>
<path transform="matrix(1,0,0,-1,1.134,205.229)" d="M 182.5542 0 C 182.5542 .62625 182.04653 1.13393 181.42028 1.13393 C 180.794 1.13393 180.28633 .62625 180.28633 0 C 180.28633 -.62625 180.794 -1.13393 181.42028 -1.13393 C 182.04653 -1.13393 182.5542 -.62625 182.5542 0 Z M 181.42028 0 " fill="#929292"/>
<path transform="matrix(1,0,0,-1,1.134,205.229)" d="M 182.5542 22.67752 C 182.5542 23.30377 182.04653 23.81145 181.42028 23.81145 C 180.794 23.81145 180.28633 23.30377 180.28633 22.67752 C 180.28633 22.05125 180.794 21.54358 181.42028 21.54358 C 182.04653 21.54358 182.5542 22.05125 182.5542 22.67752 Z M 181.42028 22.67752 " fill="#929292"/>
<path transform="matrix(1,0,0,-1,1.134,205.229)" d="M 182.5542 45.35506 C 182.5542 45.98131 182.04653 46.48898 181.42028 46.48898 C 180.794 46.48898 180.28633 45.98131 180.28633 45.35506 C 180.28633 44.72879 180.794 44.22112 181.42028 44.22112 C 182.04653 44.22112 182.5542 44.72879 182.5542 45.35506 Z M 181.42028 45.35506 " fill="#929292"/>
<path transform="matrix(1,0,0,-1,1.134,205.229)" d="M 182.5542 68.0326 C 182.5542 68.65884 182.04653 69.16652 181.42028 69.16652 C 180.794 69.16652 180.28633 68.65884 180.28633 68.0326 C 180.28633 67.40633 180.794 66.89865 181.42028 66.89865 C 182.04653 66.89865 182.5542 67.40633 182.5542 68.0326 Z M 181.42028 68.0326 " fill="#929292"/>
<path transform="matrix(1,0,0,-1,1.134,205.229)" d="M 182.5542 90.71013 C 182.5542 91.33638 182.04653 91.84406 181.42028 91.84406 C 180.794 91.84406 180.28633 91.33638 180.28633 90.71013 C 180.28633 90.08386 180.794 89.57619 181.42028 89.57619 C 182.04653 89.57619 182.5542 90.08386 182.5542 90.71013 Z M 181.42028 90.71013 " fill="#929292"/>
<path transform="matrix(1,0,0,-1,1.134,205.229)" d="M 182.5542 113.38766 C 182.5542 114.01392 182.04653 114.52159 181.42028 114.52159 C 180.794 114.52159 180.28633 114.01392 180.28633 113.38766 C 180.28633 112.7614 180.794 112.25372 181.42028 112.25372 C 182.04653 112.25372 182.5542 112.7614 182.5542 113.38766 Z M 181.42028 113.38766 " fill="#929292"/>
<path transform="matrix(1,0,0,-1,1.134,205.229)" d="M 182.5542 136.0652 C 182.5542 136.69145 182.04653 137.19913 181.42028 137.19913 C 180.794 137.19913 180.28633 136.69145 180.28633 136.0652 C 180.28633 135.43894 180.794 134.93126 181.42028 134.93126 C 182.04653 134.93126 182.5542 135.43894 182.5542 136.0652 Z M 181.42028 136.0652 " fill="#929292"/>
<path transform="matrix(1,0,0,-1,1.134,205.229)" d="M 182.5542 158.74274 C 182.5542 159.36899 182.04653 159.87667 181.42028 159.87667 C 180.794 159.87667 180.28633 159.36899 180.28633 158.74274 C 180.28633 158.11647 180.794 157.6088 181.42028 157.6088 C 182.04653 157.6088 182.5542 158.11647 182.5542 158.74274 Z M 181.42028 158.74274 " fill="#929292"/>
<path transform="matrix(1,0,0,-1,1.134,205.229)" d="M 182.5542 181.42028 C 182.5542 182.04653 182.04653 182.5542 181.42028 182.5542 C 180.794 182.5542 180.28633 182.04653 180.28633 181.42028 C 180.28633 180.794 180.794 180.28633 181.42028 180.28633 C 182.04653 180.28633 182.5542 180.794 182.5542 181.42028 Z M 181.42028 181.42028 " fill="#929292"/>
<path transform="matrix(1,0,0,-1,1.134,205.229)" d="M 182.5542 204.09781 C 182.5542 204.72406 182.04653 205.23174 181.42028 205.23174 C 180.794 205.23174 180.28633 204.72406 180.28633 204.09781 C 180.28633 203.47154 180.794 202.96387 181.42028 202.96387 C 182.04653 202.96387 182.5542 203.47154 182.5542 204.09781 Z M 181.42028 204.09781 " fill="#929292"/>
<path transform="matrix(1,0,0,-1,1.134,205.229)" d="M 205.23174 0 C 205.23174 .62625 204.72406 1.13393 204.09781 1.13393 C 203.47154 1.13393 202.96387 .62625 202.96387 0 C 202.96387 -.62625 203.47154 -1.13393 204.09781 -1.13393 C 204.72406 -1.13393 205.23174 -.62625 205.23174 0 Z M 204.09781 0 " fill="#929292"/>
<path transform="matrix(1,0,0,-1,1.134,205.229)" d="M 205.23174 22.67752 C 205.23174 23.30377 204.72406 23.81145 204.09781 23.81145 C 203.47154 23.81145 202.96387 23.30377 202.96387 22.67752 C 202.96387 22.05125 203.47154 21.54358 204.09781 21.54358 C 204.72406 21.54358 205.23174 22.05125 205.23174 22.67752 Z M 204.09781 22.67752 " fill="#929292"/>
<path transform="matrix(1,0,0,-1,1.134,205.229)" d="M 205.23174 45.35506 C 205.23174 45.98131 204.72406 46.48898 204.09781 46.48898 C 203.47154 46.48898 202.96387 45.98131 202.96387 45.35506 C 202.96387 44.72879 203.47154 44.22112 204.09781 44.22112 C 204.72406 44.22112 205.23174 44.72879 205.23174 45.35506 Z M 204.09781 45.35506 " fill="#929292"/>
<path transform="matrix(1,0,0,-1,1.134,205.229)" d="M 205.23174 68.0326 C 205.23174 68.65884 204.72406 69.16652 204.09781 69.16652 C 203.47154 69.16652 202.96387 68.65884 202.96387 68.0326 C 202.96387 67.40633 203.47154 66.89865 204.09781 66.89865 C 204.72406 66.89865 205.23174 67.40633 205.23174 68.0326 Z M 204.09781 68.0326 " fill="#929292"/>
<path transform="matrix(1,0,0,-1,1.134,205.229)" d="M 205.23174 90.71013 C 205.23174 91.33638 204.72406 91.84406 204.09781 91.84406 C 203.47154 91.84406 202.96387 91.33638 202.96387 90.71013 C 202.96387 90.08386 203.47154 89.57619 204.09781 89.57619 C 204.72406 89.57619 205.23174 90.08386 205.23174 90.71013 Z M 204.09781 90.71013 " fill="#929292"/>
<path transform="matrix(1,0,0,-1,1.134,205.229)" d="M 205.23174 113.38766 C 205.23174 114.01392 204.72406 114.52159 204.09781 114.52159 C 203.47154 114.52159 202.96387 114.01392 202.96387 113.38766 C 202.96387 112.7614 203.47154 112.25372 204.09781 112.25372 C 204.72406 112.25372 205.23174 112.7614 205.23174 113.38766 Z M 204.09781 113.38766 " fill="#929292"/>
<path transform="matrix(1,0,0,-1,1.134,205.229)" d="M 205.23174 136.0652 C 205.23174 136.69145 204.72406 137.19913 204.09781 137.19913 C 203.47154 137.19913 202.96387 136.69145 202.96387 136.0652 C 202.96387 135.43894 203.47154 134.93126 204.09781 134.93126 C 204.72406 134.93126 205.23174 135.43894 205.23174 136.0652 Z M 204.09781 136.0652 " fill="#929292"/>
<path transform="matrix(1,0,0,-1,1.134,205.229)" d="M 205.23174 158.74274 C 205.23174 159.36899 204.72406 159.87667 204.09781 159.87667 C 203.47154 159.87667 202.96387 159.36899 202.96387 158.74274 C 202.96387 158.11647 203.47154 157.6088 204.09781 157.6088 C 204.72406 157.6088 205.23174 158.11647 205.23174 158.74274 Z M 204.09781 158.74274 " fill="#929292"/>
<path transform="matrix(1,0,0,-1,1.134,205.229)" d="M 205.23174 181.42028 C 205.23174 182.04653 204.72406 182.5542 204.09781 182.5542 C 203.47154 182.5542 202.96387 182.04653 202.96387 181.42028 C 202.96387 180.794 203.47154 180.28633 204.09781 180.28633 C 204.72406 180.28633 205.23174 180.794 205.23174 181.42028 Z M 204.09781 181.42028 " fill="#929292"/>
<path transform="matrix(1,0,0,-1,1.134,205.229)" d="M 205.23174 204.09781 C 205.23174 204.72406 204.72406 205.23174 204.09781 205.23174 C 203.47154 205.23174 202.96387 204.72406 202.96387 204.09781 C 202.96387 203.47154 203.47154 202.96387 204.09781 202.96387 C 204.72406 202.96387 205.23174 203.47154 205.23174 204.09781 Z M 204.09781 204.09781 " fill="#929292"/>
<path transform="matrix(1,0,0,-1,1.134,205.229)" d="M 227.90926 0 C 227.90926 .62625 227.40158 1.13393 226.77533 1.13393 C 226.14907 1.13393 225.64139 .62625 225.64139 0 C 225.64139 -.62625 226.14907 -1.13393 226.77533 -1.13393 C 227.40158 -1.13393 227.90926 -.62625 227.90926 0 Z M 226.77533 0 " fill="#929292"/>
<path transform="matrix(1,0,0,-1,1.134,205.229)" d="M 227.90926 22.67752 C 227.90926 23.30377 227.40158 23.81145 226.77533 23.81145 C 226.14907 23.81145 225.64139 23.30377 225.64139 22.67752 C 225.64139 22.05125 226.14907 21.54358 226.77533 21.54358 C 227.40158 21.54358 227.90926 22.05125 227.90926 22.67752 Z M 226.77533 22.67752 " fill="#929292"/>
<path transform="matrix(1,0,0,-1,1.134,205.229)" d="M 227.90926 45.35506 C 227.90926 45.98131 227.40158 46.48898 226.77533 46.48898 C 226.14907 46.48898 225.64139 45.98131 225.64139 45.35506 C 225.64139 44.72879 226.14907 44.22112 226.77533 44.22112 C 227.40158 44.22112 227.90926 44.72879 227.90926 45.35506 Z M 226.77533 45.35506 " fill="#929292"/>
<path transform="matrix(1,0,0,-1,1.134,205.229)" d="M 227.90926 68.0326 C 227.90926 68.65884 227.40158 69.16652 226.77533 69.16652 C 226.14907 69.16652 225.64139 68.65884 225.64139 68.0326 C 225.64139 67.40633 226.14907 66.89865 226.77533 66.89865 C 227.40158 66.89865 227.90926 67.40633 227.90926 68.0326 Z M 226.77533 68.0326 " fill="#929292"/>
<path transform="matrix(1,0,0,-1,1.134,205.229)" d="M 227.90926 90.71013 C 227.90926 91.33638 227.40158 91.84406 226.77533 91.84406 C 226.14907 91.84406 225.64139 91.33638 225.64139 90.71013 C 225.64139 90.08386 226.14907 89.57619 226.77533 89.57619 C 227.40158 89.57619 227.90926 90.08386 227.90926 90.71013 Z M 226.77533 90.71013 " fill="#929292"/>
<path transform="matrix(1,0,0,-1,1.134,205.229)" d="M 227.90926 113.38766 C 227.90926 114.01392 227.40158 114.52159 226.77533 114.52159 C 226.14907 114.52159 225.64139 114.01392 225.64139 113.38766 C 225.64139 112.7614 226.14907 112.25372 226.77533 112.25372 C 227.40158 112.25372 227.90926 112.7614 227.90926 113.38766 Z M 226.77533 113.38766 " fill="#929292"/>
<path transform="matrix(1,0,0,-1,1.134,205.229)" d="M 227.90926 136.0652 C 227.90926 136.69145 227.40158 137.19913 226.77533 137.19913 C 226.14907 137.19913 225.64139 136.69145 225.64139 136.0652 C 225.64139 135.43894 226.14907 134.93126 226.77533 134.93126 C 227.40158 134.93126 227.90926 135.43894 227.90926 136.0652 Z M 226.77533 136.0652 " fill="#929292"/>
<path transform="matrix(1,0,0,-1,1.134,205.229)" d="M 227.90926 158.74274 C 227.90926 159.36899 227.40158 159.87667 226.77533 159.87667 C 226.14907 159.87667 225.64139 159.36899 225.64139 158.74274 C 225.64139 158.11647 226.14907 157.6088 226.77533 157.6088 C 227.40158 157.6088 227.90926 158.11647 227.90926 158.74274 Z M 226.77533 158.74274 " fill="#929292"/>
<path transform="matrix(1,0,0,-1,1.134,205.229)" d="M 227.90926 181.42028 C 227.90926 182.04653 227.40158 182.5542 226.77533 182.5542 C 226.14907 182.5542 225.64139 182.04653 225.64139 181.42028 C 225.64139 180.794 226.14907 180.28633 226.77533 180.28633 C 227.40158 180.28633 227.90926 180.794 227.90926 181.42028 Z M 226.77533 181.42028 " fill="#929292"/>
<path transform="matrix(1,0,0,-1,1.134,205.229)" d="M 227.90926 204.09781 C 227.90926 204.72406 227.40158 205.23174 226.77533 205.23174 C 226.14907 205.23174 225.64139 204.72406 225.64139 204.09781 C 225.64139 203.47154 226.14907 202.96387 226.77533 202.96387 C 227.40158 202.96387 227.90926 203.47154 227.90926 204.09781 Z M 226.77533 204.09781 " fill="#929292"/>
<path transform="matrix(1,0,0,-1,1.134,205.229)" d="M 250.58679 0 C 250.58679 .62625 250.07912 1.13393 249.45287 1.13393 C 248.8266 1.13393 248.31893 .62625 248.31893 0 C 248.31893 -.62625 248.8266 -1.13393 249.45287 -1.13393 C 250.07912 -1.13393 250.58679 -.62625 250.58679 0 Z M 249.45287 0 " fill="#929292"/>
<path transform="matrix(1,0,0,-1,1.134,205.229)" d="M 250.58679 22.67752 C 250.58679 23.30377 250.07912 23.81145 249.45287 23.81145 C 248.8266 23.81145 248.31893 23.30377 248.31893 22.67752 C 248.31893 22.05125 248.8266 21.54358 249.45287 21.54358 C 250.07912 21.54358 250.58679 22.05125 250.58679 22.67752 Z M 249.45287 22.67752 " fill="#929292"/>
<path transform="matrix(1,0,0,-1,1.134,205.229)" d="M 250.58679 45.35506 C 250.58679 45.98131 250.07912 46.48898 249.45287 46.48898 C 248.8266 46.48898 248.31893 45.98131 248.31893 45.35506 C 248.31893 44.72879 248.8266 44.22112 249.45287 44.22112 C 250.07912 44.22112 250.58679 44.72879 250.58679 45.35506 Z M 249.45287 45.35506 " fill="#929292"/>
<path transform="matrix(1,0,0,-1,1.134,205.229)" d="M 250.58679 68.0326 C 250.58679 68.65884 250.07912 69.16652 249.45287 69.16652 C 248.8266 69.16652 248.31893 68.65884 248.31893 68.0326 C 248.31893 67.40633 248.8266 66.89865 249.45287 66.89865 C 250.07912 66.89865 250.58679 67.40633 250.58679 68.0326 Z M 249.45287 68.0326 " fill="#929292"/>
<path transform="matrix(1,0,0,-1,1.134,205.229)" d="M 250.58679 90.71013 C 250.58679 91.33638 250.07912 91.84406 249.45287 91.84406 C 248.8266 91.84406 248.31893 91.33638 248.31893 90.71013 C 248.31893 90.08386 248.8266 89.57619 249.45287 89.57619 C 250.07912 89.57619 250.58679 90.08386 250.58679 90.71013 Z M 249.45287 90.71013 " fill="#929292"/>
<path transform="matrix(1,0,0,-1,1.134,205.229)" d="M 250.58679 113.38766 C 250.58679 114.01392 250.07912 114.52159 249.45287 114.52159 C 248.8266 114.52159 248.31893 114.01392 248.31893 113.38766 C 248.31893 112.7614 248.8266 112.25372 249.45287 112.25372 C 250.07912 112.25372 250.58679 112.7614 250.58679 113.38766 Z M 249.45287 113.38766 " fill="#929292"/>
<path transform="matrix(1,0,0,-1,1.134,205.229)" d="M 250.58679 136.0652 C 250.58679 136.69145 250.07912 137.19913 249.45287 137.19913 C 248.8266 137.19913 248.31893 136.69145 248.31893 136.0652 C 248.31893 135.43894 248.8266 134.93126 249.45287 134.93126 C 250.07912 134.93126 250.58679 135.43894 250.58679 136.0652 Z M 249.45287 136.0652 " fill="#929292"/>
<path transform="matrix(1,0,0,-1,1.134,205.229)" d="M 250.58679 158.74274 C 250.58679 159.36899 250.07912 159.87667 249.45287 159.87667 C 248.8266 159.87667 248.31893 159.36899 248.31893 158.74274 C 248.31893 158.11647 248.8266 157.6088 249.45287 157.6088 C 250.07912 157.6088 250.58679 158.11647 250.58679 158.74274 Z M 249.45287 158.74274 " fill="#929292"/>
<path transform="matrix(1,0,0,-1,1.134,205.229)" d="M 250.58679 181.42028 C 250.58679 182.04653 250.07912 182.5542 249.45287 182.5542 C 248.8266 182.5542 248.31893 182.04653 248.31893 181.42028 C 248.31893 180.794 248.8266 180.28633 249.45287 180.28633 C 250.07912 180.28633 250.58679 180.794 250.58679 181.42028 Z M 249.45287 181.42028 " fill="#929292"/>
<path transform="matrix(1,0,0,-1,1.134,205.229)" d="M 250.58679 204.09781 C 250.58679 204.72406 250.07912 205.23174 249.45287 205.23174 C 248.8266 205.23174 248.31893 204.72406 248.31893 204.09781 C 248.31893 203.47154 248.8266 202.96387 249.45287 202.96387 C 250.07912 202.96387 250.58679 203.47154 250.58679 204.09781 Z M 249.45287 204.09781 " fill="#929292"/>
<path transform="matrix(1,0,0,-1,1.134,205.229)" d="M 273.26435 0 C 273.26435 .62625 272.75666 1.13393 272.1304 1.13393 C 271.50416 1.13393 270.99647 .62625 270.99647 0 C 270.99647 -.62625 271.50416 -1.13393 272.1304 -1.13393 C 272.75666 -1.13393 273.26435 -.62625 273.26435 0 Z M 272.1304 0 " fill="#929292"/>
<path transform="matrix(1,0,0,-1,1.134,205.229)" d="M 273.26435 22.67752 C 273.26435 23.30377 272.75666 23.81145 272.1304 23.81145 C 271.50416 23.81145 270.99647 23.30377 270.99647 22.67752 C 270.99647 22.05125 271.50416 21.54358 272.1304 21.54358 C 272.75666 21.54358 273.26435 22.05125 273.26435 22.67752 Z M 272.1304 22.67752 " fill="#929292"/>
<path transform="matrix(1,0,0,-1,1.134,205.229)" d="M 273.26435 45.35506 C 273.26435 45.98131 272.75666 46.48898 272.1304 46.48898 C 271.50416 46.48898 270.99647 45.98131 270.99647 45.35506 C 270.99647 44.72879 271.50416 44.22112 272.1304 44.22112 C 272.75666 44.22112 273.26435 44.72879 273.26435 45.35506 Z M 272.1304 45.35506 " fill="#929292"/>
<path transform="matrix(1,0,0,-1,1.134,205.229)" d="M 273.26435 68.0326 C 273.26435 68.65884 272.75666 69.16652 272.1304 69.16652 C 271.50416 69.16652 270.99647 68.65884 270.99647 68.0326 C 270.99647 67.40633 271.50416 66.89865 272.1304 66.89865 C 272.75666 66.89865 273.26435 67.40633 273.26435 68.0326 Z M 272.1304 68.0326 " fill="#929292"/>
<path transform="matrix(1,0,0,-1,1.134,205.229)" d="M 273.26435 90.71013 C 273.26435 91.33638 272.75666 91.84406 272.1304 91.84406 C 271.50416 91.84406 270.99647 91.33638 270.99647 90.71013 C 270.99647 90.08386 271.50416 89.57619 272.1304 89.57619 C 272.75666 89.57619 273.26435 90.08386 273.26435 90.71013 Z M 272.1304 90.71013 " fill="#929292"/>
<path transform="matrix(1,0,0,-1,1.134,205.229)" d="M 273.26435 113.38766 C 273.26435 114.01392 272.75666 114.52159 272.1304 114.52159 C 271.50416 114.52159 270.99647 114.01392 270.99647 113.38766 C 270.99647 112.7614 271.50416 112.25372 272.1304 112.25372 C 272.75666 112.25372 273.26435 112.7614 273.26435 113.38766 Z M 272.1304 113.38766 " fill="#929292"/>
<path transform="matrix(1,0,0,-1,1.134,205.229)" d="M 273.26435 136.0652 C 273.26435 136.69145 272.75666 137.19913 272.1304 137.19913 C 271.50416 137.19913 270.99647 136.69145 270.99647 136.0652 C 270.99647 135.43894 271.50416 134.93126 272.1304 134.93126 C 272.75666 134.93126 273.26435 135.43894 273.26435 136.0652 Z M 272.1304 136.0652 " fill="#929292"/>
<path transform="matrix(1,0,0,-1,1.134,205.229)" d="M 273.26435 158.74274 C 273.26435 159.36899 272.75666 159.87667 272.1304 159.87667 C 271.50416 159.87667 270.99647 159.36899 270.99647 158.74274 C 270.99647 158.11647 271.50416 157.6088 272.1304 157.6088 C 272.75666 157.6088 273.26435 158.11647 273.26435 158.74274 Z M 272.1304 158.74274 " fill="#929292"/>
<path transform="matrix(1,0,0,-1,1.134,205.229)" d="M 273.26435 181.42028 C 273.26435 182.04653 272.75666 182.5542 272.1304 182.5542 C 271.50416 182.5542 270.99647 182.04653 270.99647 181.42028 C 270.99647 180.794 271.50416 180.28633 272.1304 180.28633 C 272.75666 180.28633 273.26435 180.794 273.26435 181.42028 Z M 272.1304 181.42028 " fill="#929292"/>
<path transform="matrix(1,0,0,-1,1.134,205.229)" d="M 273.26435 204.09781 C 273.26435 204.72406 272.75666 205.23174 272.1304 205.23174 C 271.50416 205.23174 270.99647 204.72406 270.99647 204.09781 C 270.99647 203.47154 271.50416 202.96387 272.1304 202.96387 C 272.75666 202.96387 273.26435 203.47154 273.26435 204.09781 Z M 272.1304 204.09781 " fill="#929292"/>
<path transform="matrix(1,0,0,-1,1.134,205.229)" d="M 295.94187 0 C 295.94187 .62625 295.4342 1.13393 294.80796 1.13393 C 294.18168 1.13393 293.674 .62625 293.674 0 C 293.674 -.62625 294.18168 -1.13393 294.80796 -1.13393 C 295.4342 -1.13393 295.94187 -.62625 295.94187 0 Z M 294.80796 0 " fill="#929292"/>
<path transform="matrix(1,0,0,-1,1.134,205.229)" d="M 295.94187 22.67752 C 295.94187 23.30377 295.4342 23.81145 294.80796 23.81145 C 294.18168 23.81145 293.674 23.30377 293.674 22.67752 C 293.674 22.05125 294.18168 21.54358 294.80796 21.54358 C 295.4342 21.54358 295.94187 22.05125 295.94187 22.67752 Z M 294.80796 22.67752 " fill="#929292"/>
<path transform="matrix(1,0,0,-1,1.134,205.229)" d="M 295.94187 45.35506 C 295.94187 45.98131 295.4342 46.48898 294.80796 46.48898 C 294.18168 46.48898 293.674 45.98131 293.674 45.35506 C 293.674 44.72879 294.18168 44.22112 294.80796 44.22112 C 295.4342 44.22112 295.94187 44.72879 295.94187 45.35506 Z M 294.80796 45.35506 " fill="#929292"/>
<path transform="matrix(1,0,0,-1,1.134,205.229)" d="M 295.94187 68.0326 C 295.94187 68.65884 295.4342 69.16652 294.80796 69.16652 C 294.18168 69.16652 293.674 68.65884 293.674 68.0326 C 293.674 67.40633 294.18168 66.89865 294.80796 66.89865 C 295.4342 66.89865 295.94187 67.40633 295.94187 68.0326 Z M 294.80796 68.0326 " fill="#929292"/>
<path transform="matrix(1,0,0,-1,1.134,205.229)" d="M 295.94187 90.71013 C 295.94187 91.33638 295.4342 91.84406 294.80796 91.84406 C 294.18168 91.84406 293.674 91.33638 293.674 90.71013 C 293.674 90.08386 294.18168 89.57619 294.80796 89.57619 C 295.4342 89.57619 295.94187 90.08386 295.94187 90.71013 Z M 294.80796 90.71013 " fill="#929292"/>
<path transform="matrix(1,0,0,-1,1.134,205.229)" d="M 295.94187 113.38766 C 295.94187 114.01392 295.4342 114.52159 294.80796 114.52159 C 294.18168 114.52159 293.674 114.01392 293.674 113.38766 C 293.674 112.7614 294.18168 112.25372 294.80796 112.25372 C 295.4342 112.25372 295.94187 112.7614 295.94187 113.38766 Z M 294.80796 113.38766 " fill="#929292"/>
<path transform="matrix(1,0,0,-1,1.134,205.229)" d="M 295.94187 136.0652 C 295.94187 136.69145 295.4342 137.19913 294.80796 137.19913 C 294.18168 137.19913 293.674 136.69145 293.674 136.0652 C 293.674 135.43894 294.18168 134.93126 294.80796 134.93126 C 295.4342 134.93126 295.94187 135.43894 295.94187 136.0652 Z M 294.80796 136.0652 " fill="#929292"/>
<path transform="matrix(1,0,0,-1,1.134,205.229)" d="M 295.94187 158.74274 C 295.94187 159.36899 295.4342 159.87667 294.80796 159.87667 C 294.18168 159.87667 293.674 159.36899 293.674 158.74274 C 293.674 158.11647 294.18168 157.6088 294.80796 157.6088 C 295.4342 157.6088 295.94187 158.11647 295.94187 158.74274 Z M 294.80796 158.74274 " fill="#929292"/>
<path transform="matrix(1,0,0,-1,1.134,205.229)" d="M 295.94187 181.42028 C 295.94187 182.04653 295.4342 182.5542 294.80796 182.5542 C 294.18168 182.5542 293.674 182.04653 293.674 181.42028 C 293.674 180.794 294.18168 180.28633 294.80796 180.28633 C 295.4342 180.28633 295.94187 180.794 295.94187 181.42028 Z M 294.80796 181.42028 " fill="#929292"/>
<path transform="matrix(1,0,0,-1,1.134,205.229)" d="M 295.94187 204.09781 C 295.94187 204.72406 295.4342 205.23174 294.80796 205.23174 C 294.18168 205.23174 293.674 204.72406 293.674 204.09781 C 293.674 203.47154 294.18168 202.96387 294.80796 202.96387 C 295.4342 202.96387 295.94187 203.47154 295.94187 204.09781 Z M 294.80796 204.09781 " fill="#929292"/>
<path transform="matrix(1,0,0,-1,1.134,205.229)" d="M 68.0326 136.0652 L 136.0652 136.0652 L 0 181.42028 Z " fill="#0000ff" fill-opacity=".1"/>
<path transform="matrix(1,0,0,-1,1.134,205.229)" stroke-width=".79701" stroke-linecap="butt" stroke-miterlimit="10" stroke-linejoin="miter" fill="none" stroke="#0000ff" d="M 68.0326 136.0652 L 136.0652 136.0652 L 0 181.42028 Z "/>
<symbol id="font_0_1">
<path d="M .14400001 .115 C .10400002 .048 .065 .034 .021000002 .031000002 C .009000003 .030000002 0 .030000002 0 .011000001 C 0 .0050000005 .0050000029 0 .013 0 C .040000004 0 .07100001 .003 .09900001 .003 C .13200002 .003 .16700001 0 .19900002 0 C .20500002 0 .21800003 0 .21800003 .019000002 C .21800003 .030000002 .20900002 .031000002 .20200002 .031000002 C .17900002 .033 .15500002 .041 .15500002 .066 C .15500002 .078 .16100002 .089 .16900002 .10300001 L .245 .231 L .49600003 .231 C .49800007 .21000001 .512 .074 .512 .064 C .512 .034 .46000005 .031000002 .44000004 .031000002 C .42600004 .031000002 .41600005 .031000002 .41600005 .011000001 C .41600005 0 .42800004 0 .43000005 0 C .47100006 0 .514 .003 .555 .003 C .58 .003 .643 0 .668 0 C .674 0 .686 0 .686 .020000002 C .686 .031000002 .676 .031000002 .663 .031000002 C .601 .031000002 .601 .038000004 .598 .067 L .537 .69200006 C .535 .712 .535 .716 .518 .716 C .502 .716 .49800007 .70900008 .492 .69900009 L .14400001 .115 M .26400004 .26200003 L .46100004 .592 L .493 .26200003 L .26400004 .26200003 Z "/>
</symbol>
<use xlink:href="#font_0_1" transform="matrix(9.9626,0,0,-9.9626,77.1167,61.231004)"/>
<path transform="matrix(1,0,0,-1,1.134,205.229)" d="M 158.74274 181.42028 L 158.74274 204.09781 L 272.1304 136.0652 Z " fill="#00aeef" fill-opacity=".1"/>
<path transform="matrix(1,0,0,-1,1.134,205.229)" stroke-width=".79701" stroke-linecap="butt" stroke-miterlimit="10" stroke-linejoin="miter" fill="none" stroke="#00aeef" d="M 158.74274 181.42028 L 158.74274 204.09781 L 272.1304 136.0652 Z "/>
<symbol id="font_0_2">
<path d="M .11800001 .078 C .108 .039 .106 .031000002 .027000003 .031000002 C .009999998 .031000002 0 .031000002 0 .011000001 C 0 0 .009 0 .027000003 0 L .38400004 0 C .54200008 0 .66 .11800001 .66 .216 C .66 .28800003 .60200008 .34600003 .50500008 .35700003 C .609 .37600003 .71400007 .45000003 .71400007 .545 C .71400007 .619 .64800009 .683 .52800008 .683 L .192 .683 C .17300001 .683 .16300002 .683 .16300002 .66300007 C .16300002 .652 .17200002 .652 .19100002 .652 C .19300002 .652 .21200001 .652 .22900003 .65000006 C .24700001 .648 .256 .647 .256 .634 C .256 .63000008 .25500003 .62700006 .252 .615 L .11800001 .078 M .26900003 .36600004 L .33100004 .614 C .34000004 .64900007 .342 .652 .38500003 .652 L .51400008 .652 C .60200008 .652 .623 .59300008 .623 .549 C .623 .46100004 .53700008 .36600004 .41500003 .36600004 L .26900003 .36600004 M .224 .031000002 C .21000001 .031000002 .208 .031000002 .20200002 .032 C .192 .033 .18900001 .034 .18900001 .042000005 C .18900001 .045 .18900001 .047000003 .194 .065000008 L .263 .344 L .45200003 .344 C .54800006 .344 .56700006 .27 .56700006 .22700002 C .56700006 .128 .47800005 .031000002 .36 .031000002 L .224 .031000002 Z "/>
</symbol>
<use xlink:href="#font_0_2" transform="matrix(9.9626,0,0,-9.9626,190.28043,31.75)"/>
<path transform="matrix(1,0,0,-1,1.134,205.229)" d="M 113.38766 45.35506 L 113.38766 0 L 158.74274 158.74274 Z " fill="#800080" fill-opacity=".1"/>
<path transform="matrix(1,0,0,-1,1.134,205.229)" stroke-width=".79701" stroke-linecap="butt" stroke-miterlimit="10" stroke-linejoin="miter" fill="none" stroke="#800080" d="M 113.38766 45.35506 L 113.38766 0 L 158.74274 158.74274 Z "/>
<symbol id="font_0_3">
<path d="M .71000006 .71700009 C .71000006 .72 .708 .72700008 .699 .72700008 C .69600006 .72700008 .69500008 .7260001 .684 .71500006 L .614 .6380001 C .605 .65200009 .559 .72700008 .448 .72700008 C .22500001 .72700008 0 .50600007 0 .27400003 C 0 .109000008 .118000019 0 .271 0 C .358 0 .43400003 .040000004 .487 .086 C .58000007 .16800002 .597 .25900004 .597 .26200003 C .597 .272 .587 .272 .58500006 .272 C .579 .272 .574 .27 .572 .26200003 C .563 .23300001 .54 .162 .47100003 .104 C .402 .048 .33900003 .031000004 .287 .031000004 C .19700001 .031000004 .091000009 .083000008 .091000009 .23900001 C .091000009 .29600004 .112 .45800004 .21200003 .57500007 C .273 .646 .367 .69600006 .45600004 .69600006 C .558 .69600006 .61700007 .619 .61700007 .503 C .61700007 .46300004 .614 .46200005 .614 .45200003 C .614 .44200004 .625 .44200004 .629 .44200004 C .642 .44200004 .642 .44400005 .647 .46200005 L .71000006 .71700009 Z "/>
</symbol>
<use xlink:href="#font_0_3" transform="matrix(9.9626,0,0,-9.9626,122.44013,152.15918)"/>
<path transform="matrix(1,0,0,-1,1.134,205.229)" d="M 181.42028 136.0652 L 158.74274 0 L 226.77533 136.0652 Z " fill="#ff0000" fill-opacity=".1"/>
<path transform="matrix(1,0,0,-1,1.134,205.229)" stroke-width=".79701" stroke-linecap="butt" stroke-miterlimit="10" stroke-linejoin="miter" fill="none" stroke="#ff0000" d="M 181.42028 136.0652 L 158.74274 0 L 226.77533 136.0652 Z "/>
<symbol id="font_0_4">
<path d="M .119 .078 C .109 .039 .10699999 .031000002 .028 .031000002 C .011 .031000002 0 .031000002 0 .012 C 0 0 .009 0 .028 0 L .35900004 0 C .56700006 0 .764 .21100001 .764 .43 C .764 .57100006 .679 .683 .529 .683 L .193 .683 C .17400001 .683 .163 .683 .163 .66400006 C .163 .652 .172 .652 .192 .652 C .205 .652 .223 .651 .235 .65000006 C .25100003 .648 .25700004 .64500007 .25700004 .634 C .25700004 .63000008 .256 .62700006 .25300003 .615 L .119 .078 M .33500005 .614 C .344 .64900007 .34600003 .652 .38900004 .652 L .49600003 .652 C .594 .652 .677 .59900006 .677 .467 C .677 .418 .657 .254 .572 .14400001 C .543 .10700001 .46400003 .031000002 .34100003 .031000002 L .228 .031000002 C .214 .031000002 .212 .031000002 .206 .032 C .19600001 .033 .193 .034 .193 .042000005 C .193 .045 .193 .047000003 .198 .065000008 L .33500005 .614 Z "/>
</symbol>
<use xlink:href="#font_0_4" transform="matrix(9.9626,0,0,-9.9626,190.0265,106.58501)"/>
<path transform="matrix(1,0,0,-1,1.134,205.229)" d="M 226.77533 68.0326 L 272.1304 113.38766 L 294.80796 22.67752 Z " fill="#00ff00" fill-opacity=".1"/>
<path transform="matrix(1,0,0,-1,1.134,205.229)" stroke-width=".79701" stroke-linecap="butt" stroke-miterlimit="10" stroke-linejoin="miter" fill="none" stroke="#00ff00" d="M 226.77533 68.0326 L 272.1304 113.38766 L 294.80796 22.67752 Z "/>
<symbol id="font_0_5">
<path d="M .67 .23300001 C .67200008 .238 .6750001 .245 .6750001 .24700001 C .6750001 .24800001 .6750001 .25800003 .66300007 .25800003 C .65400007 .25800003 .65200009 .252 .65000006 .246 C .58500006 .098000008 .54800006 .031000002 .37700004 .031000002 L .23100002 .031000002 C .21700002 .031000002 .21500002 .031000002 .209 .032 C .19900002 .033 .19600001 .034 .19600001 .042000005 C .19600001 .045 .19600001 .047000003 .201 .065000008 L .269 .33800004 L .36800004 .33800004 C .453 .33800004 .453 .317 .453 .29200004 C .453 .28500004 .453 .273 .44600005 .24300002 C .444 .238 .44300003 .23500002 .44300003 .23200001 C .44300003 .22700002 .44700004 .22100002 .45600004 .22100002 C .46400006 .22100002 .467 .22600001 .47100003 .24100001 L .52800008 .47500003 C .52800008 .48100005 .52300009 .48600004 .51600006 .48600004 C .507 .48600004 .50500008 .48000003 .50200006 .46800003 C .48100008 .39200003 .46300007 .36900003 .371 .36900003 L .277 .36900003 L .337 .61 C .34600003 .64500007 .347 .64900007 .39100004 .64900007 L .53200009 .64900007 C .65400007 .64900007 .6840001 .62 .6840001 .53800007 C .6840001 .514 .6840001 .512 .68000009 .485 C .68000009 .47900004 .679 .47200004 .679 .467 C .679 .462 .68200007 .455 .69100007 .455 C .702 .455 .70300009 .46100004 .70500007 .48000003 L .725 .65300008 C .72800007 .68 .72300007 .68 .6980001 .68 L .193 .68 C .17300001 .68 .163 .68 .163 .66 C .163 .64900007 .172 .64900007 .19100002 .64900007 C .228 .64900007 .25599999 .64900007 .25599999 .63100007 C .25599999 .62700006 .25599999 .625 .251 .60700008 L .119 .078 C .109 .039 .10700001 .031000002 .027999998 .031000002 C .011 .031000002 0 .031000002 0 .012 C 0 0 .009 0 .027999998 0 L .54700008 0 C .57000008 0 .57100006 .001 .57800009 .017 L .67 .23300001 Z "/>
</symbol>
<use xlink:href="#font_0_5" transform="matrix(9.9626,0,0,-9.9626,258.33659,129.263)"/>
<path transform="matrix(1,0,0,-1,1.134,205.229)" d="M 22.67752 45.35506 L 0 0 L 22.67752 68.0326 L 22.67752 90.71013 L 0 45.35506 L 22.67752 113.38766 L 68.0326 113.38766 L 90.71013 22.67752 L 68.0326 90.71013 L 68.0326 45.35506 L 45.35506 68.0326 Z " fill="#ff8000" fill-opacity=".1"/>
<path transform="matrix(1,0,0,-1,1.134,205.229)" stroke-width=".79701" stroke-linecap="butt" stroke-miterlimit="10" stroke-linejoin="miter" fill="none" stroke="#ff8000" d="M 22.67752 45.35506 L 0 0 L 22.67752 68.0326 L 22.67752 90.71013 L 0 45.35506 L 22.67752 113.38766 L 68.0326 113.38766 L 90.71013 22.67752 L 68.0326 90.71013 L 68.0326 45.35506 L 45.35506 68.0326 Z "/>
<symbol id="font_0_6">
<path d="M .265 .32500003 L .362 .32500003 C .43700005 .32500003 .445 .30900003 .445 .28 C .445 .273 .445 .261 .43800003 .231 C .43600006 .22600001 .435 .22200002 .435 .22000002 C .435 .21200001 .44100005 .208 .44700004 .208 C .45700003 .208 .45700003 .21100001 .462 .22900002 L .517 .446 C .52000007 .45700003 .52000007 .45900003 .52000007 .462 C .52000007 .46400003 .51800009 .47300003 .508 .47300003 C .49800004 .47300003 .49700005 .46800003 .49300004 .45200003 C .47200007 .374 .449 .356 .36400003 .356 L .273 .356 L .337 .61 C .34600003 .64500007 .347 .64900007 .39100004 .64900007 L .52300009 .64900007 C .646 .64900007 .669 .61600008 .669 .53900006 C .669 .51600006 .669 .512 .66600009 .485 C .66400006 .47200004 .66400006 .47000004 .66400006 .467 C .66400006 .462 .66700008 .455 .67600008 .455 C .68700006 .455 .688 .46100004 .69000008 .48000003 L .71000006 .65300008 C .71300008 .68 .70800009 .68 .683 .68 L .193 .68 C .17300001 .68 .163 .68 .163 .66 C .163 .64900007 .172 .64900007 .19100002 .64900007 C .228 .64900007 .25599999 .64900007 .25599999 .63100007 C .25599999 .62700006 .25599999 .625 .251 .60700008 L .119 .078 C .109 .039 .10700001 .031000002 .027999998 .031000002 C .011 .031000002 0 .031000002 0 .012 C 0 0 .011999998 0 .015000001 0 C .044 0 .118 .003 .147 .003 C .18 .003 .263 0 .296 0 C .305 0 .31700004 0 .31700004 .019000002 C .31700004 .027 .311 .029000001 .311 .030000002 C .30800004 .031000002 .306 .031000002 .283 .031000002 C .26100005 .031000002 .25599999 .031000002 .23100002 .033 C .202 .036000004 .19900002 .040000004 .19900002 .053000004 C .19900002 .055000005 .19900002 .061000006 .20300001 .076000008 L .265 .32500003 Z "/>
</symbol>
<use xlink:href="#font_0_6" transform="matrix(9.9626,0,0,-9.9626,42.971578,129.263)"/>
</g>
</svg>
