<?xml version="1.0" encoding="UTF-8" standalone="no"?>
<!DOCTYPE svg PUBLIC "-//W3C//DTD SVG 1.1//EN" "http://www.w3.org/Graphics/SVG/1.1/DTD/svg11.dtd">
<svg xmlns="http://www.w3.org/2000/svg" xmlns:xlink="http://www.w3.org/1999/xlink" version="1.1" width="321.693pt" height="96.595pt" viewBox="0 0 321.693 96.595">
<g enable-background="new">
<path transform="matrix(1,0,0,-1,-34.219,303.62403)" stroke-width=".79701" stroke-linecap="round" stroke-linejoin="round" fill="none" stroke="#000000" d="M 42.5202 226.77448 L 154.77376 294.24003 "/>
<path transform="matrix(1,0,0,-1,-34.219,303.62403)" stroke-width=".79701" stroke-linecap="round" stroke-linejoin="round" fill="none" stroke="#000000" d="M 154.77376 294.24003 L 124.72578 246.61714 "/>
<path transform="matrix(1,0,0,-1,-34.219,303.62403)" stroke-width=".79701" stroke-linecap="round" stroke-linejoin="round" fill="none" stroke="#000000" d="M 124.72578 246.61714 L 175.75012 226.77448 "/>
<path transform="matrix(1,0,0,-1,-34.219,303.62403)" stroke-width=".79701" stroke-linecap="round" stroke-linejoin="round" fill="none" stroke="#000000" d="M 175.75012 226.77448 L 42.5202 226.77448 "/>
<path transform="matrix(1,0,0,-1,-34.219,303.62403)" stroke-width=".79701" stroke-linecap="round" stroke-dasharray="1.99255,1.99255" stroke-linejoin="round" fill="none" stroke="#000000" d="M 124.72578 246.61714 L 112.19644 226.77448 "/>
<path transform="matrix(1,0,0,-1,-34.219,303.62403)" d="M 43.51648 226.77448 C 43.51648 227.3247 43.07043 227.77075 42.5202 227.77075 C 41.96997 227.77075 41.52393 227.3247 41.52393 226.77448 C 41.52393 226.22425 41.96997 225.7782 42.5202 225.7782 C 43.07043 225.7782 43.51648 226.22425 43.51648 226.77448 Z M 42.5202 226.77448 " fill="#0000ff"/>
<path transform="matrix(1,0,0,-1,-34.219,303.62403)" stroke-width=".79701" stroke-linecap="round" stroke-linejoin="round" fill="none" stroke="#000000" d="M 43.51648 226.77448 C 43.51648 227.3247 43.07043 227.77075 42.5202 227.77075 C 41.96997 227.77075 41.52393 227.3247 41.52393 226.77448 C 41.52393 226.22425 41.96997 225.7782 42.5202 225.7782 C 43.07043 225.7782 43.51648 226.22425 43.51648 226.77448 Z M 42.5202 226.77448 "/>
<symbol id="font_0_1">
<path d="M .14900002 .120000008 C .114 .066 .08200001 .040000004 .023000002 .036000004 C .012999997 .035 0 .035 0 .015000001 C 0 .004 .008999996 0 .013999999 0 C .04 0 .07300001 .004 .1 .004 C .132 .004 .17300001 0 .20300001 0 C .208 0 .22299999 0 .22299999 .022000002 C .22299999 .035 .21000001 .036000004 .206 .036000004 C .19800002 .037 .162 .039 .162 .066 C .162 .078 .17200002 .095000009 .17700002 .104 L .257 .22800002 L .54300007 .22800002 L .56700006 .062000004 C .563 .052 .55700007 .036000004 .498 .036000004 C .48600004 .036000004 .47200004 .036000004 .47200004 .014 C .47200004 .010000001 .475 0 .488 0 C .517 0 .58800008 .004 .61700007 .004 C .63500007 .004 .65800008 .003 .67600008 .003 C .69400009 .002 .71500006 0 .73300006 0 C .74600008 0 .7530001 .008 .7530001 .021000002 C .7530001 .036000004 .74100008 .036000004 .7250001 .036000004 C .66700008 .036000004 .6650001 .044000005 .66200008 .068 L .57400009 .68500009 C .57100006 .70600005 .56900009 .71300008 .5500001 .71300008 C .531 .71300008 .52500006 .70400008 .51600006 .69000008 L .14900002 .120000008 M .28100003 .264 L .49100004 .591 L .53800007 .264 L .28100003 .264 Z "/>
</symbol>
<use xlink:href="#font_0_1" transform="matrix(6.9738,0,0,-6.9738,2.8675042,72.99902)" fill="#0000ff"/>
<path transform="matrix(1,0,0,-1,-34.219,303.62403)" d="M 155.77004 294.24003 C 155.77004 294.79026 155.32399 295.2363 154.77376 295.2363 C 154.22351 295.2363 153.77748 294.79026 153.77748 294.24003 C 153.77748 293.68977 154.22351 293.24375 154.77376 293.24375 C 155.32399 293.24375 155.77004 293.68977 155.77004 294.24003 Z M 154.77376 294.24003 " fill="#0000ff"/>
<path transform="matrix(1,0,0,-1,-34.219,303.62403)" stroke-width=".79701" stroke-linecap="round" stroke-linejoin="round" fill="none" stroke="#000000" d="M 155.77004 294.24003 C 155.77004 294.79026 155.32399 295.2363 154.77376 295.2363 C 154.22351 295.2363 153.77748 294.79026 153.77748 294.24003 C 153.77748 293.68977 154.22351 293.24375 154.77376 293.24375 C 155.32399 293.24375 155.77004 293.68977 155.77004 294.24003 Z M 154.77376 294.24003 "/>
<symbol id="font_0_2">
<path d="M .11800001 .078 C .109000008 .044000005 .107 .036000004 .030000002 .036000004 C .012999997 .036000004 0 .036000004 0 .015000001 C 0 0 .012000002 0 .030000002 0 L .41700004 0 C .585 0 .714 .115 .714 .21400002 C .714 .28500004 .649 .34600003 .543 .35700003 C .66400006 .379 .765 .455 .765 .541 C .765 .61700007 .688 .683 .558 .683 L .194 .683 C .17500001 .683 .162 .683 .162 .661 C .162 .647 .174 .647 .194 .647 C .19500003 .647 .21400002 .647 .23200003 .64500007 C .25300003 .643 .25500003 .64100006 .25500003 .63100007 C .25500003 .629 .25500003 .624 .25100003 .609 L .11800001 .078 M .27800004 .36900003 L .33900003 .61300006 C .34700004 .64400008 .34800003 .647 .39000003 .647 L .542 .647 C .644 .647 .667 .58000007 .667 .54200008 C .667 .46100004 .576 .36900003 .442 .36900003 L .27800004 .36900003 M .23000002 .036000004 C .19900003 .036000004 .19800002 .037 .19800002 .046000005 C .19800002 .047000003 .19800002 .052 .20200002 .067 L .27100004 .34100003 L .483 .34100003 C .577 .34100003 .61300006 .279 .61300006 .22100002 C .61300006 .12200001 .512 .036000004 .39100004 .036000004 L .23000002 .036000004 Z "/>
</symbol>
<use xlink:href="#font_0_2" transform="matrix(6.9738,0,0,-6.9738,120.42612,7.236023)" fill="#0000ff"/>
<path transform="matrix(1,0,0,-1,-34.219,303.62403)" d="M 125.72206 246.61714 C 125.72206 247.16738 125.27602 247.61342 124.72578 247.61342 C 124.17554 247.61342 123.7295 247.16738 123.7295 246.61714 C 123.7295 246.06691 124.17554 245.62087 124.72578 245.62087 C 125.27602 245.62087 125.72206 246.06691 125.72206 246.61714 Z M 124.72578 246.61714 " fill="#0000ff"/>
<path transform="matrix(1,0,0,-1,-34.219,303.62403)" stroke-width=".79701" stroke-linecap="round" stroke-linejoin="round" fill="none" stroke="#000000" d="M 125.72206 246.61714 C 125.72206 247.16738 125.27602 247.61342 124.72578 247.61342 C 124.17554 247.61342 123.7295 247.16738 123.7295 246.61714 C 123.7295 246.06691 124.17554 245.62087 124.72578 245.62087 C 125.27602 245.62087 125.72206 246.06691 125.72206 246.61714 Z M 124.72578 246.61714 "/>
<symbol id="font_0_3">
<path d="M .77300009 .71000006 C .77300009 .71500006 .77000007 .723 .76000007 .723 C .753 .723 .75100007 .721 .74200007 .711 L .669 .634 C .66 .646 .60400006 .723 .481 .723 C .23800004 .723 0 .508 0 .28200004 C 0 .11900001 .12800002 0 .307 0 C .36100004 0 .45700003 .011000001 .56000009 .098000008 C .63900008 .165 .661 .252 .661 .26000003 C .661 .27300004 .64900007 .27300004 .64400008 .27300004 C .63100007 .27300004 .62900009 .268 .62600007 .25700004 C .58500006 .120000008 .44500006 .036000004 .32400004 .036000004 C .21800003 .036000004 .1 .09300001 .1 .25100003 C .1 .28000004 .107 .43800003 .22200004 .564 C .29100005 .64100006 .39600004 .68700006 .49100007 .68700006 C .60700008 .68700006 .6750001 .603 .6750001 .49100004 C .6750001 .46300004 .67200008 .45600004 .67200008 .45000003 C .67200008 .43700005 .68500009 .43700005 .69000008 .43700005 C .70600005 .43700005 .70600005 .44000004 .711 .45900003 L .77300009 .71000006 Z "/>
</symbol>
<use xlink:href="#font_0_3" transform="matrix(6.9738,0,0,-6.9738,85.05717,53.86351)" fill="#0000ff"/>
<path transform="matrix(1,0,0,-1,-34.219,303.62403)" d="M 176.7464 226.77448 C 176.7464 227.3247 176.30036 227.77075 175.75012 227.77075 C 175.19989 227.77075 174.75385 227.3247 174.75385 226.77448 C 174.75385 226.22425 175.19989 225.7782 175.75012 225.7782 C 176.30036 225.7782 176.7464 226.22425 176.7464 226.77448 Z M 175.75012 226.77448 " fill="#0000ff"/>
<path transform="matrix(1,0,0,-1,-34.219,303.62403)" stroke-width=".79701" stroke-linecap="round" stroke-linejoin="round" fill="none" stroke="#000000" d="M 176.7464 226.77448 C 176.7464 227.3247 176.30036 227.77075 175.75012 227.77075 C 175.19989 227.77075 174.75385 227.3247 174.75385 226.77448 C 174.75385 226.22425 175.19989 225.7782 175.75012 225.7782 C 176.30036 225.7782 176.7464 226.22425 176.7464 226.77448 Z M 175.75012 226.77448 "/>
<symbol id="font_0_4">
<path d="M .11800001 .078 C .11000001 .044000005 .108 .036000004 .030000002 .036000004 C .012000002 .036000004 0 .036000004 0 .014 C 0 0 .012000002 0 .030000002 0 L .38700003 0 C .609 0 .8220001 .20400001 .8220001 .42200003 C .8220001 .568 .7210001 .683 .558 .683 L .194 .683 C .174 .683 .162 .683 .162 .661 C .162 .647 .17300001 .647 .195 .647 C .211 .647 .215 .647 .23300001 .64500007 C .253 .643 .255 .64100006 .255 .63100007 C .255 .629 .255 .624 .25100003 .609 L .11800001 .078 M .342 .61300006 C .35000003 .64400008 .351 .647 .393 .647 L .521 .647 C .6330001 .647 .72700008 .591 .72700008 .455 C .72700008 .432 .71700009 .259 .61700007 .14500001 C .57800009 .1 .492 .036000004 .36900003 .036000004 L .23300001 .036000004 C .20199999 .036000004 .201 .037 .201 .046000005 C .201 .047000003 .201 .052 .20500002 .067 L .342 .61300006 Z "/>
</symbol>
<use xlink:href="#font_0_4" transform="matrix(6.9738,0,0,-6.9738,142.91112,74.70003)" fill="#0000ff"/>
<symbol id="font_1_2">
<path d="M .114 .683 L .109000008 .65000006 L .13100001 .65000006 C .19500003 .65000006 .204 .642 .204 .62100008 C .204 .619 .20300001 .61300006 .20199999 .60800006 L .114 .076000008 C .108 .041 .09600001 .033 .028000005 .033 L .006000001 .033 L 0 0 L .40800003 0 C .558 0 .67600008 .10300001 .67600008 .20400001 C .67600008 .28300003 .60700008 .34500004 .50100007 .35700003 C .62200006 .381 .70100006 .455 .70100006 .53300008 C .70100006 .619 .61200007 .683 .493 .683 L .114 .683 M .248 .36900003 L .289 .61600008 C .293 .642 .298 .65000006 .342 .65000006 L .48100005 .65000006 C .5680001 .65000006 .60400006 .592 .60400006 .535 C .60400006 .45100004 .52000007 .36900003 .405 .36900003 L .248 .36900003 M .24000001 .033 C .204 .033 .19600001 .037 .19600001 .054 C .19600001 .058000003 .19600001 .060000004 .199 .076000008 L .243 .34100003 L .446 .34100003 C .53300008 .34100003 .57600006 .279 .57600006 .21000001 C .57600006 .115 .489 .033 .38000003 .033 L .24000001 .033 Z "/>
</symbol>
<symbol id="font_1_a">
<path d="M .19900002 .34100003 L .21600002 .441 L .089 .43100003 C .073 .43 .07200001 .42900003 .07000001 .42200003 C .069000009 .41700004 .066 .40100003 .066 .397 C .11500001 .397 .136 .39400003 .136 .36600004 C .136 .363 .13300002 .347 .13300002 .34600003 L .088 .072000008 C .082 .033 .06400001 .033 .0050000029 .033 L 0 0 C .043 .003 .08600001 .003 .118000019 .003 C .17500001 .003 .17700002 .003 .245 0 C .24600002 .006 .24900002 .029000001 .25000004 .033 L .23000002 .033 C .16700001 .033 .16000001 .042000005 .16000001 .061000006 C .16000001 .065000008 .16600001 .101 .16900002 .12100001 C .17200002 .13700001 .17900002 .177 .18100001 .193 C .19200002 .25500003 .20000002 .30200003 .24300003 .358 C .263 .38300003 .29400004 .41000004 .34300003 .41300003 C .34100003 .411 .32200004 .39600004 .32200004 .37100003 C .32200004 .35200004 .337 .333 .36200003 .333 C .39100004 .333 .41300003 .35700003 .41300003 .38500003 C .41300003 .41300003 .388 .441 .344 .441 C .25500003 .441 .20300001 .34500004 .20000002 .34 L .19900002 .34100003 Z "/>
</symbol>
<symbol id="font_1_3">
<path d="M .45700003 .15500002 C .45100004 .115 .44600005 .089 .445 .083000008 C .44100005 .07 .42800004 .043 .402 .043 C .386 .043 .37300004 .054000006 .37300004 .08 C .37300004 .091 .377 .113000009 .381 .136 C .38700003 .16800002 .41200004 .30900003 .41200004 .33 C .41200004 .39900003 .34800003 .456 .24600002 .456 C .135 .456 .074 .402 .074 .35 C .074 .33200003 .08600001 .31 .11600001 .31 C .14600002 .31 .16900002 .333 .16900002 .363 C .16900002 .386 .156 .398 .14 .402 C .18100001 .428 .236 .428 .24400002 .428 C .31 .428 .337 .37800003 .337 .336 C .337 .326 .33200003 .29500003 .32900004 .28100003 C .328 .276 .32200004 .275 .31 .275 C .09300001 .268 0 .17800002 0 .098000008 C 0 .015000001 .105000007 0 .15400002 0 C .24200002 0 .29200004 .060000004 .30600003 .08 C .30600003 .024 .337 .0050000005 .36900003 .0050000005 C .37100003 .0050000005 .463 .0050000005 .47900004 .101 C .48300005 .122 .48300005 .124000009 .48800005 .15500002 L .45700003 .15500002 M .30900003 .16000001 C .30400003 .13200002 .29900003 .1 .26000003 .066 C .24000001 .048000006 .20300001 .028 .163 .028 C .12300001 .028 .082 .050000006 .082 .097 C .082 .13100001 .111 .24000001 .324 .25 L .30900003 .16000001 Z "/>
</symbol>
<symbol id="font_1_4">
<path d="M .526 .704 L .375 .693 L .36900003 .66 C .42000003 .66 .439 .657 .439 .628 C .439 .62200006 .43699999 .61200007 .436 .605 L .40100003 .39200003 C .39600004 .398 .357 .451 .27500005 .451 C .134 .451 0 .331 0 .19100002 C 0 .078 .08500001 0 .193 0 C .24800001 0 .29800005 .022 .342 .061000006 L .33200003 0 L .486 .010000001 L .49199999 .043 C .436 .043 .422 .048000006 .422 .075 C .422 .083000008 .42400003 .092 .425 .1 L .526 .704 M .35400004 .134 C .351 .116000007 .351 .114 .33600004 .097 C .30800004 .063 .25700004 .028 .19900002 .028 C .171 .028 .08600001 .040000004 .08600001 .16000001 C .08600001 .20000002 .096 .294 .142 .35300002 C .178 .397 .23 .423 .27899999 .423 C .361 .423 .39000006 .356 .39000006 .34600003 C .39000006 .343 .39000006 .34100003 .38700003 .327 L .35400004 .134 Z "/>
</symbol>
<symbol id="font_1_1">
<path d="M .117 .21000001 C .10600002 .118 .046000005 .05699998 .013999999 .030999989 C .001000002 .020999998 0 .01999998 0 .014999986 C 0 .007999986 .0069999995 0 .013999999 0 C .031000004 0 .14600002 .102 .14600002 .22599998 C .14600002 .28700004 .118000019 .30499999 .089 .30499999 C .053000004 .30499999 .026000008 .275 .026000008 .24200002 C .026000008 .211 .047000007 .19399998 .075 .19399998 C .09900002 .19399998 .114999998 .20799998 .117 .21000001 Z "/>
</symbol>
<symbol id="font_1_b">
<path d="M .39000003 .43 C .39000003 .432 .39200003 .441 .39200003 .442 C .39200003 .448 .39000003 .456 .379 .456 C .375 .456 .373 .456 .338 .42900003 C .30900003 .45200003 .269 .456 .24200003 .456 C .082 .456 .051000004 .357 .051000004 .317 C .051000004 .29 .065 .26500003 .08400001 .24700003 C .11500001 .22000002 .14700002 .21400002 .21000001 .202 C .24700003 .19600001 .311 .18400002 .311 .127 C .311 .093 .285 .028 .17600002 .028 C .10000001 .028 .063999999 .071 .057 .15500002 C .055000005 .17100002 .055000005 .17700002 .040000004 .17700002 C .026999999 .17700002 .025000003 .17000002 .023000002 .15600002 L .0009999983 .026 C 0 .022 0 .017 0 .013 C 0 .010000001 .0009999983 0 .013 0 C .018 0 .02 0 .041000006 .020000002 L .065 .043 C .104 0 .158 0 .17600002 0 C .33200003 0 .37 .106 .37 .157 C .37 .18900001 .358 .21700002 .333 .24000001 C .301 .268 .272 .274 .21300002 .285 C .16900002 .293 .110000018 .304 .110000018 .349 C .110000018 .364 .12300001 .43100003 .24200003 .43100003 C .305 .43100003 .343 .404 .343 .34600003 C .343 .33200003 .341 .328 .341 .323 C .341 .31100003 .35300002 .31 .357 .31 C .368 .31 .371 .314 .374 .331 L .39000003 .43 Z "/>
</symbol>
<symbol id="font_1_c">
<path d="M .16600001 .40800003 L .31500004 .40800003 L .321 .441 L .17200002 .441 L .20200002 .625 L .171 .625 C .157 .538 .101 .439 .0050000029 .43600003 L 0 .40800003 L .09000001 .40800003 L .04500001 .13700001 C .042000005 .120000008 .042000005 .115 .042000005 .106 C .042000005 .016 .116000007 0 .16 0 C .20200002 0 .23400003 .022 .25800003 .056000007 C .28100003 .089 .28300003 .106 .29700003 .19100002 L .26600004 .19100002 C .26000003 .15600002 .25300003 .11 .24200002 .087000008 C .224 .051000004 .19700003 .031000004 .16900003 .031000004 C .117000009 .031000004 .117000009 .085 .117000009 .096 C .117000009 .107 .117000009 .113000009 .11900001 .125 L .16600001 .40800003 Z "/>
</symbol>
<symbol id="font_1_6">
<path d="M .256 .623 C .256 .65400007 .23200003 .67200008 .20700002 .67200008 C .17500001 .67200008 .144 .64400008 .144 .61 C .144 .578 .16800002 .56100007 .19300002 .56100007 C .22700003 .56100007 .256 .591 .256 .623 M .093 .43100003 C .077 .43 .076000008 .42900003 .074 .42200003 C .073 .41900004 .07 .4 .07 .397 C .11900001 .397 .136 .393 .136 .36600004 C .136 .36200003 .13499999 .35900004 .13300002 .34500004 L .08800001 .072000008 C .082 .033 .064 .033 .004999999 .033 L 0 0 C .042999999 .003 .08800001 .003 .11100001 .003 C .13 .003 .183 .003 .21700001 0 L .22300002 .033 C .181 .033 .15900001 .033 .15900001 .057000005 C .15900001 .059000005 .16 .063 .162 .076000008 L .22300002 .441 L .093 .43100003 Z "/>
</symbol>
<symbol id="font_1_8">
<path d="M .21900001 .441 L .08900001 .43100003 C .07300001 .43 .072000008 .42900003 .07000001 .42200003 C .069000009 .41700004 .06600001 .40100003 .06600001 .397 C .115 .397 .136 .39400003 .136 .36600004 C .136 .363 .13300002 .347 .13300002 .34600003 L .08800001 .072000008 C .082 .033 .064 .033 .0050000029 .033 L 0 0 C .043000007 .003 .08900001 .003 .114 .003 C .143 .003 .185 .003 .22800002 0 L .234 .033 C .185 .033 .16300002 .033 .16300002 .058000003 C .16300002 .061000006 .169 .101 .17300001 .123 C .18 .16700001 .18800003 .216 .19500003 .25500003 C .215 .374 .312 .41300003 .36400003 .41300003 C .421 .41300003 .42400003 .37300004 .42400003 .34800003 C .42400003 .34 .42400003 .33200003 .421 .314 L .381 .072000008 C .375 .033 .35700003 .033 .298 .033 L .293 0 C .336 .003 .382 .003 .407 .003 C .43600003 .003 .47800005 .003 .521 0 L .527 .033 C .47800005 .033 .456 .033 .456 .058000003 C .456 .065000008 .47400005 .17300001 .477 .19000001 C .48400004 .22800002 .485 .23400001 .491 .272 C .496 .30600003 .499 .323 .499 .337 C .499 .423 .43400003 .441 .37300004 .441 C .305 .441 .24599999 .407 .204 .34800003 L .20300001 .34800003 L .21900001 .441 Z "/>
</symbol>
<symbol id="font_1_5">
<path d="M .169 .27400003 C .14500001 .275 .12200001 .293 .12200001 .32700003 C .12200001 .33200003 .12300001 .35800005 .146 .38200004 C .157 .374 .192 .352 .24600002 .352 C .35500003 .352 .44200004 .435 .44200004 .517 C .44200004 .561 .416 .59300008 .41500003 .59400007 C .46100004 .62600007 .50100007 .628 .51500007 .62900009 C .51100006 .62600007 .5030001 .6190001 .5030001 .602 C .5030001 .58100005 .52000007 .574 .53200009 .574 C .54100009 .574 .56600007 .58000007 .56600007 .612 C .56600007 .632 .55200007 .65700009 .51600006 .65700009 C .48700003 .65700009 .439 .646 .397 .61100009 C .36400003 .637 .32500003 .646 .291 .646 C .18200001 .646 .095000009 .563 .095000009 .48100005 C .095000009 .462 .1 .43 .127 .39900003 C .101 .37200005 .082 .33600004 .082 .298 C .082 .263 .098000008 .23900002 .111 .22800002 C .044 .21000001 0 .16200002 0 .11800001 C 0 .055000009 .085 0 .21700001 0 C .31800003 0 .47300003 .039000006 .47300003 .14900002 C .47300003 .27400003 .33400003 .27400003 .22800002 .27400003 L .169 .27400003 M .24700001 .38100005 C .223 .38100005 .172 .39100004 .172 .45800004 C .172 .544 .21300002 .61700007 .29000003 .61700007 C .314 .61700007 .365 .607 .365 .54 C .365 .45400004 .324 .38100005 .24700001 .38100005 M .21800001 .029 C .118 .029 .059 .073000017 .059 .117000009 C .059 .134 .069 .16900002 .109 .19300002 C .136 .209 .146 .209 .222 .209 C .314 .209 .41300003 .209 .41300003 .14000002 C .41300003 .08200001 .324 .029 .21800001 .029 Z "/>
</symbol>
<symbol id="font_1_d">
<path d="M .453 .451 L .31599999 .441 C .3 .44 .29900003 .439 .297 .432 C .296 .42700003 .29299999 .411 .29299999 .407 C .342 .407 .36300005 .404 .36300005 .37600003 C .36300005 .37 .35800005 .343 .356 .326 L .33500005 .20000002 C .32700003 .15300001 .319 .109000008 .268 .063 C .255 .052000006 .22400002 .028 .177 .028 C .100999999 .028 .100999999 .063 .100999999 .083000008 C .100999999 .092 .100999999 .098000008 .104 .116000007 L .16000001 .451 L .023000002 .441 C .0069999995 .44 .0059999974 .439 .0040000008 .432 C .0029999987 .42700003 0 .411 0 .407 C .048999996 .407 .06999999 .404 .06999999 .37600003 C .06999999 .367 .051 .255 .047999994 .23900002 L .036 .16700001 C .032999994 .14600002 .027999998 .118 .027999998 .105000007 C .027999998 .022 .094 0 .17 0 C .23200001 0 .27600003 .026 .31599999 .078 L .31700004 .078 L .30400003 0 L .43800003 .009000001 C .45400007 .010000001 .45500005 .011000001 .45700003 .018000002 C .45900006 .026 .46100004 .037 .46100004 .043 C .40500004 .043 .39100004 .048000006 .39100004 .075 C .39100004 .079 .39100004 .081 .39400006 .098000008 L .453 .451 Z "/>
</symbol>
<symbol id="font_1_7">
<path d="M .26500003 .694 L .13100001 .684 C .115 .683 .114 .68200007 .11200001 .675 C .11200001 .67200008 .108 .651 .108 .65000006 C .15900001 .65000006 .178 .647 .178 .61800006 C .178 .614 .17700002 .61 .17500001 .597 L .08800001 .072000008 C .082 .033 .064 .033 .004999999 .033 L 0 0 C .042999999 .003 .087000008 .003 .113 .003 C .13300002 .003 .18600002 .003 .22500003 0 L .231 .033 C .18200001 .033 .16 .033 .16 .058000003 C .16 .059000005 .162 .071 .162 .07300001 L .26500003 .694 Z "/>
</symbol>
<symbol id="font_1_9">
<path d="M .47700004 .26 C .47700004 .37 .395 .456 .277 .456 C .126 .456 0 .31800003 0 .18800001 C 0 .084 .08 0 .20199999 0 C .344 0 .47700004 .120000008 .47700004 .26 M .20700002 .031000004 C .15900001 .031000004 .085999999 .054000006 .085999999 .158 C .085999999 .15900001 .089 .286 .134 .354 C .16600001 .403 .222 .428 .272 .428 C .32700003 .428 .39400003 .39900003 .39400003 .304 C .39400003 .293 .386 .17700002 .351 .116000007 C .31 .047000003 .24700001 .031000004 .20700002 .031000004 Z "/>
</symbol>
<use xlink:href="#font_1_2" transform="matrix(6.9738,0,0,-6.9738,43.96674,92.76903)"/>
<use xlink:href="#font_1_a" transform="matrix(6.9738,0,0,-6.9738,49.120378,92.76903)"/>
<use xlink:href="#font_1_3" transform="matrix(6.9738,0,0,-6.9738,52.181875,92.83877)"/>
<use xlink:href="#font_1_4" transform="matrix(6.9738,0,0,-6.9738,55.940755,92.83877)"/>
<use xlink:href="#font_1_1" transform="matrix(6.9738,0,0,-6.9738,60.78057,90.05622)"/>
<use xlink:href="#font_1_b" transform="matrix(6.9738,0,0,-6.9738,61.889406,92.83877)"/>
<use xlink:href="#font_1_c" transform="matrix(6.9738,0,0,-6.9738,67.628849,92.83877)"/>
<use xlink:href="#font_1_a" transform="matrix(6.9738,0,0,-6.9738,70.15335,92.76903)"/>
<use xlink:href="#font_1_6" transform="matrix(6.9738,0,0,-6.9738,73.08933,92.76903)"/>
<use xlink:href="#font_1_3" transform="matrix(6.9738,0,0,-6.9738,75.272129,92.83877)"/>
<use xlink:href="#font_1_8" transform="matrix(6.9738,0,0,-6.9738,78.84272,92.76903)"/>
<use xlink:href="#font_1_5" transform="matrix(6.9738,0,0,-6.9738,82.782909,94.198657)"/>
<use xlink:href="#font_1_d" transform="matrix(6.9738,0,0,-6.9738,87.12061,92.83877)"/>
<use xlink:href="#font_1_7" transform="matrix(6.9738,0,0,-6.9738,90.78185,92.76903)"/>
<use xlink:href="#font_1_3" transform="matrix(6.9738,0,0,-6.9738,92.96466,92.83877)"/>
<use xlink:href="#font_1_c" transform="matrix(6.9738,0,0,-6.9738,96.84906,92.83877)"/>
<use xlink:href="#font_1_6" transform="matrix(6.9738,0,0,-6.9738,99.4224,92.76903)"/>
<use xlink:href="#font_1_9" transform="matrix(6.9738,0,0,-6.9738,101.61914,92.83877)"/>
<use xlink:href="#font_1_8" transform="matrix(6.9738,0,0,-6.9738,105.17579,92.76903)"/>
<path transform="matrix(1,0,0,-1,-34.219,303.62403)" stroke-width=".79701" stroke-linecap="round" stroke-linejoin="round" fill="none" stroke="#000000" d="M 212.60106 226.77448 L 324.8546 294.24003 "/>
<path transform="matrix(1,0,0,-1,-34.219,303.62403)" stroke-width=".79701" stroke-linecap="round" stroke-linejoin="round" fill="none" stroke="#000000" d="M 324.8546 294.24003 L 294.80665 246.61714 "/>
<path transform="matrix(1,0,0,-1,-34.219,303.62403)" stroke-width=".79701" stroke-linecap="round" stroke-linejoin="round" fill="none" stroke="#000000" d="M 294.80665 246.61714 L 345.831 226.77448 "/>
<path transform="matrix(1,0,0,-1,-34.219,303.62403)" stroke-width=".79701" stroke-linecap="round" stroke-linejoin="round" fill="none" stroke="#000000" d="M 345.831 226.77448 L 212.60106 226.77448 "/>
<path transform="matrix(1,0,0,-1,-34.219,303.62403)" stroke-width=".79701" stroke-linecap="round" stroke-dasharray="1.99255,1.99255" stroke-linejoin="round" fill="none" stroke="#000000" d="M 212.60106 226.77448 L 294.80665 246.61714 "/>
<path transform="matrix(1,0,0,-1,-34.219,303.62403)" d="M 213.59734 226.77448 C 213.59734 227.3247 213.15129 227.77075 212.60106 227.77075 C 212.05083 227.77075 211.60478 227.3247 211.60478 226.77448 C 211.60478 226.22425 212.05083 225.7782 212.60106 225.7782 C 213.15129 225.7782 213.59734 226.22425 213.59734 226.77448 Z M 212.60106 226.77448 " fill="#0000ff"/>
<path transform="matrix(1,0,0,-1,-34.219,303.62403)" stroke-width=".79701" stroke-linecap="round" stroke-linejoin="round" fill="none" stroke="#000000" d="M 213.59734 226.77448 C 213.59734 227.3247 213.15129 227.77075 212.60106 227.77075 C 212.05083 227.77075 211.60478 227.3247 211.60478 226.77448 C 211.60478 226.22425 212.05083 225.7782 212.60106 225.7782 C 213.15129 225.7782 213.59734 226.22425 213.59734 226.77448 Z M 212.60106 226.77448 "/>
<use xlink:href="#font_0_1" transform="matrix(6.9738,0,0,-6.9738,172.94551,72.99902)" fill="#0000ff"/>
<path transform="matrix(1,0,0,-1,-34.219,303.62403)" d="M 325.8509 294.24003 C 325.8509 294.79026 325.40486 295.2363 324.8546 295.2363 C 324.30439 295.2363 323.85835 294.79026 323.85835 294.24003 C 323.85835 293.68977 324.30439 293.24375 324.8546 293.24375 C 325.40486 293.24375 325.8509 293.68977 325.8509 294.24003 Z M 324.8546 294.24003 " fill="#0000ff"/>
<path transform="matrix(1,0,0,-1,-34.219,303.62403)" stroke-width=".79701" stroke-linecap="round" stroke-linejoin="round" fill="none" stroke="#000000" d="M 325.8509 294.24003 C 325.8509 294.79026 325.40486 295.2363 324.8546 295.2363 C 324.30439 295.2363 323.85835 294.79026 323.85835 294.24003 C 323.85835 293.68977 324.30439 293.24375 324.8546 293.24375 C 325.40486 293.24375 325.8509 293.68977 325.8509 294.24003 Z M 324.8546 294.24003 "/>
<use xlink:href="#font_0_2" transform="matrix(6.9738,0,0,-6.9738,290.5051,7.236023)" fill="#0000ff"/>
<path transform="matrix(1,0,0,-1,-34.219,303.62403)" d="M 295.80293 246.61714 C 295.80293 247.16738 295.35688 247.61342 294.80665 247.61342 C 294.2564 247.61342 293.81037 247.16738 293.81037 246.61714 C 293.81037 246.06691 294.2564 245.62087 294.80665 245.62087 C 295.35688 245.62087 295.80293 246.06691 295.80293 246.61714 Z M 294.80665 246.61714 " fill="#0000ff"/>
<path transform="matrix(1,0,0,-1,-34.219,303.62403)" stroke-width=".79701" stroke-linecap="round" stroke-linejoin="round" fill="none" stroke="#000000" d="M 295.80293 246.61714 C 295.80293 247.16738 295.35688 247.61342 294.80665 247.61342 C 294.2564 247.61342 293.81037 247.16738 293.81037 246.61714 C 293.81037 246.06691 294.2564 245.62087 294.80665 245.62087 C 295.35688 245.62087 295.80293 246.06691 295.80293 246.61714 Z M 294.80665 246.61714 "/>
<use xlink:href="#font_0_3" transform="matrix(6.9738,0,0,-6.9738,255.13617,53.86351)" fill="#0000ff"/>
<path transform="matrix(1,0,0,-1,-34.219,303.62403)" d="M 346.82728 226.77448 C 346.82728 227.3247 346.38124 227.77075 345.831 227.77075 C 345.28077 227.77075 344.8347 227.3247 344.8347 226.77448 C 344.8347 226.22425 345.28077 225.7782 345.831 225.7782 C 346.38124 225.7782 346.82728 226.22425 346.82728 226.77448 Z M 345.831 226.77448 " fill="#0000ff"/>
<path transform="matrix(1,0,0,-1,-34.219,303.62403)" stroke-width=".79701" stroke-linecap="round" stroke-linejoin="round" fill="none" stroke="#000000" d="M 346.82728 226.77448 C 346.82728 227.3247 346.38124 227.77075 345.831 227.77075 C 345.28077 227.77075 344.8347 227.3247 344.8347 226.77448 C 344.8347 226.22425 345.28077 225.7782 345.831 225.7782 C 346.38124 225.7782 346.82728 226.22425 346.82728 226.77448 Z M 345.831 226.77448 "/>
<use xlink:href="#font_0_4" transform="matrix(6.9738,0,0,-6.9738,312.99015,74.70003)" fill="#0000ff"/>
<use xlink:href="#font_1_2" transform="matrix(6.9738,0,0,-6.9738,214.66275,92.76903)"/>
<use xlink:href="#font_1_3" transform="matrix(6.9738,0,0,-6.9738,219.99073,92.83877)"/>
<use xlink:href="#font_1_a" transform="matrix(6.9738,0,0,-6.9738,223.51947,92.76903)"/>
<use xlink:href="#font_1_c" transform="matrix(6.9738,0,0,-6.9738,226.76229,92.83877)"/>
<use xlink:href="#font_1_1" transform="matrix(6.9738,0,0,-6.9738,230.2422,90.05622)"/>
<use xlink:href="#font_1_b" transform="matrix(6.9738,0,0,-6.9738,231.35103,92.83877)"/>
<use xlink:href="#font_1_c" transform="matrix(6.9738,0,0,-6.9738,237.09047,92.83877)"/>
<use xlink:href="#font_1_a" transform="matrix(6.9738,0,0,-6.9738,239.61498,92.76903)"/>
<use xlink:href="#font_1_6" transform="matrix(6.9738,0,0,-6.9738,242.55095,92.76903)"/>
<use xlink:href="#font_1_3" transform="matrix(6.9738,0,0,-6.9738,244.73375,92.83877)"/>
<use xlink:href="#font_1_8" transform="matrix(6.9738,0,0,-6.9738,248.30434,92.76903)"/>
<use xlink:href="#font_1_5" transform="matrix(6.9738,0,0,-6.9738,252.24456,94.198657)"/>
<use xlink:href="#font_1_d" transform="matrix(6.9738,0,0,-6.9738,256.58226,92.83877)"/>
<use xlink:href="#font_1_7" transform="matrix(6.9738,0,0,-6.9738,260.2435,92.76903)"/>
<use xlink:href="#font_1_3" transform="matrix(6.9738,0,0,-6.9738,262.4263,92.83877)"/>
<use xlink:href="#font_1_c" transform="matrix(6.9738,0,0,-6.9738,266.31074,92.83877)"/>
<use xlink:href="#font_1_6" transform="matrix(6.9738,0,0,-6.9738,268.88407,92.76903)"/>
<use xlink:href="#font_1_9" transform="matrix(6.9738,0,0,-6.9738,271.0808,92.83877)"/>
<use xlink:href="#font_1_8" transform="matrix(6.9738,0,0,-6.9738,274.63746,92.76903)"/>
</g>
</svg>
