<?xml version="1.0" encoding="UTF-8" standalone="no"?>
<!DOCTYPE svg PUBLIC "-//W3C//DTD SVG 1.1//EN" "http://www.w3.org/Graphics/SVG/1.1/DTD/svg11.dtd">
<svg xmlns="http://www.w3.org/2000/svg" xmlns:xlink="http://www.w3.org/1999/xlink" version="1.1" width="340.954pt" height="83.465pt" viewBox="0 0 340.954 83.465">
<g enable-background="new">
<path transform="matrix(1,0,0,-1,113.784,71.265)" stroke-width=".79701" stroke-linecap="butt" stroke-dasharray="1.99255,1.99255" stroke-miterlimit="10" stroke-linejoin="miter" fill="none" stroke="#000000" d="M 0 0 L 0 70.867 L 141.73404 70.867 L 141.73404 0 L 56.69362 0 "/>
<path transform="matrix(1,0,0,-1,113.784,71.265)" stroke-width=".79701" stroke-linecap="butt" stroke-miterlimit="10" stroke-linejoin="miter" fill="none" stroke="#000000" d="M 0 0 L 56.69362 0 L 141.73404 70.867 Z "/>
<symbol id="font_0_1">
<path d="M .266 .165 L .266 .078 C .266 .042000005 .26400004 .031000002 .19000001 .031000002 L .16900002 .031000002 L .16900002 0 C .21000001 .003 .26200003 .003 .30400003 .003 C .34600003 .003 .39900003 .003 .44000004 0 L .44000004 .031000002 L .41900004 .031000002 C .34500004 .031000002 .34300003 .042000005 .34300003 .078 L .34300003 .165 L .44300003 .165 L .44300003 .19600001 L .34300003 .19600001 L .34300003 .651 C .34300003 .671 .34300003 .67700007 .32700003 .67700007 C .31800003 .67700007 .31500004 .67700007 .307 .665 L 0 .19600001 L 0 .165 L .266 .165 M .272 .19600001 L .028 .19600001 L .272 .569 L .272 .19600001 Z "/>
</symbol>
<use xlink:href="#font_0_1" transform="matrix(9.9626,0,0,-9.9626,142.75394,80.144)"/>
<symbol id="font_0_3">
<path d="M .089999999 .35000003 L .089999999 .37400005 C .089999999 .62700006 .21400002 .66300007 .26500003 .66300007 C .28900004 .66300007 .33100004 .65700009 .35300002 .623 C .33800004 .623 .298 .623 .298 .57800009 C .298 .54700008 .32200004 .53200009 .344 .53200009 C .36 .53200009 .39000003 .54100009 .39000003 .58000007 C .39000003 .64000007 .34600003 .688 .263 .688 C .13499999 .688 0 .559 0 .33800004 C 0 .071 .116000007 0 .20900002 0 C .32000003 0 .41500003 .094000007 .41500003 .22600001 C .41500003 .35300005 .32600004 .44900004 .215 .44900004 C .14700002 .44900004 .11000001 .39800004 .089999999 .35000003 M .20900002 .028 C .146 .028 .116000007 .088 .11000001 .103 C .092 .15 .092 .23 .092 .24800001 C .092 .32600004 .124000009 .42600004 .21400002 .42600004 C .23000002 .42600004 .27600003 .42600004 .307 .36400003 C .32500003 .32700003 .32500003 .27600003 .32500003 .22700002 C .32500003 .179 .32500003 .12900001 .30800004 .093 C .27800004 .033000005 .23200003 .028 .20900002 .028 Z "/>
</symbol>
<use xlink:href="#font_0_3" transform="matrix(9.9626,0,0,-9.9626,210.92443,80.363178)"/>
<symbol id="font_0_2">
<path d="M .39900003 .223 C .39900003 .34200005 .317 .44200004 .209 .44200004 C .16100002 .44200004 .118000019 .42600004 .082 .39100004 L .082 .586 C .10200001 .58000007 .135 .573 .16700001 .573 C .29 .573 .36 .66400006 .36 .67700007 C .36 .683 .357 .688 .35 .688 C .349 .688 .347 .688 .342 .68500009 C .322 .67600008 .273 .656 .20600002 .656 C .16600001 .656 .120000008 .66300007 .073 .6840001 C .065 .68700006 .06300001 .68700006 .061000009 .68700006 C .051000004 .68700006 .051000004 .679 .051000004 .66300007 L .051000004 .36700005 C .051000004 .34900005 .051000004 .34100003 .065 .34100003 C .07200001 .34100003 .074 .34400005 .07800001 .35000003 C .08900002 .36600004 .12600002 .42000006 .207 .42000006 C .259 .42000006 .284 .37400005 .292 .35600005 C .308 .31900005 .31 .28000004 .31 .23 C .31 .19500001 .31 .135 .286 .093 C .262 .054000006 .22500001 .028 .17900002 .028 C .106000009 .028 .049000008 .08100001 .032 .14000002 C .035 .13900002 .038000008 .13800001 .049000008 .13800001 C .082 .13800001 .09900001 .163 .09900001 .187 C .09900001 .21100001 .082 .23600002 .049000008 .23600002 C .035 .23600002 0 .22900002 0 .18300002 C 0 .097 .069000009 0 .18100001 0 C .297 0 .39900003 .096 .39900003 .223 Z "/>
</symbol>
<use xlink:href="#font_0_2" transform="matrix(9.9626,0,0,-9.9626,259.19316,37.844175)"/>
<path transform="matrix(1,0,0,-1,113.784,71.265)" stroke-width=".3985" stroke-linecap="butt" stroke-miterlimit="10" stroke-linejoin="miter" fill="none" stroke="#ffffff" d="M -113.18797 0 C -113.18797 .11003 -113.2772 .19925 -113.38724 .19925 C -113.49727 .19925 -113.58649 .11003 -113.58649 0 C -113.58649 -.11003 -113.49727 -.19925 -113.38724 -.19925 C -113.2772 -.19925 -113.18797 -.11003 -113.18797 0 Z M -113.38724 0 "/>
<path transform="matrix(1,0,0,-1,113.784,71.265)" stroke-width=".3985" stroke-linecap="butt" stroke-miterlimit="10" stroke-linejoin="miter" fill="none" stroke="#ffffff" d="M 226.97373 0 C 226.97373 .11003 226.8845 .19925 226.77448 .19925 C 226.66445 .19925 226.57523 .11003 226.57523 0 C 226.57523 -.11003 226.66445 -.19925 226.77448 -.19925 C 226.8845 -.19925 226.97373 -.11003 226.97373 0 Z M 226.77448 0 "/>
</g>
</svg>
