<?xml version="1.0" encoding="UTF-8" standalone="no"?>
<!DOCTYPE svg PUBLIC "-//W3C//DTD SVG 1.1//EN" "http://www.w3.org/Graphics/SVG/1.1/DTD/svg11.dtd">
<svg xmlns="http://www.w3.org/2000/svg" xmlns:xlink="http://www.w3.org/1999/xlink" version="1.1" width="340.755pt" height="51.821pt" viewBox="0 0 340.755 51.821">
<g enable-background="new">
<path transform="matrix(1,0,0,-1,113.685,51.423)" d="M 85.04042 5.66927 L 79.37114 5.66927 L 79.37114 0 L 85.04042 0 Z " fill="#006400" fill-opacity=".1"/>
<path transform="matrix(1,0,0,-1,113.685,51.423)" stroke-width=".79701" stroke-linecap="round" stroke-linejoin="round" fill="none" stroke="#006400" d="M 85.04042 5.66927 L 79.37114 5.66927 L 79.37114 0 L 85.04042 0 Z "/>
<path transform="matrix(1,0,0,-1,113.685,51.423)" d="M 90.7097 0 L 90.7097 5.66927 L 85.04042 5.66927 L 85.04042 0 Z " fill="#006400" fill-opacity=".1"/>
<path transform="matrix(1,0,0,-1,113.685,51.423)" stroke-width=".79701" stroke-linecap="round" stroke-linejoin="round" fill="none" stroke="#006400" d="M 90.7097 0 L 90.7097 5.66927 L 85.04042 5.66927 L 85.04042 0 Z "/>
<path transform="matrix(1,0,0,-1,113.685,51.423)" stroke-width=".79701" stroke-linecap="round" stroke-linejoin="round" fill="none" stroke="#000000" d="M 0 0 L 85.04042 51.02432 L 127.56062 0 Z "/>
<path transform="matrix(1,0,0,-1,113.685,51.423)" stroke-width=".79701" stroke-linecap="round" stroke-dasharray="1.99255,1.99255" stroke-linejoin="round" fill="none" stroke="#000000" d="M 85.04042 0 L 85.04042 51.02432 "/>
<path transform="matrix(1,0,0,-1,113.685,51.423)" stroke-width=".79701" stroke-linecap="round" stroke-dasharray="1.99255,1.99255" stroke-linejoin="round" fill="none" stroke="#000000" d="M 0 0 L 0 51.02432 L 127.56062 51.02432 L 127.56062 0 "/>
<path transform="matrix(1,0,0,-1,113.685,51.423)" stroke-width=".3985" stroke-linecap="round" stroke-linejoin="round" fill="none" stroke="#ffffff" d="M -113.2876 0 C -113.2876 .05501 -113.33221 .09962 -113.38724 .09962 C -113.44225 .09962 -113.48686 .05501 -113.48686 0 C -113.48686 -.05501 -113.44225 -.09962 -113.38724 -.09962 C -113.33221 -.09962 -113.2876 -.05501 -113.2876 0 Z M -113.38724 0 "/>
<path transform="matrix(1,0,0,-1,113.685,51.423)" stroke-width=".3985" stroke-linecap="round" stroke-linejoin="round" fill="none" stroke="#ffffff" d="M 226.8741 0 C 226.8741 .05501 226.82949 .09962 226.77448 .09962 C 226.71945 .09962 226.67484 .05501 226.67484 0 C 226.67484 -.05501 226.71945 -.09962 226.77448 -.09962 C 226.82949 -.09962 226.8741 -.05501 226.8741 0 Z M 226.77448 0 "/>
</g>
</svg>
