<?xml version="1.0" encoding="UTF-8" standalone="no"?>
<!DOCTYPE svg PUBLIC "-//W3C//DTD SVG 1.1//EN" "http://www.w3.org/Graphics/SVG/1.1/DTD/svg11.dtd">
<svg xmlns="http://www.w3.org/2000/svg" xmlns:xlink="http://www.w3.org/1999/xlink" version="1.1" width="340.876pt" height="95.004pt" viewBox="0 0 340.876 95.004">
<g enable-background="new">
<path transform="matrix(1,0,0,-1,91.068,81.518)" stroke-width=".79701" stroke-linecap="round" stroke-linejoin="round" fill="none" stroke="#000000" d="M 0 0 L 45.35506 68.0326 "/>
<path transform="matrix(1,0,0,-1,91.068,81.518)" stroke-width=".79701" stroke-linecap="round" stroke-linejoin="round" fill="none" stroke="#000000" d="M 45.35506 68.0326 L 136.0652 68.0326 "/>
<path transform="matrix(1,0,0,-1,91.068,81.518)" stroke-width=".79701" stroke-linecap="round" stroke-linejoin="round" fill="none" stroke="#000000" d="M 136.0652 68.0326 L 158.74274 0 "/>
<path transform="matrix(1,0,0,-1,91.068,81.518)" stroke-width=".79701" stroke-linecap="round" stroke-linejoin="round" fill="none" stroke="#000000" d="M 158.74274 0 L 0 0 "/>
<path transform="matrix(1,0,0,-1,91.068,81.518)" stroke-width=".79701" stroke-linecap="round" stroke-linejoin="round" fill="none" stroke="#000000" d="M 0 0 L 136.0652 68.0326 "/>
<path transform="matrix(1,0,0,-1,91.068,81.518)" stroke-width=".79701" stroke-linecap="round" stroke-dasharray="2.98883,2.98883" stroke-linejoin="round" fill="none" stroke="#000000" d="M 136.0652 0 L 136.0652 68.0326 "/>
<path transform="matrix(1,0,0,-1,91.068,81.518)" stroke-width=".79701" stroke-linecap="round" stroke-dasharray="2.98883,2.98883" stroke-linejoin="round" fill="none" stroke="#000000" d="M 0 0 L 0 68.0326 "/>
<path transform="matrix(1,0,0,-1,91.068,81.518)" stroke-width=".79701" stroke-linecap="round" stroke-dasharray="2.98883,2.98883" stroke-linejoin="round" fill="none" stroke="#000000" d="M 0 68.0326 L 45.35506 68.0326 "/>
<symbol id="font_0_1">
<path d="M .192 .671 C .19600001 .685 .19600001 .68700006 .19600001 .691 C .19600001 .7 .19000001 .705 .18100001 .705 C .16700001 .705 .078999999 .697 .059000005 .695 C .049 .694 .038 .693 .038 .676 C .038 .663 .049 .663 .065 .663 C .112 .663 .112 .656 .112 .647 C .112 .64100006 .112 .639 .105000007 .612 L .052000006 .40100003 C .038 .34500004 .025000003 .29400004 .014000002 .24700003 C .0069999995 .22200002 0 .19200002 0 .16000001 C 0 .074 .048000006 0 .134 0 C .25100003 0 .37900005 .14100002 .37900005 .291 C .37900005 .39300005 .316 .45300005 .24100001 .45300005 C .19000001 .45300005 .146 .418 .122999999 .39600004 L .192 .671 M .109 .33900003 C .13700001 .37900005 .18800001 .42800004 .23900001 .42800004 C .286 .42800004 .30500005 .381 .30500005 .33400003 C .30500005 .28900004 .277 .16500002 .246 .112 C .209 .048 .165 .025000003 .134 .025000003 C .08400001 .025000003 .06400001 .075 .06400001 .126 C .06400001 .16100002 .07100001 .18800001 .094 .279 L .109 .33900003 Z "/>
</symbol>
<use xlink:href="#font_0_1" transform="matrix(8.9664,0,0,-8.9664,166.80942,91.03463)"/>
<symbol id="font_1_1">
<path d="M .23800002 .63500007 C .23800002 .665 .23400001 .665 .20400001 .665 C .138 .601 .036 .601 0 .601 L 0 .56200006 C .025999994 .56200006 .09200001 .56200006 .152 .59000006 L .152 .085 C .152 .052 .152 .039 .048999996 .039 L .0059999974 .039 L .0059999974 0 C .061000006 .004 .13900002 .004 .19500001 .004 C .251 .004 .329 .004 .384 0 L .384 .039 L .34100003 .039 C .23800002 .039 .23800002 .052 .23800002 .085 L .23800002 .63500007 Z "/>
</symbol>
<use xlink:href="#font_1_1" transform="matrix(5.9776,0,0,-5.9776,171.0603,91.933)"/>
<use xlink:href="#font_0_1" transform="matrix(8.9664,0,0,-8.9664,171.34442,9.396626)"/>
<symbol id="font_1_2">
<path d="M .46600006 .187 L .42900006 .187 C .42700003 .17300001 .41700004 .10700001 .40200005 .096 C .395 .09 .314 .09 .3 .09 L .113 .09 L .24100003 .194 C .275 .22100002 .36400003 .28500004 .395 .31500004 C .425 .34500004 .46600006 .39600004 .46600006 .467 C .46600006 .592 .35300002 .665 .21900001 .665 C .089999999 .665 0 .58000007 0 .48600004 C 0 .43500004 .042999999 .42900003 .053999999 .42900003 C .079 .42900003 .108 .44700004 .108 .483 C .108 .505 .095000009 .537 .051 .537 C .07400001 .588 .13500002 .62600007 .20400003 .62600007 C .30900003 .62600007 .365 .54800006 .365 .467 C .365 .39600004 .31800003 .323 .24800003 .259 L .011 .042000005 C .001000002 .032 0 .031000002 0 0 L .43500004 0 L .46600006 .187 Z "/>
</symbol>
<use xlink:href="#font_1_2" transform="matrix(5.9776,0,0,-5.9776,175.3024,10.293999)"/>
<symbol id="font_0_2">
<path d="M .232 .671 C .236 .685 .236 .68700006 .236 .691 C .236 .7 .23000002 .705 .22100002 .705 C .20700002 .705 .119 .697 .09900001 .695 C .089 .694 .077999997 .693 .077999997 .676 C .077999997 .663 .089 .663 .105000007 .663 C .15200001 .663 .15200001 .656 .15200001 .647 C .15200001 .643 .15200001 .64100006 .147 .623 L .0040000008 .048 C 0 .034 0 .032 0 .029000003 C 0 .013000001 .013 0 .031 0 C .048000006 0 .062000004 .010000001 .069000009 .024 C .070999998 .029000003 .08 .065000008 .08499999 .086 L .107999999 .17500001 C .111 .19000001 .12100001 .22800002 .124 .24300002 L .136 .28700004 C .141 .31000004 .19800002 .42800004 .30600003 .42800004 C .36 .42800004 .36 .37500004 .36 .358 C .36 .29700003 .31300003 .17500001 .30200003 .14400001 C .29000003 .113000009 .286 .10300001 .286 .08400001 C .286 .030000002 .32700003 0 .372 0 C .468 0 .507 .143 .507 .15400002 C .507 .15900001 .504 .16600001 .49400003 .16600001 C .48300005 .16600001 .482 .16100002 .47800005 .14800002 C .453 .063 .411 .025000003 .375 .025000003 C .368 .025000003 .35000003 .025000003 .35000003 .057000005 C .35000003 .082 .36 .108 .368 .13000001 C .388 .18100001 .428 .28700004 .428 .34300003 C .428 .43200005 .36200003 .45300005 .30900003 .45300005 C .24900002 .45300005 .19800002 .42500005 .158 .37600003 L .232 .671 Z "/>
</symbol>
<use xlink:href="#font_0_2" transform="matrix(8.9664,0,0,-8.9664,218.16616,52.98163)"/>
<use xlink:href="#font_0_2" transform="matrix(8.9664,0,0,-8.9664,82.10215,52.98163)"/>
<path transform="matrix(1,0,0,-1,91.068,81.518)" d="M -90.55074 0 C -90.55074 .08801 -90.6221 .15938 -90.71013 .15938 C -90.79814 .15938 -90.8695 .08801 -90.8695 0 C -90.8695 -.08801 -90.79814 -.15938 -90.71013 -.15938 C -90.6221 -.15938 -90.55074 -.08801 -90.55074 0 Z M -90.71013 0 " fill="#ffffff"/>
<path transform="matrix(1,0,0,-1,91.068,81.518)" stroke-width=".3985" stroke-linecap="round" stroke-linejoin="round" fill="none" stroke="#000000" d="M -90.55074 0 C -90.55074 .08801 -90.6221 .15938 -90.71013 .15938 C -90.79814 .15938 -90.8695 .08801 -90.8695 0 C -90.8695 -.08801 -90.79814 -.15938 -90.71013 -.15938 C -90.6221 -.15938 -90.55074 -.08801 -90.55074 0 Z M -90.71013 0 "/>
<path transform="matrix(1,0,0,-1,91.068,81.518)" d="M 249.61226 0 C 249.61226 .08801 249.54088 .15938 249.45287 .15938 C 249.36484 .15938 249.29347 .08801 249.29347 0 C 249.29347 -.08801 249.36484 -.15938 249.45287 -.15938 C 249.54088 -.15938 249.61226 -.08801 249.61226 0 Z M 249.45287 0 " fill="#ffffff"/>
<path transform="matrix(1,0,0,-1,91.068,81.518)" stroke-width=".3985" stroke-linecap="round" stroke-linejoin="round" fill="none" stroke="#000000" d="M 249.61226 0 C 249.61226 .08801 249.54088 .15938 249.45287 .15938 C 249.36484 .15938 249.29347 .08801 249.29347 0 C 249.29347 -.08801 249.36484 -.15938 249.45287 -.15938 C 249.54088 -.15938 249.61226 -.08801 249.61226 0 Z M 249.45287 0 "/>
</g>
</svg>
