<?xml version="1.0" encoding="iso-8859-1" standalone="no"?> 
<?xml-stylesheet href="proofByPicture1.css" type="text/css"?> 
<svg xmlns="http://www.w3.org/2000/svg" xmlns:xlink="http://www.w3.org/1999/xlink" width="342.03293pt" height="84.7775pt" viewBox="-114.11098 -13.24565 342.03293 84.7775 "> 
<g transform="translate(0,
71.53185 ) scale(1,-1) translate(0,13.24565 )"> 
                      <g stroke="#000" fill="#000">
 <g stroke-width="0.4">
 <g stroke-linecap="round">
 <g stroke-linejoin="round">
 <g stroke-width="0.8">
 <g stroke="#006400" fill="#006400">
 <g fill="#006400">
 <g fill-opacity="0.1">
 <path d=" M 85.35823 5.55977 L 79.79845 5.55977 L 79.79845 0.0 L 85.35823 0.0 Z  " />
 </g>
 </g>
 </g>
 </g>
 <g stroke-width="0.8">
 <g stroke="#006400" fill="#006400">
 <g fill="#006400">
 <g fill-opacity="0.1">
 <path d=" M 90.918 0.0 L 90.918 5.55977 L 85.35823 5.55977 L 85.35823 0.0 Z  " />
 </g>
 </g>
 </g>
 </g>
 <g stroke-width="0.8">
 <path d=" M 0.0 0.0 L 85.35823 71.13185  " fill="none"/>
 </g>
 <g stroke-width="0.8">
 <path d=" M 85.35823 71.13185 L 113.81097 0.0  " fill="none"/>
 </g>
 <g stroke-width="0.8">
 <path d=" M 113.81097 0.0 L 0.0 0.0  " fill="none"/>
 </g>
 <g stroke-width="0.8">
 <path d=" M 0.0 0.0 L 85.35823 0.0  " fill="none"/>
 </g>
 <g stroke-width="0.8">
 <path d=" M 85.35823 0.0 L 113.81097 0.0  " fill="none"/>
 </g>
 <g stroke-width="0.8">
 <g stroke-dasharray="2.0,2.0" stroke-dashoffset="0.0">
 <path d=" M 85.35823 0.0 L 85.35823 71.13185  " fill="none"/>
 </g>
 </g>
 <g stroke="#fff" fill="#fff">
 <path d=" M -113.81097 0.0 M -113.71097 0.0 C -113.71097 0.05522 -113.75575 0.1 -113.81097 0.1 C -113.8662 0.1 -113.91098 0.05522 -113.91098 0.0 C -113.91098 -0.05522 -113.8662 -0.1 -113.81097 -0.1 C -113.75575 -0.1 -113.71097 -0.05522 -113.71097 0.0 Z M -113.81097 0.0  " fill="none"/>
 </g>
 <g stroke="#fff" fill="#fff">
 <path d=" M 227.62195 0.0 M 227.72195 0.0 C 227.72195 0.05522 227.67717 0.1 227.62195 0.1 C 227.56673 0.1 227.52194 0.05522 227.52194 0.0 C 227.52194 -0.05522 227.56673 -0.1 227.62195 -0.1 C 227.67717 -0.1 227.72195 -0.05522 227.72195 0.0 Z M 227.62195 0.0  " fill="none"/>
 </g>
 <g stroke="#000" fill="#000">
 <path d=" M 45.52455 -5.69046  " fill="none"/>
 <g transform="translate(41.13567,-8.41269)">
 <g fill="#000">
 <text style="stroke:none" transform="scale(1,-1) translate(4.38889,0)" text-anchor="middle"  font-size="10"> 
<g fill="#000">
 <g stroke="none"> b<tspan baseline-shift="sub">1</tspan></g> </g>
 </text> 
</g>
 </g>
 </g>
 <g stroke="#000" fill="#000">
 <path d=" M 99.5846 -5.69046  " fill="none"/>
 <g transform="translate(95.19571,-8.41269)">
 <g fill="#000">
 <text style="stroke:none" transform="scale(1,-1) translate(4.38889,0)" text-anchor="middle"  font-size="10"> 
<g fill="#000">
 <g stroke="none"> b<tspan baseline-shift="sub">2</tspan></g> </g>
 </text> 
</g>
 </g>
 </g>
 <g stroke="#000" fill="#000">
 <path d=" M 79.66776 34.1432  " fill="none"/>
 <g transform="translate(76.78697,30.67099)">
 <g fill="#000">
 <text style="stroke:none" transform="scale(1,-1) translate(2.88078,0)" text-anchor="middle"  font-size="10"> 
<g fill="#000">
 <g stroke="none"> h </g> </g>
 </text> 
</g>
 </g>
 </g>
 </g>
 </g>
 </g>
 </g>
 
                                                                 </g> 
</svg> 
