<?xml version="1.0" encoding="UTF-8" standalone="no"?>
<!DOCTYPE svg PUBLIC "-//W3C//DTD SVG 1.1//EN" "http://www.w3.org/Graphics/SVG/1.1/DTD/svg11.dtd">
<svg xmlns="http://www.w3.org/2000/svg" xmlns:xlink="http://www.w3.org/1999/xlink" version="1.1" width="340.755pt" height="63.871pt" viewBox="0 0 340.755 63.871">
<g enable-background="new">
<path transform="matrix(1,0,0,-1,113.685,51.421998)" d="M 85.04042 5.66927 L 79.37114 5.66927 L 79.37114 0 L 85.04042 0 Z " fill="#006400" fill-opacity=".1"/>
<path transform="matrix(1,0,0,-1,113.685,51.421998)" stroke-width=".79701" stroke-linecap="butt" stroke-miterlimit="10" stroke-linejoin="miter" fill="none" stroke="#006400" d="M 85.04042 5.66927 L 79.37114 5.66927 L 79.37114 0 L 85.04042 0 Z "/>
<path transform="matrix(1,0,0,-1,113.685,51.421998)" d="M 90.7097 0 L 90.7097 5.66927 L 85.04042 5.66927 L 85.04042 0 Z " fill="#006400" fill-opacity=".1"/>
<path transform="matrix(1,0,0,-1,113.685,51.421998)" stroke-width=".79701" stroke-linecap="butt" stroke-miterlimit="10" stroke-linejoin="miter" fill="none" stroke="#006400" d="M 90.7097 0 L 90.7097 5.66927 L 85.04042 5.66927 L 85.04042 0 Z "/>
<path transform="matrix(1,0,0,-1,113.685,51.421998)" stroke-width=".79701" stroke-linecap="butt" stroke-miterlimit="10" stroke-linejoin="miter" fill="none" stroke="#000000" d="M 0 0 L 85.04042 51.02432 L 127.56062 0 Z "/>
<path transform="matrix(1,0,0,-1,113.685,51.421998)" stroke-width=".79701" stroke-linecap="butt" stroke-dasharray="1.99255,1.99255" stroke-miterlimit="10" stroke-linejoin="miter" fill="none" stroke="#000000" d="M 85.04042 0 L 85.04042 51.02432 "/>
<path transform="matrix(1,0,0,-1,113.685,51.421998)" stroke-width=".3985" stroke-linecap="butt" stroke-miterlimit="10" stroke-linejoin="miter" fill="none" stroke="#ffffff" d="M -113.2876 0 C -113.2876 .05501 -113.33221 .09962 -113.38724 .09962 C -113.44225 .09962 -113.48686 .05501 -113.48686 0 C -113.48686 -.05501 -113.44225 -.09962 -113.38724 -.09962 C -113.33221 -.09962 -113.2876 -.05501 -113.2876 0 Z M -113.38724 0 "/>
<path transform="matrix(1,0,0,-1,113.685,51.421998)" stroke-width=".3985" stroke-linecap="butt" stroke-miterlimit="10" stroke-linejoin="miter" fill="none" stroke="#ffffff" d="M 226.8741 0 C 226.8741 .05501 226.82949 .09962 226.77448 .09962 C 226.71945 .09962 226.67484 .05501 226.67484 0 C 226.67484 -.05501 226.71945 -.09962 226.77448 -.09962 C 226.82949 -.09962 226.8741 -.05501 226.8741 0 Z M 226.77448 0 "/>
<symbol id="font_0_1">
<path d="M .35500003 .39100004 C .33900003 .39100004 .32500003 .39100004 .31100003 .37700004 C .29500003 .36200003 .293 .34500004 .293 .33800004 C .293 .314 .31100003 .30300004 .33 .30300004 C .359 .30300004 .386 .32700003 .386 .367 C .386 .41600005 .33900003 .45300005 .268 .45300005 C .13300002 .45300005 0 .31000004 0 .16900002 C 0 .079 .058000007 0 .162 0 C .305 0 .389 .106000009 .389 .11800001 C .389 .124000009 .38300003 .13100001 .377 .13100001 C .372 .13100001 .37 .12900001 .36400003 .12100001 C .285 .022000002 .176 .022000002 .164 .022000002 C .101 .022000002 .074 .071 .074 .13100001 C .074 .17200002 .094000007 .26900003 .12800002 .33100004 C .15900001 .388 .21400002 .43100003 .269 .43100003 C .303 .43100003 .34100003 .418 .35500003 .39100004 Z "/>
</symbol>
<use xlink:href="#font_0_1" transform="matrix(9.9626,0,0,-9.9626,157.29146,59.34558)"/>
<symbol id="font_0_2">
<path d="M .47600005 .694 C .47600005 .695 .47600005 .705 .46300004 .705 C .44800005 .705 .35300002 .69600006 .33600004 .694 C .32800005 .693 .32200004 .688 .32200004 .675 C .32200004 .663 .33100004 .663 .34600003 .663 C .39400003 .663 .39600004 .656 .39600004 .646 L .39300005 .626 L .33300004 .38900004 C .31500004 .42600004 .286 .45300005 .24100001 .45300005 C .124 .45300005 0 .30600003 0 .16000001 C 0 .06600001 .055000005 0 .133 0 C .153 0 .20300001 .0040000008 .263 .075 C .27100004 .033000005 .30600003 0 .35400004 0 C .38900004 0 .41200004 .023000002 .42800004 .055000005 C .44500003 .091000009 .45800004 .15200001 .45800004 .15400002 C .45800004 .16400002 .44900004 .16400002 .44600005 .16400002 C .43600003 .16400002 .43500004 .16000001 .43200005 .14600002 C .41500003 .081 .397 .022000002 .35600005 .022000002 C .32900004 .022000002 .32600004 .048 .32600004 .068 C .32600004 .092 .32800005 .09900001 .33200003 .116000007 L .47600005 .694 M .26800005 .13000001 C .263 .112 .263 .11000001 .24800001 .093 C .20400001 .038000004 .163 .022000002 .135 .022000002 C .08499999 .022000002 .07100001 .077 .07100001 .116000007 C .07100001 .16600001 .103 .28900004 .126 .335 C .157 .39400003 .202 .43100003 .242 .43100003 C .307 .43100003 .32100005 .34900005 .32100005 .34300003 C .32100005 .337 .31900005 .33100004 .31800003 .32600004 L .26800005 .13000001 Z "/>
</symbol>
<use xlink:href="#font_0_2" transform="matrix(9.9626,0,0,-9.9626,219.20749,60.659585)"/>
<symbol id="font_0_3">
<path d="M .232 .694 C .232 .695 .232 .705 .21900001 .705 C .19600001 .705 .122999999 .697 .097 .695 C .089 .694 .077999997 .693 .077999997 .675 C .077999997 .663 .087 .663 .102 .663 C .15 .663 .15200001 .656 .15200001 .646 L .149 .626 L .0040000008 .05 C 0 .036000004 0 .034 0 .028 C 0 .005000001 .02 0 .029000003 0 C .044999999 0 .061 .012000001 .066 .026 L .08499999 .102000009 L .10699999 .19200002 C .113000009 .21400002 .119 .23600002 .124 .259 C .126 .26500003 .134 .298 .135 .30400003 C .138 .31300003 .169 .36900003 .20300001 .39600004 C .225 .41200004 .256 .43100003 .299 .43100003 C .342 .43100003 .35300002 .397 .35300002 .36100004 C .35300002 .307 .315 .19800002 .291 .13700001 C .28300003 .11400001 .278 .102000009 .278 .082 C .278 .035 .31300003 0 .36 0 C .454 0 .491 .14600002 .491 .15400002 C .491 .16400002 .482 .16400002 .47900004 .16400002 C .46900005 .16400002 .46900005 .16100002 .46400006 .14600002 C .449 .093 .41700004 .022000002 .36200003 .022000002 C .345 .022000002 .338 .032 .338 .055000005 C .338 .080000009 .347 .104 .356 .126 C .372 .16900002 .41700004 .28800003 .41700004 .34600003 C .41700004 .411 .377 .45300005 .30200003 .45300005 C .239 .45300005 .191 .42200003 .154 .37600003 L .232 .694 Z "/>
</symbol>
<use xlink:href="#font_0_3" transform="matrix(9.9626,0,0,-9.9626,190.73294,26.644585)"/>
</g>
</svg>
