<?xml version="1.0" encoding="UTF-8" standalone="no"?>
<!DOCTYPE svg PUBLIC "-//W3C//DTD SVG 1.1//EN" "http://www.w3.org/Graphics/SVG/1.1/DTD/svg11.dtd">
<svg xmlns="http://www.w3.org/2000/svg" xmlns:xlink="http://www.w3.org/1999/xlink" version="1.1" width="340.876pt" height="96.692pt" viewBox="0 0 340.876 96.692">
<g enable-background="new">
<path transform="matrix(1,0,0,-1,91.068,82.362)" stroke-width=".79701" stroke-linecap="round" stroke-linejoin="round" fill="none" stroke="#000000" d="M 0 0 L 45.35506 68.0326 L 136.0652 68.0326 L 158.74274 0 Z "/>
<path transform="matrix(1,0,0,-1,91.068,82.362)" stroke-width=".79701" stroke-linecap="round" stroke-linejoin="round" fill="none" stroke="#000000" d="M 0 0 L 136.0652 68.0326 "/>
<path transform="matrix(1,0,0,-1,91.068,82.362)" stroke-width=".79701" stroke-linecap="round" stroke-dasharray="2.98883,2.98883" stroke-linejoin="round" fill="none" stroke="#000000" d="M 136.0652 0 L 136.0652 68.0326 "/>
<path transform="matrix(1,0,0,-1,91.068,82.362)" stroke-width=".79701" stroke-linecap="round" stroke-dasharray="2.98883,2.98883" stroke-linejoin="round" fill="none" stroke="#000000" d="M 0 0 L 0 68.0326 L 45.35506 68.0326 "/>
<symbol id="font_0_1">
<path d="M .192 .694 C .192 .695 .192 .705 .179 .705 C .156 .705 .083000008 .697 .057 .695 C .049 .694 .038 .693 .038 .675 C .038 .663 .047000003 .663 .062000004 .663 C .11 .663 .112 .656 .112 .646 C .112 .639 .103 .605 .098000008 .584 L .015999999 .25800003 C .0040000008 .20800002 0 .19200002 0 .15700002 C 0 .062000004 .053 0 .127 0 C .24500002 0 .36800004 .14900002 .36800004 .293 C .36800004 .38400004 .31500004 .45300005 .235 .45300005 C .18900001 .45300005 .148 .42400003 .118 .39300005 L .192 .694 M .098000008 .316 C .104 .33800004 .104 .34000004 .113000009 .351 C .162 .41600005 .207 .43100003 .233 .43100003 C .26900003 .43100003 .29600004 .40100003 .29600004 .337 C .29600004 .27800004 .263 .16300002 .24500002 .12500002 C .212 .058000003 .16600001 .022000002 .127 .022000002 C .092999998 .022000002 .060000007 .049000004 .060000007 .123 C .060000007 .14200002 .060000007 .16100002 .076000008 .22400002 L .098000008 .316 Z "/>
</symbol>
<use xlink:href="#font_0_1" transform="matrix(9.9626,0,0,-9.9626,166.53325,91.98659)"/>
<symbol id="font_1_1">
<path d="M .22600001 .63600006 C .22600001 .66300007 .224 .66400006 .19600001 .66400006 C .132 .601 .041 .6 0 .6 L 0 .564 C .023999997 .564 .09000001 .564 .14500001 .592 L .14500001 .082 C .14500001 .049000004 .14500001 .036000004 .04500001 .036000004 L .0069999995 .036000004 L .0069999995 0 C .024999999 .001 .148 .004 .185 .004 C .21600002 .004 .34200005 .001 .36400003 0 L .36400003 .036000004 L .32600004 .036000004 C .22600001 .036000004 .22600001 .049000004 .22600001 .082 L .22600001 .63600006 Z "/>
</symbol>
<use xlink:href="#font_1_1" transform="matrix(6.9738,0,0,-6.9738,171.10115,93.371)"/>
<use xlink:href="#font_0_1" transform="matrix(9.9626,0,0,-9.9626,171.06925,10.348587)"/>
<symbol id="font_1_2">
<path d="M .442 .18200001 L .40800003 .18200001 C .40500004 .16000001 .39500005 .101 .38200004 .091000009 C .374 .085 .29700003 .085 .28300003 .085 L .099 .085 C .20400003 .178 .23900002 .20600002 .29900003 .25300003 C .37300004 .312 .442 .374 .442 .469 C .442 .59000006 .33600004 .66400006 .20800004 .66400006 C .084 .66400006 0 .577 0 .485 C 0 .43400003 .043000007 .42900003 .053000004 .42900003 C .077 .42900003 .10600001 .446 .10600001 .48200003 C .10600001 .5 .099 .535 .047000007 .535 C .078 .606 .146 .628 .19300002 .628 C .293 .628 .34500004 .55 .34500004 .469 C .34500004 .38200004 .28300003 .31300003 .25100003 .277 L .010000005 .039 C 0 .030000002 0 .028 0 0 L .41200004 0 L .442 .18200001 Z "/>
</symbol>
<use xlink:href="#font_1_2" transform="matrix(6.9738,0,0,-6.9738,175.31534,11.733002)"/>
<symbol id="font_0_2">
<path d="M .232 .694 C .232 .695 .232 .705 .21900001 .705 C .19600001 .705 .122999999 .697 .097 .695 C .089 .694 .077999997 .693 .077999997 .675 C .077999997 .663 .087 .663 .102 .663 C .15 .663 .15200001 .656 .15200001 .646 L .149 .626 L .0040000008 .05 C 0 .036000004 0 .034 0 .028 C 0 .005000001 .02 0 .029000003 0 C .044999999 0 .061 .012000001 .066 .026 L .08499999 .102000009 L .10699999 .19200002 C .113000009 .21400002 .119 .23600002 .124 .259 C .126 .26500003 .134 .298 .135 .30400003 C .138 .31300003 .169 .36900003 .20300001 .39600004 C .225 .41200004 .256 .43100003 .299 .43100003 C .342 .43100003 .35300002 .397 .35300002 .36100004 C .35300002 .307 .315 .19800002 .291 .13700001 C .28300003 .11400001 .278 .102000009 .278 .082 C .278 .035 .31300003 0 .36 0 C .454 0 .491 .14600002 .491 .15400002 C .491 .16400002 .482 .16400002 .47900004 .16400002 C .46900005 .16400002 .46900005 .16100002 .46400006 .14600002 C .449 .093 .41700004 .022000002 .36200003 .022000002 C .345 .022000002 .338 .032 .338 .055000005 C .338 .080000009 .347 .104 .356 .126 C .372 .16900002 .41700004 .28800003 .41700004 .34600003 C .41700004 .411 .377 .45300005 .30200003 .45300005 C .239 .45300005 .191 .42200003 .154 .37600003 L .232 .694 Z "/>
</symbol>
<use xlink:href="#font_0_2" transform="matrix(9.9626,0,0,-9.9626,218.00595,54.18259)"/>
<use xlink:href="#font_0_2" transform="matrix(9.9626,0,0,-9.9626,81.94194,54.18259)"/>
<path transform="matrix(1,0,0,-1,91.068,82.362)" d="M -90.55074 0 C -90.55074 .08801 -90.6221 .15938 -90.71013 .15938 C -90.79814 .15938 -90.8695 .08801 -90.8695 0 C -90.8695 -.08801 -90.79814 -.15938 -90.71013 -.15938 C -90.6221 -.15938 -90.55074 -.08801 -90.55074 0 Z M -90.71013 0 " fill="#ffffff"/>
<path transform="matrix(1,0,0,-1,91.068,82.362)" stroke-width=".3985" stroke-linecap="round" stroke-linejoin="round" fill="none" stroke="#000000" d="M -90.55074 0 C -90.55074 .08801 -90.6221 .15938 -90.71013 .15938 C -90.79814 .15938 -90.8695 .08801 -90.8695 0 C -90.8695 -.08801 -90.79814 -.15938 -90.71013 -.15938 C -90.6221 -.15938 -90.55074 -.08801 -90.55074 0 Z M -90.71013 0 "/>
<path transform="matrix(1,0,0,-1,91.068,82.362)" d="M 249.61226 0 C 249.61226 .08801 249.54088 .15938 249.45287 .15938 C 249.36484 .15938 249.29347 .08801 249.29347 0 C 249.29347 -.08801 249.36484 -.15938 249.45287 -.15938 C 249.54088 -.15938 249.61226 -.08801 249.61226 0 Z M 249.45287 0 " fill="#ffffff"/>
<path transform="matrix(1,0,0,-1,91.068,82.362)" stroke-width=".3985" stroke-linecap="round" stroke-linejoin="round" fill="none" stroke="#000000" d="M 249.61226 0 C 249.61226 .08801 249.54088 .15938 249.45287 .15938 C 249.36484 .15938 249.29347 .08801 249.29347 0 C 249.29347 -.08801 249.36484 -.15938 249.45287 -.15938 C 249.54088 -.15938 249.61226 -.08801 249.61226 0 Z M 249.45287 0 "/>
</g>
</svg>
