<?xml version="1.0" encoding="UTF-8" standalone="no"?>
<!DOCTYPE svg PUBLIC "-//W3C//DTD SVG 1.1//EN" "http://www.w3.org/Graphics/SVG/1.1/DTD/svg11.dtd">
<svg xmlns="http://www.w3.org/2000/svg" xmlns:xlink="http://www.w3.org/1999/xlink" version="1.1" width="340.876pt" height="68.829pt" viewBox="0 0 340.876 68.829">
<g enable-background="new">
<path transform="matrix(1,0,0,-1,91.068,68.431)" stroke-width=".79701" stroke-linecap="round" stroke-linejoin="round" fill="none" stroke="#000000" d="M 0 0 L 45.35506 68.0326 L 136.0652 68.0326 L 158.74274 0 Z "/>
<path transform="matrix(1,0,0,-1,91.068,68.431)" stroke-width=".79701" stroke-linecap="round" stroke-linejoin="round" fill="none" stroke="#000000" d="M 0 0 L 136.0652 68.0326 "/>
<path transform="matrix(1,0,0,-1,91.068,68.431)" d="M -90.55074 0 C -90.55074 .08801 -90.6221 .15938 -90.71013 .15938 C -90.79814 .15938 -90.8695 .08801 -90.8695 0 C -90.8695 -.08801 -90.79814 -.15938 -90.71013 -.15938 C -90.6221 -.15938 -90.55074 -.08801 -90.55074 0 Z M -90.71013 0 " fill="#ffffff"/>
<path transform="matrix(1,0,0,-1,91.068,68.431)" stroke-width=".3985" stroke-linecap="round" stroke-linejoin="round" fill="none" stroke="#000000" d="M -90.55074 0 C -90.55074 .08801 -90.6221 .15938 -90.71013 .15938 C -90.79814 .15938 -90.8695 .08801 -90.8695 0 C -90.8695 -.08801 -90.79814 -.15938 -90.71013 -.15938 C -90.6221 -.15938 -90.55074 -.08801 -90.55074 0 Z M -90.71013 0 "/>
<path transform="matrix(1,0,0,-1,91.068,68.431)" d="M 249.61226 0 C 249.61226 .08801 249.54088 .15938 249.45287 .15938 C 249.36484 .15938 249.29347 .08801 249.29347 0 C 249.29347 -.08801 249.36484 -.15938 249.45287 -.15938 C 249.54088 -.15938 249.61226 -.08801 249.61226 0 Z M 249.45287 0 " fill="#ffffff"/>
<path transform="matrix(1,0,0,-1,91.068,68.431)" stroke-width=".3985" stroke-linecap="round" stroke-linejoin="round" fill="none" stroke="#000000" d="M 249.61226 0 C 249.61226 .08801 249.54088 .15938 249.45287 .15938 C 249.36484 .15938 249.29347 .08801 249.29347 0 C 249.29347 -.08801 249.36484 -.15938 249.45287 -.15938 C 249.54088 -.15938 249.61226 -.08801 249.61226 0 Z M 249.45287 0 "/>
</g>
</svg>
