<?xml version="1.0" encoding="UTF-8" standalone="no"?>
<!DOCTYPE svg PUBLIC "-//W3C//DTD SVG 1.1//EN" "http://www.w3.org/Graphics/SVG/1.1/DTD/svg11.dtd">
<svg xmlns="http://www.w3.org/2000/svg" xmlns:xlink="http://www.w3.org/1999/xlink" version="1.1" width="385.506pt" height="95.243pt" viewBox="0 0 385.506 95.243">
<g enable-background="new">
<clipPath id="cp0">
<path transform="matrix(1,0,0,-1,79.369,47.621999)" d="M -79.36984 -47.62186 L -79.36984 47.62186 L 306.14085 47.62186 L 306.14085 -47.62186 Z M 306.14085 47.62186 "/>
</clipPath>
<g clip-path="url(#cp0)">
<path transform="matrix(1,0,0,-1,79.369,47.621999)" stroke-width=".79701" stroke-linecap="round" stroke-linejoin="round" fill="none" stroke="#000000" d="M 17.00783 0 C 17.00783 15.65546 4.31691 28.34637 -11.33855 28.34637 C -26.994 28.34637 -39.68492 15.65546 -39.68492 0 C -39.68492 -15.65546 -26.994 -28.34637 -11.33855 -28.34637 C 4.31691 -28.34637 17.00783 -15.65546 17.00783 0 Z M -11.33855 0 "/>
<path transform="matrix(1,0,0,-1,79.369,47.621999)" stroke-width=".79701" stroke-linecap="round" stroke-linejoin="round" fill="none" stroke="#000000" d="M 85.03912 0 C 85.03912 15.65546 72.34822 28.34637 56.69275 28.34637 C 41.03728 28.34637 28.34636 15.65546 28.34636 0 C 28.34636 -15.65546 41.03728 -28.34637 56.69275 -28.34637 C 72.34822 -28.34637 85.03912 -15.65546 85.03912 0 Z M 56.69275 0 "/>
<path transform="matrix(1,0,0,-1,79.369,47.621999)" stroke-width=".79701" stroke-linecap="round" stroke-linejoin="round" fill="none" stroke="#000000" d="M -56.69275 45.35419 L -56.69275 -45.35419 "/>
<path transform="matrix(1,0,0,-1,79.369,47.621999)" stroke-width=".79701" stroke-linecap="round" stroke-linejoin="round" fill="none" stroke="#000000" d="M -56.69275 -45.35419 L 102.04694 -45.35419 "/>
<path transform="matrix(1,0,0,-1,79.369,47.621999)" stroke-width=".79701" stroke-linecap="round" stroke-linejoin="round" fill="none" stroke="#000000" d="M 102.04694 -45.35419 L 102.04694 45.35419 "/>
<path transform="matrix(1,0,0,-1,79.369,47.621999)" stroke-width=".79701" stroke-linecap="round" stroke-linejoin="round" fill="none" stroke="#000000" d="M 102.04694 45.35419 L -56.69275 45.35419 "/>
<symbol id="font_1_5">
<path d="M .44200004 .386 L .61100009 .58500006 C .628 .605 .66800007 .652 .76800009 .652 L .77300009 .683 C .73700007 .68200007 .69500008 .68 .66200008 .68 C .62200006 .68 .57500007 .68 .535 .683 L .531 .657 C .531 .65400007 .53200009 .65300008 .54 .651 C .582 .64400008 .58500006 .619 .58500006 .611 C .58500006 .59900006 .58000007 .59300008 .57100006 .583 L .42900003 .41400004 L .33400003 .60400006 C .32700003 .61600008 .32700003 .61800006 .32700003 .62 C .32700003 .634 .35500003 .651 .39800004 .652 L .40300004 .683 C .36700005 .68 .29500003 .68 .256 .68 C .22900002 .68 .16600001 .68100008 .127 .683 C .126 .674 .122999999 .66 .12200001 .652 L .138 .652 C .202 .652 .214 .64500007 .23100002 .611 L .36600004 .33900003 L .157 .09200001 C .113000009 .040000004 .049000008 .031000002 .005000001 .031000002 C .0030000006 .021000002 .0020000004 .010000001 0 0 C .036000004 .001 .07800001 .003 .111 .003 C .15100001 .003 .19800002 .003 .23800002 0 L .244 .030000002 C .222 .031000002 .18800001 .043 .18800001 .072000008 C .18800001 .075 .18900001 .085 .202 .101 L .38000003 .31100003 L .49500007 .07700001 C .50100007 .065000008 .50100007 .063 .50100007 .062000004 C .50100007 .051000004 .476 .032 .43100003 .031000002 C .43000005 .022000002 .42700006 .008 .42600004 0 C .46100004 .003 .535 .003 .573 .003 C .6 .003 .66300007 .002 .702 0 C .70400008 .010000001 .70500007 .021000002 .707 .031000002 L .69000008 .031000002 C .63000008 .031000002 .61500009 .038000004 .6 .068 L .44200004 .386 Z "/>
</symbol>
<use xlink:href="#font_1_5" transform="matrix(9.9626,0,0,-9.9626,58.382108,33.203996)"/>
<symbol id="font_1_6">
<path d="M .587 .586 C .633 .64500007 .68700006 .651 .726 .652 L .731 .683 C .70000007 .68100008 .66 .68 .633 .68 C .60300007 .68 .545 .68200007 .51900008 .683 L .514 .652 C .549 .652 .56500008 .637 .56500008 .61800006 C .56500008 .60400006 .55600008 .59300008 .549 .58400008 L .33900003 .31500004 L .20900002 .605 C .20300001 .61800006 .20300001 .623 .20300001 .624 C .20300001 .652 .25100003 .652 .277 .652 L .282 .683 C .24700001 .68 .17300001 .68 .13500002 .68 C .104 .68 .041999997 .68100008 .004999995 .683 L 0 .652 C .07800001 .652 .089 .648 .104 .614 L .256 .27400003 C .24200002 .18200001 .24000001 .16700001 .22300002 .075 C .22100002 .063 .21800003 .041 .199 .036000004 C .17700002 .031000002 .146 .031000002 .113000009 .031000002 L .10800001 0 C .144 .003 .215 .003 .254 .003 C .293 .003 .36400003 .003 .40000005 0 L .40500004 .031000002 C .377 .031000002 .36200003 .031000002 .342 .033 C .32000003 .035 .30800004 .039 .30800004 .060000004 C .30800004 .076000008 .33800004 .24300002 .34300003 .273 L .587 .586 Z "/>
</symbol>
<use xlink:href="#font_1_6" transform="matrix(9.9626,0,0,-9.9626,142.10951,33.203996)"/>
<symbol id="font_1_1">
<path d="M .162 .00999999 C .162 .0119999949 .162 .013999984 .15200001 .024999991 C .12799999 .054999994 .055000009 .145 .055000009 .338 C .055000009 .393 .063999999 .762 .312 .97400006 C .324 .985 .32500003 .98600009 .32500003 .99 C .32500003 .99700006 .321 1 .31500004 1 C .305 1 .257 .96300008 .20200002 .907 C .09900001 .801 0 .592 0 .36900003 C 0 .303 .010000005 .21700001 .046000005 .137 C .078999999 .06299999 .13800001 0 .15200001 0 C .15799999 0 .162 .003999993 .162 .00999999 Z "/>
</symbol>
<symbol id="font_1_3">
<path d="M .482 .693 C .47900004 .712 .47800005 .716 .462 .716 C .44700004 .716 .44300003 .712 .435 .69600006 L .12900001 .09900001 C .10700001 .057000005 .072 .031000002 .004999999 .031000002 C .0029999987 .021000002 .0020000004 .010000001 0 0 C .021000002 .001 .062000004 .003 .102 .003 C .12200001 .003 .18800001 .001 .216 0 L .222 .030000002 C .213 .030000002 .155 .034 .155 .076000008 C .155 .08400001 .155 .086 .168 .112 C .18800001 .15100001 .21200001 .2 .22800002 .22800002 L .47500003 .22800002 L .50200006 .079 C .503 .076000008 .504 .067 .504 .064 C .504 .031000002 .44000004 .031000002 .41500003 .031000002 C .414 .023000002 .411 .009000001 .41000004 0 C .44500003 .003 .51600006 .003 .554 .003 C .597 .003 .643 .002 .685 0 C .68600007 .009000001 .689 .023000002 .69000008 .031000002 L .674 .031000002 C .602 .031000002 .6 .041 .59400007 .075 L .482 .693 M .411 .58400008 L .46900005 .259 L .24400002 .259 L .411 .58400008 Z "/>
</symbol>
<symbol id="font_1_2">
<path d="M .32500003 .63 C .32500003 .675 .32100005 .753 .29100005 .83500006 C .25300003 .93700006 .185 1 .17400001 1 C .168 1 .163 .99700006 .163 .99 C .163 .98700007 .164 .985 .171 .97700008 C .24300002 .893 .27 .78300008 .27 .661 C .27 .523 .228 .205 .014 .026999996 C .0010000002 .013999984 0 .012999982 0 .00999999 C 0 .0029999912 .0040000008 0 .01 0 C .024 0 .089 .058 .111 .08 C .29000003 .268 .32500003 .508 .32500003 .63 Z "/>
</symbol>
<use xlink:href="#font_1_1" transform="matrix(9.9626,0,0,-9.9626,5.004177,15.94965)"/>
<use xlink:href="#font_1_3" transform="matrix(9.9626,0,0,-9.9626,7.913257,13.459)"/>
<use xlink:href="#font_1_2" transform="matrix(9.9626,0,0,-9.9626,15.235768,15.94965)"/>
<path transform="matrix(1,0,0,-1,79.369,47.621999)" stroke-width=".79701" stroke-linecap="round" stroke-linejoin="round" fill="none" stroke="#000000" d="M 248.31433 -7.93694 C 248.31433 2.08258 240.19213 10.2048 230.17259 10.2048 C 220.15305 10.2048 212.03084 2.08258 212.03084 -7.93694 C 212.03084 -17.95647 220.15305 -26.07869 230.17259 -26.07869 C 240.19213 -26.07869 248.31433 -17.95647 248.31433 -7.93694 Z M 230.17259 -7.93694 "/>
<path transform="matrix(1,0,0,-1,79.369,47.621999)" stroke-width=".79701" stroke-linecap="round" stroke-linejoin="round" fill="none" stroke="#000000" d="M 272.1252 0 C 272.1252 18.78654 256.8961 34.01566 238.10955 34.01566 C 219.32299 34.01566 204.09387 18.78654 204.09387 0 C 204.09387 -18.78654 219.32299 -34.01566 238.10955 -34.01566 C 256.8961 -34.01566 272.1252 -18.78654 272.1252 0 Z M 238.10955 0 "/>
<path transform="matrix(1,0,0,-1,79.369,47.621999)" stroke-width=".79701" stroke-linecap="round" stroke-linejoin="round" fill="none" stroke="#000000" d="M 136.06259 45.35419 L 136.06259 -45.35419 "/>
<path transform="matrix(1,0,0,-1,79.369,47.621999)" stroke-width=".79701" stroke-linecap="round" stroke-linejoin="round" fill="none" stroke="#000000" d="M 136.06259 -45.35419 L 294.80229 -45.35419 "/>
<path transform="matrix(1,0,0,-1,79.369,47.621999)" stroke-width=".79701" stroke-linecap="round" stroke-linejoin="round" fill="none" stroke="#000000" d="M 294.80229 -45.35419 L 294.80229 45.35419 "/>
<path transform="matrix(1,0,0,-1,79.369,47.621999)" stroke-width=".79701" stroke-linecap="round" stroke-linejoin="round" fill="none" stroke="#000000" d="M 294.80229 45.35419 L 136.06259 45.35419 "/>
<use xlink:href="#font_1_5" transform="matrix(9.9626,0,0,-9.9626,299.8901,52.478998)"/>
<use xlink:href="#font_1_6" transform="matrix(9.9626,0,0,-9.9626,334.86253,33.203996)"/>
<symbol id="font_1_4">
<path d="M .11400001 .683 L .10900001 .652 C .12300001 .652 .15200001 .652 .16800002 .651 C .19000001 .648 .20600002 .646 .20600002 .624 C .20600002 .61700007 .20400001 .60800006 .20300001 .6 L .11500001 .075 C .111 .051000004 .10800001 .039 .07800001 .034 C .059000005 .031000002 .025000003 .031000002 .004999999 .031000002 L 0 0 L .391 0 C .538 0 .647 .106000009 .647 .20500002 C .647 .294 .568 .34800003 .481 .35700003 C .582 .37600003 .675 .44500003 .675 .53400006 C .675 .61600008 .59900006 .683 .477 .683 L .11400001 .683 M .24700003 .36600004 L .289 .615 C .294 .64400008 .29500003 .652 .345 .652 L .46500004 .652 C .56200006 .652 .578 .57500007 .578 .53900006 C .578 .45700003 .507 .36600004 .39000003 .36600004 L .24700003 .36600004 M .24200003 .031000002 C .214 .031000002 .19500001 .031000002 .19500001 .052 C .19500001 .055000005 .19500001 .057000005 .19800002 .072000008 L .244 .344 L .42900003 .344 C .531 .344 .54800006 .25500003 .54800006 .215 C .54800006 .123 .47500003 .031000002 .363 .031000002 L .24200003 .031000002 Z "/>
</symbol>
<use xlink:href="#font_1_1" transform="matrix(9.9626,0,0,-9.9626,197.75717,15.94965)"/>
<use xlink:href="#font_1_4" transform="matrix(9.9626,0,0,-9.9626,200.70612,13.459)"/>
<use xlink:href="#font_1_2" transform="matrix(9.9626,0,0,-9.9626,207.57035,15.94965)"/>
</g>
</g>
</svg>
