<?xml version="1.0" encoding="UTF-8" standalone="no"?>
<!DOCTYPE svg PUBLIC "-//W3C//DTD SVG 1.1//EN" "http://www.w3.org/Graphics/SVG/1.1/DTD/svg11.dtd">
<svg xmlns="http://www.w3.org/2000/svg" xmlns:xlink="http://www.w3.org/1999/xlink" version="1.1" width="385.506pt" height="208.627pt" viewBox="0 0 385.506 208.627">
<g enable-background="new">
<clipPath id="cp0">
<path transform="matrix(1,0,0,-1,79.369,47.621995)" d="M -79.36984 -161.00737 L -79.36984 47.62186 L 306.14085 47.62186 L 306.14085 -161.00737 Z M 306.14085 47.62186 "/>
</clipPath>
<g clip-path="url(#cp0)">
<path transform="matrix(1,0,0,-1,79.369,47.621995)" d="M 34.01566 0 C 34.01566 18.78654 18.78654 34.01566 0 34.01566 C -18.78654 34.01566 -34.01566 18.78654 -34.01566 0 C -34.01566 -18.78654 -18.78654 -34.01566 0 -34.01566 C 18.78654 -34.01566 34.01566 -18.78654 34.01566 0 Z M 0 0 " fill="#bfbfbf"/>
<path transform="matrix(1,0,0,-1,79.369,47.621995)" stroke-width=".79701" stroke-linecap="round" stroke-linejoin="round" fill="none" stroke="#bfbfbf" d="M 34.01566 0 C 34.01566 18.78654 18.78654 34.01566 0 34.01566 C -18.78654 34.01566 -34.01566 18.78654 -34.01566 0 C -34.01566 -18.78654 -18.78654 -34.01566 0 -34.01566 C 18.78654 -34.01566 34.01566 -18.78654 34.01566 0 Z M 0 0 "/>
<path transform="matrix(1,0,0,-1,79.369,47.621995)" d="M 79.36984 0 C 79.36984 18.78654 64.14075 34.01566 45.35419 34.01566 C 26.56763 34.01566 11.33853 18.78654 11.33853 0 C 11.33853 -18.78654 26.56763 -34.01566 45.35419 -34.01566 C 64.14075 -34.01566 79.36984 -18.78654 79.36984 0 Z M 45.35419 0 " fill="#bfbfbf"/>
<path transform="matrix(1,0,0,-1,79.369,47.621995)" stroke-width=".79701" stroke-linecap="round" stroke-linejoin="round" fill="none" stroke="#bfbfbf" d="M 79.36984 0 C 79.36984 18.78654 64.14075 34.01566 45.35419 34.01566 C 26.56763 34.01566 11.33853 18.78654 11.33853 0 C 11.33853 -18.78654 26.56763 -34.01566 45.35419 -34.01566 C 64.14075 -34.01566 79.36984 -18.78654 79.36984 0 Z M 45.35419 0 "/>
<path transform="matrix(1,0,0,-1,79.369,47.621995)" d="M 22.65286 -25.37314 L 24.37555 -23.72311 L 25.97885 -21.95631 L 27.45396 -20.08102 L 28.79463 -18.10661 L 29.99309 -16.04396 L 31.04414 -13.90189 L 31.94208 -11.6913 L 32.68274 -9.42311 L 33.26355 -7.10872 L 33.68034 -4.75955 L 33.93053 -2.38704 L 34.01512 -.00206 L 33.93155 2.38184 L 33.68086 4.75436 L 33.26509 7.10406 L 32.68431 9.41792 L 31.94415 11.68663 L 31.0457 13.89722 L 29.99568 16.03928 L 28.79724 18.10246 L 27.4576 20.07687 L 25.98196 21.95216 L 24.37918 23.71948 L 22.65651 25.37003 " fill="#ffffff"/>
<path transform="matrix(1,0,0,-1,79.369,47.621995)" stroke-width=".79701" stroke-linecap="round" stroke-linejoin="round" fill="none" stroke="#ffffff" d="M 22.65286 -25.37314 L 24.37555 -23.72311 L 25.97885 -21.95631 L 27.45396 -20.08102 L 28.79463 -18.10661 L 29.99309 -16.04396 L 31.04414 -13.90189 L 31.94208 -11.6913 L 32.68274 -9.42311 L 33.26355 -7.10872 L 33.68034 -4.75955 L 33.93053 -2.38704 L 34.01512 -.00206 L 33.93155 2.38184 L 33.68086 4.75436 L 33.26509 7.10406 L 32.68431 9.41792 L 31.94415 11.68663 L 31.0457 13.89722 L 29.99568 16.03928 L 28.79724 18.10246 L 27.4576 20.07687 L 25.98196 21.95216 L 24.37918 23.71948 L 22.65651 25.37003 "/>
<path transform="matrix(1,0,0,-1,79.369,47.621995)" d="M 22.66602 25.342 L 20.94696 23.69093 L 19.34833 21.92361 L 17.87633 20.04884 L 16.53983 18.07547 L 15.34499 16.01334 L 14.29706 13.8723 L 13.4017 11.6638 L 12.66365 9.39716 L 12.08543 7.08536 L 11.67125 4.73828 L 11.42159 2.36784 L 11.33905 -.01347 L 11.42366 -2.39586 L 11.67488 -4.76526 L 12.09166 -7.11237 L 12.67143 -9.42365 L 13.41158 -11.68924 L 14.30847 -13.89774 L 15.35797 -16.03773 L 16.55487 -18.09883 L 17.89243 -20.07117 L 19.36649 -21.94489 L 20.96617 -23.71065 L 22.68678 -25.36015 " fill="#ffffff"/>
<path transform="matrix(1,0,0,-1,79.369,47.621995)" stroke-width=".79701" stroke-linecap="round" stroke-linejoin="round" fill="none" stroke="#ffffff" d="M 22.66602 25.342 L 20.94696 23.69093 L 19.34833 21.92361 L 17.87633 20.04884 L 16.53983 18.07547 L 15.34499 16.01334 L 14.29706 13.8723 L 13.4017 11.6638 L 12.66365 9.39716 L 12.08543 7.08536 L 11.67125 4.73828 L 11.42159 2.36784 L 11.33905 -.01347 L 11.42366 -2.39586 L 11.67488 -4.76526 L 12.09166 -7.11237 L 12.67143 -9.42365 L 13.41158 -11.68924 L 14.30847 -13.89774 L 15.35797 -16.03773 L 16.55487 -18.09883 L 17.89243 -20.07117 L 19.36649 -21.94489 L 20.96617 -23.71065 L 22.68678 -25.36015 "/>
<path transform="matrix(1,0,0,-1,79.369,47.621995)" stroke-width=".79701" stroke-linecap="round" stroke-linejoin="round" fill="none" stroke="#000000" d="M 34.01566 0 C 34.01566 18.78654 18.78654 34.01566 0 34.01566 C -18.78654 34.01566 -34.01566 18.78654 -34.01566 0 C -34.01566 -18.78654 -18.78654 -34.01566 0 -34.01566 C 18.78654 -34.01566 34.01566 -18.78654 34.01566 0 Z M 0 0 "/>
<path transform="matrix(1,0,0,-1,79.369,47.621995)" stroke-width=".79701" stroke-linecap="round" stroke-linejoin="round" fill="none" stroke="#000000" d="M 79.36984 0 C 79.36984 18.78654 64.14075 34.01566 45.35419 34.01566 C 26.56763 34.01566 11.33853 18.78654 11.33853 0 C 11.33853 -18.78654 26.56763 -34.01566 45.35419 -34.01566 C 64.14075 -34.01566 79.36984 -18.78654 79.36984 0 Z M 45.35419 0 "/>
<path transform="matrix(1,0,0,-1,79.369,47.621995)" stroke-width=".79701" stroke-linecap="round" stroke-linejoin="round" fill="none" stroke="#000000" d="M -56.69275 45.35419 L -56.69275 -45.35419 "/>
<path transform="matrix(1,0,0,-1,79.369,47.621995)" stroke-width=".79701" stroke-linecap="round" stroke-linejoin="round" fill="none" stroke="#000000" d="M -56.69275 -45.35419 L 102.04694 -45.35419 "/>
<path transform="matrix(1,0,0,-1,79.369,47.621995)" stroke-width=".79701" stroke-linecap="round" stroke-linejoin="round" fill="none" stroke="#000000" d="M 102.04694 -45.35419 L 102.04694 45.35419 "/>
<path transform="matrix(1,0,0,-1,79.369,47.621995)" stroke-width=".79701" stroke-linecap="round" stroke-linejoin="round" fill="none" stroke="#000000" d="M 102.04694 45.35419 L -56.69275 45.35419 "/>
<symbol id="font_1_7">
<path d="M .44200004 .386 L .61100009 .58500006 C .628 .605 .66800007 .652 .76800009 .652 L .77300009 .683 C .73700007 .68200007 .69500008 .68 .66200008 .68 C .62200006 .68 .57500007 .68 .535 .683 L .531 .657 C .531 .65400007 .53200009 .65300008 .54 .651 C .582 .64400008 .58500006 .619 .58500006 .611 C .58500006 .59900006 .58000007 .59300008 .57100006 .583 L .42900003 .41400004 L .33400003 .60400006 C .32700003 .61600008 .32700003 .61800006 .32700003 .62 C .32700003 .634 .35500003 .651 .39800004 .652 L .40300004 .683 C .36700005 .68 .29500003 .68 .256 .68 C .22900002 .68 .16600001 .68100008 .127 .683 C .126 .674 .122999999 .66 .12200001 .652 L .138 .652 C .202 .652 .214 .64500007 .23100002 .611 L .36600004 .33900003 L .157 .09200001 C .113000009 .040000004 .049000008 .031000002 .005000001 .031000002 C .0030000006 .021000002 .0020000004 .010000001 0 0 C .036000004 .001 .07800001 .003 .111 .003 C .15100001 .003 .19800002 .003 .23800002 0 L .244 .030000002 C .222 .031000002 .18800001 .043 .18800001 .072000008 C .18800001 .075 .18900001 .085 .202 .101 L .38000003 .31100003 L .49500007 .07700001 C .50100007 .065000008 .50100007 .063 .50100007 .062000004 C .50100007 .051000004 .476 .032 .43100003 .031000002 C .43000005 .022000002 .42700006 .008 .42600004 0 C .46100004 .003 .535 .003 .573 .003 C .6 .003 .66300007 .002 .702 0 C .70400008 .010000001 .70500007 .021000002 .707 .031000002 L .69000008 .031000002 C .63000008 .031000002 .61500009 .038000004 .6 .068 L .44200004 .386 Z "/>
</symbol>
<use xlink:href="#font_1_7" transform="matrix(9.9626,0,0,-9.9626,60.650106,33.203996)"/>
<symbol id="font_1_8">
<path d="M .587 .586 C .633 .64500007 .68700006 .651 .726 .652 L .731 .683 C .70000007 .68100008 .66 .68 .633 .68 C .60300007 .68 .545 .68200007 .51900008 .683 L .514 .652 C .549 .652 .56500008 .637 .56500008 .61800006 C .56500008 .60400006 .55600008 .59300008 .549 .58400008 L .33900003 .31500004 L .20900002 .605 C .20300001 .61800006 .20300001 .623 .20300001 .624 C .20300001 .652 .25100003 .652 .277 .652 L .282 .683 C .24700001 .68 .17300001 .68 .13500002 .68 C .104 .68 .041999997 .68100008 .004999995 .683 L 0 .652 C .07800001 .652 .089 .648 .104 .614 L .256 .27400003 C .24200002 .18200001 .24000001 .16700001 .22300002 .075 C .22100002 .063 .21800003 .041 .199 .036000004 C .17700002 .031000002 .146 .031000002 .113000009 .031000002 L .10800001 0 C .144 .003 .215 .003 .254 .003 C .293 .003 .36400003 .003 .40000005 0 L .40500004 .031000002 C .377 .031000002 .36200003 .031000002 .342 .033 C .32000003 .035 .30800004 .039 .30800004 .060000004 C .30800004 .076000008 .33800004 .24300002 .34300003 .273 L .587 .586 Z "/>
</symbol>
<use xlink:href="#font_1_8" transform="matrix(9.9626,0,0,-9.9626,142.10951,33.203996)"/>
<symbol id="font_1_1">
<path d="M .162 .00999999 C .162 .0119999949 .162 .013999984 .15200001 .024999991 C .12799999 .054999994 .055000009 .145 .055000009 .338 C .055000009 .393 .063999999 .762 .312 .97400006 C .324 .985 .32500003 .98600009 .32500003 .99 C .32500003 .99700006 .321 1 .31500004 1 C .305 1 .257 .96300008 .20200002 .907 C .09900001 .801 0 .592 0 .36900003 C 0 .303 .010000005 .21700001 .046000005 .137 C .078999999 .06299999 .13800001 0 .15200001 0 C .15799999 0 .162 .003999993 .162 .00999999 Z "/>
</symbol>
<symbol id="font_1_3">
<path d="M .482 .693 C .47900004 .712 .47800005 .716 .462 .716 C .44700004 .716 .44300003 .712 .435 .69600006 L .12900001 .09900001 C .10700001 .057000005 .072 .031000002 .004999999 .031000002 C .0029999987 .021000002 .0020000004 .010000001 0 0 C .021000002 .001 .062000004 .003 .102 .003 C .12200001 .003 .18800001 .001 .216 0 L .222 .030000002 C .213 .030000002 .155 .034 .155 .076000008 C .155 .08400001 .155 .086 .168 .112 C .18800001 .15100001 .21200001 .2 .22800002 .22800002 L .47500003 .22800002 L .50200006 .079 C .503 .076000008 .504 .067 .504 .064 C .504 .031000002 .44000004 .031000002 .41500003 .031000002 C .414 .023000002 .411 .009000001 .41000004 0 C .44500003 .003 .51600006 .003 .554 .003 C .597 .003 .643 .002 .685 0 C .68600007 .009000001 .689 .023000002 .69000008 .031000002 L .674 .031000002 C .602 .031000002 .6 .041 .59400007 .075 L .482 .693 M .411 .58400008 L .46900005 .259 L .24400002 .259 L .411 .58400008 Z "/>
</symbol>
<symbol id="font_1_2">
<path d="M .32500003 .63 C .32500003 .675 .32100005 .753 .29100005 .83500006 C .25300003 .93700006 .185 1 .17400001 1 C .168 1 .163 .99700006 .163 .99 C .163 .98700007 .164 .985 .171 .97700008 C .24300002 .893 .27 .78300008 .27 .661 C .27 .523 .228 .205 .014 .026999996 C .0010000002 .013999984 0 .012999982 0 .00999999 C 0 .0029999912 .0040000008 0 .01 0 C .024 0 .089 .058 .111 .08 C .29000003 .268 .32500003 .508 .32500003 .63 Z "/>
</symbol>
<use xlink:href="#font_1_1" transform="matrix(9.9626,0,0,-9.9626,5.004177,15.94965)"/>
<use xlink:href="#font_1_3" transform="matrix(9.9626,0,0,-9.9626,7.913257,13.459)"/>
<use xlink:href="#font_1_2" transform="matrix(9.9626,0,0,-9.9626,15.235768,15.94965)"/>
<path transform="matrix(1,0,0,-1,79.369,47.621995)" d="M 226.77101 0 C 226.77101 18.78654 211.5419 34.01566 192.75534 34.01566 C 173.96878 34.01566 158.73969 18.78654 158.73969 0 C 158.73969 -18.78654 173.96878 -34.01566 192.75534 -34.01566 C 211.5419 -34.01566 226.77101 -18.78654 226.77101 0 Z M 192.75534 0 " fill="#bfbfbf"/>
<path transform="matrix(1,0,0,-1,79.369,47.621995)" stroke-width=".79701" stroke-linecap="round" stroke-linejoin="round" fill="none" stroke="#bfbfbf" d="M 226.77101 0 C 226.77101 18.78654 211.5419 34.01566 192.75534 34.01566 C 173.96878 34.01566 158.73969 18.78654 158.73969 0 C 158.73969 -18.78654 173.96878 -34.01566 192.75534 -34.01566 C 211.5419 -34.01566 226.77101 -18.78654 226.77101 0 Z M 192.75534 0 "/>
<path transform="matrix(1,0,0,-1,79.369,47.621995)" d="M 272.1252 0 C 272.1252 18.78654 256.8961 34.01566 238.10955 34.01566 C 219.32299 34.01566 204.09387 18.78654 204.09387 0 C 204.09387 -18.78654 219.32299 -34.01566 238.10955 -34.01566 C 256.8961 -34.01566 272.1252 -18.78654 272.1252 0 Z M 238.10955 0 " fill="#bfbfbf"/>
<path transform="matrix(1,0,0,-1,79.369,47.621995)" stroke-width=".79701" stroke-linecap="round" stroke-linejoin="round" fill="none" stroke="#bfbfbf" d="M 272.1252 0 C 272.1252 18.78654 256.8961 34.01566 238.10955 34.01566 C 219.32299 34.01566 204.09387 18.78654 204.09387 0 C 204.09387 -18.78654 219.32299 -34.01566 238.10955 -34.01566 C 256.8961 -34.01566 272.1252 -18.78654 272.1252 0 Z M 238.10955 0 "/>
<path transform="matrix(1,0,0,-1,79.369,47.621995)" stroke-width=".79701" stroke-linecap="round" stroke-linejoin="round" fill="none" stroke="#000000" d="M 226.77101 0 C 226.77101 18.78654 211.5419 34.01566 192.75534 34.01566 C 173.96878 34.01566 158.73969 18.78654 158.73969 0 C 158.73969 -18.78654 173.96878 -34.01566 192.75534 -34.01566 C 211.5419 -34.01566 226.77101 -18.78654 226.77101 0 Z M 192.75534 0 "/>
<path transform="matrix(1,0,0,-1,79.369,47.621995)" stroke-width=".79701" stroke-linecap="round" stroke-linejoin="round" fill="none" stroke="#000000" d="M 272.1252 0 C 272.1252 18.78654 256.8961 34.01566 238.10955 34.01566 C 219.32299 34.01566 204.09387 18.78654 204.09387 0 C 204.09387 -18.78654 219.32299 -34.01566 238.10955 -34.01566 C 256.8961 -34.01566 272.1252 -18.78654 272.1252 0 Z M 238.10955 0 "/>
<path transform="matrix(1,0,0,-1,79.369,47.621995)" stroke-width=".79701" stroke-linecap="round" stroke-linejoin="round" fill="none" stroke="#000000" d="M 136.06259 45.35419 L 136.06259 -45.35419 "/>
<path transform="matrix(1,0,0,-1,79.369,47.621995)" stroke-width=".79701" stroke-linecap="round" stroke-linejoin="round" fill="none" stroke="#000000" d="M 136.06259 -45.35419 L 294.80229 -45.35419 "/>
<path transform="matrix(1,0,0,-1,79.369,47.621995)" stroke-width=".79701" stroke-linecap="round" stroke-linejoin="round" fill="none" stroke="#000000" d="M 294.80229 -45.35419 L 294.80229 45.35419 "/>
<path transform="matrix(1,0,0,-1,79.369,47.621995)" stroke-width=".79701" stroke-linecap="round" stroke-linejoin="round" fill="none" stroke="#000000" d="M 294.80229 45.35419 L 136.06259 45.35419 "/>
<use xlink:href="#font_1_7" transform="matrix(9.9626,0,0,-9.9626,253.4031,33.203996)"/>
<use xlink:href="#font_1_8" transform="matrix(9.9626,0,0,-9.9626,334.86253,33.203996)"/>
<symbol id="font_1_4">
<path d="M .11400001 .683 L .10900001 .652 C .12300001 .652 .15200001 .652 .16800002 .651 C .19000001 .648 .20600002 .646 .20600002 .624 C .20600002 .61700007 .20400001 .60800006 .20300001 .6 L .11500001 .075 C .111 .051000004 .10800001 .039 .07800001 .034 C .059000005 .031000002 .025000003 .031000002 .004999999 .031000002 L 0 0 L .391 0 C .538 0 .647 .106000009 .647 .20500002 C .647 .294 .568 .34800003 .481 .35700003 C .582 .37600003 .675 .44500003 .675 .53400006 C .675 .61600008 .59900006 .683 .477 .683 L .11400001 .683 M .24700003 .36600004 L .289 .615 C .294 .64400008 .29500003 .652 .345 .652 L .46500004 .652 C .56200006 .652 .578 .57500007 .578 .53900006 C .578 .45700003 .507 .36600004 .39000003 .36600004 L .24700003 .36600004 M .24200003 .031000002 C .214 .031000002 .19500001 .031000002 .19500001 .052 C .19500001 .055000005 .19500001 .057000005 .19800002 .072000008 L .244 .344 L .42900003 .344 C .531 .344 .54800006 .25500003 .54800006 .215 C .54800006 .123 .47500003 .031000002 .363 .031000002 L .24200003 .031000002 Z "/>
</symbol>
<use xlink:href="#font_1_1" transform="matrix(9.9626,0,0,-9.9626,197.75717,15.94965)"/>
<use xlink:href="#font_1_4" transform="matrix(9.9626,0,0,-9.9626,200.70612,13.459)"/>
<use xlink:href="#font_1_2" transform="matrix(9.9626,0,0,-9.9626,207.57035,15.94965)"/>
<path transform="matrix(1,0,0,-1,79.369,47.621995)" d="M 22.65286 -138.75865 L 24.37555 -137.10863 L 25.97885 -135.34183 L 27.45396 -133.46654 L 28.79463 -131.49213 L 29.99309 -129.42948 L 31.04414 -127.28738 L 31.94208 -125.07681 L 32.68274 -122.80861 L 33.26355 -120.49423 L 33.68034 -118.14505 L 33.93053 -115.77254 L 34.01512 -113.38757 L 33.93155 -111.00365 L 33.68086 -108.63112 L 33.26509 -106.28143 L 32.68431 -103.96758 L 31.94415 -101.69885 L 31.0457 -99.48828 L 29.99568 -97.3462 L 28.79724 -95.28304 L 27.4576 -93.30861 L 25.98196 -91.43332 L 24.37918 -89.666 L 22.65651 -88.01546 " fill="#bfbfbf"/>
<path transform="matrix(1,0,0,-1,79.369,47.621995)" stroke-width=".79701" stroke-linecap="round" stroke-linejoin="round" fill="none" stroke="#bfbfbf" d="M 22.65286 -138.75865 L 24.37555 -137.10863 L 25.97885 -135.34183 L 27.45396 -133.46654 L 28.79463 -131.49213 L 29.99309 -129.42948 L 31.04414 -127.28738 L 31.94208 -125.07681 L 32.68274 -122.80861 L 33.26355 -120.49423 L 33.68034 -118.14505 L 33.93053 -115.77254 L 34.01512 -113.38757 L 33.93155 -111.00365 L 33.68086 -108.63112 L 33.26509 -106.28143 L 32.68431 -103.96758 L 31.94415 -101.69885 L 31.0457 -99.48828 L 29.99568 -97.3462 L 28.79724 -95.28304 L 27.4576 -93.30861 L 25.98196 -91.43332 L 24.37918 -89.666 L 22.65651 -88.01546 "/>
<path transform="matrix(1,0,0,-1,79.369,47.621995)" d="M 22.66602 -88.0435 L 20.94696 -89.69455 L 19.34833 -91.46187 L 17.87633 -93.33664 L 16.53983 -95.31003 L 15.34499 -97.37216 L 14.29706 -99.5132 L 13.4017 -101.7217 L 12.66365 -103.98834 L 12.08543 -106.30013 L 11.67125 -108.64722 L 11.42159 -111.01765 L 11.33905 -113.39899 L 11.42366 -115.78136 L 11.67488 -118.15077 L 12.09166 -120.49786 L 12.67143 -122.80914 L 13.41158 -125.07474 L 14.30847 -127.28323 L 15.35797 -129.42324 L 16.55487 -131.48433 L 17.89243 -133.45667 L 19.36649 -135.33039 L 20.96617 -137.09616 L 22.68678 -138.74567 " fill="#bfbfbf"/>
<path transform="matrix(1,0,0,-1,79.369,47.621995)" stroke-width=".79701" stroke-linecap="round" stroke-linejoin="round" fill="none" stroke="#bfbfbf" d="M 22.66602 -88.0435 L 20.94696 -89.69455 L 19.34833 -91.46187 L 17.87633 -93.33664 L 16.53983 -95.31003 L 15.34499 -97.37216 L 14.29706 -99.5132 L 13.4017 -101.7217 L 12.66365 -103.98834 L 12.08543 -106.30013 L 11.67125 -108.64722 L 11.42159 -111.01765 L 11.33905 -113.39899 L 11.42366 -115.78136 L 11.67488 -118.15077 L 12.09166 -120.49786 L 12.67143 -122.80914 L 13.41158 -125.07474 L 14.30847 -127.28323 L 15.35797 -129.42324 L 16.55487 -131.48433 L 17.89243 -133.45667 L 19.36649 -135.33039 L 20.96617 -137.09616 L 22.68678 -138.74567 "/>
<path transform="matrix(1,0,0,-1,79.369,47.621995)" stroke-width=".79701" stroke-linecap="round" stroke-linejoin="round" fill="none" stroke="#000000" d="M 34.01566 -113.3855 C 34.01566 -94.59894 18.78654 -79.36984 0 -79.36984 C -18.78654 -79.36984 -34.01566 -94.59894 -34.01566 -113.3855 C -34.01566 -132.17206 -18.78654 -147.40116 0 -147.40116 C 18.78654 -147.40116 34.01566 -132.17206 34.01566 -113.3855 Z M 0 -113.3855 "/>
<path transform="matrix(1,0,0,-1,79.369,47.621995)" stroke-width=".79701" stroke-linecap="round" stroke-linejoin="round" fill="none" stroke="#000000" d="M 79.36984 -113.3855 C 79.36984 -94.59894 64.14075 -79.36984 45.35419 -79.36984 C 26.56763 -79.36984 11.33853 -94.59894 11.33853 -113.3855 C 11.33853 -132.17206 26.56763 -147.40116 45.35419 -147.40116 C 64.14075 -147.40116 79.36984 -132.17206 79.36984 -113.3855 Z M 45.35419 -113.3855 "/>
<path transform="matrix(1,0,0,-1,79.369,47.621995)" stroke-width=".79701" stroke-linecap="round" stroke-linejoin="round" fill="none" stroke="#000000" d="M -56.69275 -68.03131 L -56.69275 -158.73969 "/>
<path transform="matrix(1,0,0,-1,79.369,47.621995)" stroke-width=".79701" stroke-linecap="round" stroke-linejoin="round" fill="none" stroke="#000000" d="M -56.69275 -158.73969 L 102.04694 -158.73969 "/>
<path transform="matrix(1,0,0,-1,79.369,47.621995)" stroke-width=".79701" stroke-linecap="round" stroke-linejoin="round" fill="none" stroke="#000000" d="M 102.04694 -158.73969 L 102.04694 -68.03131 "/>
<path transform="matrix(1,0,0,-1,79.369,47.621995)" stroke-width=".79701" stroke-linecap="round" stroke-linejoin="round" fill="none" stroke="#000000" d="M 102.04694 -68.03131 L -56.69275 -68.03131 "/>
<use xlink:href="#font_1_7" transform="matrix(9.9626,0,0,-9.9626,60.650106,146.588)"/>
<use xlink:href="#font_1_8" transform="matrix(9.9626,0,0,-9.9626,142.10951,146.588)"/>
<symbol id="font_1_5">
<path d="M .67300006 .716 C .67300006 .72400006 .66700008 .72700008 .6610001 .72700008 C .65700009 .72700008 .65400007 .725 .65200009 .72200009 C .65000006 .7210001 .6470001 .716 .64500007 .71400007 L .5910001 .65200009 C .58300009 .64400008 .58300009 .64300009 .5820001 .64300009 C .58100005 .64300009 .58000007 .64400008 .5730001 .651 C .52800008 .7070001 .47100006 .72700008 .41100005 .72700008 C .20500002 .72700008 0 .53200009 0 .30300004 C 0 .120000008 .13300002 0 .294 0 C .37 0 .44000004 .031000004 .49500004 .080000009 C .58500006 .16100002 .59700009 .26000003 .59700009 .261 C .59700009 .27100004 .59000006 .272 .58500006 .272 C .5820001 .272 .57400009 .272 .572 .263 C .56500008 .23300001 .549 .15900001 .47800002 .09900001 C .418 .048 .361 .031000004 .30900003 .031000004 C .21900001 .031000004 .099000018 .087000008 .099000018 .268 C .099000018 .28200004 .099000018 .44900004 .19 .573 C .238 .6380001 .326 .69600006 .42100004 .69600006 C .54100009 .69600006 .59900006 .58800008 .59900006 .47700004 C .59900006 .46900005 .59800007 .46100004 .59800007 .45200003 C .59900006 .44200004 .60700008 .44200004 .61300006 .44200004 C .61500009 .44200004 .623 .44200004 .62700006 .44500003 L .67300006 .716 Z "/>
</symbol>
<use xlink:href="#font_1_1" transform="matrix(9.9626,0,0,-9.9626,5.004177,129.33364)"/>
<use xlink:href="#font_1_5" transform="matrix(9.9626,0,0,-9.9626,8.670415,127.062168)"/>
<use xlink:href="#font_1_2" transform="matrix(9.9626,0,0,-9.9626,14.956815,129.33364)"/>
<path transform="matrix(1,0,0,-1,79.369,47.621995)" d="M 226.77101 -113.3855 C 226.77101 -94.59894 211.5419 -79.36984 192.75534 -79.36984 C 173.96878 -79.36984 158.73969 -94.59894 158.73969 -113.3855 C 158.73969 -132.17206 173.96878 -147.40116 192.75534 -147.40116 C 211.5419 -147.40116 226.77101 -132.17206 226.77101 -113.3855 Z M 192.75534 -113.3855 " fill="#bfbfbf"/>
<path transform="matrix(1,0,0,-1,79.369,47.621995)" stroke-width=".79701" stroke-linecap="round" stroke-linejoin="round" fill="none" stroke="#bfbfbf" d="M 226.77101 -113.3855 C 226.77101 -94.59894 211.5419 -79.36984 192.75534 -79.36984 C 173.96878 -79.36984 158.73969 -94.59894 158.73969 -113.3855 C 158.73969 -132.17206 173.96878 -147.40116 192.75534 -147.40116 C 211.5419 -147.40116 226.77101 -132.17206 226.77101 -113.3855 Z M 192.75534 -113.3855 "/>
<path transform="matrix(1,0,0,-1,79.369,47.621995)" d="M 215.4082 -138.75865 L 217.1309 -137.10863 L 218.7342 -135.34183 L 220.20932 -133.46654 L 221.54999 -131.49213 L 222.74845 -129.42948 L 223.7995 -127.28738 L 224.69742 -125.07681 L 225.4381 -122.80861 L 226.0189 -120.49423 L 226.4357 -118.14505 L 226.68587 -115.77254 L 226.77048 -113.38757 L 226.6869 -111.00365 L 226.43622 -108.63112 L 226.02045 -106.28143 L 225.43967 -103.96758 L 224.69951 -101.69885 L 223.80106 -99.48828 L 222.75104 -97.3462 L 221.5526 -95.28304 L 220.21295 -93.30861 L 218.73732 -91.43332 L 217.13454 -89.666 L 215.41187 -88.01546 " fill="#ffffff"/>
<path transform="matrix(1,0,0,-1,79.369,47.621995)" stroke-width=".79701" stroke-linecap="round" stroke-linejoin="round" fill="none" stroke="#ffffff" d="M 215.4082 -138.75865 L 217.1309 -137.10863 L 218.7342 -135.34183 L 220.20932 -133.46654 L 221.54999 -131.49213 L 222.74845 -129.42948 L 223.7995 -127.28738 L 224.69742 -125.07681 L 225.4381 -122.80861 L 226.0189 -120.49423 L 226.4357 -118.14505 L 226.68587 -115.77254 L 226.77048 -113.38757 L 226.6869 -111.00365 L 226.43622 -108.63112 L 226.02045 -106.28143 L 225.43967 -103.96758 L 224.69951 -101.69885 L 223.80106 -99.48828 L 222.75104 -97.3462 L 221.5526 -95.28304 L 220.21295 -93.30861 L 218.73732 -91.43332 L 217.13454 -89.666 L 215.41187 -88.01546 "/>
<path transform="matrix(1,0,0,-1,79.369,47.621995)" d="M 215.42137 -88.0435 L 213.70232 -89.69455 L 212.10369 -91.46187 L 210.63169 -93.33664 L 209.29518 -95.31003 L 208.10034 -97.37216 L 207.05242 -99.5132 L 206.15706 -101.7217 L 205.419 -103.98834 L 204.84079 -106.30013 L 204.4266 -108.64722 L 204.17694 -111.01765 L 204.0944 -113.39899 L 204.17902 -115.78136 L 204.43024 -118.15077 L 204.84702 -120.49786 L 205.42679 -122.80914 L 206.16693 -125.07474 L 207.06383 -127.28323 L 208.11333 -129.42324 L 209.31023 -131.48433 L 210.64778 -133.45667 L 212.12184 -135.33039 L 213.72153 -137.09616 L 215.44214 -138.74567 " fill="#ffffff"/>
<path transform="matrix(1,0,0,-1,79.369,47.621995)" stroke-width=".79701" stroke-linecap="round" stroke-linejoin="round" fill="none" stroke="#ffffff" d="M 215.42137 -88.0435 L 213.70232 -89.69455 L 212.10369 -91.46187 L 210.63169 -93.33664 L 209.29518 -95.31003 L 208.10034 -97.37216 L 207.05242 -99.5132 L 206.15706 -101.7217 L 205.419 -103.98834 L 204.84079 -106.30013 L 204.4266 -108.64722 L 204.17694 -111.01765 L 204.0944 -113.39899 L 204.17902 -115.78136 L 204.43024 -118.15077 L 204.84702 -120.49786 L 205.42679 -122.80914 L 206.16693 -125.07474 L 207.06383 -127.28323 L 208.11333 -129.42324 L 209.31023 -131.48433 L 210.64778 -133.45667 L 212.12184 -135.33039 L 213.72153 -137.09616 L 215.44214 -138.74567 "/>
<path transform="matrix(1,0,0,-1,79.369,47.621995)" stroke-width=".79701" stroke-linecap="round" stroke-linejoin="round" fill="none" stroke="#000000" d="M 226.77101 -113.3855 C 226.77101 -94.59894 211.5419 -79.36984 192.75534 -79.36984 C 173.96878 -79.36984 158.73969 -94.59894 158.73969 -113.3855 C 158.73969 -132.17206 173.96878 -147.40116 192.75534 -147.40116 C 211.5419 -147.40116 226.77101 -132.17206 226.77101 -113.3855 Z M 192.75534 -113.3855 "/>
<path transform="matrix(1,0,0,-1,79.369,47.621995)" stroke-width=".79701" stroke-linecap="round" stroke-linejoin="round" fill="none" stroke="#000000" d="M 272.1252 -113.3855 C 272.1252 -94.59894 256.8961 -79.36984 238.10955 -79.36984 C 219.32299 -79.36984 204.09387 -94.59894 204.09387 -113.3855 C 204.09387 -132.17206 219.32299 -147.40116 238.10955 -147.40116 C 256.8961 -147.40116 272.1252 -132.17206 272.1252 -113.3855 Z M 238.10955 -113.3855 "/>
<path transform="matrix(1,0,0,-1,79.369,47.621995)" stroke-width=".79701" stroke-linecap="round" stroke-linejoin="round" fill="none" stroke="#000000" d="M 136.06259 -68.03131 L 136.06259 -158.73969 "/>
<path transform="matrix(1,0,0,-1,79.369,47.621995)" stroke-width=".79701" stroke-linecap="round" stroke-linejoin="round" fill="none" stroke="#000000" d="M 136.06259 -158.73969 L 294.80229 -158.73969 "/>
<path transform="matrix(1,0,0,-1,79.369,47.621995)" stroke-width=".79701" stroke-linecap="round" stroke-linejoin="round" fill="none" stroke="#000000" d="M 294.80229 -158.73969 L 294.80229 -68.03131 "/>
<path transform="matrix(1,0,0,-1,79.369,47.621995)" stroke-width=".79701" stroke-linecap="round" stroke-linejoin="round" fill="none" stroke="#000000" d="M 294.80229 -68.03131 L 136.06259 -68.03131 "/>
<use xlink:href="#font_1_7" transform="matrix(9.9626,0,0,-9.9626,253.4031,146.588)"/>
<use xlink:href="#font_1_8" transform="matrix(9.9626,0,0,-9.9626,334.86253,146.588)"/>
<symbol id="font_1_6">
<path d="M .11400001 .683 L .10900001 .652 C .12300001 .652 .15200001 .652 .16800002 .651 C .19000001 .648 .20600002 .646 .20600002 .624 C .20600002 .61700007 .20400001 .60800006 .20300001 .6 L .11500001 .075 C .11100002 .051000004 .10800001 .039 .07800001 .034 C .059000005 .031000002 .025000003 .031000002 .0050000029 .031000002 L 0 0 L .36400003 0 C .555 0 .733 .18300002 .733 .40100003 C .733 .56 .633 .683 .47700004 .683 L .11400001 .683 M .29200004 .615 C .29700003 .64400008 .298 .652 .34800003 .652 L .44500003 .652 C .542 .652 .638 .597 .638 .44200004 C .638 .425 .634 .245 .556 .13900002 C .515 .08400001 .44300003 .031000002 .342 .031000002 L .245 .031000002 C .21700001 .031000002 .19800002 .031000002 .19800002 .052 C .19800002 .055000005 .19800002 .057000005 .20100002 .072000008 L .29200004 .615 Z "/>
</symbol>
<use xlink:href="#font_1_1" transform="matrix(9.9626,0,0,-9.9626,197.75717,129.33364)"/>
<use xlink:href="#font_1_6" transform="matrix(9.9626,0,0,-9.9626,200.69615,126.84299)"/>
<use xlink:href="#font_1_2" transform="matrix(9.9626,0,0,-9.9626,208.12824,129.33364)"/>
</g>
</g>
</svg>
